<?xml version="1.0" standalone="no"?>
<!DOCTYPE svg PUBLIC "-//W3C//DTD SVG 1.1//EN" "http://www.w3.org/Graphics/SVG/1.1/DTD/svg11.dtd" >
<svg xmlns="http://www.w3.org/2000/svg">
<metadata></metadata>
<defs>
<font id="snigletregular" horiz-adv-x="1406" >
<font-face units-per-em="2048" ascent="1638" descent="-410" />
<missing-glyph horiz-adv-x="428" />
<glyph unicode="&#xfb01;" horiz-adv-x="1107" d="M-47 932q0 47 25.5 74.5t101.5 27.5q47 0 96 -6v119q0 82 18.5 155.5t57.5 130t101.5 90t152.5 33.5q82 0 114.5 -23.5t32.5 -76.5t-43 -65.5t-98 -12.5q-68 0 -101.5 -59t-33.5 -145v-144q27 6 52.5 7t53.5 1q76 0 108 -24.5t32 -77.5q0 -68 -43 -87.5t-115 -19.5h-42 t-46 5v-705q0 -49 -8.5 -75.5t-22.5 -41t-32.5 -17.5t-39.5 -3q-18 0 -36.5 5t-31.5 20.5t-22.5 42t-9.5 67.5v704q-23 -2 -44 -3t-42 -1q-68 0 -101.5 21.5t-33.5 83.5zM752 1313q0 49 38 85t87 36q47 0 87 -37t40 -88q0 -49 -41 -85t-93 -36q-43 0 -80.5 36t-37.5 89z M774 514q0 145 2 248.5t11.5 170t30 98.5t56.5 32q35 0 62 -24.5t31 -106.5q12 -215 12 -416q0 -102 -4 -191t-8 -196q-2 -49 -9.5 -75.5t-19.5 -41t-27.5 -17.5t-36.5 -3q-37 0 -61.5 25.5t-28.5 109.5q-4 76 -7 173t-3 214z" />
<glyph unicode="&#xfb02;" horiz-adv-x="1103" d="M-47 932q0 47 25.5 74.5t101.5 27.5q47 0 96 -6v119q0 82 18.5 155.5t57.5 130t101.5 90t152.5 33.5q82 0 114.5 -23.5t32.5 -76.5t-43 -65.5t-98 -12.5q-68 0 -101.5 -59t-33.5 -145v-144q27 6 52.5 7t53.5 1q76 0 108 -24.5t32 -77.5q0 -68 -43 -87.5t-115 -19.5h-42 t-46 5v-705q0 -49 -8.5 -75.5t-22.5 -41t-32.5 -17.5t-39.5 -3q-18 0 -36.5 5t-31.5 20.5t-22.5 42t-9.5 67.5v704q-23 -2 -44 -3t-42 -1q-68 0 -101.5 21.5t-33.5 83.5zM772 1006q0 145 2 249.5t11.5 172t30 99.5t56.5 32q35 0 62 -23t31 -104q8 -147 10 -306t2 -313v-177 t-2 -168t-4 -169t-6 -178q-2 -49 -9.5 -76t-19.5 -41t-27.5 -17t-36.5 -3q-37 0 -61.5 25.5t-28.5 109.5q-2 74 -4 172t-3 212.5t-2 241.5t-1 261z" />
<glyph horiz-adv-x="2048" />
<glyph horiz-adv-x="2048" />
<glyph unicode="&#xd;" horiz-adv-x="428" />
<glyph unicode=" "  horiz-adv-x="428" />
<glyph unicode="&#x09;" horiz-adv-x="428" />
<glyph unicode="&#xa0;" horiz-adv-x="428" />
<glyph unicode="!" horiz-adv-x="456" d="M102 104q0 49 38 85t87 36q47 0 87 -36.5t40 -88.5q0 -49 -41 -84.5t-92 -35.5q-43 0 -81 35.5t-38 88.5zM127 995q0 117 3 227.5t7 186.5q4 84 28.5 109.5t61.5 25.5q20 0 36 -3t28 -17.5t19 -41t9 -75.5q4 -106 8.5 -208.5t4.5 -205.5q0 -51 -1 -92l-2 -82t-4 -84 t-6 -96q-2 -41 -10 -66.5t-20.5 -40t-27.5 -19.5t-34 -5q-37 0 -57 21.5t-29.5 77t-11.5 149.5t-2 239z" />
<glyph unicode="&#x22;" horiz-adv-x="821" d="M92 1389q0 102 31 145t84 43q47 0 75.5 -41t28.5 -131q0 -25 -3 -53.5t-7 -63.5q-10 -59 -17.5 -115.5t-18.5 -99.5t-28.5 -68.5t-43.5 -25.5q-25 0 -40.5 26.5t-25.5 70.5t-16.5 99.5t-12.5 112.5q-6 55 -6 101zM510 1389q0 102 30.5 145t84.5 43q47 0 75.5 -41 t28.5 -131q0 -25 -3 -53.5t-7 -63.5q-10 -59 -17.5 -115.5t-18.5 -99.5t-28.5 -68.5t-44.5 -25.5q-25 0 -40 26.5t-25 70.5t-16.5 99.5t-12.5 112.5q-6 55 -6 101z" />
<glyph unicode="#" horiz-adv-x="1390" d="M82 516q0 25 9 43.5t36 31.5t76 20t129 7q8 57 17 115t20 115q-51 0 -87 4t-59.5 14.5t-34 29.5t-10.5 52q0 16 4 31.5t18.5 29t40 22.5t66.5 13l96 7q18 102 32 165.5t28 99.5t31.5 48t44.5 12q49 0 71.5 -25.5t22.5 -64.5q0 -2 -1 -8t-4 -28.5t-11.5 -68.5t-20.5 -128 h153.5t157.5 -2q18 102 31.5 165.5t28 99.5t32 48t43.5 12q47 0 71 -25.5t24 -62.5q0 -4 -1 -10t-4.5 -28.5t-10.5 -69.5t-21 -133q66 0 106.5 -6.5t63 -18.5t31 -30.5t8.5 -43.5q0 -35 -26 -60.5t-109 -29.5l-105 -4l-37 -240q55 0 90 -5t54.5 -16t26.5 -30.5t7 -46.5 q0 -37 -25.5 -61.5t-109.5 -28.5l-74 -4l-14 -90q-20 -127 -47 -184.5t-70 -57.5q-37 0 -59.5 18.5t-22.5 94.5q0 35 4.5 90t14.5 125q-76 0 -156 -1t-155 -1l-13 -84q-18 -127 -45.5 -184.5t-70.5 -57.5q-37 0 -59.5 18.5t-22.5 94.5q0 35 4 89t14 124q-59 0 -101 2t-69 12 t-39 30.5t-12 55.5zM528 621q70 0 147 -1.5t161 -1.5q8 57 17 116t19 116q-72 0 -148.5 -1t-158.5 -1z" />
<glyph unicode="$" horiz-adv-x="1046" d="M96 377q0 41 19.5 62.5t48.5 21.5q23 0 47.5 -14.5t59 -31t83.5 -30.5t121 -14q27 0 70 3t85 17.5t71.5 40t29.5 72.5q0 37 -20.5 62.5t-55 44t-81 31.5t-97.5 28q-59 16 -119.5 36.5t-109.5 53.5t-80 83t-31 124q0 119 80 204.5t217 114.5q2 172 21.5 252t79.5 80 q35 0 61.5 -22.5t30.5 -104.5l6 -201q47 -6 98 -17t93 -30.5t70 -49.5t28 -73q0 -31 -17.5 -53.5t-54.5 -22.5q-27 0 -60.5 8.5t-73.5 19.5t-86 19.5t-98 8.5q-86 0 -140 -26.5t-54 -84.5q0 -33 19.5 -55.5t53 -39.5t80 -29.5t97.5 -24.5q63 -16 125.5 -37t111.5 -56.5 t80 -90t31 -134.5q0 -129 -84 -214t-246 -107v-162q0 -49 -7 -75.5t-19.5 -41t-28.5 -17.5t-37 -3q-18 0 -34.5 5t-29 20.5t-20.5 42t-10 67.5v158q-51 2 -108.5 12t-104.5 31.5t-79 55.5t-32 83z" />
<glyph unicode="%" horiz-adv-x="1337" d="M33 1114q0 61 23.5 111.5t61.5 87.5t87 57.5t102 20.5t101.5 -21.5t85 -58.5t59 -88.5t22.5 -110.5q0 -57 -21.5 -107.5t-57 -87t-85 -58t-104.5 -21.5t-105 21.5t-88 58t-59.5 87t-21.5 109.5zM195 1112q0 -59 31.5 -87t76.5 -28q49 0 78 33t29 86q0 49 -26 86t-79 37 q-49 0 -79.5 -35t-30.5 -92zM276 129q0 23 8.5 44t20.5 50q39 76 79 154t87 169t104.5 199.5t131.5 243.5q59 109 103 185.5t79 126t62.5 72t56.5 22.5q35 0 58.5 -26t23.5 -60q0 -18 -7.5 -40t-17.5 -40q-80 -158 -148.5 -290t-137 -258t-144.5 -257t-170 -287 q-16 -29 -44 -61.5t-67 -32.5q-33 0 -55.5 23.5t-22.5 62.5zM770 295q0 61 23.5 111.5t61.5 87t87 57t102 20.5t101.5 -21.5t85.5 -58t59.5 -88t22.5 -110.5q0 -57 -21.5 -107.5t-57.5 -87.5t-85 -58.5t-105 -21.5q-55 0 -105 21.5t-88 58.5t-59.5 87.5t-21.5 109.5z M932 293q0 -59 31.5 -87t76.5 -28q49 0 78 33t29 86q0 49 -25.5 86t-79.5 37q-49 0 -79.5 -35t-30.5 -92z" />
<glyph unicode="&#x26;" horiz-adv-x="1302" d="M55 328q0 100 28 180t74 144.5t106 117.5t126 100q-55 80 -97 169t-42 196q0 78 26.5 136.5t73.5 98t111.5 60t138.5 20.5q94 0 154.5 -29.5t94.5 -77.5t47 -107.5t13 -116.5q0 -72 -18.5 -125.5t-51 -96.5t-80.5 -81.5t-106 -79.5l289 -482l102 121q12 16 27.5 35.5 t33 37t37 30t44.5 12.5q31 0 56.5 -21.5t25.5 -58.5q0 -39 -27 -70.5t-51 -62.5q-18 -23 -62.5 -75t-91.5 -105l92 -146q14 -23 23.5 -47t9.5 -47q0 -37 -27.5 -62.5t-56.5 -25.5q-23 0 -47 18.5t-59 69.5l-72 104q-98 -84 -193.5 -128t-207.5 -44q-76 0 -155 22.5 t-142.5 75t-104.5 135.5t-41 206zM244 326q0 -68 21.5 -114t58 -76t84 -43t96.5 -13q90 0 158.5 37t138.5 94q-80 123 -160 250t-156 250q-102 -84 -171.5 -174.5t-69.5 -210.5zM455 1223q0 -47 25.5 -99.5t80.5 -138.5q59 43 105.5 108.5t46.5 143.5q0 70 -38 106.5 t-87 36.5q-61 0 -97 -49t-36 -108z" />
<glyph unicode="'" horiz-adv-x="448" d="M115 1389q0 102 30.5 145t83.5 43q47 0 76 -41t29 -131q0 -25 -3 -53.5t-7 -63.5q-10 -59 -17.5 -115.5t-19 -99.5t-28.5 -68.5t-44 -25.5q-25 0 -40 26.5t-25.5 70.5t-16.5 99.5t-12 112.5q-6 55 -6 101z" />
<glyph unicode="(" horiz-adv-x="679" d="M102 731q0 135 23.5 286.5t97.5 309.5q33 68 72 128.5t80 104.5t84 69.5t84 25.5q18 0 37.5 -4t36 -13.5t26.5 -25t10 -35.5q0 -53 -49 -80q-94 -55 -152.5 -151.5t-91 -208t-45 -228t-12.5 -215.5q0 -172 26.5 -288.5t69.5 -196.5t97.5 -131t109.5 -90q20 -14 36.5 -36 t16.5 -61q0 -35 -30.5 -48t-73.5 -13t-87 22.5t-87 62.5t-82 92t-70 114q-41 82 -66.5 166t-38.5 163.5t-17.5 151.5t-4.5 129z" />
<glyph unicode=")" horiz-adv-x="679" d="M20 -109q0 39 16.5 60.5t37.5 36.5q55 39 109.5 90t97.5 131t69.5 196.5t26.5 288.5q0 98 -12.5 215t-45 228.5t-91 208t-152.5 151.5q-49 27 -49 80q0 20 10 35.5t26.5 25t36 13.5t37.5 4q41 0 84 -25.5t84 -69.5t80 -104.5t72 -128.5q74 -158 97.5 -309.5t23.5 -286.5 q0 -57 -4.5 -129t-17.5 -151.5t-38.5 -163.5t-66.5 -166q-31 -61 -70 -113.5t-82 -92.5t-87 -62.5t-87 -22.5t-74 13.5t-31 47.5z" />
<glyph unicode="*" horiz-adv-x="960" d="M82 1321q0 31 26.5 59.5t59.5 28.5q43 0 105.5 -40t121.5 -91q-2 16 -3 38.5t-1 49.5q0 35 4 72t16.5 67.5t34 51t56.5 20.5q37 0 63.5 -29.5t26.5 -95.5q0 -41 -13.5 -90t-29.5 -117q57 25 95 39t61.5 21.5t38 9.5t28.5 2q49 0 78 -28.5t29 -63.5q0 -49 -62.5 -79 t-220.5 -50q33 -55 54.5 -93t32.5 -65t15 -44t4 -32q0 -37 -30.5 -63.5t-59.5 -26.5q-100 0 -172 268q-27 -37 -56.5 -70.5t-59 -61t-57 -44t-48.5 -16.5q-37 0 -61.5 26.5t-24.5 57.5q0 27 16.5 54.5t43 53t56 50t58.5 49.5q-117 59 -171 100t-54 82z" />
<glyph unicode="+" horiz-adv-x="940" d="M18 713q0 18 4.5 33.5t18.5 27.5t39.5 21.5t66.5 13.5q31 2 54.5 4t48 3t52.5 1h65q2 53 3 105.5t5 105.5q2 49 10 75.5t20.5 41t29 17.5t36.5 3q37 0 61.5 -25.5t28.5 -109.5q2 -47 4 -100t4 -115q102 0 213 -6q49 -4 76 -11t41 -19.5t17.5 -29t3.5 -36.5 q0 -37 -26 -61.5t-110 -28.5q-47 -4 -99 -5.5t-114 -3.5v-92q0 -70 -2 -119t-11 -79.5t-29.5 -45t-57.5 -14.5q-18 0 -33.5 4t-28 18.5t-21.5 40t-13 66.5q-2 31 -4 54.5t-3 48t-1 52v64.5q-104 0 -171 2t-107 11.5t-55.5 30t-15.5 57.5z" />
<glyph unicode="," horiz-adv-x="348" d="M41 104q0 49 28.5 85t96.5 36q39 0 66.5 -14t44 -39t23.5 -55.5t7 -61.5q0 -119 -45 -188.5t-127 -69.5q-20 0 -35.5 15.5t-15.5 44.5q0 37 17.5 45t25.5 14q10 8 13 25.5t3 40.5q-39 6 -70.5 40.5t-31.5 81.5z" />
<glyph unicode="-" horiz-adv-x="983" d="M41 602q0 18 4 33.5t18.5 28t40 21.5t66.5 13q31 2 54.5 4.5t46 3.5t48 1h60.5q111 0 213 -1t213 -8q49 -4 75.5 -11t41 -19.5t17.5 -28.5t3 -37q0 -37 -25.5 -61.5t-109.5 -28.5q-94 -4 -217 -7t-291 -3q-70 0 -119 2t-79.5 11t-45 29.5t-14.5 57.5z" />
<glyph unicode="." horiz-adv-x="333" d="M41 104q0 49 38 85t87 36q47 0 87 -36.5t40 -88.5q0 -49 -41 -84.5t-92 -35.5q-43 0 -81 35.5t-38 88.5z" />
<glyph unicode="/" horiz-adv-x="827" d="M129 47q0 29 12 78q25 82 57.5 191.5t72.5 237.5t86 269.5t94 288.5q41 125 72.5 218t59 152.5t53.5 89.5t56 30q31 0 56.5 -20.5t25.5 -63.5q0 -14 -2 -31t-8 -39q-96 -340 -209 -687t-240 -691q-25 -66 -47 -88.5t-45 -22.5q-37 0 -65.5 20.5t-28.5 67.5z" />
<glyph unicode="0" horiz-adv-x="1243" d="M82 700q0 125 23.5 256t85 237.5t167 174.5t269.5 68q129 0 220 -39t150.5 -102.5t92 -144.5t49 -169t19.5 -174t3 -158q0 -143 -33.5 -263t-102.5 -206t-172 -134t-243 -48q-145 0 -246.5 56.5t-164 151.5t-90 223t-27.5 271zM287 705q0 -100 17.5 -191.5t56 -160 t101 -109.5t152.5 -41q86 0 150.5 34.5t107.5 97t63.5 148.5t20.5 187q0 76 -6 173t-37.5 183t-99.5 145.5t-188 59.5q-102 0 -167 -49t-104 -126t-53 -170t-14 -181z" />
<glyph unicode="1" horiz-adv-x="714" d="M41 1130q0 37 25.5 65t60.5 50q45 31 97 61.5t101.5 56.5t91.5 41t70 15q14 0 29.5 -4t29 -16.5t23 -38t11.5 -68.5q4 -74 6 -129t4 -107t2 -109.5v-133.5v-176t-2 -166t-4 -166t-6 -176q-2 -49 -9.5 -75.5t-19.5 -41t-27.5 -17.5t-36.5 -3q-37 0 -61.5 25.5t-28.5 109.5 q-4 74 -5 153.5t-3 172t-2 200v240.5v256l-123 -64q-51 -33 -80.5 -39t-64.5 -6q-31 0 -54.5 27t-23.5 63z" />
<glyph unicode="2" horiz-adv-x="1165" d="M82 1118q0 90 68 168q20 25 56 52.5t86 50t116.5 38t150.5 15.5q223 0 346 -108.5t123 -305.5q0 -39 -7 -86t-26.5 -98t-54.5 -106.5t-92 -112.5q-51 -51 -108.5 -94.5t-119 -86.5t-128 -91t-134.5 -109q66 -35 141.5 -45.5t170.5 -10.5q88 0 141 4.5t86 10.5t51.5 10 t38.5 4q76 0 76 -70q0 -61 -51 -94t-123 -48t-147.5 -18t-125.5 -3q-27 0 -74.5 3t-103 11t-112 23.5t-102.5 41t-74.5 63.5t-28.5 91q0 72 52 136.5t130 127t168 125t168 129t130 138t52 155.5q0 104 -70.5 156.5t-201.5 52.5q-74 0 -123 -15.5t-82 -40t-52.5 -51 t-36.5 -51t-36.5 -40t-48.5 -15.5q-49 0 -68.5 25.5t-19.5 68.5z" />
<glyph unicode="3" horiz-adv-x="1196" d="M82 299q0 94 102 94q31 0 48.5 -15.5t30.5 -37t27.5 -48t42 -48t74 -36.5t121.5 -15q59 0 116.5 13t103 44t73 83t27.5 130q0 152 -62.5 215t-175.5 63q-29 0 -53.5 -9t-49 -20.5t-51 -20.5t-59.5 -9t-57.5 29.5t-24.5 76.5q0 33 32 76t88.5 98.5t136 122t178.5 144.5 h-48t-56 -1t-54.5 -1h-44.5q-78 0 -153 1t-136 1q-66 0 -96.5 33.5t-30.5 68.5q0 37 35 60.5t92 37t131 18.5t150 5q63 0 141 -5t145.5 -24.5t112.5 -57.5t45 -103q0 -51 -39 -106.5t-90 -105t-101.5 -87t-72.5 -54.5q217 0 315.5 -108.5t98.5 -311.5q0 -127 -46.5 -221 t-123 -156.5t-176 -93t-203.5 -30.5q-86 0 -169 14t-148.5 50t-105.5 96.5t-40 150.5z" />
<glyph unicode="4" horiz-adv-x="1112" d="M41 514q0 45 37 113.5t92 148.5t117.5 163t115.5 155q25 33 71 91t99.5 116.5t106.5 101.5t90 43q35 0 61.5 -22.5t30.5 -104.5q8 -119 10 -249t2 -257v-203q57 -4 92 -10t53.5 -17.5t25 -27.5t6.5 -41q0 -51 -47.5 -68.5t-133.5 -21.5q-2 -78 -2 -170t-6 -172 q-4 -61 -27.5 -78.5t-64.5 -17.5q-37 0 -56.5 13t-28.5 57t-11 129t-2 229q-68 0 -129.5 -2t-118.5 -2q-86 0 -156.5 4t-121 15t-78 31.5t-27.5 53.5zM279 612q94 4 193 5t198 1v476q-90 -109 -152.5 -186t-106.5 -132t-76 -94t-56 -70z" />
<glyph unicode="5" horiz-adv-x="1144" d="M102 352q0 63 32 96t73 33q35 0 65.5 -23.5t32.5 -84.5t28.5 -100.5t67.5 -62t92.5 -30.5t104.5 -8q129 0 194.5 73.5t65.5 229.5q0 100 -46 158.5t-116.5 88.5t-154.5 39t-159 11t-129 5t-67 20q-14 20 -22 52t-12.5 66.5t-5.5 68.5t-1 63q0 119 22.5 194.5t78 118.5 t147 58.5t230.5 15.5q72 0 141.5 -4.5t123.5 -15.5t88 -32.5t34 -56.5q0 -39 -30 -67.5t-126 -28.5q-121 0 -191.5 -1t-112.5 -3t-66.5 -4t-55.5 -4q-29 -2 -44 -9.5t-22.5 -25t-9.5 -47t-2 -74.5q0 -31 1 -54.5t1 -50.5q154 -6 284 -26.5t225 -70.5t148.5 -138t53.5 -232 q0 -145 -39 -240t-103.5 -153.5t-149.5 -82t-175 -23.5q-78 0 -164 15t-159.5 56t-122 112t-48.5 179z" />
<glyph unicode="6" horiz-adv-x="1126" d="M82 573q0 172 59.5 329t147.5 276.5t186 190.5t176 71q33 0 67 -15.5t34 -48.5q0 -29 -33 -62.5t-103 -103.5q-37 -37 -78.5 -84t-80.5 -100t-70 -110.5t-45 -112.5q70 61 156 83.5t151 22.5q82 0 158 -29.5t133 -88t91 -145.5t34 -202q0 -100 -33 -183t-93 -143.5 t-145 -94t-190 -33.5q-102 0 -197.5 25.5t-167 91t-114.5 178t-43 288.5zM315 455q0 -135 71 -205t212 -70q51 0 98 14.5t84 48t58.5 89t21.5 137.5q0 51 -19.5 96t-55 79t-85 53.5t-106.5 19.5q-131 0 -205 -71.5t-74 -190.5z" />
<glyph unicode="7" horiz-adv-x="942" d="M45 1368q0 35 22.5 60.5t106.5 31.5t145.5 9.5t139.5 3.5h88t77 -2.5t77.5 -4.5t89.5 -4q14 0 34.5 -4t37 -14t28.5 -28.5t12 -47.5q0 -41 -26.5 -130t-66.5 -204.5t-90 -243.5t-96 -248t-85.5 -217.5t-57.5 -150.5q-33 -92 -61.5 -135t-81.5 -43q-41 0 -67.5 19.5 t-26.5 50.5q0 18 5 38.5t13 40.5q43 131 95.5 273.5t106.5 287t107.5 288t98.5 278.5q-72 -4 -138.5 -4h-152.5q-102 0 -167 2t-101.5 11t-51 29.5t-14.5 57.5z" />
<glyph unicode="8" horiz-adv-x="1163" d="M82 422q0 131 50 226t155 149q-61 53 -92 126.5t-31 151.5q0 74 26.5 142.5t80 123t131.5 86t180 31.5q100 0 178 -31.5t131 -86t79.5 -123t26.5 -142.5q0 -78 -29.5 -150.5t-88.5 -125.5q98 -51 150 -144.5t52 -228.5q0 -104 -30.5 -189t-94 -145.5t-157.5 -94.5 t-219 -34q-127 0 -221.5 34t-156 95.5t-91 145.5t-29.5 184zM287 428q0 -125 78 -200.5t219 -75.5q74 0 129 21.5t91 58t54.5 86t18.5 102.5q0 47 -15.5 96t-51.5 88t-93.5 63.5t-138.5 24.5q-141 0 -216 -72.5t-75 -191.5zM371 1083q0 -35 13 -73.5t41 -70.5t68 -52.5 t93 -20.5q51 0 91 20.5t67.5 52.5t41 70t13.5 72q0 72 -56.5 122t-160.5 50t-157.5 -50t-53.5 -120z" />
<glyph unicode="9" horiz-adv-x="1126" d="M61 985q0 100 33 186t93.5 150.5t145.5 101.5t189 37q102 0 196.5 -28.5t167 -98t115.5 -186.5t43 -291q0 -172 -59 -328.5t-147 -276.5t-186.5 -190.5t-176.5 -70.5q-33 0 -66.5 15t-33.5 48q0 14 8 28.5t24.5 33t42 44l60.5 60.5q37 37 79 84t81 100.5t69.5 110.5 t44.5 113q-70 -61 -155.5 -84t-151.5 -23q-84 0 -158.5 30t-132 88t-91.5 145t-34 202zM266 961q0 -51 19.5 -96.5t55.5 -79t84 -53t107 -19.5q131 0 205 71.5t74 190.5q0 135 -70.5 215t-212.5 80q-51 0 -98 -17.5t-84 -55.5t-58.5 -96.5t-21.5 -139.5z" />
<glyph unicode=":" horiz-adv-x="333" d="M41 104q0 49 38 85t87 36q47 0 87 -36.5t40 -88.5q0 -49 -41 -84.5t-92 -35.5q-43 0 -81 35.5t-38 88.5zM41 821q0 49 38 85t87 36q47 0 87 -37t40 -88q0 -49 -41 -85t-92 -36q-43 0 -81 36t-38 89z" />
<glyph unicode=";" horiz-adv-x="348" d="M41 104q0 49 28.5 85t96.5 36q39 0 66.5 -14t44 -39t23.5 -55.5t7 -61.5q0 -119 -45 -188.5t-127 -69.5q-20 0 -35.5 15.5t-15.5 44.5q0 37 17.5 45t25.5 14q10 8 13 25.5t3 40.5q-39 6 -70.5 40.5t-31.5 81.5zM41 821q0 49 38 85t87 36q47 0 87 -37t40 -88 q0 -49 -41 -85t-92 -36q-43 0 -81 36t-38 89z" />
<glyph unicode="&#x3c;" horiz-adv-x="761" d="M12 754q0 47 35 90t103.5 93t169 110.5t231.5 140.5q41 27 67.5 38t45.5 11q18 0 32.5 -8t28.5 -23q23 -27 23 -57q0 -35 -28 -60.5t-63 -54.5q-41 -33 -97 -71.5t-116.5 -77.5t-116 -74t-94.5 -57q39 -23 94.5 -57.5t116 -73.5t116.5 -79t97 -71q35 -29 63 -54.5 t28 -60.5q0 -31 -23 -57q-14 -14 -28.5 -22.5t-32.5 -8.5t-45 11.5t-68 37.5q-129 80 -229.5 140.5t-169 109.5t-104.5 93.5t-36 91.5z" />
<glyph unicode="=" horiz-adv-x="974" d="M41 432q0 18 4 33.5t18.5 28t40 21.5t66.5 13q31 2 54.5 4.5t46 3.5t48 1h60.5q111 0 209 -1t209 -8q49 -4 75.5 -11t41 -19.5t17.5 -28.5t3 -37q0 -37 -25.5 -61.5t-109.5 -28.5q-94 -4 -213 -7t-287 -3q-70 0 -119 2t-79.5 11t-45 29.5t-14.5 57.5zM41 887q0 18 4 33.5 t18.5 28t40 21.5t66.5 13q31 2 54.5 4t46 3t48 1h60.5q111 0 209 -1t209 -7q49 -4 75.5 -11t41 -19.5t17.5 -29t3 -36.5q0 -37 -25.5 -61.5t-109.5 -28.5q-94 -4 -213 -7.5t-287 -3.5q-70 0 -119 2.5t-79.5 11.5t-45 29.5t-14.5 57.5z" />
<glyph unicode="&#x3e;" horiz-adv-x="800" d="M12 358q0 35 28 60.5t62 54.5q39 31 96.5 71t117 79t115.5 73.5t95 57.5q-39 23 -95 57.5t-115.5 73.5t-117 77.5t-96.5 71.5q-35 29 -62.5 54.5t-27.5 60.5q0 31 23 57q14 14 28.5 22.5t32.5 8.5t45 -11.5t68 -37.5q131 -80 231.5 -140.5t169 -110.5t103.5 -93t35 -90 t-36 -91.5t-104.5 -93.5t-169 -109.5t-229.5 -140.5q-41 -27 -67.5 -38t-45.5 -11q-18 0 -32.5 8.5t-28.5 22.5q-23 27 -23 57z" />
<glyph unicode="?" horiz-adv-x="946" d="M20 1214q0 90 68 168q20 25 52 51.5t76 50t103.5 39t137.5 15.5q223 0 346 -108.5t123 -305.5q0 -68 -20.5 -135t-53.5 -134t-73 -131.5t-79 -125.5q-55 -88 -91 -133t-81 -45q-41 0 -67.5 19.5t-26.5 49.5q0 18 2.5 39t16.5 41q23 49 66.5 119t88.5 145.5t78 151.5 t33 139q0 104 -70.5 156.5t-202.5 52.5q-68 0 -108.5 -15t-66 -40t-41 -51.5t-30 -51t-36 -40t-55.5 -15.5q-51 0 -70 25.5t-19 68.5zM381 104q0 49 38 85t87 36q47 0 87 -36.5t40 -88.5q0 -49 -41 -84.5t-92 -35.5q-43 0 -81 35.5t-38 88.5z" />
<glyph unicode="@" horiz-adv-x="1480" d="M102 524q0 156 44 282t126 215t200 136t263 47t264 -47t203 -133t130 -207t46 -268q0 -195 -75.5 -300.5t-206.5 -105.5q-78 0 -125 36t-62 89q-80 -94 -217 -94t-216 88t-79 248t80 257t221 97q66 0 117 -24.5t92 -77.5q0 49 16.5 69.5t57.5 20.5q25 0 34 -13.5 t15 -66.5q8 -72 8 -158.5t2 -160.5q2 -98 12.5 -145.5t61.5 -47.5q66 0 102.5 71.5t36.5 200.5q0 127 -36.5 228.5t-103 173.5t-162 110.5t-212.5 38.5t-211 -38.5t-158.5 -111.5t-99 -177.5t-34.5 -235.5q0 -254 125.5 -394t359.5 -140q57 0 102 11t105 42q27 14 47 14 q27 0 41 -13t14 -36q0 -29 -26.5 -54.5t-72.5 -44t-106.5 -29.5t-128.5 -11q-139 0 -248.5 47t-186.5 133t-118 208t-41 271zM545 516q0 -98 47 -155.5t125 -57.5q82 0 130 59.5t48 151.5q0 96 -50 152.5t-130 56.5t-125 -55.5t-45 -151.5z" />
<glyph unicode="A" horiz-adv-x="1222" d="M41 72q0 35 12.5 91t31.5 120.5t42 133t43 128.5q20 66 58 167t81 211.5t86 218t78 187.5q8 20 20.5 46t30 48.5t39 39t47.5 16.5q27 0 49.5 -17.5t40 -42t30.5 -51.5t22 -47q33 -82 74.5 -188.5t83.5 -215t79 -207t60 -165.5q18 -59 41.5 -127t44 -133.5t34 -122 t13.5 -90.5q0 -35 -26 -53.5t-54 -18.5q-37 0 -67.5 25.5t-53.5 78.5q-20 49 -44 114t-50 136q-61 -2 -129 -3t-137 -1h-160t-131 2q-25 -72 -47.5 -135t-42.5 -113q-41 -104 -119 -104q-29 0 -54.5 18.5t-25.5 53.5zM399 551q55 2 110.5 3t108.5 1q49 0 98.5 -1t98.5 -3 q-25 72 -49.5 143.5t-46 137t-38.5 122t-30 99.5q-8 27 -18 43t-27 16q-16 0 -26.5 -17.5t-18.5 -43.5q-25 -84 -68.5 -218.5t-93.5 -281.5z" />
<glyph unicode="B" horiz-adv-x="1191" d="M123 698q0 61 1 130t2 135.5t3 124t6 98.5q6 63 20.5 114.5t54.5 88t112.5 56t193.5 19.5q274 0 410.5 -101t136.5 -288q0 -96 -42 -178t-144 -123q57 -10 104 -43t81 -79t51 -102t17 -114q0 -74 -30.5 -150.5t-104 -140t-195.5 -104.5t-302 -41q-115 0 -184.5 18.5 t-107.5 52t-51.5 83t-19.5 110.5q-6 72 -9 189.5t-3 244.5zM338 383q0 -55 8 -92t30.5 -59.5t64.5 -32t108 -9.5q180 0 278.5 63.5t98.5 188.5q0 74 -34 119t-87 68.5t-118.5 32t-131.5 8.5h-106.5t-102.5 -2q-2 -43 -4 -88t-3 -85t-1 -70v-42zM338 840q29 -2 60.5 -2h60.5 q74 0 144.5 10t127.5 34.5t92 67.5t35 111q0 92 -74.5 150.5t-236.5 58.5q-68 0 -110 -11.5t-63.5 -30t-28.5 -45t-7 -57.5v-286z" />
<glyph unicode="C" horiz-adv-x="1226" d="M82 696q0 178 50 317.5t137 237t203 148.5t247 51q68 0 136.5 -11.5t123.5 -35t91 -57t36 -78.5q0 -47 -24.5 -72t-61.5 -25q-35 0 -61.5 11.5t-60.5 26t-81 25.5t-125 11t-148.5 -40t-122.5 -110.5t-83 -167t-31 -208.5q0 -139 36 -239.5t93.5 -165t130 -96.5t146.5 -32 q88 0 147.5 18.5t101.5 41t72.5 41t59.5 18.5q35 0 55 -19.5t20 -68.5q0 -41 -31.5 -83t-92 -75.5t-144.5 -55t-188 -21.5q-115 0 -228.5 45t-202.5 134t-144.5 223t-55.5 312z" />
<glyph unicode="D" horiz-adv-x="1267" d="M123 293v770q0 88 15.5 159.5t60.5 122t128 77t216 26.5q211 0 338 -63.5t194.5 -168t89 -237.5t21.5 -270q0 -150 -38 -283t-117 -232.5t-201.5 -158t-292.5 -58.5q-135 0 -216 19.5t-125 58.5t-58.5 98.5t-14.5 139.5zM330 309q0 -63 46 -95t175 -32q127 0 210 46 t132 122t68.5 172t19.5 197q0 92 -14.5 185t-59.5 169t-129 123t-223 47q-127 0 -176 -37t-49 -112v-785z" />
<glyph unicode="E" horiz-adv-x="1144" d="M123 721q0 68 1 140.5t3 148.5q4 152 19.5 237.5t61.5 128.5t130 53.5t223 10.5h44t101.5 -1t124 -3t107.5 -4q45 -4 72.5 -11.5t42 -18.5t18.5 -26.5t4 -34.5q0 -47 -26.5 -68.5t-108.5 -27.5q-41 -4 -120 -5t-160.5 -1t-147.5 -1t-82 -1q-53 -2 -74.5 -23.5 t-21.5 -101.5q0 -18 3 -89t3 -198h170q109 0 177.5 -3t106 -13t52 -32.5t14.5 -59.5q0 -18 -3 -33.5t-17.5 -27t-41 -18.5t-75.5 -11q-59 -4 -111.5 -5t-103.5 -1h-172v-74v-88t1 -88t3 -70q2 -33 9 -55.5t26.5 -36.5t57.5 -20.5t102 -6.5h440q72 0 90 -26.5t18 -71.5 q0 -37 -16 -56.5t-78.5 -28.5t-186.5 -11t-341 -2q-92 0 -151.5 16t-96.5 55t-54.5 101.5t-23.5 152.5q-4 66 -8 178.5t-4 231.5z" />
<glyph unicode="F" horiz-adv-x="1105" d="M123 658v294q0 172 12 269.5t51 146.5t111 60.5t188 11.5h119t103.5 -1t100.5 -3t110 -4q49 -4 75.5 -11.5t41 -19.5t17.5 -28.5t3 -37.5q0 -37 -25.5 -61.5t-109.5 -28.5q-51 -2 -99.5 -4t-109 -3t-136 -2t-182.5 -1q-37 0 -51 -25.5t-14 -64.5q0 -31 1 -61.5t2 -67.5 t2 -83t1 -108q76 0 132 -1t98 -2t75 -3t63 -4q84 -4 110 -28.5t26 -61.5q0 -20 -3.5 -36.5t-17.5 -29t-40.5 -20.5t-76.5 -12q-33 -2 -62.5 -3t-69.5 -2t-95 -1h-139q-1 -82 -1 -166v-85v-29q0 -115 -7 -235q-4 -80 -28 -97t-71 -17q-45 0 -67.5 19.5t-26.5 92.5 q-4 66 -5 145t-3 180t-2 229z" />
<glyph unicode="G" horiz-adv-x="1300" d="M82 696q0 178 52 317.5t142.5 237t211.5 148.5t260 51q68 0 139 -12.5t130.5 -36t98.5 -58t39 -79.5q0 -47 -24.5 -72t-61.5 -25q-35 0 -64.5 12.5t-66.5 27t-88 26.5t-129 12q-86 0 -161 -40t-132 -110.5t-90 -167t-33 -208.5q0 -137 35 -237.5t91 -166t127 -97.5 t142 -32q117 0 185.5 34t109.5 87q2 43 2 102.5v129.5q0 27 -4 42t-20.5 23t-48 10t-84.5 2q-66 0 -107 17.5t-41 75.5q0 41 21.5 66.5t89.5 29.5q12 0 39.5 1t59.5 1h62.5h49.5q61 0 98 -11.5t66 -50.5q14 -20 17 -71t3 -119v-528q0 -55 -29.5 -82t-68.5 -27 q-47 0 -77 23.5t-30 74.5v80q-53 -61 -125.5 -87.5t-183.5 -26.5q-113 0 -221.5 45t-192.5 134t-136 223t-52 312z" />
<glyph unicode="H" horiz-adv-x="1249" d="M123 652.5v240.5q0 145 2 248.5t11 169t29.5 96.5t57.5 31q35 0 61.5 -22.5t30.5 -104.5q4 -70 6.5 -126.5t4.5 -110.5t2 -111.5v-126.5q154 6 301 6q72 0 144.5 -2t148.5 -6v59q0 145 2 248.5t11 169t29.5 96.5t57.5 31q35 0 61.5 -22.5t30.5 -104.5q4 -74 6 -131.5 t4 -113.5t2 -116.5v-136.5v-176t-2 -166t-4 -166t-6 -176q-2 -49 -9 -75.5t-19.5 -41t-28 -17.5t-35.5 -3q-37 0 -61.5 25.5t-28.5 109.5q-4 111 -7 232.5t-3 281.5q-66 -2 -139.5 -3t-151.5 -1h-168t-135 2q-2 -129 -4 -249t-9 -261q-2 -49 -9 -75.5t-19.5 -41t-27.5 -17.5 t-36 -3q-37 0 -61.5 25.5t-28.5 109.5q-4 74 -5 153.5t-3 172t-2 200z" />
<glyph unicode="I" horiz-adv-x="499" d="M143 652.5v240.5q0 145 2 248.5t12.5 169t32 96.5t58.5 31q18 0 34.5 -4t29 -17.5t21.5 -39t11 -66.5q4 -74 6 -131.5t4 -113.5t2 -116.5v-136.5v-176t-2 -166t-4 -166t-6 -176q-2 -49 -10 -75.5t-20.5 -41t-29 -17.5t-36.5 -3q-37 0 -63.5 25.5t-30.5 109.5 q-4 74 -5.5 153.5t-3.5 172t-2 200z" />
<glyph unicode="J" horiz-adv-x="872" d="M41 211q0 47 31.5 65.5t70.5 18.5q29 0 53.5 -15.5t50 -34t54.5 -33.5t66 -15q45 0 77.5 12t54 47t33 97.5t11.5 160.5l2 813q0 49 8 76t22.5 41t33 17t38.5 3t39 -5t33 -20.5t22.5 -42t8.5 -67.5v-860q0 -123 -19.5 -213t-64.5 -148.5t-119 -87t-185 -28.5q-39 0 -94 12 t-105 38t-86 68t-36 101z" />
<glyph unicode="K" horiz-adv-x="1167" d="M123 652.5v240.5q0 145 2 248.5t11 169t29.5 96.5t57.5 31q35 0 61.5 -22.5t30.5 -104.5q4 -74 6.5 -131.5t4.5 -113.5t2 -116.5v-136.5v-106l438 501q86 98 133 130t82 32q41 0 60.5 -20.5t19.5 -51.5q0 -12 -4 -24t-17.5 -33.5t-40 -53.5t-71.5 -81l-285 -309l449 -639 q16 -23 25 -47.5t9 -47.5q0 -39 -21.5 -64.5t-74.5 -25.5q-43 0 -76.5 23.5t-62.5 69.5l-389 575l-176 -192q-2 -78 -4.5 -156t-6.5 -164q-2 -49 -9 -75.5t-19.5 -41t-27.5 -17.5t-36 -3q-37 0 -61.5 25.5t-28.5 109.5q-4 74 -5 153.5t-3 172t-2 200z" />
<glyph unicode="L" horiz-adv-x="929" d="M123 451v294.5t2 231t3 182.5t5 146q4 84 28.5 109.5t61.5 25.5q20 0 35.5 -3t28 -17.5t19.5 -41t9 -75.5q8 -180 10.5 -356.5t2.5 -375.5v-115.5t-1 -95t-3 -90.5t-5 -100q141 16 221.5 26.5l126.5 16.5t71.5 8t60.5 3q90 0 90 -89q0 -35 -36 -59.5t-90 -42t-121 -28.5 t-129 -16t-112.5 -7t-70.5 -2q-74 0 -115 9t-61.5 55t-25.5 140.5t-5 266.5z" />
<glyph unicode="M" horiz-adv-x="1509" d="M41 80q0 47 11 144.5t28.5 220t40 258t46 261.5t45 228t38.5 158q27 94 108 94q49 0 84 -48t75 -147.5t96.5 -251t146.5 -356.5q88 205 142 355.5t92 250t73 147.5t86 48q47 0 71.5 -23.5t37.5 -70.5q14 -57 34.5 -159t44 -225.5t46 -259t41 -258t29.5 -222t11 -152.5 q0 -33 -22.5 -52.5t-56.5 -19.5q-23 0 -56 17.5t-45 70.5q-25 117 -44 242t-36.5 253t-34 256t-34.5 255q-27 -82 -62 -180.5t-73.5 -198t-79.5 -195.5t-80 -174q-14 -27 -38 -40t-48 -13q-27 0 -50.5 13t-35.5 42q-94 207 -167 400.5t-124 345.5q-47 -254 -79 -512 t-81 -494q-12 -53 -45 -70.5t-55 -17.5q-37 0 -58.5 22.5t-21.5 57.5z" />
<glyph unicode="N" horiz-adv-x="1292" d="M123 1047q0 137 3 214.5t14.5 116.5t30.5 49.5t52 10.5t86 -50.5t116.5 -132t136.5 -188t144.5 -219.5t138 -223.5t122.5 -200.5q-2 96 -2 212v257q0 162 2 267.5t11 167t29.5 86t57.5 24.5q35 0 61.5 -22.5t30.5 -104.5q4 -74 6 -131.5t4 -113.5t2 -116.5v-136.5v-176 t-2 -166t-4 -166t-6 -176q-2 -49 -9 -75.5t-19.5 -41t-28 -17.5t-35.5 -3q-35 0 -59.5 20.5t-71.5 83.5q-66 90 -124 179.5t-125 196t-151.5 236.5t-203.5 304v-276t-2 -226t-4 -196.5t-7 -184.5q-2 -49 -9 -75.5t-19.5 -41t-27.5 -17.5t-36 -3q-37 0 -61.5 25.5 t-28.5 109.5q-10 225 -11 451.5t-1 468.5z" />
<glyph unicode="O" d="M82 707q0 162 40 297t118.5 233t195.5 152.5t271 54.5q125 0 237.5 -45t197.5 -135t134 -225.5t49 -315.5q0 -150 -40 -285t-121 -236.5t-203.5 -161.5t-288.5 -60q-123 0 -230.5 49t-187.5 142t-126 228.5t-46 307.5zM287 707q0 -121 30.5 -220.5t83 -169t124 -107.5 t151.5 -38q113 0 196.5 46t139 122t82 175t26.5 204q0 127 -33.5 226t-91 167t-133.5 103.5t-162 35.5q-102 0 -179 -43t-129 -116.5t-78.5 -173t-26.5 -211.5z" />
<glyph unicode="P" horiz-adv-x="1163" d="M123 1028q0 76 18.5 154t70.5 141t145.5 102t242.5 39q104 0 198.5 -22.5t166 -77.5t114.5 -147.5t43 -229.5q0 -143 -47 -237.5t-133 -149.5t-205 -77.5t-260 -22.5h-69.5t-77.5 4l-2 -375q0 -49 -9.5 -75.5t-22.5 -41t-30.5 -17.5t-34.5 -3q-55 0 -72.5 24.5 t-23.5 110.5q-4 45 -6 131t-3 205t-2 262t-1 303zM330 865q0 -89 2 -167q47 -2 105.5 -2h109.5q61 0 127.5 8.5t120 38t88.5 88t35 160.5q0 137 -77 207t-255 70q-68 0 -116 -11.5t-79 -39t-46 -74.5t-15 -119v-159z" />
<glyph unicode="Q" d="M82 707q0 162 40 297t118.5 233t195.5 152.5t271 54.5q125 0 237.5 -45t197.5 -135t134 -225.5t49 -315.5q0 -147 -38 -278.5t-116 -233.5l117 -96q23 -18 42.5 -46t19.5 -63q0 -41 -33 -65.5t-78 -24.5q-57 0 -121 57l-106 93q-70 -41 -154 -63.5t-186 -22.5 q-123 0 -230.5 49t-187.5 142t-126 228.5t-46 307.5zM287 707q0 -121 30.5 -220.5t83 -169t124 -107.5t151.5 -38q113 0 196.5 46t139 122t82 175t26.5 204q0 127 -33.5 226t-91 167t-133.5 103.5t-162 35.5q-102 0 -179 -43t-129 -116.5t-78.5 -173t-26.5 -211.5z" />
<glyph unicode="R" horiz-adv-x="1181" d="M123 1028q0 84 20.5 163t73.5 139.5t144.5 97t232.5 36.5q100 0 195.5 -22.5t169 -77.5t118.5 -149.5t45 -235.5q0 -188 -80.5 -291.5t-222.5 -146.5l275 -377q36 -48 36 -98q0 -44 -27.5 -67.5t-68.5 -23.5q-45 0 -77.5 26t-61.5 67l-299 436q-29 -2 -58.5 -3t-60.5 -1 h-69.5t-77.5 4v-416q0 -66 -32 -81t-79 -15q-25 0 -39 3t-23.5 12t-14.5 27.5t-7 51.5q-4 37 -6 107.5t-3 183t-2 273.5t-1 378zM330 844q0 -80 2 -146q47 -2 105.5 -2h109.5q57 0 121.5 7.5t120 37t92.5 86t37 154.5q0 141 -85 210t-270 69q-68 0 -112.5 -11.5t-71.5 -42 t-38 -85t-11 -138.5v-139z" />
<glyph unicode="S" horiz-adv-x="1191" d="M102 221q0 41 21.5 65.5t64.5 24.5q35 0 57.5 -13t39.5 -30q61 -53 139 -71.5t160 -18.5q47 0 99 7.5t95 30t72 64.5t29 113q0 66 -26 108t-69 70.5t-101 47t-126 36.5q-76 20 -149.5 45t-131 67t-93.5 106.5t-36 164.5t37 176t100.5 127.5t151 78t187.5 26.5 q57 0 131.5 -9.5t140.5 -33t111 -61t45 -93.5q0 -33 -18.5 -55.5t-59.5 -22.5q-31 0 -62.5 12.5t-71.5 26t-92.5 25.5t-121.5 12q-135 0 -200 -48t-65 -132q0 -57 29 -96t77 -66.5t108.5 -46t123.5 -35.5q72 -18 142.5 -44.5t126 -69.5t89.5 -108.5t34 -166.5 q0 -104 -39 -187t-106.5 -141.5t-162 -90t-204.5 -31.5q-61 0 -143.5 11t-156 38.5t-125 74t-51.5 113.5z" />
<glyph unicode="T" horiz-adv-x="1116" d="M61 1335q0 18 4.5 33.5t18.5 29t40 21.5t66 13q39 2 70 4t61.5 4t63.5 2h76q121 0 228.5 -2t228.5 -8q49 -4 75.5 -11.5t41 -19.5t17.5 -28.5t3 -37.5q0 -37 -25.5 -61.5t-109.5 -28.5q-57 -4 -122 -6t-143 -4q2 -55 4.5 -103.5t4.5 -97.5t3 -102t1 -119v-177t-2 -170 t-4.5 -171t-6.5 -178q-2 -49 -9 -76t-19.5 -41t-28.5 -17t-37 -3q-37 0 -62.5 25.5t-29.5 109.5q-4 74 -5 155.5t-3 176t-2 204v242.5q0 113 1 197t5 145h-84q-86 0 -146.5 2t-99.5 11t-56.5 29.5t-17.5 57.5z" />
<glyph unicode="U" horiz-adv-x="1253" d="M123 1163q0 84 4 138.5t16.5 86t32 44t49.5 12.5q59 0 84 -53.5t25 -184.5q0 -45 -1 -79.5t-1 -70.5t-1 -79t-1 -105q0 -205 13 -340t46 -215.5t89.5 -113.5t139.5 -33q88 0 146.5 36t93.5 121t50.5 226t15.5 352q0 92 -1 157.5t-1 119.5q0 76 5 127t16 80.5t31.5 42 t51.5 12.5t51.5 -12.5t32.5 -43t16 -85t4 -140.5q0 -360 -22.5 -592.5t-79.5 -366.5t-156.5 -186.5t-255.5 -52.5q-233 0 -342 127q-43 49 -72.5 126t-47 200t-24.5 304t-7 441z" />
<glyph unicode="V" horiz-adv-x="1155" d="M41 1352q0 41 16.5 61.5t63.5 20.5q27 0 46 -13.5t50 -74.5q25 -47 53.5 -123t60 -168t64.5 -193.5t66 -202t61.5 -192.5t52.5 -166q25 76 56 169t63.5 192.5t65.5 201t65.5 191.5t61 165.5t51.5 125.5q29 59 50.5 73.5t43.5 14.5q47 0 64.5 -24t17.5 -69q0 -41 -12 -98 t-42 -152.5t-79 -236.5t-121 -346q-18 -55 -41.5 -114.5t-47 -116t-46.5 -107.5t-43 -88q-27 -49 -48.5 -71.5t-53.5 -22.5q-33 0 -57.5 22.5t-53.5 69.5q-37 61 -83 169.5t-93 236.5t-92 265.5t-81 258t-57.5 212t-21.5 130.5z" />
<glyph unicode="W" horiz-adv-x="1556" d="M51 1364q0 35 22.5 57.5t63.5 22.5q29 0 55.5 -17.5t38.5 -70.5q49 -236 87 -494t81 -512q63 150 127 317.5t158 376.5q12 29 38 47.5t54 18.5q27 0 51.5 -17.5t38.5 -45.5q78 -160 154 -345.5t137 -351.5q35 254 76 512t92 494q6 27 18.5 44t26.5 26.5t29.5 13.5t25.5 4 q35 0 57.5 -19.5t22.5 -52.5q0 -37 -12 -130t-32.5 -217t-46 -263t-50.5 -268t-47.5 -235.5t-36.5 -162.5q-12 -47 -36.5 -70.5t-72.5 -23.5q-49 0 -82.5 44t-73.5 138.5t-95.5 240.5t-143.5 351q-90 -205 -146.5 -352.5t-96 -241.5t-74.5 -138t-82 -44q-82 0 -109 94 q-16 55 -38.5 160.5t-46 234.5t-48 267.5t-43 261.5t-30 216t-11.5 130z" />
<glyph unicode="X" horiz-adv-x="1204" d="M61 63q0 23 9.5 47.5t25.5 47.5l381 544l-381 545q-16 23 -25.5 47.5t-9.5 46.5q0 39 21.5 65t75.5 26q43 0 76.5 -24t62.5 -69l305 -473l305 473q29 45 63 69t77 24q53 0 74.5 -26t21.5 -65q0 -23 -9.5 -47t-25.5 -47l-381 -545l381 -544q16 -23 25.5 -47.5t9.5 -47.5 q0 -39 -21.5 -64.5t-74.5 -25.5q-43 0 -77 23.5t-63 69.5l-305 473l-305 -473q-29 -45 -62.5 -69t-76.5 -24q-53 0 -75 26t-22 64z" />
<glyph unicode="Y" horiz-adv-x="1163" d="M41 1341q0 39 21.5 65t74.5 26q43 0 77 -24t62 -69l306 -485l305 485q29 45 62.5 69t76.5 24q53 0 74.5 -26t21.5 -65q0 -23 -9 -47t-26 -47l-399 -571q0 -139 -3 -267t-9 -280q-2 -49 -9.5 -75.5t-19.5 -41t-27.5 -17.5t-35.5 -3q-37 0 -61.5 25.5t-28.5 109.5 q-4 113 -7.5 241t-3.5 296l-407 583q-16 23 -25.5 47.5t-9.5 46.5z" />
<glyph unicode="Z" horiz-adv-x="1079" d="M61 57q0 45 25 105.5t58.5 122t68.5 116t53 84.5l455 740q-39 0 -52.5 -1t-33 -2t-59 -1h-127.5q-127 0 -202 3t-113 13t-49 28.5t-11 51.5q0 51 24.5 72.5t104.5 29.5q33 2 73.5 5t85 4.5t87.5 2.5t79 1q37 0 71 -1t70 -3t76.5 -3.5l94.5 -3.5q16 0 41.5 -3t49 -9 t40 -19.5t16.5 -35.5q0 -37 -33.5 -112t-90 -172t-129 -211t-148.5 -231.5t-150 -232t-133 -213.5q37 2 107.5 3t132.5 1q59 0 150 -2t188 -10q49 -4 75.5 -10t41 -17.5t17.5 -28t3 -40.5q0 -16 -2 -28.5t-14.5 -22t-40 -14.5t-78.5 -9q-37 -4 -91.5 -7t-117 -5t-131 -4 t-131.5 -2q-111 0 -179.5 2t-106.5 9t-51.5 21.5t-13.5 38.5z" />
<glyph unicode="[" horiz-adv-x="837" d="M102 256v969q0 162 5.5 269.5t39 172t106.5 91t206 26.5q59 0 110.5 -2t110.5 -6q49 -4 75.5 -12.5t41 -20.5t17.5 -27.5t3 -36.5q0 -37 -25.5 -61.5t-109.5 -28.5q-31 -2 -66.5 -4t-81 -3t-103.5 -2t-134 -1q2 -104 5 -220t5 -232.5t3 -232.5t1 -222q0 -193 -3 -383.5 t-11 -386.5q76 0 134 -1t103.5 -2t81 -3t66.5 -5q84 -4 109.5 -28.5t25.5 -61.5q0 -20 -3 -35.5t-17.5 -27.5t-41 -20.5t-75.5 -12.5q-59 -4 -110.5 -6t-110.5 -2q-133 0 -206 26.5t-106.5 91t-39 172t-5.5 269.5z" />
<glyph unicode="\" horiz-adv-x="903" d="M129 1518q0 43 25.5 63.5t56.5 20.5t56.5 -30t53 -89.5t59.5 -152.5t73 -218q47 -147 93 -288.5t86 -269.5t72.5 -237.5t57.5 -191.5q12 -49 12 -78q0 -47 -28.5 -67.5t-65.5 -20.5q-23 0 -45.5 22.5t-46.5 88.5q-127 344 -239.5 691t-209.5 687q-6 23 -8 39t-2 31z" />
<glyph unicode="]" horiz-adv-x="837" d="M20 -199q0 37 26 61.5t110 28.5q31 2 66.5 4.5t80.5 3.5t103.5 2t134.5 1q-8 197 -11.5 387t-3.5 383q0 106 1 222t3 232.5t4.5 232.5t6.5 220q-76 0 -134.5 1t-103.5 2t-81 3t-66 4q-84 4 -110 28.5t-26 61.5q0 20 3.5 36t17.5 28t41 20.5t76 12.5q59 4 110 6t111 2 q133 0 205.5 -26.5t106.5 -91t39 -172.5t5 -269v-969q0 -162 -5 -269.5t-39 -172t-106.5 -91t-205.5 -26.5q-59 0 -110.5 2t-110.5 6q-49 4 -76 12.5t-41 20.5t-17.5 27.5t-3.5 35.5z" />
<glyph unicode="^" horiz-adv-x="1282" d="M84 952q0 35 22.5 66t49.5 57q25 27 67.5 72t93 96t102.5 103.5t98 95.5t80 69.5t48 26.5t53 -30.5t90.5 -78t109.5 -104.5t110.5 -110.5t93.5 -96.5t59 -61q23 -25 36 -48.5t13 -50.5q0 -35 -21.5 -61.5t-62.5 -26.5q-10 0 -40.5 26t-71.5 67t-89 91t-93.5 98t-84 88 t-61.5 63l-41 38l-41 -38q-25 -23 -62.5 -63t-81.5 -88t-91 -98t-88 -91t-71 -67t-42 -26q-37 0 -60.5 24t-23.5 58z" />
<glyph unicode="_" horiz-adv-x="1249" d="M20 49q0 18 4.5 33.5t18.5 29t40 21.5t67 12q43 2 89 4.5t104 3.5t134 1h178q111 0 219.5 -1t217.5 -8q49 -2 75.5 -10t41 -20.5t17.5 -28.5t3 -37q0 -37 -25.5 -61.5t-109.5 -28.5q-141 -4 -347 -7t-468 -3q-139 0 -199 16.5t-60 83.5z" />
<glyph unicode="`" horiz-adv-x="774" d="M131 1475q0 39 24.5 57t59.5 18q39 0 113.5 -32.5t149.5 -79.5t131.5 -98.5t60.5 -90.5q0 -31 -20.5 -40t-43.5 -13q-31 0 -78 14.5t-99 37t-105.5 52t-96.5 60.5t-69.5 60.5t-26.5 54.5z" />
<glyph unicode="a" horiz-adv-x="1173" d="M57 492q0 117 29 219t87 179t146.5 122t206.5 45q104 0 186.5 -38t147.5 -124q0 25 2 50.5t11.5 47t30 34.5t54.5 13q31 0 57.5 -24.5t31.5 -106.5q6 -109 9 -194.5t3 -177.5q0 -113 -2 -207t-10 -201q-4 -47 -11.5 -74.5t-17.5 -41t-24.5 -17.5t-28.5 -4q-33 0 -52.5 11 t-30 29.5t-14.5 44t-6 54.5q-51 -63 -132 -106t-206 -43q-80 0 -162.5 23.5t-150.5 81.5t-111 156.5t-43 248.5zM262 514q0 -180 79 -266t214 -86q80 0 136.5 27.5t92 74.5t53 111.5t17.5 136.5q0 106 -31.5 174t-80 105.5t-103.5 52t-102 14.5q-74 0 -126.5 -26.5 t-85 -72.5t-48 -108.5t-15.5 -136.5z" />
<glyph unicode="b" horiz-adv-x="1210" d="M111 850q0 172 6 311t18 225q12 78 41 111t76 33q35 0 55.5 -15.5t29.5 -42t11 -60.5t2 -73q0 -123 -7 -257t-17 -261q27 55 69.5 95t95 65t109.5 37t111 12q92 0 173 -33.5t141 -98t94 -160t34 -218.5q0 -119 -35 -217t-103.5 -169t-170 -109.5t-232.5 -38.5 q-178 0 -279.5 71.5t-150.5 191.5t-60 275.5t-11 325.5zM352 494q0 -156 77 -237t206 -81q53 0 108.5 15.5t100.5 53.5t73.5 101.5t28.5 157.5q0 84 -23.5 145.5t-64.5 101.5t-94.5 58t-110.5 18q-59 0 -113.5 -19.5t-96.5 -60t-66.5 -103t-24.5 -150.5z" />
<glyph unicode="c" horiz-adv-x="1017" d="M59 508q0 109 34 206t101.5 170.5t167 116.5t230.5 43q59 0 119.5 -10t109.5 -28.5t80 -45t31 -61.5q0 -90 -103 -90q-25 0 -46 7t-49.5 14.5t-72 14.5t-106.5 7q-135 0 -209 -92t-74 -240q0 -162 75 -260t212 -98q86 0 139.5 14t87 32.5t55 33t48.5 14.5 q37 0 58.5 -15.5t21.5 -62.5q0 -49 -38 -86t-95.5 -61.5t-124 -36.5t-121.5 -12q-248 0 -389.5 137t-141.5 389z" />
<glyph unicode="d" horiz-adv-x="1155" d="M57 498q0 129 39 229t109.5 169t168 104.5t212.5 35.5q98 0 155.5 -22.5t89.5 -52.5v125.5t1.5 137t2.5 122t3 84.5q4 70 24.5 95t71.5 25q53 0 72.5 -25.5t23.5 -88.5q2 -27 3 -72t1 -98.5t1 -107.5t1 -98v-73v-29q0 -209 -3 -385t-3 -280q4 -23 17.5 -43.5t29 -41 t27.5 -43t12 -46.5q0 -29 -14.5 -50.5t-36 -36t-45 -21.5t-41.5 -7q-41 0 -68.5 33t-38.5 76q-25 -23 -56.5 -45.5t-72.5 -42t-90 -31.5t-106 -12q-70 0 -155 23.5t-159.5 81.5t-125 158.5t-50.5 252.5zM262 528q0 -68 19.5 -129t59.5 -109t100.5 -77t142.5 -29 q127 0 194.5 76t67.5 250q0 334 -264 334q-61 0 -118.5 -18.5t-102 -57.5t-72 -98.5t-27.5 -141.5z" />
<glyph unicode="e" horiz-adv-x="1095" d="M57 512q0 127 40 225.5t109.5 166t165 102t206.5 34.5q86 0 166.5 -22.5t143 -67.5t100.5 -113.5t38 -160.5q0 -82 -30.5 -139.5t-87 -92t-135.5 -51t-175 -16.5q-72 0 -150.5 11t-171.5 48q18 -125 103.5 -188.5t245.5 -63.5q57 0 103 7.5t81 16.5t61.5 16t49.5 7 q29 0 55 -17t26 -58q0 -51 -41.5 -84t-102 -52.5t-128 -26.5t-119.5 -7q-121 0 -222 32.5t-175 99t-115 165t-41 229.5zM274 598q78 -35 152 -48t156 -13q121 0 179 29.5t58 107.5q0 72 -54 125t-181 53q-55 0 -106.5 -13.5t-93.5 -43t-70.5 -77.5t-39.5 -120z" />
<glyph unicode="f" horiz-adv-x="604" d="M-47 932q0 47 25.5 74.5t101.5 27.5q47 0 96 -6v119q0 82 18.5 155.5t57.5 130t101.5 90t152.5 33.5q82 0 114.5 -23.5t32.5 -76.5t-43 -65.5t-98 -12.5q-68 0 -101.5 -59t-33.5 -145v-144q27 6 52.5 7t53.5 1q76 0 108 -24.5t32 -77.5q0 -68 -43 -87.5t-115 -19.5h-42 t-46 5v-705q0 -49 -8.5 -75.5t-22.5 -41t-32.5 -17.5t-39.5 -3q-18 0 -36.5 5t-31.5 20.5t-22.5 42t-9.5 67.5v704q-23 -2 -44 -3t-42 -1q-68 0 -101.5 21.5t-33.5 83.5z" />
<glyph unicode="g" horiz-adv-x="1142" d="M57 496q0 121 36 222t104.5 175t167 115t225.5 41q68 0 120 -12.5t93 -33t72.5 -49t58.5 -61.5q78 -98 112.5 -232.5t34.5 -322.5q0 -139 -23.5 -284.5t-85 -263.5t-170 -192.5t-278.5 -74.5q-31 0 -68.5 3t-77.5 9t-79 17.5t-72 29.5q-41 23 -65.5 43.5t-24.5 67.5 q0 39 17.5 70.5t60.5 31.5q20 0 45 -12t60.5 -25.5t85.5 -26t122 -12.5q96 0 163 38t108 109t58 170t17 224q-18 -66 -53 -111t-81 -72.5t-103 -39.5t-119 -12q-94 0 -178 26.5t-146.5 84t-99.5 146.5t-37 214zM262 524q0 -150 74 -231.5t203 -81.5q80 0 136 29.5t92 79 t53.5 111t17.5 122.5q0 51 -13.5 103.5t-44 95.5t-84 69.5t-133.5 26.5q-135 0 -218 -82t-83 -242z" />
<glyph unicode="h" horiz-adv-x="1136" d="M121 741q0 94 1 200t3 203t4 174t6 114q4 53 19.5 92t68.5 39q41 0 66.5 -29t28.5 -109q4 -72 8 -199.5t6 -287.5q29 23 69.5 42t85.5 32.5t92.5 21.5t88.5 8q98 0 170.5 -46t115.5 -132q29 -55 43.5 -121.5t20.5 -140.5q2 -33 4 -64.5t3 -67.5t1 -81v-106t-2 -113.5 t-11 -90.5t-29.5 -59.5t-57.5 -21.5q-53 0 -79 34t-26 81v43t-1 95t-2 109.5t-3 90.5q-2 33 -5 70.5t-8 76.5t-13.5 75t-20.5 64q-29 68 -72 86.5t-92 18.5q-76 0 -136 -22.5t-136 -61.5v-39t-1 -94.5t-2 -128l-2 -141t-4.5 -134t-5.5 -106.5q-4 -43 -9 -67.5t-12 -36 t-19.5 -13.5t-26.5 -2q-35 0 -54.5 3t-31.5 14.5t-17.5 34t-9.5 61.5t-7 107.5t-5 153.5t-3 181t-1 190z" />
<glyph unicode="i" horiz-adv-x="462" d="M106 1313q0 49 38 85t87 36q47 0 87 -37t40 -88q0 -49 -41 -85t-92 -36q-43 0 -81 36t-38 89zM129 514q0 145 2 248.5t11.5 170t30 98.5t56.5 32q35 0 61.5 -24.5t31.5 -106.5q12 -215 12 -416q0 -102 -4 -191t-8 -196q-2 -49 -9.5 -75.5t-19.5 -41t-27.5 -17.5t-36.5 -3 q-37 0 -61.5 25.5t-28.5 109.5q-4 76 -7 173t-3 214z" />
<glyph unicode="j" horiz-adv-x="460" d="M-147 -432q0 53 43 65.5t98 12.5q68 0 101.5 59t33.5 145v1055q0 49 8 76t22.5 41t33 17t38.5 3q37 0 69 -26.5t32 -108.5l-2 -1030q0 -82 -18.5 -155.5t-57.5 -130t-102.5 -90t-151.5 -33.5q-82 0 -114.5 23.5t-32.5 76.5zM104 1337q0 49 38 85t87 36q47 0 87 -37 t40 -88q0 -49 -41 -85t-92 -36q-43 0 -81 36t-38 89z" />
<glyph unicode="k" horiz-adv-x="1081" d="M121 716.5v289.5q0 174 2 284.5t12 174t32.5 87t65.5 23.5q37 0 53.5 -23.5t24.5 -103.5q4 -49 7.5 -132t4.5 -181.5t2 -205t1 -202.5v-166l454 412q23 20 54.5 39.5t66.5 19.5q41 0 61.5 -31.5t20.5 -72.5q0 -23 -7 -42.5t-30 -35.5l-276 -227l336 -488q18 -25 18 -55 q0 -45 -28.5 -67.5t-73.5 -22.5q-33 0 -57.5 12t-47.5 47l-307 445l-186 -154q-2 -76 -4.5 -135.5t-6.5 -93.5q-8 -72 -26.5 -94.5t-65.5 -22.5t-64.5 22.5t-23.5 92.5q-4 45 -6 136t-4 210.5t-2 261z" />
<glyph unicode="l" horiz-adv-x="458" d="M127 1006q0 145 2 249.5t11.5 172t29.5 99.5t57 32q35 0 61.5 -23t30.5 -104q8 -147 10.5 -306t2.5 -313v-177t-2 -168t-4 -169t-7 -178q-2 -49 -9 -76t-19 -41t-27.5 -17t-36.5 -3q-37 0 -61.5 25.5t-28.5 109.5q-2 74 -4 172t-3 212.5t-2 241.5t-1 261z" />
<glyph unicode="m" horiz-adv-x="1808" d="M123 426v71.5t1 59.5t2 58.5t3 68.5q6 125 45 199.5t92 113.5t114.5 50.5t113.5 11.5q111 0 186.5 -33t123.5 -86t71.5 -120.5t31.5 -137.5q8 68 34 134.5t76 118.5t130 85t196 33q55 0 114 -11.5t108 -50.5t82.5 -111.5t40.5 -195.5q2 -39 3 -68.5t2 -58.5t1 -59.5 v-71.5q0 -84 -1 -142.5t-1 -105.5q0 -39 -3 -71.5t-13.5 -55t-30 -36t-56.5 -13.5q-35 0 -53.5 13t-30.5 46q-12 35 -15 78t-3 107q0 45 1 70.5t1 45t1 39t1 54.5q0 72 -3 144.5t-21.5 130.5t-57.5 95t-113 37q-125 0 -194.5 -118.5t-83.5 -378.5q-4 -82 -4 -150t-8 -116 t-30 -74.5t-71 -26.5q-45 0 -65.5 23.5t-29.5 70.5t-10 114.5t-7 158.5q-6 98 -19.5 188t-43.5 158.5t-80 109.5t-128 41q-74 0 -113.5 -35.5t-58 -94t-21.5 -131.5t-3 -146q0 -37 1 -54.5t1 -32t1 -37t1 -69.5q0 -68 -3 -117t-16 -84q-14 -41 -38.5 -50t-45.5 -9 q-63 0 -81.5 45t-20.5 131q0 47 -1 105.5t-1 142.5z" />
<glyph unicode="n" horiz-adv-x="1140" d="M123 631q0 104 3 169.5t11 117.5q12 86 32.5 108.5t55.5 22.5q51 0 77 -29t32 -94q76 66 163 104.5t179 38.5q88 0 160.5 -41t119.5 -133q29 -55 43.5 -121.5t20.5 -140.5q2 -33 4 -64.5t3 -67.5t1 -81v-107q0 -66 -2 -123t-11 -99t-31.5 -65.5t-61.5 -23.5q-94 0 -99 90 v52t-1 107.5t-2 125t-3 104.5q-2 33 -5 71t-8 77t-13.5 74.5t-20.5 64.5q-29 68 -72 86t-92 18q-76 0 -136 -24.5t-136 -73.5v-126t-2 -180t-4 -191.5t-9 -157.5q-4 -41 -9 -64.5t-14 -36t-24.5 -15.5t-40.5 -3t-40 3t-25 14.5t-16.5 34t-10.5 61.5q-4 37 -7 98t-5 134 t-3 147.5t-1 138.5z" />
<glyph unicode="o" horiz-adv-x="1155" d="M57 508q0 117 38 214t108.5 168t171 109.5t223.5 38.5q117 0 209 -35.5t156.5 -101t99.5 -160t35 -211.5q0 -129 -40 -231t-110.5 -174t-168 -111t-212.5 -39q-125 0 -220 43t-159.5 117t-97.5 170t-33 203zM272 500q0 -150 76.5 -243t226.5 -93q84 0 143.5 29.5t97.5 79 t55.5 111.5t17.5 130q0 70 -17.5 130.5t-53.5 105.5t-92 70.5t-134 25.5q-80 0 -139.5 -26.5t-99.5 -73t-60.5 -110t-20.5 -136.5z" />
<glyph unicode="p" horiz-adv-x="1206" d="M109 242q0 240 33.5 395.5t101 247.5t167 129t230.5 37q104 0 196.5 -32t161 -98.5t109.5 -172t41 -252.5q0 -123 -42 -217.5t-115.5 -159t-173 -98t-212.5 -33.5q-96 0 -173 40t-109 87q10 -115 17 -213.5t7 -196.5q0 -39 -2 -75t-13 -64.5t-32.5 -46t-60.5 -17.5 q-45 0 -75 32t-34 112q-2 51 -6 124.5t-7 155.5l-6 164t-3 152zM358 522q0 -68 13.5 -128t44 -105t82 -72t125.5 -27q57 0 110 15.5t95 52.5t68 98.5t26 153.5q0 94 -26 158.5t-68 104.5t-94 56.5t-103 16.5q-72 0 -124 -24.5t-85 -67.5t-48.5 -102.5t-15.5 -129.5z" />
<glyph unicode="q" horiz-adv-x="1204" d="M57 502q0 147 40 252.5t108.5 172t160 98.5t195.5 32q131 0 230.5 -37t167 -129t101.5 -248t34 -395q0 -70 -3.5 -155t-6.5 -169t-7 -160.5t-6 -128.5q-4 -80 -33.5 -111.5t-74.5 -31.5q-39 0 -60.5 17.5t-33 46t-13.5 64.5t-2 75q0 98 7 211.5t18 228.5 q-33 -61 -113 -97t-176 -36q-113 0 -210 33t-169 95.5t-113 155.5t-41 216zM285 516q0 -92 23.5 -153.5t63.5 -98.5t92 -52t109 -15q74 0 126.5 26.5t84 71.5t46 105.5t14.5 127.5q0 141 -65 232.5t-208 91.5q-53 0 -104 -16.5t-91 -56.5t-65.5 -104.5t-25.5 -158.5z" />
<glyph unicode="r" horiz-adv-x="772" d="M123 547q0 143 1 231t11 156q10 84 31.5 108.5t56.5 24.5q25 0 44.5 -4t34.5 -17.5t23.5 -38t8.5 -67.5q0 -8 2 -16q0 -8 1 -17.5t1 -21.5q55 70 126 119t161 50q120 0 120 -100q0 -39 -15 -63.5t-43 -39.5t-63.5 -23.5t-78.5 -16.5q-66 -12 -123 -46t-78 -85 q0 -39 1 -57.5t2 -30.5t1 -26.5v-45.5q0 -104 -4 -195.5t-8 -197.5q-2 -49 -11.5 -75.5t-22.5 -41t-29.5 -17.5t-32.5 -3q-57 0 -77 25.5t-28 109.5q-8 72 -10 174t-2 248z" />
<glyph unicode="s" horiz-adv-x="942" d="M39 150q0 41 19.5 62t47.5 21q23 0 47.5 -14t59.5 -30.5t84 -31t121 -14.5q27 0 69.5 3.5t84.5 17.5t72 39.5t30 72.5q0 37 -20.5 63t-55.5 44t-81 31.5t-97 27.5q-59 16 -119.5 37t-110 53.5t-80 83t-30.5 123.5q0 70 28.5 130.5t82 105.5t128 69.5t166.5 24.5 q43 0 108.5 -7t125 -26.5t102.5 -54.5t43 -88q0 -31 -17.5 -53.5t-53.5 -22.5q-27 0 -61 8.5t-74 19.5t-86 19t-97 8q-86 0 -140 -26.5t-54 -83.5q0 -33 19 -55.5t53 -40t80 -29.5t97 -25q63 -16 126 -36.5t112 -56.5t80 -90t31 -134q0 -152 -115 -241t-338 -89 q-49 0 -116.5 7.5t-127 26.5t-101.5 55t-42 96z" />
<glyph unicode="t" horiz-adv-x="813" d="M35 938q0 98 147 98h55.5t55.5 -4q0 109 4 174.5t15.5 101t30.5 47t50 11.5q33 0 53.5 -22.5t31.5 -57.5t14.5 -78t3.5 -84q0 -29 -1 -52t-1 -42q29 8 59.5 9t58.5 1q76 0 117 -23.5t41 -76.5q0 -33 -14.5 -52.5t-38 -29.5t-55 -13t-68.5 -3h-47t-49 4v-199t-2 -173 t-4.5 -165t-6.5 -174q-2 -49 -9 -75.5t-19.5 -41t-27.5 -17.5t-36 -3q-37 0 -62.5 25.5t-29.5 109.5q-6 129 -7 306t-1 403q-20 -2 -48 -2h-44q-37 0 -67 2t-52.5 12t-34.5 29.5t-12 54.5z" />
<glyph unicode="u" horiz-adv-x="1112" d="M100 774q0 63 2 114.5t11.5 88.5t30 57.5t57.5 20.5q96 0 104 -127q3 -42 3 -100v-29v-38q0 -58 2 -121q3 -83 13.5 -166t36 -148.5t71.5 -106.5t120 -41t120 41t71.5 106.5t35.5 148.5t14 166q3 65 2 125v33v30q0 57 3 100q8 127 104 127q37 0 57.5 -20.5t29.5 -57.5 t11 -88t2 -115q0 -131 -13 -271.5t-59 -257t-136.5 -192.5t-241.5 -76q-152 0 -242 76t-136 192.5t-59.5 257t-13.5 271.5z" />
<glyph unicode="v" horiz-adv-x="991" d="M29 954q0 35 21.5 57.5t58.5 22.5q23 0 48 -18.5t52 -69.5q78 -156 144.5 -316.5t129.5 -326.5q63 166 130 327t145 316q27 51 52.5 69.5t47.5 18.5q37 0 58.5 -22.5t21.5 -57.5q0 -61 -45 -163.5t-127 -282.5q-25 -53 -49.5 -114.5t-47 -120t-43 -108.5t-36.5 -83 q-45 -94 -109 -94q-59 0 -104 94q-16 33 -37 83t-43.5 108.5t-47 120t-48.5 114.5q-82 180 -127 282.5t-45 163.5z" />
<glyph unicode="w" horiz-adv-x="1439" d="M61 954q0 35 19.5 57.5t56.5 22.5q41 0 66.5 -17.5t40.5 -70.5q41 -150 79.5 -304.5t90.5 -319.5q45 98 90 204.5t119 247.5q12 27 35.5 40t52.5 13q25 0 48 -12t38 -39q59 -111 107 -224.5t104 -229.5q51 166 90 320.5t80 303.5q14 53 38.5 70.5t63.5 17.5 q35 0 57.5 -19.5t22.5 -51.5q0 -27 -13.5 -93.5t-35 -153.5t-47 -185.5t-51 -188.5t-48 -164t-35.5 -110q-16 -47 -38.5 -71t-69.5 -24q-43 0 -71.5 34t-53.5 81q-8 16 -26.5 55t-44 92.5t-55.5 117t-60 128.5q-31 -66 -63 -129t-58.5 -117.5t-46 -93.5l-27.5 -55 q-25 -47 -52.5 -81t-72.5 -34q-72 0 -108 95q-14 37 -37 109.5t-47.5 162.5t-49 187.5t-44 183.5t-32 151.5t-12.5 93.5z" />
<glyph unicode="x" horiz-adv-x="1036" d="M37 72q0 25 34.5 75t86 111t111 128t108.5 126q-66 76 -124 147.5t-101 133t-69 108.5t-26 74t27 46t49 19q18 0 63.5 -39.5t101.5 -96t114.5 -120t105.5 -112.5q45 49 101.5 111.5t111.5 117.5t102.5 94t73.5 39q23 0 45.5 -16.5t22.5 -42.5q0 -27 -25.5 -74 t-68.5 -108.5t-101.5 -133t-124.5 -147.5l110.5 -123.5t111 -129t85 -113t33.5 -74.5q0 -29 -27.5 -53.5t-56.5 -24.5q-27 0 -70.5 33.5t-98 86t-113 117t-113.5 125.5q-92 -96 -156.5 -164.5t-109.5 -112.5t-75 -64.5t-54 -20.5q-29 0 -56.5 24.5t-27.5 53.5z" />
<glyph unicode="y" horiz-adv-x="1060" d="M29 969q0 27 21.5 46t53.5 19q29 0 55.5 -11t49.5 -50q33 -61 68.5 -140t71.5 -165t74 -174t77 -170q45 84 96 176t99 178t89 158.5t70 121.5q29 47 57.5 68t59.5 21q20 0 40.5 -17.5t20.5 -46.5q0 -43 -38 -138t-97 -220t-134 -267.5t-148.5 -278.5t-140 -255 t-109.5 -199q-27 -47 -50.5 -69.5t-54.5 -22.5q-29 0 -57.5 18.5t-28.5 51.5q0 31 21.5 88t53.5 124.5t66.5 139.5t63.5 131l14 31q-61 121 -125.5 258t-118 260t-87 214t-33.5 120z" />
<glyph unicode="z" horiz-adv-x="950" d="M49 66q0 49 32 113.5t76 129t88 119.5t68 88q70 92 137.5 164t149.5 149q-47 -4 -107.5 -4h-115.5q-86 0 -144.5 2t-94.5 11.5t-50 30t-14 57.5q0 35 22.5 60.5t106.5 31.5q37 2 55 5t32.5 4t32 2t52.5 1q84 0 163.5 -3t168.5 -7q20 0 45.5 -4t48 -14.5t38 -29 t15.5 -46.5q0 -49 -53 -131t-134 -181.5t-176.5 -209t-179.5 -211.5q23 2 53.5 3t53.5 1q92 0 170 -3.5t174 -7.5q49 -2 75.5 -9t41 -19.5t17.5 -28.5t3 -37q0 -37 -25.5 -61.5t-109.5 -28.5q-70 -4 -155 -7t-189 -3q-125 0 -199 2t-111.5 9t-49 21.5t-11.5 41.5z" />
<glyph unicode="{" horiz-adv-x="681" d="M82 707q0 53 32.5 98t98.5 45q35 0 80 -21q6 6 9 22.5t6 35t4 36t1 25.5q0 16 -2 25q-12 78 -32.5 164t-20.5 172q0 45 12.5 95t40 92t72.5 69.5t111 27.5q63 0 115.5 -32.5t52.5 -102.5q0 -59 -33 -88t-68 -29q-20 0 -39.5 9.5t-34.5 27.5q-16 -10 -23 -29.5t-7 -43.5 q0 -55 8 -102.5t18.5 -90.5t18.5 -85t8 -89q0 -49 -11.5 -113.5t-43.5 -117.5q33 -55 44 -122t11 -114t-8 -89t-18.5 -85t-18.5 -90t-8 -103q0 -25 7 -44t23 -29q14 18 34 27.5t40 9.5q35 0 68 -29t33 -88q0 -70 -52.5 -102.5t-115.5 -32.5q-66 0 -111 27.5t-72.5 69.5 t-40 92t-12.5 95q0 86 20.5 172t32.5 164q2 8 2 25q0 8 -1 25.5t-4 37t-6 37t-9 23.5q-35 -23 -72 -23q-72 0 -105.5 46t-33.5 100z" />
<glyph unicode="|" horiz-adv-x="450" d="M123 1040q0 145 2 249t11 169.5t29.5 96t57.5 30.5q35 0 61.5 -22.5t30.5 -104.5q8 -156 10.5 -318.5t2.5 -326.5q0 -207 -2 -401.5t-11 -403.5q-2 -49 -9 -75.5t-19.5 -41t-27.5 -17.5t-36 -3q-37 0 -61.5 25.5t-28.5 109.5q-2 86 -4 201t-3 249t-2 282.5t-1 301.5z" />
<glyph unicode="}" horiz-adv-x="681" d="M20 -49q0 59 33 88t68 29q45 0 74 -37q16 10 23 29.5t7 43.5q0 55 -8 102.5t-18.5 90.5t-18.5 85t-8 89t11.5 113.5t43.5 122.5q-33 53 -44 117.5t-11 113.5q0 47 8 89t18.5 85t18.5 90t8 103q0 25 -7 44t-23 29q-29 -37 -74 -37q-35 0 -68 29t-33 88q0 70 52.5 102.5 t115.5 32.5q66 0 111 -27.5t72.5 -69.5t40 -92t12.5 -95q0 -86 -20.5 -172t-32.5 -164q-2 -8 -2 -25q0 -8 1 -25.5t4 -36t6 -34.5t9 -23q45 20 80 21q66 0 98.5 -45t32.5 -98t-34 -99.5t-105 -46.5q-37 0 -72 23q-6 -6 -9 -23.5t-6 -37t-4 -37t-1 -25.5q0 -16 2 -25 q12 -78 32.5 -164t20.5 -172q0 -45 -12.5 -95t-40 -92t-72.5 -69.5t-111 -27.5q-63 0 -115.5 32.5t-52.5 102.5z" />
<glyph unicode="~" horiz-adv-x="901" d="M70 440q0 23 17 60t49 72.5t74 61t91 25.5q59 0 96 -15t66 -34.5t56.5 -35t68.5 -15.5q61 0 94 16.5t53.5 37t33.5 37t36 16.5q29 0 53.5 -16.5t24.5 -47.5q0 -47 -21.5 -91t-60.5 -79t-94.5 -56.5t-122.5 -21.5q-43 0 -78 16.5t-65.5 35t-58 35t-58.5 16.5 q-33 0 -57.5 -14.5t-46 -33t-43 -33t-46.5 -14.5q-27 0 -44 22t-17 56z" />
<glyph unicode="&#xa1;" horiz-adv-x="456" d="M102 928q0 53 38 89t81 36q51 0 92 -36t41 -85q0 -51 -40 -88t-87 -37q-49 0 -87 36t-38 85zM127 37q0 145 2 239.5t11.5 149.5t29.5 76.5t57 21.5q35 0 61.5 -24.5t30.5 -106.5q2 -53 5.5 -96t4.5 -84l2 -82t1 -92q0 -102 -4 -204.5t-9 -209.5q-2 -49 -9 -75.5t-19 -41 t-27.5 -17.5t-36.5 -3q-37 0 -61.5 25.5t-28.5 109.5q-4 76 -7 186.5t-3 227.5z" />
<glyph unicode="&#xa2;" horiz-adv-x="1017" d="M59 774q0 94 26 180t76 156t125.5 119t176.5 69q4 125 27.5 181.5t74.5 56.5q18 0 34.5 -4t30 -17.5t21.5 -39t8 -66.5v-102q51 -4 100.5 -16.5t87.5 -30t61.5 -42t23.5 -53.5q0 -90 -103 -90q-25 0 -46 7.5t-49.5 14.5t-72 14t-106.5 7q-135 0 -209 -92t-74 -240 q0 -162 75 -260t212 -98q86 0 139.5 14.5t87 33t55 32.5t48.5 14q37 0 58.5 -15t21.5 -63q0 -43 -29 -75.5t-74 -56t-100 -39t-109 -21.5q0 -90 -5 -140.5t-17 -75t-30.5 -30.5t-43.5 -6q-18 0 -35.5 5t-30 20.5t-20.5 42t-8 67.5v123q-193 33 -300.5 165t-107.5 351z" />
<glyph unicode="&#xa3;" horiz-adv-x="1257" d="M78 694q0 18 4 32.5t18.5 26t40 19.5t66.5 12q27 2 45 4.5t59 4.5q-2 47 -2 95v99q0 236 103.5 356.5t324.5 120.5q39 0 93.5 -12t105.5 -37.5t87 -67.5t36 -102q0 -47 -32 -73.5t-71 -26.5q-27 0 -41 17.5t-35.5 39t-56.5 40t-102 18.5q-45 0 -83 -12.5t-65.5 -47.5 t-43 -97.5t-15.5 -160.5v-147q49 -2 112.5 -3t143.5 -1q49 0 75.5 -8.5t41 -20.5t17.5 -29.5t3 -38.5q0 -37 -25.5 -61.5t-109.5 -28.5q-66 -4 -125 -6t-129 -4q4 -94 8 -170t15 -145q53 -8 88 -21.5t66.5 -26t68.5 -21.5t94 -9q76 0 116 11t63.5 25.5t39 25.5t43.5 11 q29 0 53.5 -16t24.5 -47q0 -92 -89 -153.5t-255 -61.5q-70 0 -127 15.5t-108.5 33.5t-101.5 33.5t-107 15.5q-43 0 -76 -15.5t-61.5 -32.5t-56.5 -32.5t-60 -15.5q-25 0 -43.5 21.5t-18.5 56.5q0 20 19.5 50t52.5 60.5t78 56t96 38.5q-8 80 -13 157.5t-10 155.5 q-59 0 -104 2t-74.5 12t-45 30.5t-15.5 55.5z" />
<glyph unicode="&#xa4;" horiz-adv-x="1155" d="M96 252q0 29 36 82t95 121q-39 57 -57 124.5t-18 141.5q0 158 86 272q-27 31 -52.5 64t-45 61.5t-32 52t-12.5 39.5q0 25 18.5 44.5t41.5 19.5q35 0 84 -43t127 -131q49 27 107 41t124 14q117 0 205 -47q154 166 205 166q25 0 43 -19.5t18 -44.5q-4 -35 -46 -93t-93 -118 q35 -51 54.5 -114.5t19.5 -141.5q0 -84 -20.5 -153.5t-59.5 -126.5q59 -70 101 -125t42 -86q0 -25 -19.5 -46.5t-48.5 -21.5q-27 0 -80 48.5t-118 115.5q-102 -63 -234 -63q-125 0 -215 53q-59 -66 -111.5 -110t-76.5 -44q-27 0 -47.5 21.5t-20.5 46.5zM354 713 q0 -104 57.5 -173t163.5 -69q59 0 102.5 20.5t71 56.5t41 82t13.5 97q0 98 -51.5 168t-159.5 70q-117 0 -177.5 -71t-60.5 -181z" />
<glyph unicode="&#xa5;" horiz-adv-x="1206" d="M41 1341q0 39 21.5 65t74.5 26q80 0 139 -93l306 -485l305 485q57 92 139 93q53 0 74.5 -26t21.5 -65q0 -23 -9 -47t-26 -47l-366 -524q106 0 167.5 -5t92.5 -17.5t39 -32t8 -47.5q0 -33 -16.5 -51.5t-55 -28t-104.5 -13.5t-166 -6v-58.5t-2 -60.5q113 0 180.5 -4 t104.5 -16t48 -31.5t11 -50.5q0 -33 -16.5 -51.5t-57.5 -28.5t-108.5 -13t-167.5 -5q0 -76 -6 -118t-17.5 -62.5t-29 -25.5t-41.5 -5q-39 0 -62.5 25.5t-32.5 109.5v74h-96q-70 0 -119 2t-79.5 11t-45 29.5t-14.5 57.5q0 31 17.5 51.5t57.5 32.5t104.5 16.5t158.5 4.5h12 q-2 29 -2 56v58h-90q-70 0 -119 2t-79.5 11.5t-45 30t-14.5 57.5q0 31 13.5 49t47 29.5t93 16.5t151.5 9l-364 522q-16 23 -25.5 47.5t-9.5 46.5z" />
<glyph unicode="&#xa6;" horiz-adv-x="450" d="M123 406q0 66 2 111.5t11 75.5t29.5 44t57.5 14q35 0 61.5 -10t30.5 -47q8 -72 10.5 -144.5t2.5 -146.5q0 -94 -2 -180t-11 -182q-4 -43 -27.5 -52.5t-64.5 -9.5q-37 0 -61.5 12.5t-28.5 49.5q-4 78 -7 201.5t-3 263.5zM123 1337q0 66 2 112t11 75.5t29.5 44t57.5 14.5 q35 0 61.5 -10t30.5 -47q8 -72 10.5 -144.5t2.5 -146.5q0 -94 -2 -180t-11 -183q-4 -43 -27.5 -52t-64.5 -9q-37 0 -61.5 12t-28.5 49q-4 78 -7 202t-3 263z" />
<glyph unicode="&#xa7;" horiz-adv-x="942" d="M39 150q0 41 19.5 62t47.5 21q23 0 47.5 -14t59.5 -30.5t84 -31t121 -14.5q27 0 69.5 3.5t84.5 17.5t72 39.5t30 72.5q0 37 -20.5 63t-55.5 44t-81 31.5t-97 27.5q-59 16 -119.5 37t-110 53.5t-80 82.5t-30.5 124q0 59 21.5 112.5t60.5 94.5q-37 33 -59.5 77t-22.5 110 q0 70 28.5 130t82 105t128 69.5t166.5 24.5q43 0 108.5 -7t125 -26.5t102.5 -54.5t43 -88q0 -31 -17.5 -53.5t-53.5 -22.5q-27 0 -61 8.5t-74 19.5t-86 19.5t-97 8.5q-86 0 -140 -27t-54 -84q0 -33 19 -55.5t53 -40t80 -29.5t97 -24q63 -16 126 -37t112 -56.5t80 -90 t31 -134.5q0 -123 -74 -203q35 -35 54.5 -81t19.5 -109q0 -152 -115 -241t-338 -89q-49 0 -116.5 7.5t-127 26.5t-101.5 55t-42 96zM281 762q0 -33 19 -55.5t53 -40t80 -30t97 -24.5q25 -6 49.5 -12t49.5 -14q20 14 32.5 34.5t12.5 49.5q0 37 -20.5 62.5t-55.5 44t-81 31.5 t-97 28l-66 18q-35 -14 -54 -36.5t-19 -55.5z" />
<glyph unicode="&#xa8;" horiz-adv-x="649" d="M14 1335q0 49 38 85t87 36q47 0 87 -37t40 -88q0 -49 -41 -85t-92 -36q-43 0 -81 36t-38 89zM383 1335q0 49 38 85t87 36q47 0 87 -37t40 -88q0 -49 -41 -85t-92 -36q-43 0 -81 36t-38 89z" />
<glyph unicode="&#xa9;" d="M106 707q0 141 39 258.5t114 202.5t187.5 132.5t260.5 47.5q133 0 242.5 -44t187 -125t120.5 -197t43 -259q0 -133 -37.5 -251t-115.5 -206t-196.5 -139t-278.5 -51q-119 0 -221.5 42t-179 121.5t-121 197.5t-44.5 270zM240 709q0 -123 34.5 -219.5t94 -163t139.5 -101.5 t170 -35q127 0 220 43t154.5 116t92.5 169t31 203q0 127 -38 222t-102.5 157.5t-150.5 94.5t-180 32q-217 0 -341 -136.5t-124 -381.5zM387 713q0 70 20.5 133t62.5 111.5t104.5 77t146.5 28.5q39 0 77 -8t67.5 -22.5t48 -32t18.5 -37.5q0 -55 -58 -56q-14 0 -27 4 t-29.5 10.5t-41 10.5t-63.5 4q-96 0 -145.5 -56.5t-49.5 -154.5q0 -111 50 -172t149 -61q51 0 80.5 9t49 21.5t33 21.5t29.5 9q20 0 33.5 -10.5t13.5 -40.5q0 -29 -22.5 -52.5t-57 -41t-76.5 -26.5t-79 -9q-160 0 -247 90t-87 250z" />
<glyph unicode="&#xaa;" horiz-adv-x="819" d="M82 1190q0 72 18.5 134t55.5 109.5t93 75t130 27.5q53 0 95 -13.5t79 -45.5q8 20 25.5 35.5t52.5 15.5q27 0 47 -20.5t24 -73.5q4 -57 6.5 -111.5t2.5 -105.5q0 -66 -2 -121.5t-7 -114.5q-4 -59 -23 -77.5t-48 -18.5q-39 0 -54.5 13t-21.5 36q-31 -20 -77 -37.5 t-101 -17.5q-51 0 -103.5 14t-95.5 50t-69.5 95.5t-26.5 151.5zM250 1202q0 -94 39 -140t104 -46q80 0 116 54t36 132q0 57 -16.5 94t-40 57.5t-52 28t-53.5 7.5q-74 0 -103.5 -52.5t-29.5 -134.5z" />
<glyph unicode="&#xab;" horiz-adv-x="1331" d="M20 553q0 47 43 89t107 101q78 76 157 151t156 140q37 33 62.5 46.5t44.5 13.5q18 0 32.5 -8.5t28.5 -22.5q23 -27 23 -57q0 -23 -26.5 -62t-57.5 -70q-37 -39 -65.5 -67.5t-62.5 -62t-82 -80t-122 -117.5q78 -78 127 -126t85 -83t67.5 -66.5l76.5 -76.5 q33 -35 46.5 -59.5t13.5 -45.5q0 -16 -2 -31.5t-17 -29.5q-16 -16 -31.5 -21.5t-33.5 -5.5t-44 13.5t-63 45.5q-78 66 -156.5 142t-156.5 151q-18 18 -44 42t-49.5 50.5t-40 54t-16.5 52.5zM637 553q0 47 43 89t106 101q78 76 157 151t157 140q37 33 62.5 46.5t43.5 13.5 t32.5 -8.5t29.5 -22.5q23 -27 22 -57q0 -23 -26.5 -62t-57.5 -70q-37 -39 -65.5 -67.5t-62.5 -62t-82 -80t-122 -117.5q78 -78 127.5 -126t85 -83t67.5 -66.5t77 -76.5q33 -35 46 -59.5t13 -45.5q0 -16 -2 -31.5t-16 -29.5q-16 -16 -31.5 -21.5t-34.5 -5.5q-18 0 -43.5 13.5 t-62.5 45.5q-78 66 -157 142t-157 151q-18 18 -43.5 42t-49 50.5t-40 54t-16.5 52.5z" />
<glyph unicode="&#xac;" horiz-adv-x="1249" d="M102 745q0 18 4.5 34t18.5 29t39.5 21.5t66.5 12.5q98 8 196.5 12t203.5 4q90 0 183.5 -4t195.5 -12q27 -2 51 -10.5t43.5 -40t31 -98t11.5 -187.5q0 -70 -2 -119t-11.5 -80t-30 -45t-56.5 -14q-33 0 -53.5 18.5t-32 64.5t-15.5 123.5t-4 196.5q-57 -2 -112.5 -3t-122 -2 t-150.5 -1h-197q-139 0 -198.5 16.5t-59.5 83.5z" />
<glyph unicode="&#xad;" horiz-adv-x="983" d="M41 602q0 18 4 33.5t18.5 28t40 21.5t66.5 13q31 2 54.5 4.5t46 3.5t48 1h60.5q111 0 213 -1t213 -8q49 -4 75.5 -11t41 -19.5t17.5 -28.5t3 -37q0 -37 -25.5 -61.5t-109.5 -28.5q-94 -4 -217 -7t-291 -3q-70 0 -119 2t-79.5 11t-45 29.5t-14.5 57.5z" />
<glyph unicode="&#xae;" d="M205 1034q0 119 31.5 218.5t95 170t158 109.5t217.5 39q113 0 203.5 -37t155 -104.5t100.5 -164t36 -214.5q0 -113 -31.5 -211.5t-97 -172t-166 -116.5t-235.5 -43q-98 0 -183.5 35t-147.5 102.5t-99 165.5t-37 223zM299 1036q0 -104 29.5 -188t82 -141.5t121 -88 t146.5 -30.5q109 0 190.5 37t136 100t82 147t27.5 177q0 109 -32.5 190.5t-88 136t-130.5 82t-158 27.5q-92 0 -168 -31t-128.5 -89t-81 -141t-28.5 -188zM494 907v279q0 80 37.5 124t140.5 44q49 0 92 -9.5t75.5 -31t52 -56t19.5 -86.5q0 -174 -145 -190l133 -162 q18 -18 19 -35q0 -29 -46 -28q-12 0 -25 9t-26 19l-153 179h-97v-170q0 -23 -10 -30t-24 -7q-12 0 -21.5 4t-13.5 19.5t-6 45t-2 82.5zM573 1034q10 -2 20.5 -2h20.5h23q37 0 71.5 4t61.5 17.5t43 38t16 65.5q0 113 -178 113q-47 0 -62.5 -32t-15.5 -124v-80z" />
<glyph unicode="&#xaf;" horiz-adv-x="983" d="M143 1432q0 29 14.5 49t51.5 32.5t102.5 17.5t167.5 5q115 0 185.5 -5t109.5 -16.5t52.5 -32t13.5 -50.5q0 -37 -25.5 -62t-109.5 -29q-47 -2 -69 -4t-46.5 -3t-64.5 -2t-124 -1q-70 0 -119 2t-79.5 11.5t-45 30t-14.5 57.5z" />
<glyph unicode="&#xb0;" horiz-adv-x="747" d="M109 1282q0 51 21.5 94t56 75t80.5 49.5t93 17.5q49 0 95.5 -18.5t80 -50.5t54 -75t20.5 -92t-19.5 -92t-53 -75t-79.5 -50t-98 -18q-51 0 -96 18t-79.5 50t-55 75t-20.5 92zM225 1280q0 -61 40 -92t93 -31q61 0 96 36t35 91q0 53 -33.5 92t-86.5 39q-70 0 -107 -38 t-37 -97z" />
<glyph unicode="&#xb1;" horiz-adv-x="940" d="M39 262q0 70 88 87.5t270 17.5h98.5t84.5 -1t84 -3.5t98 -4.5q49 -4 75.5 -11t41 -19.5t17.5 -28.5t3 -37q0 -37 -25.5 -61.5t-109.5 -28.5l-94 -4t-102.5 -3t-121 -2t-149.5 -1q-70 0 -119 2t-79.5 11t-45 29.5t-14.5 57.5zM39 877q0 31 16.5 51t54 31.5t101 16.5 t156.5 5l8 170q2 49 10 75.5t20.5 41t30 17.5t35.5 3q37 0 61.5 -25.5t28.5 -109.5l8 -174q106 0 172 -5t101 -16.5t46 -31t11 -49.5q0 -37 -25.5 -62t-109.5 -29q-45 -4 -92 -5t-101 -3v-51q0 -70 -2 -119t-11 -79.5t-29.5 -45t-57.5 -14.5q-29 0 -49.5 14.5t-32.5 49 t-17 94t-5 149.5h-91q-70 0 -115.5 2t-72.5 11.5t-38 30t-11 57.5z" />
<glyph unicode="&#xb2;" horiz-adv-x="729" d="M102 1413q0 18 10.5 48t39 57.5t78 48t128.5 20.5q121 0 185.5 -57t64.5 -162q0 -35 -17.5 -90t-76.5 -115q-18 -18 -41.5 -35.5t-51.5 -36t-59.5 -43t-68.5 -57.5q23 -10 44 -12t48 -2q45 0 73.5 2t48 5t33 5t27.5 2q59 0 60 -47q0 -37 -28 -56.5t-66.5 -28.5t-78.5 -11 t-67 -2q-23 0 -65.5 4t-88 17.5t-78 39t-32.5 68.5q0 37 24.5 68.5t62.5 62.5t82 61.5t82 62.5t62.5 65.5t24.5 72.5q0 86 -109 86q-43 0 -66.5 -16.5t-38 -36t-27.5 -35.5t-38 -16q-47 0 -63.5 14t-16.5 49z" />
<glyph unicode="&#xb3;" horiz-adv-x="743" d="M102 1010q0 63 76 63q29 0 40 -15.5t22.5 -34.5t32 -34.5t69.5 -15.5t90 24.5t41 89.5q0 68 -24.5 93.5t-65.5 25.5q-27 0 -49.5 -12t-52.5 -12q-27 0 -46.5 17.5t-19.5 47.5q0 35 49 81t135 118h-188q-41 0 -62.5 20.5t-21.5 42.5q0 25 19.5 39.5t50 23.5t69.5 12t80 3 q35 0 77 -3t78 -14t60.5 -34t24.5 -61q0 -20 -11.5 -43t-30 -43.5t-39 -39t-38.5 -30.5q92 -12 133 -68.5t41 -148.5q0 -66 -24.5 -115t-65.5 -81t-93 -48t-108 -16q-47 0 -91 8t-79 27.5t-56.5 51.5t-21.5 81z" />
<glyph unicode="&#xb4;" horiz-adv-x="663" d="M63 1235q2 25 30 57.5t69 66.5t92 65.5t101.5 56t93.5 40t69 15.5q35 0 60.5 -20.5t25.5 -59.5q0 -25 -26.5 -54.5t-69.5 -60t-96.5 -60.5t-105.5 -52.5t-99 -36.5t-78 -14q-23 4 -44.5 15t-21.5 42z" />
<glyph unicode="&#xb5;" horiz-adv-x="1089" d="M100 256v244q0 117 3.5 217t7.5 176q4 84 28.5 109.5t61.5 25.5q20 0 35.5 -3t27.5 -17.5t19.5 -41t9.5 -75.5q4 -106 8 -198.5t4 -194.5q0 -51 -1 -102.5t-3 -104.5q51 -31 115.5 -55.5t138.5 -24.5t119 41t69.5 105.5t32.5 144.5t8 157q0 68 -3 128.5t-3 103.5 q0 127 96 127q39 0 60.5 -23.5t31 -63.5t11.5 -92.5t2 -107.5q0 -139 -9 -269t-46 -232.5t-112 -164t-208 -61.5q-74 0 -156.5 26.5t-154.5 67.5v-411q0 -43 -8.5 -69t-20.5 -39t-28.5 -18t-34.5 -5q-37 0 -62.5 28.5t-29.5 108.5q-2 61 -4.5 148t-3.5 191.5t-1 223.5z" />
<glyph unicode="&#xb6;" horiz-adv-x="1224" d="M82 1020q0 131 56.5 207t144.5 114.5t193.5 49t203.5 10.5q82 0 161 -1t165 -9q76 -6 106.5 -31t30.5 -66q0 -31 -15.5 -48t-39 -26.5t-50 -12.5t-49.5 -5q2 -14 3 -58t3 -103.5t3 -130t1 -138.5v-199.5t-2 -188.5t-4 -189.5t-6 -200.5q-2 -61 -9 -97t-19.5 -54.5 t-28 -22.5t-35.5 -4q-18 0 -32.5 7t-25 26.5t-16.5 54.5t-8 88q-4 84 -5 173t-3 192.5t-2 225.5v269v194.5t4 147.5h-143q0 -514 -3.5 -819t-7.5 -391q-2 -53 -7 -88t-16.5 -54.5t-25.5 -27t-35 -7.5q-20 0 -38.5 4.5t-33 23t-22.5 54t-8 97.5l-2 653q-199 0 -291 88 t-92 293z" />
<glyph unicode="&#xb7;" horiz-adv-x="333" d="M41 514q0 49 38 85t87 36q47 0 87 -37t40 -88q0 -49 -41 -85t-92 -36q-43 0 -81 36t-38 89z" />
<glyph unicode="&#xb8;" horiz-adv-x="530" d="M72 -412q0 41 27.5 56.5t58.5 15.5q18 0 48 -3t48 -3q25 0 44 10t19 39q0 37 -32.5 52.5t-70.5 32.5t-70.5 46t-32.5 90v11.5t2 22.5t6 42t10 72l147 -37q-8 -41 -9 -57.5t-1 -24.5q0 -31 19.5 -43t60.5 -29q59 -23 90 -60.5t31 -109.5q0 -29 -7 -64.5t-34 -66.5 t-76 -52.5t-131 -21.5q-59 0 -103 16.5t-44 65.5z" />
<glyph unicode="&#xb9;" horiz-adv-x="518" d="M102 1430q0 20 31 46.5t72 51t80 42t57 17.5q23 0 37 -18.5t22.5 -49t11.5 -68.5t3 -77v-117.5t-1 -104.5t-3 -100.5t-4 -105.5q-4 -55 -21.5 -70.5t-44.5 -15.5q-29 0 -48.5 16.5t-21.5 67.5q-2 37 -3 76t-2 92t-1 123v168q-35 -20 -55.5 -27.5t-40.5 -7.5 q-29 0 -48.5 14.5t-19.5 47.5z" />
<glyph unicode="&#xba;" horiz-adv-x="815" d="M82 1212q0 70 23.5 130.5t67.5 103.5t106.5 67.5t140.5 24.5q147 0 230 -85t83 -228q0 -78 -25.5 -139.5t-69.5 -105.5t-105.5 -67.5t-131.5 -23.5q-78 0 -138 26.5t-100 71.5t-60.5 103.5t-20.5 121.5zM254 1206q0 -80 39 -128t113 -48q43 0 72.5 15.5t49 41t27.5 59.5 t8 68q0 76 -34.5 128.5t-112.5 52.5q-80 0 -121 -53.5t-41 -135.5z" />
<glyph unicode="&#xbb;" horiz-adv-x="1331" d="M41 90q0 20 13 45t46 60q45 45 77 76.5t68 66.5t85 83t127 126q-74 72 -122 118t-82 79.5t-62.5 62.5t-65.5 67q-31 31 -57.5 70t-26.5 62q0 31 22 57q14 14 28.5 22.5t33.5 8.5q18 0 44 -13.5t62 -46.5q78 -66 157 -140.5t157 -150.5q63 -59 106 -101t43 -89 q0 -25 -16 -52.5t-40 -54t-49.5 -50t-43.5 -42.5q-78 -76 -157 -151.5t-157 -141.5q-37 -33 -62.5 -46t-43.5 -13t-33.5 5t-32.5 22q-14 14 -16 29.5t-2 31.5zM657 90q0 20 13.5 45t46.5 60l76.5 76.5t67.5 66.5t85 83t127 126q-74 72 -122 118t-81.5 79.5l-62.5 62.5 t-66 67q-31 31 -57.5 70t-26.5 62q0 31 23 57q14 14 28.5 22.5t32.5 8.5t44 -13.5t63 -46.5q78 -66 156.5 -140.5t156.5 -150.5q63 -59 106.5 -101t43.5 -89q0 -25 -16.5 -52.5t-40 -54t-49 -50t-44.5 -42.5q-78 -76 -156.5 -151.5t-156.5 -141.5q-37 -33 -62.5 -46 t-44.5 -13q-18 0 -33.5 5t-31.5 22q-14 14 -16.5 29.5t-2.5 31.5z" />
<glyph unicode="&#xbc;" horiz-adv-x="1794" d="M102 1430q0 20 31 46.5t72 51t80 42t57 17.5q23 0 37 -18.5t22.5 -49t11.5 -68.5t3 -77v-117.5t-1 -104.5t-3 -100.5t-4 -105.5q-4 -55 -21.5 -70.5t-44.5 -15.5q-29 0 -48.5 16.5t-21.5 67.5q-2 37 -3 76t-2 92t-1 123v168q-35 -20 -55.5 -27.5t-40.5 -7.5 q-29 0 -48.5 14.5t-19.5 47.5zM496 47q0 29 12 78q25 82 57.5 191.5t72.5 237.5t86 269.5t93 288.5q41 125 73 218t59.5 152.5t53 89.5t56.5 30t56.5 -20.5t25.5 -63.5q0 -14 -2 -31t-9 -39q-96 -340 -208.5 -687t-239.5 -691q-25 -66 -47.5 -88.5t-44.5 -22.5 q-37 0 -65.5 20.5t-28.5 67.5zM1155 274q0 18 13.5 46t35 61t46 67.5t48.5 67.5q25 33 55.5 73t62.5 74.5t62.5 57t53.5 22.5q25 0 40 -18t23.5 -47t11.5 -66t3 -75q0 -41 -1 -93.5t-1 -105.5q55 -6 69.5 -21.5t14.5 -42.5q0 -31 -22.5 -42t-63.5 -15q0 -16 1 -47t1 -53 q0 -53 -14.5 -84t-61.5 -31q-25 0 -39 6t-21.5 27.5t-8.5 63.5t-1 112q-20 -2 -48 -2h-50q-96 0 -152.5 13.5t-56.5 51.5zM1335 346q33 2 58.5 2h66.5v148z" />
<glyph unicode="&#xbd;" horiz-adv-x="1794" d="M102 1430q0 20 31 46.5t72 51t80 42t57 17.5q23 0 37 -18.5t22.5 -49t11.5 -68.5t3 -77v-117.5t-1 -104.5t-3 -100.5t-4 -105.5q-4 -55 -21.5 -70.5t-44.5 -15.5q-29 0 -48.5 16.5t-21.5 67.5q-2 37 -3 76t-2 92t-1 123v168q-35 -20 -55.5 -27.5t-40.5 -7.5 q-29 0 -48.5 14.5t-19.5 47.5zM475 47q0 29 12 78q25 82 58 191.5t72.5 237.5t86 269.5t93.5 288.5q41 125 72.5 218t59 152.5t53.5 89.5t56 30q31 0 56.5 -20.5t25.5 -63.5q0 -14 -2 -31t-8 -39q-96 -340 -209 -687t-239 -691q-25 -66 -47.5 -88.5t-45.5 -22.5 q-37 0 -65.5 20.5t-28.5 67.5zM1167 569q0 18 10.5 48t39 57.5t77.5 48t129 20.5q121 0 185.5 -57t64.5 -162q0 -35 -17.5 -90t-76.5 -115q-18 -18 -42 -35.5t-51.5 -36t-59 -43t-68.5 -57.5q23 -10 44 -12t48 -2q45 0 73.5 2t48 5t33 5t27.5 2q59 0 60 -47q0 -37 -28 -56 t-66.5 -28.5t-78.5 -11.5t-67 -2q-23 0 -66 4t-88 17.5t-77.5 39t-32.5 68.5q0 37 24.5 68.5t62.5 62.5t82 61.5t82 62.5t62.5 65.5t24.5 72.5q0 86 -109 86q-43 0 -66.5 -16t-38 -35.5t-27.5 -36t-38 -16.5q-47 0 -63.5 14.5t-16.5 48.5z" />
<glyph unicode="&#xbe;" horiz-adv-x="1794" d="M102 1010q0 63 76 63q29 0 40 -15.5t22.5 -34.5t32 -34.5t69.5 -15.5t90 24.5t41 89.5q0 68 -24.5 93.5t-65.5 25.5q-27 0 -49.5 -12t-52.5 -12q-27 0 -46.5 17.5t-19.5 47.5q0 35 49 81t135 118h-188q-41 0 -62.5 20.5t-21.5 42.5q0 25 19.5 39.5t50 23.5t69.5 12t80 3 q35 0 77 -3t78 -14t60.5 -34t24.5 -61q0 -20 -11.5 -43t-30 -43.5t-39 -39t-38.5 -30.5q90 -12 132 -68.5t42 -148.5q0 -66 -24.5 -115t-65.5 -81t-93 -48t-108 -16q-47 0 -91 8t-79 27.5t-56.5 51.5t-21.5 81zM604 47q0 29 12 78q25 82 58 191.5t72.5 237.5t86 269.5 t93.5 288.5q41 125 72.5 218t59 152.5t53.5 89.5t56 30q31 0 56.5 -20.5t25.5 -63.5q0 -14 -2 -31t-8 -39q-96 -340 -208.5 -687t-239.5 -691q-25 -66 -47.5 -88.5t-45.5 -22.5q-37 0 -65.5 20.5t-28.5 67.5zM1155 274q0 18 13.5 46t35 61t46 67.5t48.5 67.5q25 33 55.5 73 t62.5 74.5t62.5 57t53.5 22.5q25 0 40 -18t23.5 -47t11.5 -66t3 -75q0 -41 -1 -93.5t-1 -105.5q55 -6 69.5 -21.5t14.5 -42.5q0 -31 -22.5 -42t-63.5 -15q0 -16 1 -47t1 -53q0 -53 -14.5 -84t-61.5 -31q-25 0 -39 6t-21.5 27.5t-8.5 63.5t-1 112q-20 -2 -48 -2h-50 q-96 0 -152.5 13.5t-56.5 51.5zM1335 346q33 2 58.5 2h66.5v148z" />
<glyph unicode="&#xbf;" horiz-adv-x="946" d="M20 -96q0 68 20.5 135t53.5 134t73 131.5t79 125.5q55 88 91 133t81 45q41 0 67.5 -19.5t26.5 -49.5q0 -18 -2 -39t-16 -41q-23 -49 -67 -119t-89 -145.5t-78 -151.5t-33 -139q0 -104 71 -156.5t202 -52.5q66 0 106.5 15.5t66 40t41 51t32 51t36 40t56.5 15.5 q51 0 69.5 -25.5t18.5 -68.5t-16.5 -86t-51.5 -82q-20 -25 -52 -51.5t-76 -50t-104.5 -39t-136.5 -15.5q-223 0 -346 108.5t-123 305.5zM313 928q0 49 41 85t92 36q43 0 81 -36t38 -89q0 -49 -38 -85t-87 -36q-47 0 -87 37t-40 88z" />
<glyph unicode="&#xc0;" horiz-adv-x="1222" d="M41 72q0 35 12.5 91t31.5 120.5t42 133t43 128.5q20 66 58 167t81 211.5t86 218t78 187.5q8 20 20.5 46t30 48.5t39 39t47.5 16.5q27 0 49.5 -17.5t40 -42t30.5 -51.5t22 -47q33 -82 74.5 -188.5t83.5 -215t79 -207t60 -165.5q18 -59 41.5 -127t44 -133.5t34 -122 t13.5 -90.5q0 -35 -26 -53.5t-54 -18.5q-37 0 -67.5 25.5t-53.5 78.5q-20 49 -44 114t-50 136q-61 -2 -129 -3t-137 -1h-160t-131 2q-25 -72 -47.5 -135t-42.5 -113q-41 -104 -119 -104q-29 0 -54.5 18.5t-25.5 53.5zM260 1874q0 39 24.5 57.5t59.5 18.5q39 0 113.5 -33 t149.5 -80t131.5 -98t60.5 -90q0 -31 -20.5 -40.5t-43.5 -13.5q-31 0 -78 14.5t-99 37t-105.5 52.5t-96.5 60.5t-69.5 60t-26.5 54.5zM399 551q55 2 110.5 3t108.5 1q49 0 98.5 -1t98.5 -3q-25 72 -49.5 143.5t-46 137t-38.5 122t-30 99.5q-8 27 -18 43t-27 16 q-16 0 -26.5 -17.5t-18.5 -43.5q-25 -84 -68.5 -218.5t-93.5 -281.5z" />
<glyph unicode="&#xc1;" horiz-adv-x="1222" d="M41 72q0 35 12.5 91t31.5 120.5t42 133t43 128.5q20 66 58 167t81 211.5t86 218t78 187.5q8 20 20.5 46t30 48.5t39 39t47.5 16.5q27 0 49.5 -17.5t40 -42t30.5 -51.5t22 -47q33 -82 74.5 -188.5t83.5 -215t79 -207t60 -165.5q18 -59 41.5 -127t44 -133.5t34 -122 t13.5 -90.5q0 -35 -26 -53.5t-54 -18.5q-37 0 -67.5 25.5t-53.5 78.5q-20 49 -44 114t-50 136q-61 -2 -129 -3t-137 -1h-160t-131 2q-25 -72 -47.5 -135t-42.5 -113q-41 -104 -119 -104q-29 0 -54.5 18.5t-25.5 53.5zM399 551q55 2 110.5 3t108.5 1q49 0 98.5 -1t98.5 -3 q-25 72 -49.5 143.5t-46 137t-38.5 122t-30 99.5q-8 27 -18 43t-27 16q-16 0 -26.5 -17.5t-18.5 -43.5q-25 -84 -68.5 -218.5t-93.5 -281.5zM422 1647q2 25 29.5 57.5t68.5 66t92.5 65.5t101.5 56.5t93 40t70 15.5q35 0 60.5 -20.5t25.5 -59.5q0 -25 -27 -54.5t-70 -60.5 t-96 -60.5t-105.5 -52t-99.5 -37t-78 -14.5q-23 4 -44 15.5t-21 42.5z" />
<glyph unicode="&#xc2;" horiz-adv-x="1222" d="M41 72q0 35 12.5 91t31.5 120.5t42 133t43 128.5q20 66 58 167t81 211.5t86 218t78 187.5q8 20 20.5 46t30 48.5t39 39t47.5 16.5q27 0 49.5 -17.5t40 -42t30.5 -51.5t22 -47q33 -82 74.5 -188.5t83.5 -215t79 -207t60 -165.5q18 -59 41.5 -127t44 -133.5t34 -122 t13.5 -90.5q0 -35 -26 -53.5t-54 -18.5q-37 0 -67.5 25.5t-53.5 78.5q-20 49 -44 114t-50 136q-61 -2 -129 -3t-137 -1h-160t-131 2q-25 -72 -47.5 -135t-42.5 -113q-41 -104 -119 -104q-29 0 -54.5 18.5t-25.5 53.5zM287 1671q0 18 11 44t42 59q27 27 64.5 58.5t76.5 57 t73.5 43t57.5 17.5q20 0 56.5 -17.5t75 -43t76.5 -57.5t65 -58q23 -25 36 -48.5t13 -50.5q0 -35 -21.5 -61.5t-62.5 -26.5q-35 0 -79 31t-116 96l-43 39l-43 -39q-72 -66 -117.5 -95.5t-80.5 -29.5q-37 0 -60.5 23.5t-23.5 58.5zM399 551q55 2 110.5 3t108.5 1q49 0 98.5 -1 t98.5 -3q-25 72 -49.5 143.5t-46 137t-38.5 122t-30 99.5q-8 27 -18 43t-27 16q-16 0 -26.5 -17.5t-18.5 -43.5q-25 -84 -68.5 -218.5t-93.5 -281.5z" />
<glyph unicode="&#xc3;" horiz-adv-x="1222" d="M41 72q0 35 12.5 91t31.5 120.5t42 133t43 128.5q20 66 58 167t81 211.5t86 218t78 187.5q8 20 20.5 46t30 48.5t39 39t47.5 16.5q27 0 49.5 -17.5t40 -42t30.5 -51.5t22 -47q33 -82 74.5 -188.5t83.5 -215t79 -207t60 -165.5q18 -59 41.5 -127t44 -133.5t34 -122 t13.5 -90.5q0 -35 -26 -53.5t-54 -18.5q-37 0 -67.5 25.5t-53.5 78.5q-20 49 -44 114t-50 136q-61 -2 -129 -3t-137 -1h-160t-131 2q-25 -72 -47.5 -135t-42.5 -113q-41 -104 -119 -104q-29 0 -54.5 18.5t-25.5 53.5zM205 1710q0 35 14 74t44 70.5t73 53t100 21.5 q59 0 100.5 -15.5t73 -34.5t62 -34.5t71.5 -15.5q61 0 91 14.5t45.5 32.5t25.5 32.5t33 14.5q29 0 53.5 -16.5t24.5 -46.5q0 -47 -17.5 -89t-52.5 -75t-87 -52.5t-120 -19.5q-43 0 -77.5 16.5t-67.5 35t-65.5 34.5t-69.5 16q-33 0 -57.5 -14t-46 -32.5t-43 -33t-46.5 -14.5 q-27 0 -44 21.5t-17 56.5zM399 551q55 2 110.5 3t108.5 1q49 0 98.5 -1t98.5 -3q-25 72 -49.5 143.5t-46 137t-38.5 122t-30 99.5q-8 27 -18 43t-27 16q-16 0 -26.5 -17.5t-18.5 -43.5q-25 -84 -68.5 -218.5t-93.5 -281.5z" />
<glyph unicode="&#xc4;" horiz-adv-x="1222" d="M41 72q0 35 12.5 91t31.5 120.5t42 133t43 128.5q20 66 58 167t81 211.5t86 218t78 187.5q8 20 20.5 46t30 48.5t39 39t47.5 16.5q27 0 49.5 -17.5t40 -42t30.5 -51.5t22 -47q33 -82 74.5 -188.5t83.5 -215t79 -207t60 -165.5q18 -59 41.5 -127t44 -133.5t34 -122 t13.5 -90.5q0 -35 -26 -53.5t-54 -18.5q-37 0 -67.5 25.5t-53.5 78.5q-20 49 -44 114t-50 136q-61 -2 -129 -3t-137 -1h-160t-131 2q-25 -72 -47.5 -135t-42.5 -113q-41 -104 -119 -104q-29 0 -54.5 18.5t-25.5 53.5zM303 1788q0 49 38 85t87 36q47 0 87 -37t40 -88 q0 -49 -41 -85t-92 -36q-43 0 -81 36t-38 89zM399 551q55 2 110.5 3t108.5 1q49 0 98.5 -1t98.5 -3q-25 72 -49.5 143.5t-46 137t-38.5 122t-30 99.5q-8 27 -18 43t-27 16q-16 0 -26.5 -17.5t-18.5 -43.5q-25 -84 -68.5 -218.5t-93.5 -281.5zM672 1788q0 49 38 85t87 36 q47 0 87 -37t40 -88q0 -49 -41 -85t-92 -36q-43 0 -81 36t-38 89z" />
<glyph unicode="&#xc5;" horiz-adv-x="1222" d="M41 72q0 35 12.5 91t31.5 120.5t42 133t43 128.5q20 66 58 167t81 211.5t86 218t78 187.5q10 23 22.5 49.5t30.5 51.5q-74 23 -123 84t-49 139q0 51 21.5 94t56.5 74.5t81 49t93 17.5q49 0 95.5 -18.5t80 -50t54 -74.5t20.5 -92q0 -78 -46 -137.5t-120 -83.5 q23 -27 37 -58t25 -53q33 -82 74.5 -188.5t83.5 -215t79 -207t60 -165.5q18 -59 41.5 -127t44 -133.5t34 -122t13.5 -90.5q0 -35 -26 -53.5t-54 -18.5q-37 0 -67.5 25.5t-53.5 78.5q-20 49 -44 114t-50 136q-61 -2 -129 -3t-137 -1h-160t-131 2q-25 -72 -47.5 -135 t-42.5 -113q-41 -104 -119 -104q-29 0 -54.5 18.5t-25.5 53.5zM399 551q55 2 110.5 3t108.5 1q49 0 98.5 -1t98.5 -3q-25 72 -49.5 143.5t-46 137t-38.5 122t-30 99.5q-8 27 -18 43t-27 16q-16 0 -26.5 -17.5t-18.5 -43.5q-25 -84 -68.5 -218.5t-93.5 -281.5zM471 1651 q0 -61 40 -92t93 -31q61 0 96 35.5t35 91.5q0 53 -33.5 92t-87.5 39q-70 0 -106.5 -38t-36.5 -97z" />
<glyph unicode="&#xc6;" horiz-adv-x="1839" d="M20 80q0 16 7.5 38.5t23.5 55.5q39 76 95.5 175.5t125 215t144.5 242.5t155 260q63 104 107.5 172t78.5 106.5t60.5 55t52.5 20.5q41 6 79 10.5t81 5.5t97.5 2t127.5 1h44t101.5 -1t124 -3t107.5 -4q45 -4 73 -11.5t42 -18.5t18 -26.5t4 -34.5q0 -47 -26.5 -68.5 t-108.5 -27.5q-41 -4 -119.5 -5t-160.5 -1t-147.5 -1t-82.5 -1q-53 -2 -74.5 -23.5t-21.5 -101.5q0 -18 3 -89t3 -198h170q109 0 177.5 -3t106.5 -13t52 -32.5t14 -59.5q0 -31 -15 -49.5t-55 -29.5t-107.5 -14t-174.5 -3h-172v-74v-88t1 -88t3 -70q2 -33 9.5 -55.5t27 -36.5 t57 -20.5t101.5 -6.5h440q72 0 90.5 -26.5t18.5 -71.5q0 -37 -16.5 -56.5t-79 -28.5t-186.5 -11t-341 -2q-92 0 -151.5 16t-96.5 55t-54 101.5t-24 152.5l-4 41q-102 -6 -202 -6q-117 0 -240 6q-33 -51 -71 -113.5t-74.5 -116.5t-70.5 -91t-58 -37q-35 0 -62 23.5t-27 62.5z M508 553q41 2 82 2h82q37 0 73.5 -1t73.5 -3q-4 41 -4 84v84q0 92 3 184t5 191q-78 -137 -155.5 -271.5t-159.5 -269.5z" />
<glyph unicode="&#xc7;" horiz-adv-x="1226" d="M82 696q0 178 50 317.5t137 237t203 148.5t247 51q68 0 136.5 -11.5t123.5 -35t91 -57t36 -78.5q0 -47 -24.5 -72t-61.5 -25q-35 0 -61.5 11.5t-60.5 26t-81 25.5t-125 11t-148.5 -40t-122.5 -110.5t-83 -167t-31 -208.5q0 -139 36 -239.5t93.5 -165t130 -96.5t146.5 -32 q88 0 147.5 18.5t101.5 41t72.5 41t59.5 18.5q35 0 55 -19.5t20 -68.5q0 -39 -29.5 -79t-84 -72.5t-132 -55t-173.5 -26.5v-13q0 -41 20.5 -58t58.5 -32q59 -23 90 -60.5t31 -109.5q0 -29 -7 -64.5t-33.5 -66.5t-76 -52.5t-131.5 -21.5q-59 0 -103 16.5t-44 65.5 q0 41 27.5 56.5t58.5 15.5q18 0 48 -3t48 -3q25 0 44.5 10t19.5 39q0 37 -33 52.5t-71 32.5t-70.5 46t-32.5 90q0 6 1 19.5t5 48.5q-102 18 -195.5 72.5t-165 142.5t-114.5 210t-43 279z" />
<glyph unicode="&#xc8;" horiz-adv-x="1144" d="M123 721q0 68 1 140.5t3 148.5q4 152 19.5 237.5t61.5 128.5t130 53.5t223 10.5h44t101.5 -1t124 -3t107.5 -4q45 -4 72.5 -11.5t42 -18.5t18.5 -26.5t4 -34.5q0 -47 -26.5 -68.5t-108.5 -27.5q-41 -4 -120 -5t-160.5 -1t-147.5 -1t-82 -1q-53 -2 -74.5 -23.5 t-21.5 -101.5q0 -18 3 -89t3 -198h170q109 0 177.5 -3t106 -13t52 -32.5t14.5 -59.5q0 -18 -3 -33.5t-17.5 -27t-41 -18.5t-75.5 -11q-59 -4 -111.5 -5t-103.5 -1h-172v-74v-88t1 -88t3 -70q2 -33 9 -55.5t26.5 -36.5t57.5 -20.5t102 -6.5h440q72 0 90 -26.5t18 -71.5 q0 -37 -16 -56.5t-78.5 -28.5t-186.5 -11t-341 -2q-92 0 -151.5 16t-96.5 55t-54.5 101.5t-23.5 152.5q-4 66 -8 178.5t-4 231.5zM291 1843q0 39 24.5 57.5t59.5 18.5q39 0 113.5 -33t149.5 -80t131 -98t60 -90q0 -31 -20 -40t-43 -13q-31 0 -78 14t-99 36.5t-105.5 52.5 t-96.5 60.5t-69.5 60.5t-26.5 54z" />
<glyph unicode="&#xc9;" horiz-adv-x="1144" d="M123 721q0 68 1 140.5t3 148.5q4 152 19.5 237.5t61.5 128.5t130 53.5t223 10.5h44t101.5 -1t124 -3t107.5 -4q45 -4 72.5 -11.5t42 -18.5t18.5 -26.5t4 -34.5q0 -47 -26.5 -68.5t-108.5 -27.5q-41 -4 -120 -5t-160.5 -1t-147.5 -1t-82 -1q-53 -2 -74.5 -23.5 t-21.5 -101.5q0 -18 3 -89t3 -198h170q109 0 177.5 -3t106 -13t52 -32.5t14.5 -59.5q0 -18 -3 -33.5t-17.5 -27t-41 -18.5t-75.5 -11q-59 -4 -111.5 -5t-103.5 -1h-172v-74v-88t1 -88t3 -70q2 -33 9 -55.5t26.5 -36.5t57.5 -20.5t102 -6.5h440q72 0 90 -26.5t18 -71.5 q0 -37 -16 -56.5t-78.5 -28.5t-186.5 -11t-341 -2q-92 0 -151.5 16t-96.5 55t-54.5 101.5t-23.5 152.5q-4 66 -8 178.5t-4 231.5zM469 1610q2 25 29.5 57.5t68.5 66t92.5 65.5t101.5 56.5t93 40t70 15.5q35 0 60.5 -20.5t25.5 -59.5q0 -25 -27 -54.5t-70 -60t-96 -60.5 t-105.5 -52.5t-99 -37t-77.5 -14.5q-23 4 -44.5 15.5t-21.5 42.5z" />
<glyph unicode="&#xca;" horiz-adv-x="1144" d="M123 721q0 68 1 140.5t3 148.5q4 152 19.5 237.5t61.5 128.5t130 53.5t223 10.5h44t101.5 -1t124 -3t107.5 -4q45 -4 72.5 -11.5t42 -18.5t18.5 -26.5t4 -34.5q0 -47 -26.5 -68.5t-108.5 -27.5q-41 -4 -120 -5t-160.5 -1t-147.5 -1t-82 -1q-53 -2 -74.5 -23.5 t-21.5 -101.5q0 -18 3 -89t3 -198h170q109 0 177.5 -3t106 -13t52 -32.5t14.5 -59.5q0 -18 -3 -33.5t-17.5 -27t-41 -18.5t-75.5 -11q-59 -4 -111.5 -5t-103.5 -1h-172v-74v-88t1 -88t3 -70q2 -33 9 -55.5t26.5 -36.5t57.5 -20.5t102 -6.5h440q72 0 90 -26.5t18 -71.5 q0 -37 -16 -56.5t-78.5 -28.5t-186.5 -11t-341 -2q-92 0 -151.5 16t-96.5 55t-54.5 101.5t-23.5 152.5q-4 66 -8 178.5t-4 231.5zM309 1616q0 18 11.5 44t41.5 58q27 27 65 58.5t77 57.5t73.5 43t57.5 17q20 0 56 -17t75 -43t77 -57.5t64 -58.5q23 -25 36 -48t13 -50 q0 -35 -21.5 -61.5t-62.5 -26.5q-35 0 -78.5 30.5t-115.5 96.5l-43 39l-43 -39q-72 -66 -118 -95.5t-81 -29.5q-37 0 -60.5 23.5t-23.5 58.5z" />
<glyph unicode="&#xcb;" horiz-adv-x="1144" d="M123 721q0 68 1 140.5t3 148.5q4 152 19.5 237.5t61.5 128.5t130 53.5t223 10.5h44t101.5 -1t124 -3t107.5 -4q45 -4 72.5 -11.5t42 -18.5t18.5 -26.5t4 -34.5q0 -47 -26.5 -68.5t-108.5 -27.5q-41 -4 -120 -5t-160.5 -1t-147.5 -1t-82 -1q-53 -2 -74.5 -23.5 t-21.5 -101.5q0 -18 3 -89t3 -198h170q109 0 177.5 -3t106 -13t52 -32.5t14.5 -59.5q0 -18 -3 -33.5t-17.5 -27t-41 -18.5t-75.5 -11q-59 -4 -111.5 -5t-103.5 -1h-172v-74v-88t1 -88t3 -70q2 -33 9 -55.5t26.5 -36.5t57.5 -20.5t102 -6.5h440q72 0 90 -26.5t18 -71.5 q0 -37 -16 -56.5t-78.5 -28.5t-186.5 -11t-341 -2q-92 0 -151.5 16t-96.5 55t-54.5 101.5t-23.5 152.5q-4 66 -8 178.5t-4 231.5zM309 1761q0 49 38 85t87 36q47 0 87 -37t40 -88q0 -49 -41 -85t-92 -36q-43 0 -81 36t-38 89zM678 1761q0 49 38 85t87 36q47 0 87 -37t40 -88 q0 -49 -41 -85t-92 -36q-43 0 -81 36t-38 89z" />
<glyph unicode="&#xcc;" horiz-adv-x="499" d="M-147 1870q0 39 24.5 57.5t59.5 18.5q39 0 113.5 -33t149 -80t131 -98.5t60.5 -89.5q0 -31 -20 -40.5t-43 -13.5q-31 0 -78 14.5t-99.5 37t-105.5 52t-96 60.5t-69.5 60.5t-26.5 54.5zM143 652.5v240.5q0 145 2 248.5t12.5 169t32 96.5t58.5 31q18 0 34.5 -4t29 -17.5 t21.5 -39t11 -66.5q4 -74 6 -131.5t4 -113.5t2 -116.5v-136.5v-176t-2 -166t-4 -166t-6 -176q-2 -49 -10 -75.5t-20.5 -41t-29 -17.5t-36.5 -3q-37 0 -63.5 25.5t-30.5 109.5q-4 74 -5.5 153.5t-3.5 172t-2 200z" />
<glyph unicode="&#xcd;" horiz-adv-x="499" d="M66 1640q2 25 29.5 58t68.5 66.5t92 65.5t101.5 56.5t93.5 40t69 15.5q35 0 60.5 -20.5t25.5 -59.5q0 -25 -26.5 -54.5t-69.5 -60.5t-96.5 -60.5t-105.5 -52t-99 -37t-78 -14.5q-23 4 -44 15.5t-21 41.5zM143 652.5v240.5q0 145 2 248.5t12.5 169t32 96.5t58.5 31 q18 0 34.5 -4t29 -17.5t21.5 -39t11 -66.5q4 -74 6 -131.5t4 -113.5t2 -116.5v-136.5v-176t-2 -166t-4 -166t-6 -176q-2 -49 -10 -75.5t-20.5 -41t-29 -17.5t-36.5 -3q-37 0 -63.5 25.5t-30.5 109.5q-4 74 -5.5 153.5t-3.5 172t-2 200z" />
<glyph unicode="&#xce;" horiz-adv-x="499" d="M-80 1661q0 18 11.5 44t41.5 58q27 27 65 58.5t77 57.5t73.5 43t57.5 17q20 0 56 -17t75 -43t77 -57.5t64 -58.5q23 -25 36 -48t13 -50q0 -35 -21.5 -61.5t-62.5 -26.5q-35 0 -79 30.5t-115 96.5l-43 39l-43 -39q-72 -66 -118 -95.5t-81 -29.5q-37 0 -60.5 23.5 t-23.5 58.5zM143 652.5v240.5q0 145 2 248.5t12.5 169t32 96.5t58.5 31q18 0 34.5 -4t29 -17.5t21.5 -39t11 -66.5q4 -74 6 -131.5t4 -113.5t2 -116.5v-136.5v-176t-2 -166t-4 -166t-6 -176q-2 -49 -10 -75.5t-20.5 -41t-29 -17.5t-36.5 -3q-37 0 -63.5 25.5t-30.5 109.5 q-4 74 -5.5 153.5t-3.5 172t-2 200z" />
<glyph unicode="&#xcf;" horiz-adv-x="499" d="M-66 1743q0 49 38 85t87 36q47 0 87 -37t40 -88q0 -49 -41 -85t-92 -36q-43 0 -81 36t-38 89zM143 652.5v240.5q0 145 2 248.5t12.5 169t32 96.5t58.5 31q18 0 34.5 -4t29 -17.5t21.5 -39t11 -66.5q4 -74 6 -131.5t4 -113.5t2 -116.5v-136.5v-176t-2 -166t-4 -166 t-6 -176q-2 -49 -10 -75.5t-20.5 -41t-29 -17.5t-36.5 -3q-37 0 -63.5 25.5t-30.5 109.5q-4 74 -5.5 153.5t-3.5 172t-2 200zM303 1743q0 49 38 85t87 36q47 0 87 -37t40 -88q0 -49 -41 -85t-92 -36q-43 0 -81 36t-38 89z" />
<glyph unicode="&#xd0;" horiz-adv-x="1349" d="M20 688q0 47 42 69.5t143 30.5v275q0 88 15.5 159.5t60.5 122t128 77t216 26.5q211 0 338 -63.5t194.5 -168t89 -237.5t21.5 -270q0 -150 -38 -283t-117 -232.5t-202 -158t-293 -58.5q-135 0 -215.5 19.5t-125 58.5t-58.5 98.5t-14 139.5v295q-98 2 -141.5 18.5 t-43.5 81.5zM412 309q0 -63 46 -95t175 -32q127 0 210 46t132 122t68.5 172t19.5 197q0 92 -14.5 185t-59.5 169t-129 123t-223 47q-127 0 -176 -37t-49 -112v-301q113 -4 180 -8.5t104 -15.5t49.5 -29.5t12.5 -51.5q0 -31 -15.5 -49t-53.5 -29.5t-105.5 -15.5t-171.5 -6 v-279z" />
<glyph unicode="&#xd1;" horiz-adv-x="1292" d="M123 1047q0 137 3 214.5t14.5 116.5t30.5 49.5t52 10.5t86 -50.5t116.5 -132t136.5 -188t144.5 -219.5t138 -223.5t122.5 -200.5q-2 96 -2 212v257q0 162 2 267.5t11 167t29.5 86t57.5 24.5q35 0 61.5 -22.5t30.5 -104.5q4 -74 6 -131.5t4 -113.5t2 -116.5v-136.5v-176 t-2 -166t-4 -166t-6 -176q-2 -49 -9 -75.5t-19.5 -41t-28 -17.5t-35.5 -3q-35 0 -59.5 20.5t-71.5 83.5q-66 90 -124 179.5t-125 196t-151.5 236.5t-203.5 304v-276t-2 -226t-4 -196.5t-7 -184.5q-2 -49 -9 -75.5t-19.5 -41t-27.5 -17.5t-36 -3q-37 0 -61.5 25.5 t-28.5 109.5q-10 225 -11 451.5t-1 468.5zM231 1710q0 35 14.5 74t44 70.5t73 53t100.5 21.5q59 0 100 -15.5t73 -34.5t62.5 -34.5t71.5 -15.5q61 0 91 14.5t45.5 32.5t25.5 32.5t33 14.5q29 0 53 -16.5t24 -46.5q0 -47 -17 -89t-52 -75t-87 -52.5t-120 -19.5 q-43 0 -78 16.5t-67.5 35t-65.5 34.5t-70 16q-33 0 -57.5 -14t-46 -32.5t-43 -33t-45.5 -14.5q-27 0 -44.5 21.5t-17.5 56.5z" />
<glyph unicode="&#xd2;" d="M82 707q0 162 40 297t118.5 233t195.5 152.5t271 54.5q125 0 237.5 -45t197.5 -135t134 -225.5t49 -315.5q0 -150 -40 -285t-121 -236.5t-203.5 -161.5t-288.5 -60q-123 0 -230.5 49t-187.5 142t-126 228.5t-46 307.5zM287 707q0 -121 30.5 -220.5t83 -169t124 -107.5 t151.5 -38q113 0 196.5 46t139 122t82 175t26.5 204q0 127 -33.5 226t-91 167t-133.5 103.5t-162 35.5q-102 0 -179 -43t-129 -116.5t-78.5 -173t-26.5 -211.5zM293 1874q0 39 24.5 57.5t59.5 18.5q39 0 113.5 -33t149.5 -80t131 -98t60 -90q0 -31 -20 -40.5t-43 -13.5 q-31 0 -78 14.5t-99 37t-105.5 52.5t-96.5 60.5t-69.5 60t-26.5 54.5z" />
<glyph unicode="&#xd3;" d="M82 707q0 162 40 297t118.5 233t195.5 152.5t271 54.5q125 0 237.5 -45t197.5 -135t134 -225.5t49 -315.5q0 -150 -40 -285t-121 -236.5t-203.5 -161.5t-288.5 -60q-123 0 -230.5 49t-187.5 142t-126 228.5t-46 307.5zM287 707q0 -121 30.5 -220.5t83 -169t124 -107.5 t151.5 -38q113 0 196.5 46t139 122t82 175t26.5 204q0 127 -33.5 226t-91 167t-133.5 103.5t-162 35.5q-102 0 -179 -43t-129 -116.5t-78.5 -173t-26.5 -211.5zM510 1649q2 25 29.5 57.5t68.5 66t92.5 65.5t101.5 56.5t93 40t70 15.5q35 0 60.5 -20.5t25.5 -59.5 q0 -25 -27 -54.5t-70 -60.5t-96 -60.5t-105.5 -52t-99.5 -37t-78 -14.5q-23 4 -44 15.5t-21 42.5z" />
<glyph unicode="&#xd4;" d="M82 707q0 162 40 297t118.5 233t195.5 152.5t271 54.5q125 0 237.5 -45t197.5 -135t134 -225.5t49 -315.5q0 -150 -40 -285t-121 -236.5t-203.5 -161.5t-288.5 -60q-123 0 -230.5 49t-187.5 142t-126 228.5t-46 307.5zM287 707q0 -121 30.5 -220.5t83 -169t124 -107.5 t151.5 -38q113 0 196.5 46t139 122t82 175t26.5 204q0 127 -33.5 226t-91 167t-133.5 103.5t-162 35.5q-102 0 -179 -43t-129 -116.5t-78.5 -173t-26.5 -211.5zM358 1651q0 18 11.5 43.5t42.5 58.5q27 27 64.5 58.5t76.5 57t73.5 43t57.5 17.5q20 0 56 -17.5t75 -43t77 -57 t64 -58.5q23 -25 36.5 -48.5t13.5 -49.5q0 -35 -21.5 -61.5t-62.5 -26.5q-35 0 -79 30.5t-116 96.5l-43 39l-43 -39q-72 -66 -118 -95.5t-81 -29.5q-37 0 -60.5 23.5t-23.5 58.5z" />
<glyph unicode="&#xd5;" d="M82 707q0 162 40 297t118.5 233t195.5 152.5t271 54.5q125 0 237.5 -45t197.5 -135t134 -225.5t49 -315.5q0 -150 -40 -285t-121 -236.5t-203.5 -161.5t-288.5 -60q-123 0 -230.5 49t-187.5 142t-126 228.5t-46 307.5zM281 1729q0 35 14 73.5t44 70.5t73 53.5t100 21.5 q59 0 100 -15.5t73 -35t62.5 -35t71.5 -15.5q61 0 91 14.5t45.5 33t25.5 33t33 14.5q29 0 53.5 -16.5t24.5 -47.5q0 -47 -17.5 -89t-52.5 -75t-87 -52.5t-120 -19.5q-43 0 -78 16.5t-67.5 35t-65 35t-69.5 16.5q-33 0 -57.5 -14.5t-46 -33t-43 -32.5t-46.5 -14 q-27 0 -44 21.5t-17 56.5zM287 707q0 -121 30.5 -220.5t83 -169t124 -107.5t151.5 -38q113 0 196.5 46t139 122t82 175t26.5 204q0 127 -33.5 226t-91 167t-133.5 103.5t-162 35.5q-102 0 -179 -43t-129 -116.5t-78.5 -173t-26.5 -211.5z" />
<glyph unicode="&#xd6;" d="M82 707q0 162 40 297t118.5 233t195.5 152.5t271 54.5q125 0 237.5 -45t197.5 -135t134 -225.5t49 -315.5q0 -150 -40 -285t-121 -236.5t-203.5 -161.5t-288.5 -60q-123 0 -230.5 49t-187.5 142t-126 228.5t-46 307.5zM287 707q0 -121 30.5 -220.5t83 -169t124 -107.5 t151.5 -38q113 0 196.5 46t139 122t82 175t26.5 204q0 127 -33.5 226t-91 167t-133.5 103.5t-162 35.5q-102 0 -179 -43t-129 -116.5t-78.5 -173t-26.5 -211.5zM383 1767q0 49 38 85t87 36q47 0 87 -36.5t40 -88.5q0 -49 -41 -85t-92 -36q-43 0 -81 36t-38 89zM752 1767 q0 49 38 85t87 36q47 0 87 -36.5t40 -88.5q0 -49 -41 -85t-93 -36q-43 0 -80.5 36t-37.5 89z" />
<glyph unicode="&#xd7;" horiz-adv-x="731" d="M16 977q0 27 28 55.5t58 28.5q20 0 45 -13.5t60 -43.5l155 -146q31 31 70 67t76 66.5t68.5 51t50.5 20.5q27 0 55.5 -27.5t28.5 -58.5q0 -20 -13.5 -46t-44.5 -59l-145 -155q47 -53 86 -91t66.5 -67t42 -51.5t14.5 -46.5q0 -10 -7.5 -26.5t-19.5 -31t-28.5 -24.5 t-36.5 -10q-23 0 -52.5 18.5t-64.5 47t-72 64.5t-71 70q-57 -57 -97.5 -97t-70 -64.5t-49 -35t-37.5 -10.5q-10 0 -26.5 7.5t-31 19.5t-25 28.5t-10.5 37.5q0 23 18.5 52.5t47.5 64t64.5 71.5t70.5 72q-33 31 -68.5 69.5t-65.5 75.5t-49.5 67.5t-19.5 49.5z" />
<glyph unicode="&#xd8;" d="M2 39q0 27 12.5 49.5t44.5 58.5l119 132q-47 86 -71.5 192.5t-24.5 235.5q0 162 40 297t118.5 233t195.5 152.5t271 54.5q117 0 222 -40t189 -118q66 70 116 112t85 42q29 0 52.5 -24.5t23.5 -55.5q0 -41 -49 -96l-115 -127q45 -82 69.5 -185.5t24.5 -228.5 q0 -150 -40 -285t-121 -236.5t-203.5 -161.5t-288.5 -60q-217 0 -373 143l-55.5 -55.5t-53.5 -49.5q-37 -35 -62.5 -48t-45.5 -13q-31 0 -55.5 25.5t-24.5 56.5zM287 707q0 -145 45 -265q135 145 268 286.5t279 293.5l100 108q-117 121 -279 121q-102 0 -179 -43 t-129 -116.5t-78.5 -173t-26.5 -211.5zM444 268q97 -96 232 -96q113 0 196.5 46t139 122t82 175t26.5 204q0 135 -41 246q-152 -172 -314.5 -353.5t-320.5 -343.5z" />
<glyph unicode="&#xd9;" horiz-adv-x="1253" d="M123 1163q0 84 4 138.5t16.5 86t32 44t49.5 12.5q59 0 84 -53.5t25 -184.5q0 -45 -1 -79.5t-1 -70.5t-1 -79t-1 -105q0 -205 13 -340t46 -215.5t89.5 -113.5t139.5 -33q88 0 146.5 36t93.5 121t50.5 226t15.5 352q0 92 -1 157.5t-1 119.5q0 76 5 127t16 80.5t31.5 42 t51.5 12.5t51.5 -12.5t32.5 -43t16 -85t4 -140.5q0 -360 -22.5 -592.5t-79.5 -366.5t-156.5 -186.5t-255.5 -52.5q-233 0 -342 127q-43 49 -72.5 126t-47 200t-24.5 304t-7 441zM158 1874q0 39 24.5 57.5t59.5 18.5q39 0 113.5 -33t149.5 -80t131 -98t60 -90 q0 -31 -20 -40.5t-43 -13.5q-31 0 -78 14.5t-99.5 37t-105.5 52.5t-96 60.5t-69.5 60t-26.5 54.5z" />
<glyph unicode="&#xda;" horiz-adv-x="1253" d="M123 1163q0 84 4 138.5t16.5 86t32 44t49.5 12.5q59 0 84 -53.5t25 -184.5q0 -45 -1 -79.5t-1 -70.5t-1 -79t-1 -105q0 -205 13 -340t46 -215.5t89.5 -113.5t139.5 -33q88 0 146.5 36t93.5 121t50.5 226t15.5 352q0 92 -1 157.5t-1 119.5q0 76 5 127t16 80.5t31.5 42 t51.5 12.5t51.5 -12.5t32.5 -43t16 -85t4 -140.5q0 -360 -22.5 -592.5t-79.5 -366.5t-156.5 -186.5t-255.5 -52.5q-233 0 -342 127q-43 49 -72.5 126t-47 200t-24.5 304t-7 441zM424 1649q2 25 29.5 57.5t68.5 66t92.5 65.5t101.5 56.5t93 40t70 15.5q35 0 60.5 -20.5 t25.5 -59.5q0 -25 -27 -54.5t-70 -60.5t-96 -60.5t-105.5 -52t-99.5 -37t-78 -14.5q-23 4 -44 15.5t-21 42.5z" />
<glyph unicode="&#xdb;" horiz-adv-x="1253" d="M123 1163q0 84 4 138.5t16.5 86t32 44t49.5 12.5q59 0 84 -53.5t25 -184.5q0 -45 -1 -79.5t-1 -70.5t-1 -79t-1 -105q0 -205 13 -340t46 -215.5t89.5 -113.5t139.5 -33q88 0 146.5 36t93.5 121t50.5 226t15.5 352q0 92 -1 157.5t-1 119.5q0 76 5 127t16 80.5t31.5 42 t51.5 12.5t51.5 -12.5t32.5 -43t16 -85t4 -140.5q0 -360 -22.5 -592.5t-79.5 -366.5t-156.5 -186.5t-255.5 -52.5q-233 0 -342 127q-43 49 -72.5 126t-47 200t-24.5 304t-7 441zM305 1669q0 18 11.5 44t41.5 59q27 27 65 58.5t77 57t73.5 43t57.5 17.5q20 0 56 -17.5t75 -43 t77 -57.5t64 -58q23 -25 36 -48.5t13 -50.5q0 -35 -21.5 -61.5t-62.5 -26.5q-35 0 -79 31t-115 96l-43 39l-43 -39q-72 -66 -118 -95.5t-81 -29.5q-37 0 -60.5 23.5t-23.5 58.5z" />
<glyph unicode="&#xdc;" horiz-adv-x="1253" d="M123 1163q0 84 4 138.5t16.5 86t32 44t49.5 12.5q59 0 84 -53.5t25 -184.5q0 -45 -1 -79.5t-1 -70.5t-1 -79t-1 -105q0 -205 13 -340t46 -215.5t89.5 -113.5t139.5 -33q88 0 146.5 36t93.5 121t50.5 226t15.5 352q0 92 -1 157.5t-1 119.5q0 76 5 127t16 80.5t31.5 42 t51.5 12.5t51.5 -12.5t32.5 -43t16 -85t4 -140.5q0 -360 -22.5 -592.5t-79.5 -366.5t-156.5 -186.5t-255.5 -52.5q-233 0 -342 127q-43 49 -72.5 126t-47 200t-24.5 304t-7 441zM315 1733q0 49 38 84.5t87 35.5q47 0 87 -36.5t40 -87.5q0 -49 -41 -85t-92 -36 q-43 0 -81 35.5t-38 89.5zM684 1733q0 49 38 84.5t87 35.5q47 0 87 -36.5t40 -87.5q0 -49 -41 -85t-92 -36q-43 0 -81 35.5t-38 89.5z" />
<glyph unicode="&#xdd;" horiz-adv-x="1163" d="M41 1341q0 39 21.5 65t74.5 26q43 0 77 -24t62 -69l306 -485l305 485q29 45 62.5 69t76.5 24q53 0 74.5 -26t21.5 -65q0 -23 -9 -47t-26 -47l-399 -571q0 -139 -3 -267t-9 -280q-2 -49 -9.5 -75.5t-19.5 -41t-27.5 -17.5t-35.5 -3q-37 0 -61.5 25.5t-28.5 109.5 q-4 113 -7.5 241t-3.5 296l-407 583q-16 23 -25.5 47.5t-9.5 46.5zM416 1647q2 25 29.5 57.5t68.5 66t92 65.5t101.5 56.5t93.5 40t69 15.5q35 0 60.5 -20.5t25.5 -59.5q0 -25 -26.5 -54.5t-69.5 -60.5t-96 -60.5t-105.5 -52t-99.5 -37t-78 -14.5q-23 4 -44 15.5t-21 42.5z " />
<glyph unicode="&#xde;" horiz-adv-x="1101" d="M63 743v263q0 145 2.5 231t11.5 132t29.5 59.5t57.5 13.5q14 0 30.5 -4t29 -17.5t21.5 -39t11 -66.5l8 -182q55 29 131 44t180 15q78 0 164 -23.5t159 -75t120 -133t47 -198.5q0 -133 -42 -220t-123 -138.5t-201.5 -73t-278.5 -21.5h-70t-78 4q0 -127 -9 -197.5 t-23.5 -104.5t-34 -40t-41.5 -6q-18 0 -33.5 4t-28 18.5t-20.5 41t-10 71.5q-4 74 -5 175.5t-2.5 220t-1.5 247.5zM272 633q0 -60 2 -125q47 -2 105.5 -2h109.5q63 0 130 7t120.5 30.5t87 70.5t33.5 127q0 70 -26.5 117t-67.5 76t-93 41t-102 12q-84 0 -141 -9t-92 -34.5 t-50.5 -72t-15.5 -119.5v-119z" />
<glyph unicode="&#xdf;" horiz-adv-x="1132" d="M94 133v70v134t1 236.5t3 380.5q0 100 10.5 201.5t52.5 182.5t126 131.5t233 50.5q104 0 186 -30t140.5 -83t89.5 -128t31 -167q0 -88 -38 -177t-128 -140q57 -10 107 -45t87 -87.5t58.5 -121t21.5 -144.5q0 -88 -29.5 -161.5t-89 -126t-149.5 -81t-211 -28.5 q-98 0 -160.5 24.5t-62.5 92.5q0 37 24.5 68.5t91.5 31.5q23 0 39.5 -3t34 -8t36.5 -8t50 -3q125 0 177.5 64.5t52.5 154.5q0 72 -29 121t-75 79.5t-104.5 45t-119.5 20.5q-39 4 -66.5 16.5t-27.5 65.5q0 29 8 46t22.5 26.5t29.5 13.5t32 6q33 4 69.5 13.5t68.5 32 t53.5 66.5t21.5 119q0 53 -13.5 101.5t-42 85.5t-75.5 59.5t-117 22.5q-74 0 -119 -24.5t-68.5 -66.5t-30.5 -95.5t-7 -108.5v-924q0 -47 -7.5 -74.5t-18.5 -41t-26.5 -17.5t-33.5 -4q-47 0 -78 24.5t-31 110.5z" />
<glyph unicode="&#xe0;" horiz-adv-x="1173" d="M57 492q0 117 29 219t87 179t146.5 122t206.5 45q104 0 186.5 -38t147.5 -124q0 25 2 50.5t11.5 47t30 34.5t54.5 13q31 0 57.5 -24.5t31.5 -106.5q6 -109 9 -194.5t3 -177.5q0 -113 -2 -207t-10 -201q-4 -47 -11.5 -74.5t-17.5 -41t-24.5 -17.5t-28.5 -4q-33 0 -52.5 11 t-30 29.5t-14.5 44t-6 54.5q-51 -63 -132 -106t-206 -43q-80 0 -162.5 23.5t-150.5 81.5t-111 156.5t-43 248.5zM225 1475q0 39 24.5 57t59.5 18q39 0 114 -32.5t149.5 -79.5t131 -98.5t60.5 -90.5q0 -31 -20.5 -40t-43.5 -13q-31 0 -78 14.5t-99 37t-105 52t-96 60.5 t-70 60.5t-27 54.5zM262 514q0 -180 79 -266t214 -86q80 0 136.5 27.5t92 74.5t53 111.5t17.5 136.5q0 106 -31.5 174t-80 105.5t-103.5 52t-102 14.5q-74 0 -126.5 -26.5t-85 -72.5t-48 -108.5t-15.5 -136.5z" />
<glyph unicode="&#xe1;" horiz-adv-x="1173" d="M57 492q0 117 29 219t87 179t146.5 122t206.5 45q104 0 186.5 -38t147.5 -124q0 25 2 50.5t11.5 47t30 34.5t54.5 13q31 0 57.5 -24.5t31.5 -106.5q6 -109 9 -194.5t3 -177.5q0 -113 -2 -207t-10 -201q-4 -47 -11.5 -74.5t-17.5 -41t-24.5 -17.5t-28.5 -4q-33 0 -52.5 11 t-30 29.5t-14.5 44t-6 54.5q-51 -63 -132 -106t-206 -43q-80 0 -162.5 23.5t-150.5 81.5t-111 156.5t-43 248.5zM262 514q0 -180 79 -266t214 -86q80 0 136.5 27.5t92 74.5t53 111.5t17.5 136.5q0 106 -31.5 174t-80 105.5t-103.5 52t-102 14.5q-74 0 -126.5 -26.5 t-85 -72.5t-48 -108.5t-15.5 -136.5zM332 1255q2 25 29.5 58t68.5 66.5t92 65.5t101.5 56.5t93.5 39.5t69 15q35 0 60.5 -20t25.5 -59q0 -25 -26.5 -54.5t-69.5 -60.5t-96 -60.5t-105.5 -52t-99.5 -37t-78 -14.5q-23 4 -44 15.5t-21 41.5z" />
<glyph unicode="&#xe2;" horiz-adv-x="1173" d="M57 492q0 117 29 219t87 179t146.5 122t206.5 45q104 0 186.5 -38t147.5 -124q0 25 2 50.5t11.5 47t30 34.5t54.5 13q31 0 57.5 -24.5t31.5 -106.5q6 -109 9 -194.5t3 -177.5q0 -113 -2 -207t-10 -201q-4 -47 -11.5 -74.5t-17.5 -41t-24.5 -17.5t-28.5 -4q-33 0 -52.5 11 t-30 29.5t-14.5 44t-6 54.5q-51 -63 -132 -106t-206 -43q-80 0 -162.5 23.5t-150.5 81.5t-111 156.5t-43 248.5zM250 1278q0 18 11 44t42 58q27 27 65 58.5t76.5 57.5t73 43t57.5 17q20 0 56.5 -17t75 -43t76.5 -57.5t65 -58.5q23 -25 36 -48t13 -50q0 -35 -21.5 -61.5 t-62.5 -26.5q-35 0 -79 30.5t-116 96.5l-43 39l-43 -39q-72 -66 -117.5 -95.5t-80.5 -29.5q-37 0 -60.5 23.5t-23.5 58.5zM262 514q0 -180 79 -266t214 -86q80 0 136.5 27.5t92 74.5t53 111.5t17.5 136.5q0 106 -31.5 174t-80 105.5t-103.5 52t-102 14.5q-74 0 -126.5 -26.5 t-85 -72.5t-48 -108.5t-15.5 -136.5z" />
<glyph unicode="&#xe3;" horiz-adv-x="1173" d="M57 492q0 117 29 219t87 179t146.5 122t206.5 45q104 0 186.5 -38t147.5 -124q0 25 2 50.5t11.5 47t30 34.5t54.5 13q31 0 57.5 -24.5t31.5 -106.5q6 -109 9 -194.5t3 -177.5q0 -113 -2 -207t-10 -201q-4 -47 -11.5 -74.5t-17.5 -41t-24.5 -17.5t-28.5 -4q-33 0 -52.5 11 t-30 29.5t-14.5 44t-6 54.5q-51 -63 -132 -106t-206 -43q-80 0 -162.5 23.5t-150.5 81.5t-111 156.5t-43 248.5zM182 1337q0 35 14.5 74t44 70.5t72.5 53t101 21.5q59 0 100 -15t72.5 -34.5t62.5 -35t72 -15.5q61 0 91 14.5t45 33t25.5 32.5t32.5 14q29 0 53.5 -16t24.5 -47 q0 -47 -17.5 -89t-52 -75t-87 -52.5t-119.5 -19.5q-43 0 -78 16.5t-67.5 35t-65.5 35t-70 16.5q-33 0 -57.5 -14.5t-46 -33t-43 -32.5t-45.5 -14q-27 0 -44.5 21.5t-17.5 55.5zM262 514q0 -180 79 -266t214 -86q80 0 136.5 27.5t92 74.5t53 111.5t17.5 136.5 q0 106 -31.5 174t-80 105.5t-103.5 52t-102 14.5q-74 0 -126.5 -26.5t-85 -72.5t-48 -108.5t-15.5 -136.5z" />
<glyph unicode="&#xe4;" horiz-adv-x="1173" d="M57 492q0 117 29 219t87 179t146.5 122t206.5 45q104 0 186.5 -38t147.5 -124q0 25 2 50.5t11.5 47t30 34.5t54.5 13q31 0 57.5 -24.5t31.5 -106.5q6 -109 9 -194.5t3 -177.5q0 -113 -2 -207t-10 -201q-4 -47 -11.5 -74.5t-17.5 -41t-24.5 -17.5t-28.5 -4q-33 0 -52.5 11 t-30 29.5t-14.5 44t-6 54.5q-51 -63 -132 -106t-206 -43q-80 0 -162.5 23.5t-150.5 81.5t-111 156.5t-43 248.5zM262 514q0 -180 79 -266t214 -86q80 0 136.5 27.5t92 74.5t53 111.5t17.5 136.5q0 106 -31.5 174t-80 105.5t-103.5 52t-102 14.5q-74 0 -126.5 -26.5 t-85 -72.5t-48 -108.5t-15.5 -136.5zM281 1417q0 49 38 85t87 36q47 0 86.5 -37t39.5 -88q0 -49 -40.5 -85t-92.5 -36q-43 0 -80.5 36t-37.5 89zM649 1417q0 49 38 85t87 36q47 0 87 -37t40 -88q0 -49 -41 -85t-92 -36q-43 0 -81 36t-38 89z" />
<glyph unicode="&#xe5;" horiz-adv-x="1173" d="M57 492q0 117 29 219t87 179t146.5 122t206.5 45q104 0 186.5 -38t147.5 -124q0 25 2 50.5t11.5 47t30 34.5t54.5 13q31 0 57.5 -24.5t31.5 -106.5q6 -109 9 -194.5t3 -177.5q0 -113 -2 -207t-10 -201q-4 -47 -11.5 -74.5t-17.5 -41t-24.5 -17.5t-28.5 -4q-33 0 -52.5 11 t-30 29.5t-14.5 44t-6 54.5q-51 -63 -132 -106t-206 -43q-80 0 -162.5 23.5t-150.5 81.5t-111 156.5t-43 248.5zM262 514q0 -180 79 -266t214 -86q80 0 136.5 27.5t92 74.5t53 111.5t17.5 136.5q0 106 -31.5 174t-80 105.5t-103.5 52t-102 14.5q-74 0 -126.5 -26.5 t-85 -72.5t-48 -108.5t-15.5 -136.5zM289 1352q0 51 21.5 94t56 74.5t81 49t93.5 17.5q49 0 95 -18.5t80 -50t54.5 -74.5t20.5 -92t-19.5 -92t-53.5 -75t-80 -50.5t-97 -18.5t-96.5 18.5t-80 50.5t-55 75t-20.5 92zM406 1350q0 -61 39.5 -92t93.5 -31q61 0 96 35.5t35 91.5 q0 53 -34 92t-87 39q-70 0 -106.5 -38t-36.5 -97z" />
<glyph unicode="&#xe6;" horiz-adv-x="1869" d="M57 492q0 117 29 219t87 179t146.5 122t206.5 45q104 0 186.5 -38t147.5 -124q0 25 2 50.5t11.5 47t30 34.5t54.5 13q29 0 52.5 -19.5t31.5 -84.5q111 104 310 104q86 0 166.5 -22.5t143 -67.5t100.5 -113.5t38 -160.5q0 -82 -30.5 -139.5t-87 -92t-135.5 -51t-175 -16.5 q-72 0 -150.5 11t-170.5 48q18 -125 103 -188.5t245 -63.5q57 0 103 7.5t81 16.5t61.5 16t49.5 7q29 0 55.5 -17t26.5 -58q0 -51 -42 -84t-102.5 -52.5t-128 -26.5t-119.5 -7q-133 0 -210.5 28.5t-131.5 81.5q-4 -35 -11 -56.5t-17 -31.5t-22.5 -13t-26.5 -3q-33 0 -52.5 11 t-30 29.5t-14.5 44t-6 54.5q-51 -63 -132 -106t-206 -43q-80 0 -162.5 23.5t-150.5 81.5t-111 156.5t-43 248.5zM262 514q0 -180 79 -266t214 -86q80 0 136.5 27.5t92 74.5t53 111.5t17.5 136.5q0 106 -31.5 174t-80 105.5t-103.5 52t-102 14.5q-74 0 -126.5 -26.5 t-85 -72.5t-48 -108.5t-15.5 -136.5zM1049 598q78 -35 151.5 -48t155.5 -13q121 0 179 29.5t58 107.5q0 72 -54 125t-181 53q-55 0 -106.5 -13.5t-93.5 -43t-70.5 -77.5t-38.5 -120z" />
<glyph unicode="&#xe7;" horiz-adv-x="1017" d="M59 508q0 109 34 206t101.5 170.5t167 116.5t230.5 43q59 0 119.5 -10t109.5 -28.5t80 -45t31 -61.5q0 -90 -103 -90q-25 0 -46 7t-49.5 14.5t-72 14.5t-106.5 7q-135 0 -209 -92t-74 -240q0 -162 75 -260t212 -98q86 0 139.5 14t87 32.5t55 33t48.5 14.5 q37 0 58.5 -15.5t21.5 -62.5t-34 -82t-85 -58.5t-112.5 -37.5t-116.5 -16v-15q0 -43 15 -56t64 -32q59 -23 90 -60.5t31 -109.5q0 -29 -7 -64.5t-33.5 -66.5t-76 -52.5t-131.5 -21.5q-59 0 -103 16.5t-44 65.5q0 41 27.5 56.5t58.5 15.5q18 0 48 -3t48 -3q25 0 44.5 10 t19.5 39q0 37 -33 52.5t-71 32.5t-70.5 46t-32.5 90q0 6 1 19.5t5 48.5q-197 31 -304.5 163t-107.5 353z" />
<glyph unicode="&#xe8;" horiz-adv-x="1095" d="M57 512q0 127 40 225.5t109.5 166t165 102t206.5 34.5q86 0 166.5 -22.5t143 -67.5t100.5 -113.5t38 -160.5q0 -82 -30.5 -139.5t-87 -92t-135.5 -51t-175 -16.5q-72 0 -150.5 11t-171.5 48q18 -125 103.5 -188.5t245.5 -63.5q57 0 103 7.5t81 16.5t61.5 16t49.5 7 q29 0 55 -17t26 -58q0 -51 -41.5 -84t-102 -52.5t-128 -26.5t-119.5 -7q-121 0 -222 32.5t-175 99t-115 165t-41 229.5zM217 1487q0 39 24.5 57.5t59.5 18.5q39 0 113.5 -33t149.5 -80t131.5 -98.5t60.5 -89.5q0 -31 -20.5 -40.5t-43.5 -13.5q-31 0 -78 14.5t-99 37 t-105.5 52t-96.5 60.5t-69.5 60.5t-26.5 54.5zM274 598q78 -35 152 -48t156 -13q121 0 179 29.5t58 107.5q0 72 -54 125t-181 53q-55 0 -106.5 -13.5t-93.5 -43t-70.5 -77.5t-39.5 -120z" />
<glyph unicode="&#xe9;" horiz-adv-x="1095" d="M57 512q0 127 40 225.5t109.5 166t165 102t206.5 34.5q86 0 166.5 -22.5t143 -67.5t100.5 -113.5t38 -160.5q0 -82 -30.5 -139.5t-87 -92t-135.5 -51t-175 -16.5q-72 0 -150.5 11t-171.5 48q18 -125 103.5 -188.5t245.5 -63.5q57 0 103 7.5t81 16.5t61.5 16t49.5 7 q29 0 55 -17t26 -58q0 -51 -41.5 -84t-102 -52.5t-128 -26.5t-119.5 -7q-121 0 -222 32.5t-175 99t-115 165t-41 229.5zM274 598q78 -35 152 -48t156 -13q121 0 179 29.5t58 107.5q0 72 -54 125t-181 53q-55 0 -106.5 -13.5t-93.5 -43t-70.5 -77.5t-39.5 -120zM336 1262 q2 25 29.5 57.5t68.5 66t92.5 65.5t101.5 56.5t93 40t70 15.5q35 0 60.5 -20.5t25.5 -59.5q0 -25 -27 -54.5t-70 -60.5t-96 -60.5t-105.5 -52t-99.5 -37t-78 -14.5q-23 4 -44 15.5t-21 42.5z" />
<glyph unicode="&#xea;" horiz-adv-x="1095" d="M57 512q0 127 40 225.5t109.5 166t165 102t206.5 34.5q86 0 166.5 -22.5t143 -67.5t100.5 -113.5t38 -160.5q0 -82 -30.5 -139.5t-87 -92t-135.5 -51t-175 -16.5q-72 0 -150.5 11t-171.5 48q18 -125 103.5 -188.5t245.5 -63.5q57 0 103 7.5t81 16.5t61.5 16t49.5 7 q29 0 55 -17t26 -58q0 -51 -41.5 -84t-102 -52.5t-128 -26.5t-119.5 -7q-121 0 -222 32.5t-175 99t-115 165t-41 229.5zM256 1284q0 18 11.5 44t41.5 58q27 27 65 59t76.5 57.5t73.5 43t58 17.5q20 0 56 -17.5t75 -43t76.5 -57.5t64.5 -59q23 -25 36 -48t13 -50 q0 -35 -21.5 -61.5t-62.5 -26.5q-35 0 -79 31t-115 96l-43 39l-43 -39q-72 -66 -118 -95.5t-81 -29.5q-37 0 -60.5 23.5t-23.5 58.5zM274 598q78 -35 152 -48t156 -13q121 0 179 29.5t58 107.5q0 72 -54 125t-181 53q-55 0 -106.5 -13.5t-93.5 -43t-70.5 -77.5t-39.5 -120z " />
<glyph unicode="&#xeb;" horiz-adv-x="1095" d="M57 512q0 127 40 225.5t109.5 166t165 102t206.5 34.5q86 0 166.5 -22.5t143 -67.5t100.5 -113.5t38 -160.5q0 -82 -30.5 -139.5t-87 -92t-135.5 -51t-175 -16.5q-72 0 -150.5 11t-171.5 48q18 -125 103.5 -188.5t245.5 -63.5q57 0 103 7.5t81 16.5t61.5 16t49.5 7 q29 0 55 -17t26 -58q0 -51 -41.5 -84t-102 -52.5t-128 -26.5t-119.5 -7q-121 0 -222 32.5t-175 99t-115 165t-41 229.5zM215 1360q0 49 38 85t87 36q47 0 87 -37t40 -88q0 -49 -41 -85t-92 -36q-43 0 -81 36t-38 89zM274 598q78 -35 152 -48t156 -13q121 0 179 29.5 t58 107.5q0 72 -54 125t-181 53q-55 0 -106.5 -13.5t-93.5 -43t-70.5 -77.5t-39.5 -120zM584 1360q0 49 38 85t87 36q47 0 87 -37t40 -88q0 -49 -41 -85t-93 -36q-43 0 -80.5 36t-37.5 89z" />
<glyph unicode="&#xec;" horiz-adv-x="462" d="M-133 1487q0 39 24.5 57.5t59.5 18.5q39 0 113.5 -33t149.5 -80t131 -98.5t61 -89.5q0 -31 -20.5 -40.5t-43.5 -13.5q-31 0 -78 14.5t-99 37t-105.5 52t-96.5 60.5t-69.5 60.5t-26.5 54.5zM129 514q0 145 2 248.5t11.5 170t30 98.5t56.5 32q35 0 61.5 -24.5t31.5 -106.5 q12 -215 12 -416q0 -102 -4 -191t-8 -196q-2 -49 -9.5 -75.5t-19.5 -41t-27.5 -17.5t-36.5 -3q-37 0 -61.5 25.5t-28.5 109.5q-4 76 -7 173t-3 214z" />
<glyph unicode="&#xed;" horiz-adv-x="462" d="M27 1262q2 25 29.5 57.5t68.5 66t92 65.5t101.5 56.5t93.5 40t69 15.5q35 0 60.5 -20.5t25.5 -59.5q0 -25 -26.5 -54.5t-69.5 -60.5t-96 -60.5t-105.5 -52t-99.5 -37t-78 -14.5q-23 4 -44 15.5t-21 42.5zM129 514q0 145 2 248.5t11.5 170t30 98.5t56.5 32 q35 0 61.5 -24.5t31.5 -106.5q12 -215 12 -416q0 -102 -4 -191t-8 -196q-2 -49 -9.5 -75.5t-19.5 -41t-27.5 -17.5t-36.5 -3q-37 0 -61.5 25.5t-28.5 109.5q-4 76 -7 173t-3 214z" />
<glyph unicode="&#xee;" horiz-adv-x="462" d="M-88 1284q0 18 11 44t42 58q27 27 65 59t76.5 57.5t73.5 43t58 17.5q20 0 56 -17.5t75 -43t76.5 -57.5t64.5 -59q23 -25 36 -48t13 -50q0 -35 -21.5 -61.5t-62.5 -26.5q-35 0 -79 31t-115 96l-43 39l-43 -39q-72 -66 -118 -95.5t-81 -29.5q-37 0 -60.5 23.5t-23.5 58.5z M129 514q0 145 2 248.5t11.5 170t30 98.5t56.5 32q35 0 61.5 -24.5t31.5 -106.5q12 -215 12 -416q0 -102 -4 -191t-8 -196q-2 -49 -9.5 -75.5t-19.5 -41t-27.5 -17.5t-36.5 -3q-37 0 -61.5 25.5t-28.5 109.5q-4 76 -7 173t-3 214z" />
<glyph unicode="&#xef;" horiz-adv-x="462" d="M-68 1442q0 49 38 85t87 36q47 0 87 -37t40 -88q0 -49 -41 -85t-92 -36q-43 0 -81 36t-38 89zM129 514q0 145 2 248.5t11.5 170t30 98.5t56.5 32q35 0 61.5 -24.5t31.5 -106.5q12 -215 12 -416q0 -102 -4 -191t-8 -196q-2 -49 -9.5 -75.5t-19.5 -41t-27.5 -17.5t-36.5 -3 q-37 0 -61.5 25.5t-28.5 109.5q-4 76 -7 173t-3 214zM301 1442q0 49 38 85t87 36q47 0 87 -37t40 -88q0 -49 -41 -85t-92 -36q-43 0 -81 36t-38 89z" />
<glyph unicode="&#xf0;" horiz-adv-x="1222" d="M98 526q0 125 37 214t99.5 146.5t146.5 84t178 26.5q125 0 222.5 -52t133.5 -183q0 221 -69 385q-59 -14 -124 -31.5t-124 -17.5q-39 0 -65.5 22.5t-26.5 75.5q0 27 24.5 44t59.5 28.5t72.5 18.5t62.5 13q-29 33 -70 60t-82 35q-45 8 -66.5 35.5t-21.5 58.5q0 37 26 61.5 t73 24.5q115 0 200.5 -57.5t149.5 -149.5q96 23 144 34t63 11q53 0 72.5 -32.5t19.5 -71.5q0 -37 -45 -66t-160 -55q49 -123 71.5 -256t22.5 -248q0 -152 -24.5 -282t-82 -225t-151.5 -149.5t-233 -54.5q-127 0 -225.5 41t-167 115t-104.5 175.5t-36 221.5zM303 498 q0 -160 83 -242t218 -82q80 0 133.5 26.5t84 69.5t44 95.5t13.5 103.5q0 61 -17.5 122.5t-53.5 111t-92 79t-136 29.5q-129 0 -203 -82t-74 -231z" />
<glyph unicode="&#xf1;" horiz-adv-x="1140" d="M123 631q0 104 3 169.5t11 117.5q12 86 32.5 108.5t55.5 22.5q51 0 77 -29t32 -94q76 66 163 104.5t179 38.5q88 0 160.5 -41t119.5 -133q29 -55 43.5 -121.5t20.5 -140.5q2 -33 4 -64.5t3 -67.5t1 -81v-107q0 -66 -2 -123t-11 -99t-31.5 -65.5t-61.5 -23.5q-94 0 -99 90 v52t-1 107.5t-2 125t-3 104.5q-2 33 -5 71t-8 77t-13.5 74.5t-20.5 64.5q-29 68 -72 86t-92 18q-76 0 -136 -24.5t-136 -73.5v-126t-2 -180t-4 -191.5t-9 -157.5q-4 -41 -9 -64.5t-14 -36t-24.5 -15.5t-40.5 -3t-40 3t-25 14.5t-16.5 34t-10.5 61.5q-4 37 -7 98t-5 134 t-3 147.5t-1 138.5zM160 1305q0 35 14 73.5t44 70.5t73 53.5t100 21.5q59 0 100 -15.5t73 -35t62.5 -35t71.5 -15.5q61 0 91 14.5t45.5 33t25.5 33t33 14.5q29 0 53.5 -16.5t24.5 -47.5q0 -47 -17.5 -89t-52.5 -75t-87 -52t-120 -19q-43 0 -77.5 16t-67.5 34.5t-65.5 35 t-69.5 16.5q-33 0 -57.5 -14.5t-46 -33t-43 -32.5t-46.5 -14q-27 0 -44 21.5t-17 56.5z" />
<glyph unicode="&#xf2;" horiz-adv-x="1155" d="M57 508q0 117 38 214t108.5 168t171 109.5t223.5 38.5q117 0 209 -35.5t156.5 -101t99.5 -160t35 -211.5q0 -129 -40 -231t-110.5 -174t-168 -111t-212.5 -39q-125 0 -220 43t-159.5 117t-97.5 170t-33 203zM260 1487q0 39 24.5 57.5t59.5 18.5q39 0 113.5 -33t149.5 -80 t131.5 -98.5t60.5 -89.5q0 -31 -20.5 -40.5t-43.5 -13.5q-31 0 -78 14.5t-99 37t-105.5 52t-96.5 60.5t-69.5 60.5t-26.5 54.5zM272 500q0 -150 76.5 -243t226.5 -93q84 0 143.5 29.5t97.5 79t55.5 111.5t17.5 130q0 70 -17.5 130.5t-53.5 105.5t-92 70.5t-134 25.5 q-80 0 -139.5 -26.5t-99.5 -73t-60.5 -110t-20.5 -136.5z" />
<glyph unicode="&#xf3;" horiz-adv-x="1155" d="M57 508q0 117 38 214t108.5 168t171 109.5t223.5 38.5q117 0 209 -35.5t156.5 -101t99.5 -160t35 -211.5q0 -129 -40 -231t-110.5 -174t-168 -111t-212.5 -39q-125 0 -220 43t-159.5 117t-97.5 170t-33 203zM272 500q0 -150 76.5 -243t226.5 -93q84 0 143.5 29.5t97.5 79 t55.5 111.5t17.5 130q0 70 -17.5 130.5t-53.5 105.5t-92 70.5t-134 25.5q-80 0 -139.5 -26.5t-99.5 -73t-60.5 -110t-20.5 -136.5zM369 1262q2 25 29.5 57.5t68.5 66t92 65.5t101.5 56.5t93.5 40t69 15.5q35 0 60.5 -20.5t25.5 -59.5q0 -25 -26.5 -54.5t-69.5 -60.5 t-96 -60.5t-105.5 -52t-99.5 -37t-78 -14.5q-23 4 -44 15.5t-21 42.5z" />
<glyph unicode="&#xf4;" horiz-adv-x="1155" d="M57 508q0 117 38 214t108.5 168t171 109.5t223.5 38.5q117 0 209 -35.5t156.5 -101t99.5 -160t35 -211.5q0 -129 -40 -231t-110.5 -174t-168 -111t-212.5 -39q-125 0 -220 43t-159.5 117t-97.5 170t-33 203zM262 1284q0 18 11.5 44t41.5 58q27 27 65 59t77 57.5t73.5 43 t57.5 17.5q20 0 56 -17.5t75 -43t77 -57.5t64 -59q23 -25 36 -48t13 -50q0 -35 -21.5 -61.5t-62.5 -26.5q-35 0 -79 31t-115 96l-43 39l-43 -39q-72 -66 -118 -95.5t-81 -29.5q-37 0 -60.5 23.5t-23.5 58.5zM272 500q0 -150 76.5 -243t226.5 -93q84 0 143.5 29.5t97.5 79 t55.5 111.5t17.5 130q0 70 -17.5 130.5t-53.5 105.5t-92 70.5t-134 25.5q-80 0 -139.5 -26.5t-99.5 -73t-60.5 -110t-20.5 -136.5z" />
<glyph unicode="&#xf5;" horiz-adv-x="1155" d="M57 508q0 117 38 214t108.5 168t171 109.5t223.5 38.5q117 0 209 -35.5t156.5 -101t99.5 -160t35 -211.5q0 -129 -40 -231t-110.5 -174t-168 -111t-212.5 -39q-125 0 -220 43t-159.5 117t-97.5 170t-33 203zM190 1305q0 35 14.5 73.5t44.5 70.5t73 53.5t100 21.5 q59 0 100 -15.5t73 -35t62.5 -35t71.5 -15.5q61 0 91 14.5t45.5 33t25.5 33t33 14.5q29 0 53 -16.5t24 -47.5q0 -47 -17 -89t-52 -75t-87 -52t-120 -19q-43 0 -78 16t-67.5 34.5t-65.5 35t-70 16.5q-33 0 -57.5 -14.5t-46 -33t-43 -32.5t-45.5 -14q-27 0 -44.5 21.5 t-17.5 56.5zM272 500q0 -150 76.5 -243t226.5 -93q84 0 143.5 29.5t97.5 79t55.5 111.5t17.5 130q0 70 -17.5 130.5t-53.5 105.5t-92 70.5t-134 25.5q-80 0 -139.5 -26.5t-99.5 -73t-60.5 -110t-20.5 -136.5z" />
<glyph unicode="&#xf6;" horiz-adv-x="1155" d="M57 508q0 117 38 214t108.5 168t171 109.5t223.5 38.5q117 0 209 -35.5t156.5 -101t99.5 -160t35 -211.5q0 -129 -40 -231t-110.5 -174t-168 -111t-212.5 -39q-125 0 -220 43t-159.5 117t-97.5 170t-33 203zM248 1339q0 49 38 85t87 36q47 0 87 -37t40 -88q0 -49 -41 -85 t-92 -36q-43 0 -81 36t-38 89zM272 500q0 -150 76.5 -243t226.5 -93q84 0 143.5 29.5t97.5 79t55.5 111.5t17.5 130q0 70 -17.5 130.5t-53.5 105.5t-92 70.5t-134 25.5q-80 0 -139.5 -26.5t-99.5 -73t-60.5 -110t-20.5 -136.5zM616 1339q0 49 38 85t87 36q47 0 87 -37 t40 -88q0 -49 -41 -85t-92 -36q-43 0 -81 36t-38 89z" />
<glyph unicode="&#xf7;" horiz-adv-x="940" d="M20 713q0 18 4.5 33.5t18.5 27.5t40 21.5t67 13.5q31 2 54 4t45.5 3t48.5 1h60q111 0 213.5 -1t212.5 -7q49 -4 76 -11t41 -19.5t17.5 -29t3.5 -36.5q0 -37 -26 -61.5t-110 -28.5q-94 -4 -217 -7.5t-290 -3.5q-70 0 -119 2t-80 11.5t-45.5 30t-14.5 57.5zM360 268 q0 49 38 85t87 36q47 0 87 -37t40 -88q0 -49 -41 -85t-92 -36q-43 0 -81 36t-38 89zM360 1169q0 49 38 85t87 36q47 0 87 -36.5t40 -88.5q0 -49 -41 -85t-92 -36q-43 0 -81 36t-38 89z" />
<glyph unicode="&#xf8;" horiz-adv-x="1155" d="M57 508q0 117 38 214t108.5 168t171 109.5t223.5 38.5q145 0 246 -51q47 53 75.5 72.5t57.5 19.5q35 0 59.5 -21.5t24.5 -49.5q0 -31 -12.5 -53.5t-28.5 -43.5l-31 -39q109 -133 109 -342q0 -129 -40 -231t-110.5 -174t-168 -111t-212.5 -39q-78 0 -145.5 17.5 t-122.5 50.5l-31 -37q-16 -18 -45.5 -42.5t-58.5 -24.5q-35 0 -58.5 23.5t-23.5 51.5q0 27 14.5 52.5t32.5 50.5l35 47q-106 143 -107 344zM272 500q0 -76 27 -166l408 493q-49 18 -115 19q-80 0 -139.5 -26.5t-99.5 -73t-60.5 -110t-20.5 -136.5zM430 195q61 -31 145 -31 t143.5 29.5t97.5 79t55.5 111.5t17.5 130q0 100 -37 180q-104 -133 -205.5 -250.5t-216.5 -248.5z" />
<glyph unicode="&#xf9;" horiz-adv-x="1112" d="M100 774q0 63 2 114.5t11.5 88.5t30 57.5t57.5 20.5q96 0 104 -127q4 -53 3 -129t2 -159t13.5 -166t36 -148.5t71.5 -106.5t120 -41t120 41t71.5 106.5t35.5 148.5t13.5 166t2.5 158.5t3 129.5q8 127 104 127q37 0 57.5 -20.5t29.5 -57.5t11 -88t2 -115 q0 -131 -13 -271.5t-59 -257t-136.5 -192.5t-241.5 -76q-152 0 -242 76t-136 192.5t-59.5 257t-13.5 271.5zM143 1475q0 39 25 57t59 18q39 0 114 -32.5t149.5 -79.5t131 -98.5t60.5 -90.5q0 -31 -20.5 -40t-43.5 -13q-31 0 -77.5 14.5t-99 37t-105.5 52t-96 60.5t-70 60.5 t-27 54.5z" />
<glyph unicode="&#xfa;" horiz-adv-x="1112" d="M100 774q0 63 2 114.5t11.5 88.5t30 57.5t57.5 20.5q96 0 104 -127q4 -53 3 -129t2 -159t13.5 -166t36 -148.5t71.5 -106.5t120 -41t120 41t71.5 106.5t35.5 148.5t13.5 166t2.5 158.5t3 129.5q8 127 104 127q37 0 57.5 -20.5t29.5 -57.5t11 -88t2 -115 q0 -131 -13 -271.5t-59 -257t-136.5 -192.5t-241.5 -76q-152 0 -242 76t-136 192.5t-59.5 257t-13.5 271.5zM346 1235q2 25 29.5 57.5t68.5 66.5t92.5 65.5t101.5 56t93 40t70 15.5q35 0 60.5 -20.5t25.5 -59.5q0 -25 -26.5 -54.5t-69.5 -60t-96.5 -60.5t-105.5 -52.5 t-99 -36.5t-78 -14q-23 4 -44.5 15t-21.5 42z" />
<glyph unicode="&#xfb;" horiz-adv-x="1112" d="M100 774q0 63 2 114.5t11.5 88.5t30 57.5t57.5 20.5q96 0 104 -127q4 -53 3 -129t2 -159t13.5 -166t36 -148.5t71.5 -106.5t120 -41t120 41t71.5 106.5t35.5 148.5t13.5 166t2.5 158.5t3 129.5q8 127 104 127q37 0 57.5 -20.5t29.5 -57.5t11 -88t2 -115 q0 -131 -13 -271.5t-59 -257t-136.5 -192.5t-241.5 -76q-152 0 -242 76t-136 192.5t-59.5 257t-13.5 271.5zM231 1247q0 18 11.5 44t42.5 59q27 27 64.5 58.5t76.5 57t73.5 43t57.5 17.5q20 0 56 -17.5t75 -43t77 -57.5t64 -58q23 -25 36.5 -48.5t13.5 -50.5 q0 -35 -21.5 -61.5t-62.5 -26.5q-35 0 -79 31t-116 96l-43 39l-43 -39q-72 -66 -118 -95.5t-81 -29.5q-37 0 -60.5 23.5t-23.5 58.5z" />
<glyph unicode="&#xfc;" horiz-adv-x="1112" d="M100 774q0 63 2 114.5t11.5 88.5t30 57.5t57.5 20.5q96 0 104 -127q4 -53 3 -129t2 -159t13.5 -166t36 -148.5t71.5 -106.5t120 -41t120 41t71.5 106.5t35.5 148.5t13.5 166t2.5 158.5t3 129.5q8 127 104 127q37 0 57.5 -20.5t29.5 -57.5t11 -88t2 -115 q0 -131 -13 -271.5t-59 -257t-136.5 -192.5t-241.5 -76q-152 0 -242 76t-136 192.5t-59.5 257t-13.5 271.5zM227 1364q0 49 38 85t87 36q47 0 87 -37t40 -88q0 -49 -41 -85t-92 -36q-43 0 -81 36t-38 89zM596 1364q0 49 38 85t87 36q47 0 87 -37t40 -88q0 -49 -41 -85 t-92 -36q-43 0 -81 36t-38 89z" />
<glyph unicode="&#xfd;" horiz-adv-x="1060" d="M29 969q0 27 21.5 46t53.5 19q29 0 55.5 -11t49.5 -50q33 -61 68.5 -140t71.5 -165t74 -174t77 -170q45 84 96 176t99 178t89 158.5t70 121.5q29 47 57.5 68t59.5 21q20 0 40.5 -17.5t20.5 -46.5q0 -43 -38 -138t-97 -220t-134 -267.5t-148.5 -278.5t-140 -255 t-109.5 -199q-27 -47 -50.5 -69.5t-54.5 -22.5q-29 0 -57.5 18.5t-28.5 51.5q0 31 21.5 88t53.5 124.5t66.5 139.5t63.5 131l14 31q-61 121 -125.5 258t-118 260t-87 214t-33.5 120zM362 1235q2 25 30 57.5t69 66.5t92 65.5t101.5 56t93.5 40t69 15.5q35 0 60.5 -20.5 t25.5 -59.5q0 -25 -26.5 -54.5t-69.5 -60t-96.5 -60.5t-105.5 -52.5t-99 -36.5t-78 -14q-23 4 -44.5 15t-21.5 42z" />
<glyph unicode="&#xfe;" horiz-adv-x="1247" d="M117 360q0 100 1 214t4 245t8 283.5t11 331.5q4 80 34 111.5t75 31.5q39 0 60.5 -17.5t32.5 -46t13 -64.5t2 -75q0 -109 -7 -213t-17 -231q82 72 163 99.5t191 27.5q96 0 182 -35t150.5 -99.5t102.5 -155.5t38 -204q0 -156 -43 -263t-112.5 -175t-159.5 -97.5t-184 -29.5 q-111 0 -192 23.5t-140 70.5q4 -88 7 -162.5t3 -158.5q0 -92 -7 -144.5t-20.5 -79t-35 -33t-52.5 -6.5q-37 0 -61.5 26t-28.5 110q-4 82 -7 158.5t-5 160.5t-4 180.5t-2 216.5zM369 530q0 -66 18.5 -128t54 -111t86 -80t115.5 -31q53 0 108.5 18.5t100.5 55.5t73.5 94.5 t28.5 136.5q0 94 -23.5 161t-63.5 108t-90 59t-105 18q-80 0 -137.5 -26.5t-94.5 -68.5t-54 -96t-17 -110z" />
<glyph unicode="&#xff;" horiz-adv-x="1060" d="M29 969q0 27 21.5 46t53.5 19q29 0 55.5 -11t49.5 -50q33 -61 68.5 -140t71.5 -165t74 -174t77 -170q45 84 96 176t99 178t89 158.5t70 121.5q29 47 57.5 68t59.5 21q20 0 40.5 -17.5t20.5 -46.5q0 -43 -38 -138t-97 -220t-134 -267.5t-148.5 -278.5t-140 -255 t-109.5 -199q-27 -47 -50.5 -69.5t-54.5 -22.5q-29 0 -57.5 18.5t-28.5 51.5q0 31 21.5 88t53.5 124.5t66.5 139.5t63.5 131l14 31q-61 121 -125.5 258t-118 260t-87 214t-33.5 120zM219 1335q0 49 38 85t87 36q47 0 87 -37t40 -88q0 -49 -41 -85t-92 -36q-43 0 -81 36 t-38 89zM588 1335q0 49 38 85t87 36q47 0 87 -37t40 -88q0 -49 -41 -85t-92 -36q-43 0 -81 36t-38 89z" />
<glyph unicode="&#x152;" horiz-adv-x="1918" d="M82 696q0 178 50 317.5t137 237t203 148.5t247 51q74 0 149.5 -14.5t135.5 -42.5q47 31 126.5 39t204.5 8h44t101.5 -1t124 -3t107.5 -4q45 -4 72.5 -11.5t42 -18.5t18.5 -26.5t4 -34.5q0 -47 -26.5 -68.5t-108.5 -27.5q-41 -4 -119.5 -5t-160.5 -1t-147.5 -1t-82.5 -1 q-53 -2 -74.5 -23.5t-21.5 -101.5q0 -18 3 -89t3 -198h170q109 0 177.5 -3t106.5 -13t52 -32.5t14 -59.5q0 -18 -3 -33.5t-17.5 -27t-41 -18.5t-75.5 -11q-59 -4 -111.5 -5t-103.5 -1h-172v-74v-88t1 -88t3 -70q2 -33 9 -55.5t26.5 -36.5t57.5 -20.5t102 -6.5h440 q72 0 90.5 -26.5t18.5 -71.5q0 -37 -16.5 -56.5t-79 -28.5t-186.5 -11t-341 -2q-80 0 -135.5 12t-91.5 41q-59 -27 -133 -42t-162 -15q-115 0 -228.5 45t-202.5 134t-144.5 223t-55.5 312zM307 719q0 -139 36 -239.5t93.5 -165t130 -96.5t146.5 -32q66 0 116 11.5t89 27.5 q-4 20 -5.5 40.5t-3.5 45.5q-4 66 -8 178.5t-4 231.5q0 68 1 140.5t3 148.5q2 57 4 104t8 88q-35 16 -85 29.5t-136 13.5q-78 0 -148.5 -40t-122.5 -110.5t-83 -167t-31 -208.5z" />
<glyph unicode="&#x153;" horiz-adv-x="1902" d="M57 508q0 117 38 214t108.5 168t171 109.5t223.5 38.5q129 0 226.5 -42t162.5 -119q70 80 172.5 121.5t224.5 41.5q86 0 167 -22.5t143.5 -67.5t100.5 -113.5t38 -160.5q0 -82 -30.5 -139.5t-87 -92t-135.5 -51t-175 -16.5q-72 0 -150.5 11t-171.5 48 q18 -125 103.5 -188.5t245.5 -63.5q57 0 103 7.5t81 16.5t61.5 16t48.5 7q29 0 55.5 -17t26.5 -58q0 -51 -42 -84t-102 -52.5t-128 -26.5t-119 -7q-139 0 -251.5 44t-186.5 132q-72 -90 -177.5 -138.5t-234.5 -48.5q-125 0 -220 43t-159.5 117t-97.5 170t-33 203zM272 500 q0 -150 76.5 -243t226.5 -93q84 0 143.5 29.5t97.5 79t55.5 111.5t17.5 130q0 70 -17.5 130.5t-53.5 105.5t-92 70.5t-134 25.5q-80 0 -139.5 -26.5t-99.5 -73t-60.5 -110t-20.5 -136.5zM1081 598q78 -35 152 -48t156 -13q121 0 179 29.5t58 107.5q0 72 -54 125t-181 53 q-55 0 -106.5 -13.5t-93.5 -43t-70.5 -77.5t-39.5 -120z" />
<glyph unicode="&#x178;" horiz-adv-x="1163" d="M41 1341q0 39 21.5 65t74.5 26q43 0 77 -24t62 -69l306 -485l305 485q29 45 62.5 69t76.5 24q53 0 74.5 -26t21.5 -65q0 -23 -9 -47t-26 -47l-399 -571q0 -139 -3 -267t-9 -280q-2 -49 -9.5 -75.5t-19.5 -41t-27.5 -17.5t-35.5 -3q-37 0 -61.5 25.5t-28.5 109.5 q-4 113 -7.5 241t-3.5 296l-407 583q-16 23 -25.5 47.5t-9.5 46.5zM272 1786q0 49 38 85t87 36q47 0 87 -37t40 -88q0 -49 -41 -85t-92 -36q-43 0 -81 36t-38 89zM641 1786q0 49 38 85t87 36q47 0 87 -37t40 -88q0 -49 -41 -85t-92 -36q-43 0 -81 36t-38 89z" />
<glyph unicode="&#x2c6;" horiz-adv-x="761" d="M76 1247q0 18 11 44t42 59q27 27 64.5 58.5t76.5 57t73.5 43t57.5 17.5q20 0 56.5 -17.5t75 -43t76.5 -57.5t65 -58q23 -25 36 -48.5t13 -50.5q0 -35 -21.5 -61.5t-62.5 -26.5q-35 0 -79 31t-116 96l-43 39l-43 -39q-72 -66 -117.5 -95.5t-80.5 -29.5q-37 0 -60.5 23.5 t-23.5 58.5z" />
<glyph unicode="&#x2dc;" horiz-adv-x="870" d="M29 1305q0 35 14 73.5t44 70.5t73 53.5t100 21.5q59 0 100 -15.5t73 -35t62.5 -35t71.5 -15.5q61 0 91 14.5t45.5 33t25.5 33t33 14.5q29 0 53.5 -16.5t24.5 -47.5q0 -47 -17.5 -89t-52.5 -75t-87 -52t-120 -19q-43 0 -77.5 16t-67.5 34.5t-65.5 35t-69.5 16.5 q-33 0 -57.5 -14.5t-46 -33t-43 -32.5t-46.5 -14q-27 0 -44 21.5t-17 56.5z" />
<glyph unicode="&#x2000;" horiz-adv-x="975" />
<glyph unicode="&#x2001;" horiz-adv-x="1950" />
<glyph unicode="&#x2002;" horiz-adv-x="975" />
<glyph unicode="&#x2003;" horiz-adv-x="1950" />
<glyph unicode="&#x2004;" horiz-adv-x="650" />
<glyph unicode="&#x2005;" horiz-adv-x="487" />
<glyph unicode="&#x2006;" horiz-adv-x="325" />
<glyph unicode="&#x2007;" horiz-adv-x="325" />
<glyph unicode="&#x2008;" horiz-adv-x="243" />
<glyph unicode="&#x2009;" horiz-adv-x="390" />
<glyph unicode="&#x200a;" horiz-adv-x="108" />
<glyph unicode="&#x2010;" horiz-adv-x="983" d="M41 602q0 18 4 33.5t18.5 28t40 21.5t66.5 13q31 2 54.5 4.5t46 3.5t48 1h60.5q111 0 213 -1t213 -8q49 -4 75.5 -11t41 -19.5t17.5 -28.5t3 -37q0 -37 -25.5 -61.5t-109.5 -28.5q-94 -4 -217 -7t-291 -3q-70 0 -119 2t-79.5 11t-45 29.5t-14.5 57.5z" />
<glyph unicode="&#x2011;" horiz-adv-x="983" d="M41 602q0 18 4 33.5t18.5 28t40 21.5t66.5 13q31 2 54.5 4.5t46 3.5t48 1h60.5q111 0 213 -1t213 -8q49 -4 75.5 -11t41 -19.5t17.5 -28.5t3 -37q0 -37 -25.5 -61.5t-109.5 -28.5q-94 -4 -217 -7t-291 -3q-70 0 -119 2t-79.5 11t-45 29.5t-14.5 57.5z" />
<glyph unicode="&#x2012;" horiz-adv-x="983" d="M41 602q0 18 4 33.5t18.5 28t40 21.5t66.5 13q31 2 54.5 4.5t46 3.5t48 1h60.5q111 0 213 -1t213 -8q49 -4 75.5 -11t41 -19.5t17.5 -28.5t3 -37q0 -37 -25.5 -61.5t-109.5 -28.5q-94 -4 -217 -7t-291 -3q-70 0 -119 2t-79.5 11t-45 29.5t-14.5 57.5z" />
<glyph unicode="&#x2013;" horiz-adv-x="983" d="M41 602q0 18 4 33.5t18.5 28t40 21.5t66.5 13q31 2 54.5 4.5t46 3.5t48 1h60.5q111 0 213 -1t213 -8q49 -4 75.5 -11t41 -19.5t17.5 -28.5t3 -37q0 -37 -25.5 -61.5t-109.5 -28.5q-94 -4 -217 -7t-291 -3q-70 0 -119 2t-79.5 11t-45 29.5t-14.5 57.5z" />
<glyph unicode="&#x2014;" horiz-adv-x="1234" d="M41 602q0 18 4 33.5t18.5 28t40 21.5t66.5 13q35 2 74 4.5t91 3.5t122.5 1h171.5q111 0 217 -1t211 -8q49 -2 75.5 -10t41 -20.5t17.5 -28.5t3 -37q0 -37 -25.5 -61.5t-109.5 -28.5q-131 -4 -324.5 -7t-435.5 -3q-70 0 -119 2t-79.5 11t-45 29.5t-14.5 57.5z" />
<glyph unicode="&#x2018;" horiz-adv-x="282" d="M14 1196q0 119 45 188.5t127 69.5q20 0 36 -15.5t16 -43.5q0 -37 -17.5 -45.5t-25.5 -14.5q-10 -8 -13.5 -25.5t-3.5 -39.5q39 -6 71 -41t32 -82q0 -49 -29 -85t-96 -36q-41 0 -68 14.5t-43 39t-23.5 55t-7.5 61.5z" />
<glyph unicode="&#x2019;" horiz-adv-x="301" d="M14 1360q0 49 29 85t96 36q39 0 66.5 -14.5t44 -39t24 -55.5t7.5 -61q0 -119 -45.5 -188.5t-126.5 -69.5q-20 0 -36 15t-16 44q0 37 17.5 45t25.5 14q10 8 13.5 25.5t3.5 40.5q-39 6 -71 41t-32 82z" />
<glyph unicode="&#x201a;" horiz-adv-x="282" d="M14 104q0 49 29 85t96 36q39 0 66.5 -14t44 -39t24 -55.5t7.5 -61.5q0 -119 -45.5 -188.5t-126.5 -69.5q-20 0 -36 15.5t-16 44.5q0 37 17.5 45t25.5 14q10 8 13.5 25.5t3.5 40.5q-39 6 -71 40.5t-32 81.5z" />
<glyph unicode="&#x201c;" horiz-adv-x="727" d="M14 1196q0 119 45 188.5t127 69.5q20 0 36 -15.5t16 -43.5q0 -37 -17.5 -45.5t-25.5 -14.5q-10 -8 -13.5 -25.5t-3.5 -39.5q39 -6 71 -41t32 -82q0 -49 -29 -85t-96 -36q-41 0 -68 14.5t-43 39t-23.5 55t-7.5 61.5zM444 1196q0 119 45.5 188.5t126.5 69.5q20 0 36 -15.5 t16 -43.5q0 -37 -17.5 -45.5t-25.5 -14.5q-10 -8 -13.5 -25.5t-3.5 -39.5q39 -6 71 -41t32 -82q0 -49 -29 -85t-96 -36q-41 0 -67.5 14.5t-43 39t-24 55t-7.5 61.5z" />
<glyph unicode="&#x201d;" horiz-adv-x="727" d="M14 1360q0 49 29 85t96 36q39 0 66.5 -14.5t44 -39t24 -55.5t7.5 -61q0 -119 -45.5 -188.5t-126.5 -69.5q-20 0 -36 15t-16 44q0 37 17.5 45t25.5 14q10 8 13.5 25.5t3.5 40.5q-39 6 -71 41t-32 82zM444 1360q0 49 29 85t96 36q39 0 67 -14.5t44 -39t23.5 -55.5t7.5 -61 q0 -119 -45 -188.5t-127 -69.5q-20 0 -36 15t-16 44q0 37 17.5 45t25.5 14q10 8 13.5 25.5t3.5 40.5q-39 6 -71 41t-32 82z" />
<glyph unicode="&#x201e;" horiz-adv-x="727" d="M14 129q0 49 29 85t96 36q39 0 66.5 -14.5t44 -39t24 -55t7.5 -61.5q0 -119 -45.5 -188.5t-126.5 -69.5q-20 0 -36 15.5t-16 43.5q0 37 17.5 45.5t25.5 14.5q10 8 13.5 25.5t3.5 39.5q-39 6 -71 41t-32 82zM444 129q0 49 29 85t96 36q39 0 67 -14.5t44 -39t23.5 -55 t7.5 -61.5q0 -119 -45 -188.5t-127 -69.5q-20 0 -36 15.5t-16 43.5q0 37 17.5 45.5t25.5 14.5q10 8 13.5 25.5t3.5 39.5q-39 6 -71 41t-32 82z" />
<glyph unicode="&#x2022;" horiz-adv-x="530" d="M102 725q0 41 14.5 72.5t37 53t51 32t59.5 10.5q55 0 105.5 -40t58.5 -122q0 -82 -44 -132t-118 -50q-63 0 -113.5 44t-50.5 132z" />
<glyph unicode="&#x2026;" horiz-adv-x="1001" d="M41 104q0 49 38 85t87 36q47 0 87 -36.5t40 -88.5q0 -49 -41 -84.5t-92 -35.5q-43 0 -81 35.5t-38 88.5zM375 104q0 49 38 85t87 36q47 0 87 -36.5t40 -88.5q0 -49 -41 -84.5t-92 -35.5q-43 0 -81 35.5t-38 88.5zM709 104q0 49 38 85t87 36q47 0 87 -36.5t40 -88.5 q0 -49 -41 -84.5t-93 -35.5q-43 0 -80.5 35.5t-37.5 88.5z" />
<glyph unicode="&#x202f;" horiz-adv-x="390" />
<glyph unicode="&#x2039;" horiz-adv-x="714" d="M20 553q0 47 43 89t107 101q78 76 157 151t156 140q37 33 62.5 46.5t44.5 13.5q18 0 32.5 -8.5t28.5 -22.5q23 -27 23 -57q0 -23 -26.5 -62t-57.5 -70q-37 -39 -65.5 -67.5t-62.5 -62t-82 -80t-122 -117.5q78 -78 127 -126t85 -83t67.5 -66.5l76.5 -76.5 q33 -35 46.5 -59.5t13.5 -45.5q0 -16 -2 -31.5t-17 -29.5q-16 -16 -31.5 -21.5t-33.5 -5.5t-44 13.5t-63 45.5q-78 66 -156.5 142t-156.5 151q-18 18 -44 42t-49.5 50.5t-40 54t-16.5 52.5z" />
<glyph unicode="&#x203a;" horiz-adv-x="714" d="M41 90q0 20 13 45t46 60q45 45 77 76.5t68 66.5t85 83t127 126q-74 72 -122 118t-82 79.5t-62.5 62.5t-65.5 67q-31 31 -57.5 70t-26.5 62q0 31 22 57q14 14 28.5 22.5t33.5 8.5q18 0 44 -13.5t62 -46.5q78 -66 157 -140.5t157 -150.5q63 -59 106 -101t43 -89 q0 -25 -16 -52.5t-40 -54t-49.5 -50t-43.5 -42.5q-78 -76 -157 -151.5t-157 -141.5q-37 -33 -62.5 -46t-43.5 -13t-33.5 5t-32.5 22q-14 14 -16 29.5t-2 31.5z" />
<glyph unicode="&#x205f;" horiz-adv-x="487" />
<glyph unicode="&#x20ac;" horiz-adv-x="1396" d="M45 547q0 20 7 38.5t28.5 33t62.5 21.5t109 7v49v34t2 34q-102 2 -145 18.5t-43 81.5q0 16 4 32.5t18 30t40 21.5t67 13l92 6q33 115 92 205t137 151t173 94t200 33q68 0 136.5 -11.5t123.5 -35t91 -57t36 -78.5q0 -47 -24.5 -72t-61.5 -25q-35 0 -61.5 11.5t-60.5 26 t-81 25.5t-125 11q-111 0 -201 -75.5t-139 -200.5h131q96 0 178 -2t173 -6q49 -4 75.5 -11.5t41 -19.5t17.5 -28.5t3 -37.5q0 -37 -25.5 -61.5t-109.5 -28.5q-100 -6 -231.5 -8t-297.5 -2v-45v-34.5t2 -33.5h154q96 0 178 -2t172 -6q49 -4 75.5 -11t41 -19.5t17.5 -29 t3 -36.5q0 -37 -25.5 -61.5t-109.5 -28.5q-90 -4 -203.5 -7.5t-257.5 -3.5q55 -135 153.5 -197.5t205.5 -62.5q88 0 147.5 18.5t101.5 41t72.5 41t59.5 18.5q35 0 55 -19.5t20 -68.5q0 -41 -31.5 -83t-92 -75.5t-144.5 -55t-188 -21.5q-92 0 -184.5 28.5t-173.5 87 t-143.5 145.5t-96.5 203q-66 0 -111 2.5t-73.5 11.5t-42 29.5t-13.5 57.5z" />
<glyph unicode="&#x2122;" horiz-adv-x="1482" d="M25 1503q0 49 70.5 58.5t230.5 9.5q43 0 88 -1t80.5 -7.5t58 -20.5t22.5 -39t-17 -38t-46 -19t-64.5 -7t-74.5 -1q4 -90 4 -176v-181v-101t-2 -106q-4 -55 -24.5 -68t-49.5 -13q-49 0 -62.5 65.5t-13.5 175.5v199.5t4 204.5q-57 0 -96 1t-63.5 7t-34.5 19.5t-10 37.5z M586 856q0 25 5 74t14 112.5t21.5 133t25 134t23.5 119t21 87.5q8 25 28.5 41t43.5 16q33 0 58.5 -30t49 -82t48 -121.5t55.5 -147.5q18 51 39.5 116.5t47.5 124t54.5 98.5t61.5 40q37 0 54 -14.5t24 -40.5q6 -29 17 -82.5t22.5 -119t22.5 -135t20.5 -133t15.5 -115.5t6 -79 q0 -20 -18.5 -34.5t-42.5 -14.5q-16 0 -42 11t-32 44q-8 39 -15.5 81t-15.5 92t-16 112.5t-19 140.5q-27 -72 -60.5 -151.5t-62.5 -147.5q-23 -31 -65 -31q-16 0 -33 8.5t-27 24.5q-45 96 -74.5 170t-49.5 139q-20 -111 -33 -221t-37 -217q-4 -33 -29.5 -44t-42.5 -11 q-29 0 -46 15.5t-17 37.5z" />
<glyph unicode="&#x25fc;" horiz-adv-x="1044" d="M0 0v1044h1044v-1044h-1044z" />
</font>
</defs>
</svg>
