<?xml version="1.0" standalone="no"?>
<!DOCTYPE svg PUBLIC "-//W3C//DTD SVG 1.1//EN" "http://www.w3.org/Graphics/SVG/1.1/DTD/svg11.dtd" >
<svg>
<metadata>
Created by FontForge 20090914 at Fri Apr 17 18:33:41 2015
 By www-data
Copyright (c) Typographer Mediengestaltung, 2001. All rights reserved.
</metadata>
<defs>
<font id="Canterbury-Regular" horiz-adv-x="500" >
  <font-face 
    font-family="Canterbury"
    font-weight="400"
    font-stretch="normal"
    units-per-em="1000"
    panose-1="2 0 5 4 2 0 0 2 0 4"
    ascent="800"
    descent="-200"
    x-height="493"
    cap-height="679"
    bbox="-119 -249 1415 917.006"
    underline-thickness="50"
    underline-position="-55"
    unicode-range="U+0005-U+E011"
  />
<missing-glyph 
 />
    <glyph glyph-name=".notdef" 
 />
    <glyph glyph-name="breve" 
d="M391 680l-46.001 -1c-13.333 -46 -45.333 -69 -96 -69c-51.333 0 -82.333 23.333 -93 70l-47 -1c3.33301 -38 17.833 -67.5 43.5 -88.5s57.834 -31.5 96.501 -31.5c86 0 133.333 40.333 142 121z" />
    <glyph glyph-name="dotaccent" 
d="M188 632l63 -63l62 63l-62 63z" />
    <glyph glyph-name="ring" 
d="M250 524v-1c18 0 38 14.667 60 44c22 28.667 33 53 33 73c0 50.667 -31 85.667 -93 105l-4 -2c-59.333 -30 -89 -68 -89 -114c0 -51.333 31 -86.333 93 -105zM280 566l0.00195312 -1c-8.66699 2 -14.334 4 -17.001 6c-46 18.667 -69 44.667 -69 78
c0 3.33301 0.666992 7.66602 2 12.999c4 16.667 11.333 30.334 22 41.001c19.333 0 38.666 -9.66699 57.999 -29s29 -39 29 -59s-8.33301 -36.333 -25 -49z" />
    <glyph glyph-name="hungarumlaut" unicode="&#xa;" 
d="M447 0c-38 -30 -57.001 -63.6689 -57.001 -101.002c2.66699 -22.667 13.667 -41 33 -55c16.667 -12.667 37.334 -19 62.001 -19c22 0 43 3.33301 63 10l-1 41c-14 -4.66699 -31 -7 -51 -7c-36 2.66699 -54 19.334 -54 50.001c0 26.667 17.333 53.334 52 80.001h2l1 1h-50
z" />
    <glyph glyph-name="ogonek" 
d="M314 684h-85l-68 -136h56zM459 684h-85l-68 -136h56z" />
    <glyph glyph-name="caron" 
d="M405 696l-22 11l-78 -79l-146 79l-63 -64l166 -96z" />
    <glyph glyph-name="dotlessi" unicode="&#xd;" horiz-adv-x="244" 
d="M237 69l-12.001 17l-30 -25l-28 25v309l34 31l-83 68l-83 -65l35 -30v-256c0 -36 -10.667 -57.667 -32 -65v-10c14.667 -8.66699 29.834 -19.667 45.501 -33s32.167 -29 49.5 -47z" />
    <glyph glyph-name="fraction" horiz-adv-x="113" 
d="M-119 10l31 -16l321 624l-31 16z" />
    <glyph glyph-name="fi" horiz-adv-x="472" 
d="M264 72l-13.999 13.002l-31 -25c-3.33301 3.33301 -7 6.66602 -11 9.99902s-8.33301 6.66602 -13 9.99902l-26 19v322h66v53h-66v123l84 -22l16 78l-97 23c-18 -15.333 -35.5 -29.5 -52.5 -42.5l-48.5 -35.5v-124h-39v-53h39v-271v-10
c-0.666992 -34 -11.334 -56.667 -32.001 -68v-12c42 -13.333 82 -37.333 120 -72zM464.001 69.002l-12.001 17l-30 -25l-28 25v309l34 31l-83 68l-83 -65l35 -30v-256c0 -36 -10.667 -57.667 -32 -65v-10c14.667 -8.66699 29.834 -19.667 45.501 -33s32.167 -29 49.5 -47z
M354 580.002l24 -2l83 113l-83 3z" />
    <glyph glyph-name="fl" horiz-adv-x="478" 
d="M497 65l-13.999 16.0029l-21 -16l-49 34v441c0 28 1.33301 47.333 4 58c5.33301 20.667 15 37 29 49c4.66699 3.33301 8.5 6.5 11.5 9.5l7.5 7.5l-5 15c-46.667 -12 -83.667 -33.333 -111 -64c-20 18.667 -46 35 -78 49l-3 -11l-96 23
c-18 -15.333 -35.5 -29.5 -52.5 -42.5l-48.5 -35.5v-124h-39v-53h39v-271v-10c-0.666992 -34 -11.334 -56.667 -32.001 -68v-12c42 -13.333 82 -37.333 120 -72l105 84l-14 13l-31 -25c-3.33301 3.33301 -7 6.66602 -11 9.99902s-8.33301 6.66602 -13 9.99902l-26 19v322h66
v53h-66v123l84 -22l15 72c20.667 -10.667 34 -26 40 -46c4.66699 -12 7 -33 7 -63v-393c0 -36.667 -11.333 -60.334 -34 -71.001v-16c46.667 -12 87 -35.333 121 -70z" />
    <glyph glyph-name="Lslash" horiz-adv-x="601" 
d="M291 192c-23.333 -38 -56 -71 -98 -99c9.33301 12.667 18.5 26 27.5 40s17.167 29 24.5 45zM47 172l15.001 -49.998l121 37c-4.66699 -40.667 -36.334 -82.667 -95.001 -126c-8 -6 -15.167 -11.167 -21.5 -15.5s-12.166 -7.83301 -17.499 -10.5l12 -19
c86.667 47.333 171.667 71 255 71c64.667 0 128.334 -23.667 191.001 -71l112 104l-17 18l-45 -42c-49.333 42 -104.666 63 -165.999 63c-7.33301 0 -14.833 -0.166992 -22.5 -0.5s-15.167 -0.833008 -22.5 -1.5c-33.333 -4 -63.333 -10.667 -90 -20
c23.333 19.333 44.166 37.666 62.499 54.999s33.833 34.333 46.5 51l141 43l-15 50l-86 -26c10.667 26 16 58 16 96c0 9.33301 -0.5 21.333 -1.5 36s-2.83301 31.667 -5.5 51c-4 38.667 -6 68 -6 88c0 56.667 35.333 89.334 106 98.001l-11 22
c-56.667 0 -101.334 -13.333 -134.001 -40c-34.667 -28.667 -52 -71 -52 -127c0 -18.667 2 -46.334 6 -83.001c2.66699 -18.667 4.5 -34.834 5.5 -48.501s1.5 -25.167 1.5 -34.5c0 -28.667 -3.66699 -57 -11 -85l-52 -16c6.66699 24 10 51.333 10 82
c0 11.333 -0.5 25 -1.5 41s-2.83301 34.667 -5.5 56s-4.5 40.166 -5.5 56.499s-1.5 29.833 -1.5 40.5c0 29.333 6.33301 54.333 19 75c10 17.333 27.333 36.333 52 57l8.5 7c2.33301 2 4.16602 3.66699 5.49902 5l-9 14c-36 -18 -66 -27 -90 -27c-16 0 -39 5 -69 15
c-29.333 10 -52 15 -68 15c-28 -1.33301 -52.333 -12.333 -73 -33s-31 -45 -31 -73c0 -9.33301 2.66699 -22.666 8 -39.999l18 6c0 1.33301 -0.333008 2.33301 -1 3v3c-1.33301 5.33301 -2 9.33301 -2 12c0 13.333 4.16699 24.833 12.5 34.5s18.833 14.5 31.5 14.5
s26.667 -3 42 -9c1.33301 0 2.33301 -0.333008 3 -1h3c20.667 -7.33301 36.667 -11 48 -11c16 0 44.333 4.66699 85 14l-9 -9c-46.667 -46.667 -70 -101.667 -70 -165c0 -4 0.333008 -10 1 -18s1 -14 1 -18c-6 2 -10.333 3 -13 3c-7.33301 2 -16 3 -26 3
c-28 -0.666992 -54.333 -16 -79 -46l12 -10c13.333 9.33301 27.666 14 42.999 14c47.333 0 72 -30 74 -90c-15.333 11.333 -31.666 17 -48.999 17c-18.667 0 -37 -10 -55 -30l10 -12c8.66699 4 17.667 6 27 6c21.333 0 38 -10.333 50 -31z" />
    <glyph glyph-name="lslash" horiz-adv-x="227" 
d="M-15 243l15 -49.999l64 20v-68c0 -36.667 -11.333 -60.334 -34 -71.001v-16c46.667 -12 87 -35.333 121 -70l95 77l-14 16l-21 -16l-49 34v144l78 24l-15 50l-63 -19v242c0 28 1.33301 47.333 4 58c5.33301 20.667 15 37 29 49c4.66699 3.33301 8.5 6.5 11.5 9.5l7.5 7.5
l-5 15c-46.667 -12 -83.667 -33.333 -111 -64c-20 18.667 -46 35 -78 49l-5 -16c20.667 -10.667 34.667 -26 42 -46c4.66699 -12 7 -33.333 7 -64v-270z" />
    <glyph glyph-name="Zcaron" horiz-adv-x="508" 
d="M508 115l-16.999 15.998l-49 -61c-48.667 24.667 -98.334 37 -149.001 37s-123 -18.667 -217 -56c44.667 42 83.5 82.333 116.5 121s60.833 76.334 83.5 113.001h155l15 34l-149 -1c7.33301 11.333 13.333 21.5 18 30.5l12 22.5h142l16 36l-142 -1
c52 102.667 102.667 189.334 152 260.001l-13 13c-55.333 -29.333 -117 -44 -185 -44c-52.667 0 -109.667 14.333 -171 43l-111 -130l18 -15l56 63c40.667 -18 82.667 -27 126 -27c54.667 0 126 18.667 214 56c-38 -38 -73 -75.167 -105 -111.5s-61.333 -71.833 -88 -106.5
h-144l-16 -36l138 -1l-16 -30c-4.66699 -8.66699 -8.66699 -15.667 -12 -21h-132l-16 -34l130 -1l-39 -73l-39 -73c-33.333 -56 -66.333 -100 -99 -132l13 -18c70.667 31.333 136.667 47 198 47c72 0 140.333 -15.667 205 -47zM428.001 857.998l-22 12l-78 -79l-146 79
l-63 -65l166 -95z" />
    <glyph glyph-name="zcaron" horiz-adv-x="277" 
d="M0 402l13.002 -16.001l49 35l90 -73l-139 -147l12 -12c25.333 13.333 46.666 20 63.999 20c22 0 39.333 -7.66699 52 -23s19 -34.333 19 -57c0 -31.333 -19.667 -65.666 -59 -102.999c-3.33301 -1.33301 -5.33301 -3.33301 -6 -6
c-35.333 -31.333 -53 -60.666 -53 -87.999c0 -19.333 7.5 -35.5 22.5 -48.5s32.167 -19.5 51.5 -19.5h5c2 0 3.33301 0.333008 4 1c16 2 24 9.33301 24 22c0 6 -4.66699 10 -14 12h-4c-4 0 -9.5 -1 -16.5 -3s-12.5 -3 -16.5 -3c-20 0 -31 12 -33 36v3
c1.33301 13.333 7 24.666 17 33.999c14.667 13.333 40 30.333 76 51s61.333 38.667 76 54c22 24 33 53.333 33 88c0 18.667 -3.5 35.667 -10.5 51s-16.833 28.333 -29.5 39s-27.334 19 -44.001 25s-34.334 9 -53.001 9c-2 -0.666992 -4.33301 -1 -7 -1
c-2.66699 -0.666992 -5 -0.666992 -7 0l127 134l-8 10c-1.33301 -0.666992 -3.33301 -1 -6 -1c-2 -1.33301 -4 -1.33301 -6 0l-1 -1c-9.33301 0 -24.666 7.66699 -45.999 23c-17.333 12 -35.333 27.333 -54 46zM283.002 701.999l-22 12l-78 -79l-146 79l-62 -65l165 -95z
" />
    <glyph glyph-name="space" unicode=" " horiz-adv-x="350" 
 />
    <glyph glyph-name="exclam" unicode="!" horiz-adv-x="286" 
d="M70 59l71 -71l71 71l-71 71zM60 539l-0.000976562 -1.00098c40.667 -103.333 64 -228.666 70 -375.999l25 -1c1.33301 72 7.83301 138.833 19.5 200.5s28.834 119.5 51.501 173.5l-85 85z" />
    <glyph glyph-name="quotedbl" unicode="&#x22;" horiz-adv-x="334" 
d="M92 399h26l22 268h-71zM233 399h26l22 268h-71z" />
    <glyph glyph-name="numbersign" unicode="#" horiz-adv-x="620" 
d="M402 225h122l7 51h-122l15 106h122l7 51h-122l24 174h-53l-24 -174h-111l24 174h-53l-24 -174h-118l-7 -51h118l-15 -106h-118l-7 -51h118l-27 -189h53l27 189h111l-27 -189h53zM371 382l-15 -106h-111l15 106h111z" />
    <glyph glyph-name="dollar" unicode="$" horiz-adv-x="492" 
d="M30 -11c31.333 26.667 72.667 39.998 124 39.998h12c3.33301 -0.666992 6 -1 8 -1h5l26 -4c8 -1.33301 16 -3.33301 24 -6c0 -4 0.333008 -7.66699 1 -11v-10c0.666992 -2.66699 1 -6.66699 1 -12v-11c0 -9.33301 -0.166992 -18.333 -0.5 -27
s-0.833008 -17.334 -1.5 -26.001l32 20l-4 68c10 -4 18.667 -7.66699 26 -11s13.666 -6.33301 18.999 -9l18 9c36 18.667 67.333 44 94 76c30 36.667 45 73.334 45 110.001c0 64.667 -46.667 119 -140 163l-35.5 15.5l-26.5 11.5v150
c6.66699 -1.33301 12.334 -2.66602 17.001 -3.99902s8.66699 -2.66602 12 -3.99902c16.667 -6.66699 37 -16.667 61 -30c2.66699 -2 5.33398 -3 8.00098 -3l51 85l-24 12c-6.66699 3.33301 -12.334 6.33301 -17.001 9c-58 22.667 -94 35.667 -108 39l4 91l-32 -18v-74
c-28 -6 -63.667 -25 -107 -57c-28 -28 -46 -49 -54 -63c-13.333 -23.333 -20 -50.666 -20 -81.999c0 -38 13 -66.333 39 -85c16 -12.667 35 -24.334 57 -35.001l30 -14c10 -4.66699 20 -9.66699 30 -15c1.33301 -0.666992 2.33301 -1 3 -1
c1.33301 0 2.66602 -0.333008 3.99902 -1c8.66699 -4.66699 14.667 -7 18 -7v-143c-3.33301 0 -6 0.333008 -8 1c-4 0.666992 -8 1 -12 1h-12c-77.333 0 -139.666 -37.667 -186.999 -113zM257.001 120.998l0.000976562 136.001c89.333 -27.333 134 -68.333 134 -123
c0 -18.667 -6 -38.334 -18 -59.001c-30.667 18 -69.334 33.333 -116.001 46zM229.002 530.999v-147l-18.5 7c-7 2.66699 -14.167 5.66699 -21.5 9c-50 22.667 -75 50 -75 82c0 14.667 5.66699 26 17 34c16 12 35.333 18 58 18h10c4 0 7.66699 -0.333008 11 -1z" />
    <glyph glyph-name="percent" unicode="%" horiz-adv-x="517" 
d="M379 -12c32.667 16 58.333 40.165 77 72.498s28 67.5 28 105.5c0 32.667 -10.833 62.334 -32.5 89.001s-48.5 45.334 -80.5 56.001c-70 -49.333 -105 -106.333 -105 -171c0 -71.333 37.667 -122 113 -152zM415.999 44.998v-1c-30 10 -54.667 26.667 -74 50s-29 50 -29 80
c0 27.333 7 53 21 77c68.667 -22.667 103 -68 103 -136c0 -28.667 -7 -52 -21 -70zM81.999 9.99805l31 -16l322 624l-31 16zM145.999 315.998l-0.000976562 -1.00195c32.667 17.333 58.334 42 77.001 74s28 67 28 105c0 32.667 -10.667 62.334 -32 89.001
s-48 45.334 -80 56.001c-70.667 -46.667 -106 -103.667 -106 -171c0 -72 37.667 -122.667 113 -152zM182.998 372.996v-1c-28.667 10 -52.667 26.667 -72 50c-20.667 24.667 -31 51.667 -31 81c0 3.33301 0.333008 6.66602 1 9.99902v10c5.33301 23.333 12.333 42 21 56
c68.667 -22.667 103 -68 103 -136c0 -27.333 -7.33301 -50.666 -22 -69.999z" />
    <glyph glyph-name="ampersand" unicode="&#x26;" horiz-adv-x="723" 
d="M162 -12l203.996 141.999c32.667 -54 56.667 -88 72 -102c28.667 -26.667 68 -40 118 -40c66 0 112 31.667 138 95l-16 8c-27.333 -23.333 -58 -34 -92 -32c-30.667 2 -56 14.333 -76 37c-11.333 12.667 -21.666 25.667 -30.999 39s-17.666 27.333 -24.999 42l-6 11
l84 58c25.333 -24.667 52.333 -37 81 -37c37.333 0 67.333 16.333 90 49l-9 11c-7.33301 -2 -16.333 -3 -27 -3c-25.333 2.66699 -52.333 17.667 -81 45l-149 -104l-96 170l20 12c41.333 24.667 71 46 89 64c29.333 30.667 44 63.334 44 98.001
c0 50.667 -29.667 93.667 -89 129l-179 -86c-11.333 -5.33301 -20.666 -10 -27.999 -14s-12.666 -7.33301 -15.999 -10c-16 -12 -24 -25.667 -24 -41c0 -18 9.33301 -43.333 28 -76l61 -108l-227 -148zM227.996 59.999l-117 171l146 95l99 -176zM329.996 398.999
l-60.002 105c-1.33301 1.33301 -2 2.66602 -2 3.99902c-10 14.667 -15 28.334 -15 41.001c0 22 15.667 39 47 51c10.667 4 20.334 6 29.001 6c25.333 0 45.833 -9.5 61.5 -28.5s24.167 -41.5 25.5 -67.5v-6c-2 -34.667 -26.333 -67.334 -73 -98.001
c-2.66699 -1.33301 -5.16699 -2.66602 -7.5 -3.99902s-4.16602 -2.33301 -5.49902 -3z" />
    <glyph glyph-name="quotesingle" unicode="'" horiz-adv-x="213" 
d="M92 399h26l22 268h-71z" />
    <glyph glyph-name="parenleft" unicode="(" horiz-adv-x="311" 
d="M225 -158l60.998 77c-19.333 16.667 -37.333 33.667 -54 51c-41.333 40 -71.666 96.333 -90.999 169c-13.333 50 -20 95 -20 135v16c0 128 42.333 242.333 127 343l27 30.5l32 35.5l-11 13c-79.333 -61.333 -142 -132.333 -188 -213c-50 -88 -75 -178.667 -75 -272
c0 -78.667 16.333 -151 49 -217c32.667 -67.333 80.334 -123.333 143.001 -168z" />
    <glyph glyph-name="parenright" unicode=")" horiz-adv-x="311" 
d="M94 713l-59.998 -78.001l54 -51c9.33301 -10 18 -20 26 -30s14.667 -20 20 -30c42.667 -74.667 64 -162 64 -262c0 -70 -11.667 -134 -35 -192c-20.667 -53.333 -55.334 -108.333 -104.001 -165l-26.5 -29.5l-19.5 -20.5l11 -13
c78.667 58.667 141.667 129.334 189 212.001c48.667 86.667 73 177.667 73 273c0 78.667 -16.333 151.5 -49 218.5s-80.334 122.833 -143.001 167.5z" />
    <glyph glyph-name="asterisk" unicode="*" horiz-adv-x="379" 
d="M190 680l-44.001 -33c14.667 -31.333 24.667 -64.333 30 -99c-28.667 9.33301 -60.334 27.333 -95.001 54l-41 -34l20 -49c3.33301 0 7.66602 0.666992 12.999 2l19 2c3.33301 0.666992 6.33301 1 9 1h10c11.333 0 21.5 -0.5 30.5 -1.5s17.167 -2.16699 24.5 -3.5
c-23.333 -29.333 -49.666 -51.333 -78.999 -66l17 -53l51 3c6.66699 35.333 18.334 67 35.001 95c14 -24.667 24 -56 30 -94l54 -4l17 48c-10 9.33301 -17.5 16 -22.5 20s-8.5 6.66699 -10.5 8c-9.33301 7.33301 -17.666 14.333 -24.999 21s-13.666 13.667 -18.999 21
c7.33301 1.33301 15.333 2.5 24 3.5s18 1.5 28 1.5h13c4 0 8.33301 -0.333008 13 -1l25 -2l22 51l-44 30l-20 -15.5l-20 -15.5c-14.667 -12 -31.334 -20 -50.001 -24c0.666992 28.667 9.66699 62.667 27 102z" />
    <glyph glyph-name="plus" unicode="+" 
d="M18 374v-53h204v-196h55v196h205v53h-205v195h-55v-195h-204z" />
    <glyph glyph-name="comma" unicode="," horiz-adv-x="233" 
d="M188 67l-72.002 70.0029l-70 -74c4.66699 -3.33301 9.66699 -7.83301 15 -13.5s10.333 -11.834 15 -18.501s8.33398 -13.334 11.001 -20.001s4 -12.334 4 -17.001c0 -17.333 -12.667 -37 -38 -59c-2.66699 -2 -4.5 -3.5 -5.5 -4.5l-1.5 -1.5l8 -21
c70.667 25.333 115.334 78.333 134.001 159z" />
    <glyph glyph-name="hyphen" unicode="-" horiz-adv-x="229" 
d="M46 293v-1c-12.667 -32 -24.667 -58.333 -36 -79l172 -1c8.66699 24.667 20.667 51.667 36 81h-172z" />
    <glyph glyph-name="period" unicode="." horiz-adv-x="233" 
d="M44 59l72 -71l72 71l-72 72z" />
    <glyph glyph-name="slash" unicode="/" horiz-adv-x="489" 
d="M0 -128l43 -23l439 852l-42 22z" />
    <glyph glyph-name="zero" unicode="0" horiz-adv-x="491" 
d="M245 -12c64.667 35.333 116.333 82.666 155 141.999c42 62.667 63 129.334 63 200.001c0 72.667 -19.167 135.334 -57.5 188.001s-91.833 93 -160.5 121c-145.333 -97.333 -218 -212 -218 -344c0 -70.667 20 -133.334 60 -188.001c37.333 -52 90 -91.667 158 -119z
M320.999 79l-0.000976562 -1.00195c-66 24.667 -118.667 59.667 -158 105c-42 50 -63 108.667 -63 176c0 4.66699 0.333008 8.66699 1 12v11c4.66699 58.667 26 113.334 64 164.001c68.667 -16.667 123.334 -52 164.001 -106c40 -53.333 60 -115.666 60 -186.999
c0 -68.667 -22.667 -126.667 -68 -174z" />
    <glyph glyph-name="one" unicode="1" horiz-adv-x="491" 
d="M104 547l15 -18l31 23c5.33301 -3.33301 9.33301 -6.66602 12 -9.99902c18 -15.333 27 -44 27 -86v-352l-34 -38l112 -78l119 98l-16 18l-45 -36c-24 12 -36 38 -36 78v340c0 30.667 -1.66699 53.667 -5 69c-6 21.333 -18 40.666 -36 57.999
c-16 12.667 -28 21.667 -36 27z" />
    <glyph glyph-name="two" unicode="2" horiz-adv-x="491" 
d="M38 490l67.001 -66l182 147c28.667 -28.667 43 -62.667 43 -102c0 -45.333 -14.667 -90.333 -44 -135c-18.667 -28 -51 -64 -97 -108l-8 -8l-61.5 -63c-15.667 -16.667 -27.167 -29.334 -34.5 -38.001c-33.333 -41.333 -54.333 -81.666 -63 -120.999l12 -8
c60 25.333 118 38 174 38c52.667 0 106 -12.667 160 -38l85 95c-70 23.333 -131.333 35 -184 35s-113 -13.333 -181 -40c9.33301 10.667 19.666 21.334 30.999 32.001s24.333 21.667 39 33l30.5 22c13 9.33301 29.167 20.333 48.5 33c68 45.333 114 81.666 138 108.999
c42 46 63 98.667 63 158v21v10c-0.666992 3.33301 -1 7 -1 11l-215 133z" />
    <glyph glyph-name="three" unicode="3" horiz-adv-x="491" 
d="M30 139l180.999 -150.997l51.5 15.5c15 4.33301 27.5 8.16602 37.5 11.499c106.667 38.667 160 93 160 163c0 42.667 -16 78.667 -48 108c-27.333 24.667 -63.333 42.667 -108 54c87.333 32 131 94.667 131 188v7v3c-0.666992 1.33301 -1 2.66602 -1 3.99902l-218 98
l-143 -107l59 -64l95 70l30 24c12.667 8.66699 24.334 13 35.001 13c16 0 25 -11 27 -33c0.666992 -0.666992 1 -2.33398 1 -5.00098v-6c0 -60 -15.333 -104 -46 -132c-28 -25.333 -73 -40.333 -135 -45v-33c8.66699 0.666992 17.167 1.16699 25.5 1.5s16.833 0.5 25.5 0.5
c50 0 88.667 -17 116 -51c25.333 -31.333 38 -72.333 38 -123v-12c-0.666992 -3.33301 -1 -6 -1 -8v-5c-5.33301 -41.333 -20.333 -67.333 -45 -78l-196 161z" />
    <glyph glyph-name="four" unicode="4" horiz-adv-x="491" 
d="M260 197v-92l-34 -46l107 -71l117 92l-13 16c-2 -1.33301 -3.83301 -2.66602 -5.5 -3.99902s-3.16699 -2.33301 -4.5 -3c-9.33301 -8 -18 -12 -26 -12c-6 0 -11.333 1.33301 -16 4c-13.333 4.66699 -22.666 10 -27.999 16v100h110l-17 86h-93v220
c0 40.667 -3.66699 69 -11 85c-8.66699 21.333 -30.334 38.666 -65.001 51.999l-256 -350l20 -93h215zM260 283h-214.001l188 257c16.667 -10 25.334 -30.333 26.001 -61v-7v-189z" />
    <glyph glyph-name="five" unicode="5" horiz-adv-x="491" 
d="M40 94l183.999 -106c72.667 23.333 126.334 52.333 161.001 87c44.667 42.667 67 97.667 67 165c0 48 -14.333 89.333 -43 124c-23.333 28 -59.333 55 -108 81l-190 -126l37 212h234l38 96h-278l-64 -358l131 86c106.667 -30.667 160 -92 160 -184
c0 -49.333 -18.667 -88 -56 -116l-205 117z" />
    <glyph glyph-name="six" unicode="6" horiz-adv-x="491" 
d="M433 551l-162 88.001c-158.667 -116.667 -238 -241.334 -238 -374.001c0 -68 19 -126 57 -174s90 -82.333 156 -103c64.667 40 112 75.667 142 107c46.667 48.667 70 101.667 70 159c0 72 -41.667 126.667 -125 164l-208 -126c0 94.667 24.667 183.667 74 267l165 -89z
M128 268.001l120.001 72c39.333 -19.333 68.666 -38.333 87.999 -57c28.667 -26.667 43 -58 43 -94c0 -45.333 -17.667 -85.666 -53 -120.999c-38 0 -79.333 22.333 -124 67c-44 45.333 -68.667 89.666 -74 132.999z" />
    <glyph glyph-name="seven" unicode="7" horiz-adv-x="491" 
d="M32 452l25.002 -1c18.667 36 42 59.333 70 70c20 8.66699 53.333 12.667 100 12l140 -1c-40.667 -46 -76.334 -89.667 -107.001 -131s-56.334 -81 -77.001 -119c-54.667 -99.333 -83 -197.333 -85 -294l133 46c4 222 79.333 410.667 226 566l2 27h-340z" />
    <glyph glyph-name="eight" unicode="8" horiz-adv-x="491" 
d="M262 -11c58 37.333 100.331 70.999 126.998 100.999c42.667 46.667 64 94.667 64 144c0 34 -10.667 64.167 -32 90.5s-48.333 45.166 -81 56.499c58.667 44.667 88 89 88 133c0 62 -42.667 101.667 -128 119c-11.333 2.66699 -22.5 4.5 -33.5 5.5s-21.167 1.5 -30.5 1.5
h-13c-2 -0.666992 -4.33301 -1 -7 -1h-12h-3c-1.33301 -0.666992 -2.66602 -1 -3.99902 -1l-24 -24c-5.33301 -6 -10.166 -11.167 -14.499 -15.5s-7.83301 -8.16602 -10.5 -11.499c-56.667 -62.667 -89 -115.667 -97 -159c-2 -7.33301 -3 -16.666 -3 -27.999
c0 -51.333 27.333 -86.333 82 -105c-61.333 -53.333 -92 -106 -92 -158c0 -48 23 -86 69 -114c39.333 -23.333 84.666 -35 135.999 -35h10c0.666992 0.666992 2.33398 1 5.00098 1h4zM157.998 288.999l-0.00195312 -1c30 0 65 -4 105 -12
c42 -8.66699 75.667 -18.667 101 -30c28.667 -14.667 43 -38 43 -70c0 -25.333 -9 -44.333 -27 -57c-26.667 -18.667 -58.667 -28 -96 -28c-9.33301 0 -18.666 0.5 -27.999 1.5s-18.666 2.16699 -27.999 3.5c-34.667 6 -62 17.333 -82 34c-26 20 -38.667 45 -38 75
c1.33301 25.333 18 53.333 50 84zM141.996 543.999v-1h28c62.667 0 109.5 -5.5 140.5 -16.5s46.5 -31.5 46.5 -61.5c0 -27.333 -17 -53 -51 -77l-84 9c-71.333 9.33301 -107 34.333 -107 75c0 22 9 46 27 72z" />
    <glyph glyph-name="nine" unicode="9" horiz-adv-x="491" 
d="M65 77l170 -89c147.333 108 221 229.333 221 364c0 133.333 -71 229 -213 287c-30.667 -18.667 -57.5 -36.5 -80.5 -53.5s-42.167 -33.833 -57.5 -50.5c-46 -47.333 -69 -98.333 -69 -153c0 -77.333 40.667 -136 122 -176l205 125c0 -4 0.333008 -9.83301 1 -17.5
s1 -13.5 1 -17.5c0 -77.333 -23.667 -151.333 -71 -222l-161 87zM358 359l-116 -71.999l-39 26l-39 26c-33.333 26 -50 61.667 -50 107c0 40.667 15.667 75.667 47 105c48 -8.66699 90.667 -31.334 128 -68.001c36.667 -34.667 59.667 -76 69 -124z" />
    <glyph glyph-name="colon" unicode=":" horiz-adv-x="233" 
d="M44 59l72 -71l72 71l-72 72zM44 355l72 -72l72 72l-72 72z" />
    <glyph glyph-name="semicolon" unicode=";" horiz-adv-x="233" 
d="M188 67l-71.002 70.0029l-71 -74c4.66699 -3.33301 9.66699 -7.83301 15 -13.5s10.333 -11.834 15 -18.501s8.33398 -13.334 11.001 -20.001s4 -12.334 4 -17.001c0 -17.333 -12.667 -37 -38 -59c-2.66699 -2 -4.5 -3.5 -5.5 -4.5l-1.5 -1.5l8 -21
c70.667 25.333 115.334 78.333 134.001 159zM45.998 355.003l71 -72l72 72l-72 72z" />
    <glyph glyph-name="less" unicode="&#x3c;" 
d="M466 595l-433 -213v-91l433 -214v106l-319 153l319 153v106z" />
    <glyph glyph-name="equal" unicode="=" 
d="M18 301v-52h464v52h-464zM18 446v-52h464v52h-464z" />
    <glyph glyph-name="greater" unicode="&#x3e;" 
d="M34 77l433 214v90l-433 214l1 -105l318 -154l-319 -153v-106z" />
    <glyph glyph-name="question" unicode="?" horiz-adv-x="319" 
d="M61 58l70 -70l71 70l-71 71zM33 499l11.001 -9c24.667 22.667 46.667 34 66 34c20 0 37.667 -7.16699 53 -21.5s23 -31.5 23 -51.5c0 -18.667 -3.33301 -38 -10 -58l-18 -51.5l-18 -51.5c-11.333 -39.333 -17 -76 -17 -110v-8c0 -1.33301 0.333008 -2.66602 1 -3.99902
v-3l19 -1c5.33301 70 29 130 71 180l50 61c15.333 23.333 23 48.666 23 75.999c0 42 -15.333 75 -46 99c-26.667 20.667 -62.334 33 -107.001 37c-17.333 0.666992 -27.333 1.66699 -30 3z" />
    <glyph glyph-name="at" unicode="@" horiz-adv-x="684" 
d="M658 378v-0.99707c0 82 -29.667 149.667 -89 203c-57.333 52 -127.333 78 -210 78c-90 0 -168.333 -32 -235 -96s-100 -140.667 -100 -230c0 -93.333 31.333 -173.333 94 -240s139.667 -100 231 -100c112.667 0 201.667 42.667 267 128
c14.667 18.667 24.334 35 29.001 49l-43 -3c-2.66699 -4.66699 -6.16699 -10 -10.5 -16s-9.5 -12.667 -15.5 -20c-56 -67.333 -130.667 -101 -224 -101c-76 0 -139.667 24.333 -191 73c-51.333 49.333 -82.333 111.666 -93 186.999c-2 14.667 -3 29.667 -3 45
c0 76.667 29 143.667 87 201c59.333 57.333 127.333 86 204 86c75.333 0 138.333 -22.667 189 -68c50 -45.333 75 -105.666 75 -180.999c0 -30.667 -8 -59.334 -24 -86.001c-26 -43.333 -55.667 -76.333 -89 -99c-14 -9.33301 -24.333 -14.333 -31 -15
c-12.667 0.666992 -19 12 -19 34v2v7c0 2.66699 0.333008 4.66699 1 6v146c0 29.333 1.33301 49.666 4 60.999c2.66699 17.333 11 36.666 25 57.999l-11 6c-12 -12 -24 -18 -36 -18c-28 0 -60.667 10.333 -98 31l-6 3l-4 2c-10 -10 -21 -17.333 -33 -22
c-20 -8 -41.333 -12 -64 -12h-8c-2 0 -5 0.666992 -9 2l69 -124c-50.667 -56.667 -75.667 -106.334 -75 -149.001c1.33301 -36 21.666 -69.333 60.999 -100l106 85c5.33301 -37.333 21 -66 47 -86c17.333 6.66699 34 14 50 22s31.667 17.333 47 28
c90 60.667 135 135.334 135 224.001zM379 307.003v-95.999l-51 -43c-33.333 30 -50 59 -50 87c0 29.333 6 58.666 18 87.999zM379 419.004v-96l-76 33l-59 107z" />
    <glyph glyph-name="A" unicode="A" horiz-adv-x="629" 
d="M632 79l-16 17.0039c-0.666992 -0.666992 -2 -1.83398 -4 -3.50098s-3.33301 -2.83398 -4 -3.50098c-12 -10 -21.667 -15 -29 -15c-8.66699 0 -15 4.66699 -19 14c-6.66699 14 -10 35.333 -10 64v4v4l-16 338c-0.666992 7.33301 -1 12.666 -1 15.999s0 4.66602 0 3.99902
v17c0 24 3 44 9 60c6.66699 18.667 24 37.334 52 56.001l16 11l-11 16c-19.333 -8.66699 -37.666 -19.334 -54.999 -32.001s-33.666 -27.334 -48.999 -44.001l-14 10.5c-4 3 -7.66699 5.5 -11 7.5c-64.667 41.333 -129.334 62 -194.001 62h-4h-5
c-62.667 -2.66699 -118.334 -27 -167.001 -73s-73 -99.667 -73 -161c0 -85.333 42.333 -154.333 127 -207l-72 -106c-5.33301 -8.66699 -11 -17 -17 -25s-11.667 -16.333 -17 -25c-12 -20 -18 -39 -18 -57c0 -2 0.333008 -3.66699 1 -5v-5
c4.66699 -20.667 15.667 -31 33 -31c16 0 24.667 6.66699 26 20c0 3.33301 -1 7.5 -3 12.5s-4.33301 10 -7 15l-7.5 14.5c-2.33301 4.66699 -3.5 8 -3.5 10c0 5.33301 2.33301 10.333 7 15s9.66699 7 15 7c12 0 26 -3 42 -9c47.333 -19.333 98.333 -48.666 153 -87.999
l168 131c0.666992 -14 1.66699 -26.5 3 -37.5s3 -20.833 5 -29.5c5.33301 -24 24.333 -45.333 57 -64zM449 221.004l4 -78l-97 -75l-229 97l39 56h283zM304 458.004l-136 -195.999c-68.667 48.667 -103 107 -103 175c0 43.333 17 79.666 51 108.999
c42.667 35.333 88.334 53 137.001 53s91.667 -10 129 -30l-28 -42c-30.667 7.33301 -58.334 11 -83.001 11c-48.667 0 -85.334 -31 -110.001 -93l18 -9c20.667 26.667 43.334 40 68.001 40c16 0 35 -6 57 -18zM434 530.005l11 -237.999h-230l186 264
c13.333 -8.66699 24.333 -17.334 33 -26.001z" />
    <glyph glyph-name="B" unicode="B" horiz-adv-x="743" 
d="M560 680l0.00390625 -0.99707c-47.333 -11.333 -97.333 -31.333 -150 -60c-42 -23.333 -70 -50.333 -84 -81c-10.667 -24 -16 -63.333 -16 -118v-146c0 -26 -2.16699 -48.667 -6.5 -68s-11.5 -36.333 -21.5 -51s-23.167 -27.667 -39.5 -39s-36.5 -21.333 -60.5 -30
c30 30 49.333 55.667 58 77c9.33301 24 14 56.667 14 98v174c0 54 11 96.667 33 128c19.333 28 55 54.667 107 80c14.667 6.66699 22.667 10.667 24 12l-16 22c-37.333 -18 -73 -27 -107 -27c-8 0 -18.667 1 -32 3s-29.333 5.33301 -48 10c-35.333 8 -62.333 12 -81 12
c-38 0 -68 -13.333 -90 -40c-19.333 -23.333 -31.666 -55 -36.999 -95l23 -1c4.66699 40 23 60 55 60c3.33301 0 6.66602 -0.166992 9.99902 -0.5s6.66602 -0.833008 9.99902 -1.5l20 -4c5.33301 -1.33301 8.66602 -2 9.99902 -2c18.667 -6 35.667 -9 51 -9
c26 0 57 5.66699 93 17c-42.667 -26.667 -73 -54 -91 -82c-20 -31.333 -31 -70.666 -33 -117.999c-28.667 4.66699 -47 6.66699 -55 6c-48.667 -2.66699 -78.334 -35.334 -89.001 -98.001v-1v-1l19 -5c12 27.333 31.667 41 59 41c48.667 0 73 -31.333 73 -94
c-69.333 -6 -105.333 -40 -108 -102l18 -1c9.33301 29.333 25.333 44 48 44c12 0 22.333 -4.16699 31 -12.5s13 -18.5 13 -30.5c0 -29.333 -21.667 -63 -65 -101c-22 -19.333 -37 -34 -45 -44c-14 -18 -21 -37 -21 -57v-7c2.66699 -24 14 -36 34 -36c18 0 27 9.66699 27 29
c0 5.33301 -2.83301 12.666 -8.5 21.999s-8.5 17 -8.5 23c0 25.333 21.667 44.666 65 57.999c28.667 8.66699 60.667 13 96 13c59.333 0 120.333 -19.333 183 -58c69.333 60 159.666 98.667 270.999 116v199c0 21.333 6 35.666 18 42.999v14l-121 58l107 79z
M469.004 94.0029l0.000976562 79c23.333 7.33301 43.666 11 60.999 11c18 0 39 -3.33301 63 -10v-69c-18 -5.33301 -34.667 -11.333 -50 -18h-1c-2 -2 -12.667 -6.33301 -32 -13l-20 10c-3.33301 1.33301 -6.83301 3 -10.5 5s-7.16699 3.66699 -10.5 5zM447.005 474.003
l0.00195312 -374c-31.333 10 -61.333 15 -90 15c-24.667 0 -55.334 -4 -92.001 -12l28.5 15.5c9 5 17.167 10.167 24.5 15.5c36 24 60.333 50.333 73 79c12 26.667 18 62.334 18 107.001v182c0 35.333 5 61.666 15 78.999c11.333 20 32.666 35.667 63.999 47l123 -168
l-142 -106v120h-22zM469.007 198.003v69c24 -6.66699 44.333 -10 61 -10c18 0 39 3.66699 63 11v-71c-19.333 6 -40.333 9 -63 9c-7.33301 0 -16 -0.666992 -26 -2s-21.667 -3.33301 -35 -6zM469.007 290.003v38l36 27l88 -44v-20c-18 -8.66699 -38.667 -13 -62 -13
c-21.333 0 -42 4 -62 12z" />
    <glyph glyph-name="C" unicode="C" horiz-adv-x="617" 
d="M606 181l0.000976562 -1.00098c-74 -61.333 -155 -91.333 -243 -90v500c52 -25.333 101 -41.666 147 -48.999l91 85c-72.667 0 -143.334 18 -212.001 54l-195 -166v-213c0 -28 -1.33301 -47 -4 -57c-4.66699 -18.667 -15.667 -34 -33 -46
c-36 52.667 -54 111.334 -54 176.001c0 50 13.333 95.333 40 136c21.333 32.667 54 68 98 106l-9 10c-32.667 -16.667 -61.5 -35.834 -86.5 -57.501s-46.833 -46.167 -65.5 -73.5c-38 -57.333 -57 -120.666 -57 -189.999c0 -84.667 29 -158.334 87 -221.001
c58 -62 129 -93 213 -93c120.667 0 218.667 59 294 177zM341.001 601.999l-0.000976562 -512c-67.333 7.33301 -124.333 37 -171 89c9.33301 7.33301 17.833 14.5 25.5 21.5s14.834 13.167 21.501 18.5c32 26 53 52.667 63 80c8 22 12 57 12 105v154z" />
    <glyph glyph-name="D" unicode="D" horiz-adv-x="737" 
d="M690 89l0.000976562 -1.00488c0 42.667 -0.333008 79.834 -1 111.501s-1.66699 58.167 -3 79.5c-6 95.333 -19.333 167 -40 215c-23.333 54.667 -58 91.667 -104 111c-36 15.333 -87.333 23 -154 23c-15.333 0 -34 -0.333008 -56 -1s-48 -1.66699 -78 -3
c-59.333 -2 -103.666 -3 -132.999 -3c-47.333 0 -77.333 15.333 -90 46l-13 -1c0 -59.333 17 -98.333 51 -117c24.667 -13.333 68.667 -20 132 -20c5.33301 0 12.833 0.333008 22.5 1s16.5 1 20.5 1c4.66699 0.666992 10.334 1 17.001 1h25
c-6 -3.33301 -11.667 -6.66602 -17 -9.99902s-10.333 -6.66602 -15 -9.99902c-46 -31.333 -73.667 -63.666 -83 -96.999c-12 -43.333 -18 -86.333 -18 -129c-14 6.66699 -29 10 -45 10c-41.333 0 -75 -24 -101 -72l14 -11c16 16 32 24 48 24
c18.667 0 34.5 -7.33301 47.5 -22s20.5 -31.667 22.5 -51v-8c0 -28 -9 -52.333 -27 -73c-28 -32 -58.333 -57.333 -91 -76l13 -17c23.333 14.667 45.666 29.667 66.999 45s41.666 31.333 60.999 48c12.667 10.667 23.5 20.667 32.5 30s16.167 17.666 21.5 24.999
c22 30.667 33 78.334 33 143.001v112c0 80 30.333 127.333 91 142c-21.333 -37.333 -32 -87 -32 -149v-129c0 -47.333 -10.667 -86.666 -32 -117.999c-18.667 -28 -49.334 -55.333 -92.001 -82l-15 -8.5c-4 -2.33301 -6.66699 -3.83301 -8 -4.5l-99 -59l-15 -9l13 -19
c79.333 43.333 164 65 254 65c73.333 0 150 -11.333 230 -34zM406.001 110.995l0.00195312 79c25.333 16.667 50.666 27 75.999 31c2 0.666992 4.33301 1 7 1h6c31.333 0 62.666 -11.333 93.999 -34c2 -28 3 -65.333 3 -112c-50.667 15.333 -112.667 27 -186 35z
M384.003 537.995l-0.00195312 -428c-44.667 -0.666992 -83.667 -5.33398 -117 -14.001c43.333 36 65 94.333 65 175v114c0 68.667 12.333 119.334 37 152.001h2c0.666992 0 1.33398 0.333008 2.00098 1h8c0 -0.666992 0.333008 -1 1 -1s1.33398 0.333008 2.00098 1z
M406.001 214.995v119c28.667 -18.667 57 -28 85 -28c25.333 0 55.333 9.33301 90 28c2 -19.333 3.66699 -38.833 5 -58.5s2.33301 -39.5 3 -59.5c-30.667 18.667 -62.334 28 -95.001 28c-23.333 0 -52.666 -9.66699 -87.999 -29zM406.001 361.995l-0.000976562 175
c60.667 -4.66699 103.334 -20 128.001 -46c24.667 -24.667 39.667 -68 45 -130c-29.333 -20 -58 -30 -86 -30c-29.333 0 -58.333 10.333 -87 31z" />
    <glyph glyph-name="E" unicode="E" horiz-adv-x="634" 
d="M365 388l162.002 -5.00195l53 92l-115 3l141 142l-6 14c-1.33301 0 -2.33301 -0.333008 -3 -1h-4h-7c-31.333 0 -61.333 4 -90 12c-42 11.333 -76.333 25.333 -103 42l-196 -156v-232c0 -7.33301 -0.166992 -14 -0.5 -20s-0.833008 -11.333 -1.5 -16
c-3.33301 -18 -15 -36 -35 -54c-36.667 54.667 -55 117.334 -55 188.001c0 86 47.667 162.667 143 230l-9 15c-70.667 -38 -122.667 -80.333 -156 -127c-39.333 -53.333 -59 -116.666 -59 -189.999c0 -91.333 30.333 -168.666 91 -231.999
c61.333 -63.333 136.666 -95 225.999 -95c57.333 0 111.666 16 162.999 48c46.667 30.667 85.667 72.667 117 126l-7 8c-80 -58.667 -163 -87.334 -249 -86.001v294zM344.002 611.998v-517.001c-70.667 10.667 -127.667 43.334 -171 98.001c52.667 44.667 80 68 82 70
c24.667 27.333 37 61.333 37 102v204zM365.002 406.997l0.000976562 193c43.333 -25.333 90.666 -42 141.999 -50z" />
    <glyph glyph-name="F" unicode="F" horiz-adv-x="623" 
d="M576 475l-127 0.00292969v103c34.667 -15.333 62.667 -23 84 -23c34 0 61.667 12 83 36c19.333 21.333 30.666 50 33.999 86l-15 2c-20.667 -32.667 -44.667 -49 -72 -49c-28 0 -61.333 14 -100 42c-2 1.33301 -3.83301 2.66602 -5.5 3.99902s-3.16699 2.33301 -4.5 3
c-39.333 -64.667 -109 -105.334 -209 -122.001c-13.333 -2.66699 -25.333 -4 -36 -4v-79c-50.667 -0.666992 -88 -7.66699 -112 -21c-27.333 -15.333 -51 -45 -71 -89c-0.666992 -1.33301 -1 -2.33301 -1 -3s-0.333008 -1.66699 -1 -3l-3 -5l13 -12
c22.667 26 49.334 43.333 80.001 52c22.667 6.66699 54.334 10.667 95.001 12v-357v-12c-0.666992 -13.333 -1.5 -24 -2.5 -32s-2.33301 -14.5 -4 -19.5s-4 -9.16699 -7 -12.5s-6.83301 -6.33301 -11.5 -9c-11.333 5.33301 -22.333 11 -33 17s-21.334 11.667 -32.001 17
c-24 10.667 -48.333 16 -73 16c-22 0 -40 -8.33301 -54 -25s-25 -39.334 -33 -68.001l-4 -14l20 -6c8 16 13 25 15 27c7.33301 9.33301 16 14 26 14c15.333 0 33 -5 53 -15l25 -13l25 -13l147 65c74 32 123.667 61.667 149 89c23.333 25.333 35 64 35 116v235h99z
M358 559.003v-394c0 -78.667 -44.667 -142.667 -134 -192c6.66699 7.33301 12.5 14.333 17.5 21l14.5 19c29.333 41.333 44 102.333 44 183v342c22 6 41.333 13 58 21z" />
    <glyph glyph-name="G" unicode="G" horiz-adv-x="692" 
d="M631 607l-6.99902 11.002c-18 -4 -35 -5.66699 -51 -5c-56 2.66699 -123 24.667 -201 66l-76 -61l-76 -60c-30 -24 -56.167 -47.5 -78.5 -70.5s-41.833 -45.5 -58.5 -67.5c-39.333 -52.667 -59 -113.667 -59 -183c0 -70.667 26 -129.334 78 -176.001
c51.333 -46.667 112.666 -70 183.999 -70c93.333 0 178.666 27.667 255.999 83c84.667 60.667 127 136.667 127 228c0 53.333 -18.667 96.666 -56 129.999c-33.333 30.667 -77.666 49 -132.999 55zM359.001 377.002l-0.000976562 -344c-70 4 -127.667 32.667 -173 86
l42 32.5l30 22.5l13 11.5c3.33301 3 6.33301 5.83301 9 8.5c14 14 21 39 21 75v74l33.5 20.5c9.66699 5.66699 17.834 10.167 24.501 13.5zM381 34.002v95.999c30.667 20 62.667 30 96 30c23.333 0 50 -7.33301 80 -22c-15.333 -31.333 -40 -56.666 -74 -75.999
c-32 -18 -66 -27.333 -102 -28zM203 510.001v-259c0 -51.333 -10.667 -89.333 -32 -114c-36 54.667 -54 110.667 -54 168c0 76 28.667 144.333 86 205zM381 159.001l0.00195312 92c38.667 -20 74.334 -30 107.001 -30c34 0 68 10 102 30
c-0.666992 -15.333 -2.83398 -30.833 -6.50098 -46.5s-8.83398 -31.167 -15.501 -46.5c-32.667 16.667 -63.334 25 -92.001 25c-31.333 0 -63 -8 -95 -24zM381.002 278.001l-0.00195312 106c24 8.66699 46.667 13 68 13c34.667 0 64.834 -11.333 90.501 -34
s41.834 -51.334 48.501 -86.001c-32.667 -24 -69 -35.333 -109 -34c-34 0.666992 -66.667 12.334 -98 35.001zM301 377.001v221.001c50 -22.667 115.667 -44.334 197 -65.001z" />
    <glyph glyph-name="H" unicode="H" horiz-adv-x="743" 
d="M531 126l-18.0029 12.9951c-22 -30.667 -44.667 -46 -68 -46c-9.33301 0 -21 0.333008 -35 1s-30.667 1.66699 -50 3l-49 3.5c-14 1 -25.667 1.5 -35 1.5c78.667 78.667 155.667 118 231 118c29.333 0 62.666 -7 99.999 -21c0 -32 -10 -64.333 -30 -97
c-5.33301 -9.33301 -13.333 -20.833 -24 -34.5l-39 -48.5c-30 -36 -45 -67.333 -45 -94c0 -14.667 5.33301 -27.5 16 -38.5s23.334 -16.5 38.001 -16.5h4c2 0 3.66699 0.333008 5 1c22 2.66699 33 13.334 33 32.001c0 17.333 -8.66699 26 -26 26
c-0.666992 -0.666992 -1.33398 -1 -2.00098 -1h-3c-7.33301 -4 -14.666 -6 -21.999 -6c-9.33301 1.33301 -14 7 -14 17c0 4.66699 2.33301 10.334 7 17.001s10.334 13.334 17.001 20.001c10.667 8.66699 17.334 14.334 20.001 17.001c60 48 95.333 78 106 90
c24.667 25.333 40.334 55.333 47.001 90c5.33301 24.667 8 59 8 103c0 56 -4.66699 99.667 -14 131c-12.667 39.333 -37.667 74.666 -75 105.999l-25 19.5l-18 13.5l-166 -139v127c0 4.66699 0.333008 8.66699 1 12c2 21.333 6.33301 36.333 13 45
c12.667 15.333 29.667 29 51 41c4 2 11 5.16699 21 9.5l40 17.5l-7 20c-46 -12 -91 -30.667 -135 -56c-34.667 -20.667 -57 -46.667 -67 -78c-6.66699 -19.333 -10 -54.333 -10 -105v-178c0 -39.333 -6.83301 -71.5 -20.5 -96.5s-37.167 -48.5 -70.5 -70.5
c-3.33301 -2.66699 -6.5 -4.83398 -9.5 -6.50098s-5.5 -3.16699 -7.5 -4.5l21 43l15 30c8 20.667 12 51.667 12 93v237c0 38 7.66699 68.667 23 92c14 20 38.667 39.667 74 59c20.667 10.667 33.334 17.667 38.001 21l-8 20c-44.667 -21.333 -82.667 -32 -114 -32
c-16 0 -38.333 4 -67 12c-30 8 -52.333 11.667 -67 11c-33.333 -1.33301 -61.333 -14.666 -84 -39.999c-20 -22 -33.667 -50.667 -41 -86l18 -6c12 40 35 60 69 60c5.33301 0 11.833 -0.666992 19.5 -2s16.834 -3.33301 27.501 -6c22.667 -5.33301 39 -8 49 -8
c18 0 37.667 3 59 9c-34 -24.667 -58.333 -54 -73 -88c-12.667 -30 -19.334 -68 -20.001 -114c-36 0 -64.667 -5.66699 -86 -17c-23.333 -13.333 -40.333 -36 -51 -68l15 -7c16.667 24 38.667 36 66 36c23.333 0 41.666 -11 54.999 -33
c10.667 -17.333 16 -39.666 16 -66.999c-52.667 -1.33301 -82.334 -31.333 -89.001 -90l15 -4c12 24.667 25.667 37 41 37c22 0 33 -13.333 33 -40c0 -30 -20.667 -64 -62 -102l-27 -25.5c-7.33301 -7 -12.666 -12.833 -15.999 -17.5c-13.333 -17.333 -20 -36 -20 -56v-7
c2.66699 -24 13.667 -36 33 -36c16 0 24 9.66699 24 29c-1.33301 5.33301 -2.33301 9 -3 11l-5 9c-0.666992 0.666992 -1 1.33398 -1 2.00098l-1 1c-4.66699 7.33301 -7 15 -7 23c1.33301 18 10.333 31.333 27 40c35.333 19.333 77.333 29 126 29c58 0 122.667 -16 194 -48z
M404.997 220.995l-0.000976562 109c36 -13.333 69.667 -20 101 -20c38.667 0 72.334 6.66699 101.001 20v-6c0 -2 0.333008 -4.66699 1 -8v-13v-55v-14c-0.666992 -3.33301 -1 -6.33301 -1 -9v-5c-37.333 12.667 -70.333 19 -99 19c-24.667 0 -56 -5.66699 -94 -17
c-2 0 -3.33301 -0.333008 -4 -1h-5zM404.996 354.995v25l115 94c54.667 -35.333 84.667 -74.333 90 -117c-28.667 -16.667 -62.667 -25 -102 -25c-36.667 0 -71 7.66699 -103 23z" />
    <glyph glyph-name="I" unicode="I" horiz-adv-x="518" 
d="M-1 -9l0.999023 0.00292969c18.667 34 42.667 51 72 51c25.333 0 62 -9 110 -27c48.667 -18 86.334 -27 113.001 -27c50.667 0 91.667 19 123 57c25.333 32.667 40.666 76.667 45.999 132c0.666992 7.33301 1.16699 13.833 1.5 19.5s0.5 10.167 0.5 13.5
c0 20.667 -1.5 45.167 -4.5 73.5s-7.16699 61.166 -12.5 98.499c-12 78.667 -18 135.667 -18 171c0 53.333 25.333 86.333 76 99l15 4l-10 16c-106.667 -16 -160 -87.333 -160 -214c0 -19.333 1.5 -43.333 4.5 -72s7.16699 -62.334 12.5 -101.001s9.5 -72.5 12.5 -101.5
s4.5 -53.167 4.5 -72.5c0 -26 -6.66699 -47.667 -20 -65s-32.666 -26 -57.999 -26c-19.333 0 -45.666 14.667 -78.999 44c-9.33301 8.66699 -17.333 15.667 -24 21s-12.334 9.33301 -17.001 12c39.333 4 68.666 13 87.999 27c22.667 16.667 34 44 34 82
c0 15.333 -1 34 -3 56s-4.66699 48 -8 78s-6 56.167 -8 78.5s-3 41.166 -3 56.499c0 76 29.333 139.333 88 190l-9 10c-24 -11.333 -48 -17 -72 -17c-16.667 0 -39.667 3.33301 -69 10c-31.333 7.33301 -54.666 11 -69.999 11c-30.667 0 -56.834 -10.5 -78.501 -31.5
s-34.167 -47.5 -37.5 -79.5l11 -3c16 34 39.667 51 71 51c3.33301 0 7 -0.166992 11 -0.5s7.66699 -0.833008 11 -1.5c17.333 -3.33301 31.5 -5.83301 42.5 -7.5s18.167 -2.5 21.5 -2.5c16.667 0 44.334 6.66699 83.001 20c4 1.33301 6.33301 2.33301 7 3
c-62 -60 -94.667 -134.667 -98 -224c-6 1.33301 -10.333 2.16602 -13 2.49902s-5.33398 0.833008 -8.00098 1.5h-8c-45.333 0 -82.333 -26.333 -111 -79l9 -7c21.333 19.333 44 29 68 29c26 0 45.667 -9.66699 59 -29c22 -33.333 33 -71.666 33 -114.999
c0 -40.667 -8.66699 -65.667 -26 -75c-19.333 -10 -47.666 -16.667 -84.999 -20c-65.333 -6 -109 -44.667 -131 -116z" />
    <glyph glyph-name="J" unicode="J" horiz-adv-x="553" 
d="M2 -123c20 24 38.3359 36.0049 55.0029 36.0049c13.333 0 33.666 -4 60.999 -12c26 -8.66699 47 -13 63 -13c79.333 0 153.666 39 222.999 117c58 64.667 87 151 87 259c0 11.333 -0.333008 25.166 -1 41.499s-1.66699 35.5 -3 57.5c-2 44.667 -3 78 -3 100
c0 40.667 9 76.667 27 108l43.5 60c12.333 16.667 23.166 30.334 32.499 41.001l-14 16c-39.333 -32.667 -83.666 -49 -132.999 -49c-29.333 0 -73 6 -131 18c-28.667 6.66699 -53.834 11.5 -75.501 14.5s-40.167 4.5 -55.5 4.5c-40 0 -76.333 -13.333 -109 -40
c-33.333 -27.333 -50 -60 -50 -98v-6c0 -3.33301 0.333008 -5.33301 1 -6c6.66699 -40.667 25.667 -61 57 -61c13.333 0 24.666 4.5 33.999 13.5s14 20.167 14 33.5c0 12 -3.83301 21.833 -11.5 29.5s-17.5 11.5 -29.5 11.5
c-3.33301 -0.666992 -7.66602 -2.66699 -12.999 -6l-6.5 -3c-4.33301 -2 -7.83301 -3 -10.5 -3c-5.33301 1.33301 -8 5.66602 -8 12.999c2 15.333 11.667 27.666 29 36.999c16 7.33301 32.333 11 49 11c20.667 0 45.667 -4 75 -12c6.66699 -2 11.334 -3 14.001 -3
c38 -10.667 68.333 -16 91 -16c24 0 55.667 5 95 15c-48 -28.667 -82.667 -58 -104 -88c-26.667 -36.667 -40.334 -79.667 -41.001 -129c-25.333 17.333 -49 26 -71 26c-37.333 0 -70.333 -14.333 -99 -43l9 -16c5.33301 3.33301 11 6.16602 17 8.49902
s12.667 4.16602 20 5.49902c2 0 4 0.333008 6 1h7c29.333 0 52.333 -10.333 69 -31c10.667 -13.333 18.334 -27 23.001 -41c2.66699 -6.66699 6.66699 -21.334 12 -44.001c-4 2.66699 -8 4.66699 -12 6c-23.333 12 -44.333 18 -63 18c-31.333 0 -60.666 -10.667 -87.999 -32
l9 -15l10 2c6.66699 1.33301 12.667 2.33301 18 3s9.66602 1 12.999 1c36 0 68.667 -14.667 98 -44c25.333 -26 42.666 -58.333 51.999 -97l3.5 -19.5c1 -5.66699 1.16699 -10.834 0.5 -15.501c-1.33301 -19.333 -9.5 -35.666 -24.5 -48.999s-32.5 -20 -52.5 -20
c-9.33301 0 -18.333 1 -27 3c-45.333 10 -72.333 15 -81 15c-56.667 0 -95 -35.667 -115 -107zM247.003 -62.9951c38 23.333 62.332 50.668 72.999 82.001c8.66699 22 13 59.333 13 112c0 9.33301 -0.166992 21.166 -0.5 35.499s-0.833008 30.833 -1.5 49.5
c-0.666992 19.333 -1 36 -1 50v36c0 79.333 12.333 143.333 37 192c26.667 54.667 73.667 98.667 141 132c-47.333 -47.333 -79.666 -96 -96.999 -146c-14 -41.333 -21 -100.333 -21 -177v-32c0 -12 0.333008 -26.667 1 -44c0.666992 -16.667 1.16699 -31.167 1.5 -43.5
s0.5 -22.833 0.5 -31.5c0 -123.333 -48.667 -195 -146 -215z" />
    <glyph glyph-name="K" unicode="K" horiz-adv-x="705" 
d="M714 86l-13.999 16.0059l-8 -9c-10 -11.333 -19.667 -17 -29 -17c-12 8 -20.333 15.833 -25 23.5s-8 13.5 -10 17.5c-56.667 101.333 -113.667 169.666 -171 204.999l178 122l-103 127l-171 -137c6.66699 84.667 32.667 162 78 232l-17 13
c-56.667 -71.333 -85 -183.333 -85 -336v-14c0 -6.66699 0.333008 -11.667 1 -15v-29c0 -44.667 -6.33301 -78.667 -19 -102c-14 -26 -39.333 -49.333 -76 -70c-14 -8.66699 -27.333 -15 -40 -19l-96 -46l101 83c26 20.667 46 41.667 60 63c17.333 25.333 26 71.333 26 138
c-0.666992 3.33301 -1 6.66602 -1 9.99902v10v19c0 17.333 0.5 34.166 1.5 50.499s2.16699 32.166 3.5 47.499c6.66699 65.333 29 133.666 67 204.999l-9 7c-23.333 -18 -49 -27 -77 -27c-18.667 0 -38.334 3 -59.001 9c-2.66699 0 -6 0.666992 -10 2
c-32.667 7.33301 -56 11 -70 11c-38 0 -70.667 -14.667 -98 -44c-24.667 -26 -40.667 -58.667 -48 -98l19 -7c18 46.667 48.667 70 92 70c2.66699 0 7.5 -0.333008 14.5 -1s16.167 -1.66699 27.5 -3c9.33301 -1.33301 17.333 -2.33301 24 -3s12.667 -1 18 -1
c29.333 0 68.333 12.333 117 37l-28 -26l-14 -14c-4 -4 -7.33301 -7.66699 -10 -11c-39.333 -43.333 -59 -96 -59 -158c-23.333 17.333 -47.333 26 -72 26c-36 -4 -61 -25.333 -75 -64l15 -4c13.333 12.667 27.666 19 42.999 19c28.667 0 51 -10.167 67 -30.5
s25 -45.5 27 -75.5v-6v-14c-0.666992 -0.666992 -1 -1.66699 -1 -3v-4c-19.333 19.333 -41 28.666 -65 27.999c-33.333 -1.33301 -57 -20.666 -71 -57.999l16 -8c10.667 10.667 22.334 16 35.001 16c14 0 26 -5.5 36 -16.5s15 -23.5 15 -37.5c0 -26 -16 -56 -48 -90
s-65.667 -62.667 -101 -86l15 -21c68 30.667 130.333 46 187 46c64.667 0 129 -15.333 193 -46l110 122c28 -56.667 59 -97.334 93 -122.001zM510.001 131.006l-56 -64c-52 26 -111.667 39 -179 39c29.333 20.667 50.5 42.667 63.5 66s20.5 53 22.5 89
c57.333 -16 107 -59.333 149 -130zM361.001 283.006v123l112 89l71 -87z" />
    <glyph glyph-name="L" unicode="L" horiz-adv-x="601" 
d="M619 92l-17.001 18.0029l-45 -42c-49.333 42 -104.666 63 -165.999 63c-7.33301 0 -14.833 -0.166992 -22.5 -0.5s-15.167 -0.833008 -22.5 -1.5c-33.333 -4 -63.333 -10.667 -90 -20c28 21.333 51.5 41.666 70.5 60.999s34.167 37.333 45.5 54
c32.667 45.333 49 96.666 49 153.999c0 9.33301 -0.5 21.333 -1.5 36s-2.83301 31.667 -5.5 51c-4 38.667 -6 68 -6 88c0 56.667 35.333 89.334 106 98.001l-11 22c-56.667 0 -101.334 -13.333 -134.001 -40c-34.667 -28.667 -52 -71 -52 -127
c0 -18.667 2 -46.334 6 -83.001c2.66699 -18.667 4.5 -34.834 5.5 -48.501s1.5 -25.167 1.5 -34.5c0 -102.667 -45.667 -185 -137 -247c56 72 84 148 84 228c0 11.333 -0.5 25 -1.5 41s-2.83301 34.667 -5.5 56s-4.5 40.166 -5.5 56.499s-1.5 29.833 -1.5 40.5
c0 29.333 6.33301 54.333 19 75c10 17.333 27.333 36.333 52 57l8.5 7c2.33301 2 4.16602 3.66699 5.49902 5l-9 14c-36 -18 -66 -27 -90 -27c-16 0 -39 5 -69 15c-29.333 10 -52 15 -68 15c-28 -1.33301 -52.333 -12.333 -73 -33s-31 -45 -31 -73
c0 -9.33301 2.66699 -22.666 8 -39.999l18 6c0 1.33301 -0.333008 2.33301 -1 3v3c-1.33301 5.33301 -2 9.33301 -2 12c0 13.333 4.16699 24.833 12.5 34.5s18.833 14.5 31.5 14.5s26.667 -3 42 -9c1.33301 0 2.33301 -0.333008 3 -1h3c20.667 -7.33301 36.667 -11 48 -11
c16 0 44.333 4.66699 85 14l-9 -9c-46.667 -46.667 -70 -101.667 -70 -165c0 -4 0.333008 -10 1 -18s1 -14 1 -18c-6 2 -10.333 3 -13 3c-7.33301 2 -16 3 -26 3c-28 -0.666992 -54.333 -16 -79 -46l12 -10c13.333 9.33301 27.666 14 42.999 14c47.333 0 72 -30 74 -90
c-15.333 11.333 -31.666 17 -48.999 17c-18.667 0 -37 -10 -55 -30l10 -12c8.66699 4 17.667 6 27 6c17.333 0 31.5 -6.66699 42.5 -20s17.167 -29 18.5 -47v-5c-2 -46 -34 -91.333 -96 -136c-8 -6 -15.167 -11.167 -21.5 -15.5s-12.166 -7.83301 -17.499 -10.5l12 -19
c86.667 47.333 171.667 71 255 71c64.667 0 128.334 -23.667 191.001 -71z" />
    <glyph glyph-name="M" unicode="M" horiz-adv-x="858" 
d="M859 75l-17.001 18l-28 -23c-20.667 10.667 -31 29.667 -31 57v360c0 41.333 6.33301 73.666 19 96.999c6 8.66699 11.5 16.167 16.5 22.5s9.16699 11.833 12.5 16.5l-17 14l-10.5 -10l-10.5 -10l-20 -20l-103 83l-169 -123c-0.666992 14 -2.16699 26.333 -4.5 37
s-5.16602 19.667 -8.49902 27c-8 17.333 -23 33 -45 47c-3.33301 1.33301 -6 2.66602 -8 3.99902s-3.66699 2.33301 -5 3l-55.5 -29.5l-39.5 -20.5c-28.667 -15.333 -53.5 -30.166 -74.5 -44.499s-38.5 -28.166 -52.5 -41.499c-41.333 -38 -66.333 -81.333 -75 -130
c-4 -23.333 -6 -49 -6 -77c-59.333 -9.33301 -100 -35.666 -122 -78.999l17 -14c16 20 33.667 30 53 30c23.333 0 42.333 -9.33301 57 -28c26.667 -33.333 40 -71 40 -113c0 -16.667 -1.5 -30.667 -4.5 -42s-7.83301 -20.666 -14.5 -27.999s-15.667 -13.333 -27 -18
s-25 -8.33398 -41 -11.001c-0.666992 -0.666992 -1.33398 -1 -2.00098 -1h-3c-35.333 -6.66699 -59.666 -18.667 -72.999 -36c-12 -16.667 -18.333 -44.334 -19 -83.001h20c6 28.667 21.667 43 47 43h11c4 0 7.66699 -0.333008 11 -1l20 -2
c4.66699 0 11.667 -0.333008 21 -1s16.333 -1 21 -1c94 0 141 56 141 168v190h125v-137c0 -34.667 -10.667 -58.667 -32 -72v-13c44.667 -34 79.667 -66 105 -96l162 142l-16 15l-34 -29v188l55 73h-55v221l24 17l67 -54v-425c0 -29.333 1 -50.333 3 -63
c4 -22 13 -40.333 27 -55c4.66699 -5.33301 10 -10.333 16 -15l21 -15zM150.999 26v-0.999023c29.333 12 49 32.667 59 62c7.33301 20 11 49.333 11 88v204c0 25.333 1 54.666 3 87.999c2 36.667 18.667 66.667 50 90c-10 -25.333 -15 -62.666 -15 -111.999v-296
c0 -42.667 -3 -71.334 -9 -86.001c-10 -26.667 -32.667 -40 -68 -40c-12.667 0 -23 1 -31 3zM568.999 305.001v-205c-8 -9.33301 -17.333 -14 -28 -14c-20.667 0 -33 19.333 -37 58c-0.666992 2 -1 5.66699 -1 11v150h66zM404.999 376.001l-84.001 0.000976562l-41 -57v127
c0 36 1.33301 60.333 4 73c4.66699 24 16.334 44.667 35.001 62c5.33301 5.33301 11.333 10.333 18 15s14.334 9.66699 23.001 15c9.33301 -7.33301 16.833 -14 22.5 -20s10.167 -12.333 13.5 -19s5.66602 -14.334 6.99902 -23.001s2 -19 2 -31v-142zM502.998 376.002v158
l66 48v-206h-66z" />
    <glyph glyph-name="N" unicode="N" horiz-adv-x="789" 
d="M789 134l-23.0068 8.99902l-33 -56l-14 2c-4.66699 0.666992 -9.16699 1.16699 -13.5 1.5s-8.83301 0.5 -13.5 0.5h-14c-44.667 0 -84 -5.66699 -118 -17l7.5 10.5c1.66699 2.33301 2.83398 4.16602 3.50098 5.49902l70 94c26 34.667 49 74.667 69 120
c10.667 22.667 18.334 45.334 23.001 68.001s6.66699 45.334 6 68.001c-2 66 -28 119 -78 159s-105 67 -165 81l-301 -147v-97c-31.333 16.667 -59.333 25 -84 25c-34 0 -62.333 -14.333 -85 -43l10 -13c17.333 10.667 34.333 16 51 16c32 0 57.667 -11.667 77 -35
c17.333 -20.667 27.666 -47.667 30.999 -81c-26.667 22.667 -54.667 34 -84 34c-30.667 0 -59 -13.667 -85 -41l10 -15c15.333 8.66699 33 13 53 13c61.333 0 100 -32.333 116 -97c-28 13.333 -50 20 -66 20c-29.333 0 -55.666 -15.667 -78.999 -47l12 -13
c20.667 13.333 38.667 20 54 20c12.667 0 24.834 -2.33301 36.501 -7s21.834 -11.167 30.501 -19.5s15.667 -18.166 21 -29.499s8 -23.333 8 -36c0 -20.667 -5.83301 -37.5 -17.5 -50.5s-27.5 -19.5 -47.5 -19.5c-11.333 0 -29 3 -53 9
c-17.333 2.66699 -31.166 4.5 -41.499 5.5s-17.166 1.83301 -20.499 2.5h-2h-4c-45.333 0 -86 -26.333 -122 -79l13 -11c29.333 15.333 55 23 77 23c18.667 0 46 -5 82 -15c34.667 -10.667 62.334 -16 83.001 -16c66.667 0 118 25.667 154 77c22.667 32.667 34 81 34 145v94
c30.667 19.333 68.667 32 114 38c2 0.666992 4.66699 1 8 1h7c20 0 38 -2.33301 54 -7c30.667 -9.33301 56.334 -21.333 77.001 -36c-6.66699 -16 -16.834 -36.667 -30.501 -62l-51.5 -91c-37.333 -64.667 -63 -116.334 -77 -155.001l23 -8c28.667 52.667 72.667 79 132 79
c30 0 61 -7 93 -21zM336.993 567.999v-389.999v-1v-2c0 -52.667 -5.66699 -91.334 -17 -116.001c-16 -35.333 -47.333 -54.333 -94 -57c28.667 16.667 47.667 41 57 73c6 20 9 52 9 96v377l22 10c3.33301 1.33301 7 3 11 5s8 3.66699 12 5zM356.993 280l0.000976562 123
c48 -24 92 -36 132 -36c52 0 104.333 17.333 157 52c0 -2.66699 0.166992 -5.5 0.5 -8.5s0.833008 -6.16699 1.5 -9.5c0 -3.33301 0.333008 -6.33301 1 -9v-9c0 -33.333 -8 -71.333 -24 -114c-43.333 29.333 -91 44 -143 44c-32.667 0 -74.334 -11 -125.001 -33z
M356.994 432l-0.00195312 142c5.33301 1.33301 9 2 11 2c20.667 6 42.334 9 65.001 9c48 0 90.5 -12.5 127.5 -37.5s63.5 -59.833 79.5 -104.5c-53.333 -35.333 -103.666 -53 -150.999 -53c-46 0 -90 14 -132 42z" />
    <glyph glyph-name="O" unicode="O" horiz-adv-x="731" 
d="M67 485l0.000976562 -0.999023c-29.333 -74 -44 -139.667 -44 -197c0 -83.333 27 -153.333 81 -210c55.333 -57.333 123.666 -86 204.999 -86c76.667 0 153.667 32.333 231 97c72.667 60.667 122.667 128.667 150 204c11.333 32 17 61 17 87
c0 78 -30.667 144.667 -92 200c-52.667 47.333 -120.667 79.666 -204 96.999c-10.667 2.66699 -17 4 -19 4zM341.001 591.001v-526.001c-62.667 7.33301 -117 34 -163 80c44.667 34.667 72.667 60.667 84 78c18.667 26.667 28 64.334 28 113.001v257
c8.66699 0 17.167 -0.166992 25.5 -0.5s16.833 -0.833008 25.5 -1.5zM363.001 66v182c30 34.667 66.667 52 110 52c45.333 0 84.666 -19.667 117.999 -59c-17.333 -51.333 -46 -93 -86 -125c-43.333 -34 -90.666 -50.667 -141.999 -50zM197.001 536v-263.001
c0 -30 -1.33301 -50 -4 -60c-5.33301 -19.333 -15.333 -36.333 -30 -51c-42 58.667 -63 119.334 -63 182.001c0 79.333 32.333 143.333 97 192zM363.001 278.999l0.000976562 150c37.333 -29.333 75.666 -44 114.999 -44c38.667 0 78.334 14.667 119.001 44
c9.33301 -29.333 14 -54 14 -74v-15c-0.666992 -3.33301 -1 -6.33301 -1 -9v-6c-1.33301 -12.667 -3 -24 -5 -34s-4 -18.667 -6 -26c-41.333 38 -83.333 57 -126 57c-38.667 0 -75.334 -14.333 -110.001 -43zM363.002 451.999v136c110.667 -16 186 -61.667 226 -137
c-32.667 -30.667 -70 -46 -112 -46c-39.333 0 -77.333 15.667 -114 47z" />
    <glyph glyph-name="P" unicode="P" horiz-adv-x="710" 
d="M188 -131l166.998 0.00195312v172c58 -6.66699 113 -23.334 165 -50.001l144 128v306c0 57.333 -19 107.666 -57 150.999c-26.667 30 -70.667 63.667 -132 101l-120 -82v72h-21v-86l-48 -35c-0.666992 40 -12.5 71.667 -35.5 95s-54.5 35 -94.5 35
c-47.333 0 -91 -21.667 -131 -65l14 -17c24.667 16 47.334 24 68.001 24c27.333 0 46.666 -9.66699 57.999 -29c15.333 -27.333 23 -63.666 23 -108.999l-168 -117l5 -16c36.667 -6 71.667 -24 105 -54c38.667 -34.667 58 -88.334 58 -161.001
c-71.333 -12 -141.666 -55.667 -210.999 -131l11 -12c56.667 34.667 123.334 55 200.001 61v-181zM285.998 -108.998v631l48 34v-665h-48zM354.998 139.002l0.000976562 90c40.667 24 76 36 106 36c29.333 0 63.666 -11.667 102.999 -35v-151c-75.333 34 -145 54 -209 60z
M354.999 254.002l-0.000976562 136c38.667 -22 71.334 -33 98.001 -33c33.333 0 70.333 12.333 111 37v-137c-36.667 19.333 -70.667 29 -102 29c-32 0 -67.667 -10.667 -107 -32zM96.998 391.002l91 62v-131c-20.667 24.667 -51 47.667 -91 69zM354.998 418.002v152.001
l51 33l16 -8c44.667 -22.667 77 -43.667 97 -63c30.667 -28.667 46 -62.667 46 -102v-5c-0.666992 -0.666992 -1 -1.33398 -1 -2.00098v-3c-28 -22 -58.667 -35 -92 -39c-3.33301 0 -6.33301 -0.333008 -9 -1h-9c-34.667 0 -67.667 12.667 -99 38z" />
    <glyph glyph-name="Q" unicode="Q" horiz-adv-x="755" 
d="M78 487l-0.00195312 -1c-36.667 -76 -55 -144 -55 -204c0 -75.333 19 -136.333 57 -183c12.667 -16 27.5 -30.667 44.5 -44s35.167 -24.833 54.5 -34.5s39.5 -17 60.5 -22s41.833 -7.5 62.5 -7.5c28.667 0 55.667 3 81 9c44 12.667 86.667 34 128 64l141 -103l94 88
l-18 18l-29 -27l-110 82l8 8c90 90 135 173.333 135 250c0 75.333 -31 142 -93 200c-55.333 51.333 -131.666 84 -228.999 98c-1.33301 0 -4.66602 0.666992 -9.99902 2zM354.998 583l0.000976562 -510.999c-12 1.33301 -23.333 3.16602 -34 5.49902
s-20.667 5.16602 -30 8.49902c-31.333 8.66699 -64.333 27.667 -99 57c42 34 69.333 61.333 82 82c18.667 28.667 28 66.667 28 114v245h14c5.33301 0 9.66602 -0.333008 12.999 -1c4 0 8.16699 -0.166992 12.5 -0.5s8.83301 -0.166016 13.5 0.500977zM376.999 73.001
l0.00292969 176.001c29.333 35.333 66.666 53 111.999 53c47.333 0 88.666 -19 123.999 -57c-22 -50.667 -53 -91.334 -93 -122.001c-44.667 -34 -92.334 -50.667 -143.001 -50zM204.002 529.002v-271c0 -41.333 -10 -74.333 -30 -99c-44.667 50.667 -67 112.667 -67 186
c0 74 32.333 135.333 97 184zM377.002 282.002l0.000976562 144c42 -26 80.667 -39 116 -39c39.333 0 80.666 16 123.999 48c10.667 -24 16 -51.333 16 -82c0 -32 -4.33301 -60 -13 -84c-40.667 37.333 -83.667 56 -129 56c-40.667 0 -78.667 -14.333 -114 -43z
M377.003 453.002v127c14 -1.33301 27.5 -3.5 40.5 -6.5s25.5 -6.16699 37.5 -9.5c77.333 -24 128 -60.333 152 -109c-31.333 -30.667 -69.333 -46 -114 -46c-34 0 -72.667 14.667 -116 44z" />
    <glyph glyph-name="R" unicode="R" horiz-adv-x="700" 
d="M498 95l-15.0029 16.002l-46 -44c-5.33301 4.66699 -11.166 8.66699 -17.499 12l-19.5 10l-40 18v189l19 12c78 -16.667 131 -79.334 159 -188.001c12.667 -50.667 31.334 -88.667 56.001 -114c5.33301 -4 9.83301 -7.5 13.5 -10.5l9.5 -7.5l103 96l-15 17l-37 -34
c-16 13.333 -29.667 33.666 -41 60.999c-3.33301 11.333 -7 23 -11 35s-7.66699 24 -11 36c-26 81.333 -71.333 138.333 -136 171l148 99l-152 207l-179 -122c-4 81.333 -49.333 122 -136 122c-48.667 0 -91.334 -21.333 -128.001 -64l10 -12
c22.667 14.667 45.334 22 68.001 22c54.667 0 84.667 -36 90 -108c0.666992 -2.66699 1 -7 1 -13v-12l-173 -121v-15c62.667 -20.667 111.667 -57.334 147 -110.001c2.66699 -3.33301 5.66699 -7.33301 9 -12c14 -27.333 21 -61.666 21 -102.999
c-80 -10 -149 -50.667 -207 -122l9 -8c50.667 28 107.334 44 170.001 48h9h9c76 0 142.667 -19.333 200 -58zM285.997 126.002v401l52 36v-450c-12.667 3.33301 -23.167 6 -31.5 8zM190.997 460.002v-146c-23.333 26 -57 51.333 -101 76zM359.997 322.002v255l41 28
l121 -172z" />
    <glyph glyph-name="S" unicode="S" horiz-adv-x="729" 
d="M287 680l-0.000976562 -1.00195c-116 -85.333 -174 -165.333 -174 -240c-56 -23.333 -84 -58.666 -84 -105.999c0 -34 12.667 -59 38 -75c32 -22 66.333 -33.333 103 -34c6.66699 -0.666992 13.334 -0.666992 20.001 0h68l-35 -62c-27.333 4 -54.333 6 -81 6
c-33.333 0 -62.333 -8 -87 -24c-30.667 -18 -45.667 -42.333 -45 -73c0.666992 -46 32.667 -73 96 -81c4 0 7.66699 -0.333008 11 -1h12c56 0 123.667 20 203 60c5.33301 -3.33301 11.5 -6.5 18.5 -9.5l22.5 -9.5c16 -10 38.667 -18.667 68 -26
c78 38.667 137 75.334 177 110.001c62.667 54 94 112.333 94 175c0 64 -31.333 111.333 -94 142c-40 19.333 -92 29 -156 29h-33c-0.666992 -0.666992 -2 -1 -4 -1s-3.33301 0.333008 -4 1l109 192l-18 12l-30 -53zM301.999 58.998v-1.00098
c-63.333 -32.667 -126 -49 -188 -49c-2.66699 0 -5 0.333008 -7 1h-7c-30 4.66699 -45 18.334 -45 41.001c0 12.667 5 22 15 28c15.333 9.33301 34 14 56 14c50 0 108.667 -11.333 176 -34zM334.999 312.997l36.0029 62.001c17.333 1.33301 34.833 2.33301 52.5 3
s35.167 1 52.5 1c44 0 81.667 -10.667 113 -32c36.667 -24.667 55 -58 55 -100c0 -60 -38.667 -117 -116 -171c-2 -0.666992 -4 -2 -6 -4c-5.33301 2.66699 -11 5.16699 -17 7.5s-12 4.83301 -18 7.5l-36 14l24 13c10 6 18.667 11 26 15c60 36 90 73.333 90 112
c0 40 -28 66 -84 78c-11.333 2.66699 -25.666 4 -42.999 4c-8 0 -22.333 -1 -43 -3c-2.66699 0 -6.33398 -0.333008 -11.001 -1s-8.33398 -1 -11.001 -1c-12.667 -2.66699 -24.334 -4.33398 -35.001 -5.00098s-20.334 -0.666992 -29.001 0zM247.002 158.998l37.999 65
c6.66699 0 12 1 16 3l103 11c18.667 2 35.334 3 50.001 3c13.333 0 25 -3 35 -9c12.667 -8 19 -18 19 -30c0 -13.333 -5.66699 -25.666 -17 -36.999l-43 -32c-12 -8.66699 -22.333 -15.667 -31 -21l-42 13.5c-14 4.33301 -28 8.16602 -42 11.499zM345.001 372.998
l-35.999 -64.001l-30 -2c-10 -0.666992 -20 -1.16699 -30 -1.5s-20.333 -0.5 -31 -0.5h-30c-24.667 0 -46.334 5 -65.001 15c-22.667 12.667 -34 30.334 -34 53.001c0 18 9 33.667 27 47c9.33301 -24 24 -39.667 44 -47c16 -5.33301 38.333 -8 67 -8
c19.333 0 38.833 0.666992 58.5 2s39.5 3.33301 59.5 6zM439.002 536.997l-46 -80.002c-16 -2 -30 -3.66699 -42 -5s-22 -2.33301 -30 -3h-25c-5.33301 -0.666992 -10 -1 -14 -1h-10h-6h-6c-56.667 2.66699 -85 25.334 -85 68.001c0 20.667 7.83301 38.334 23.5 53.001
s34.167 23 55.5 25h8c44.667 0 103.667 -19 177 -57z" />
    <glyph glyph-name="T" unicode="T" horiz-adv-x="652" 
d="M445 86l0.00390625 467c4 0 10.333 -0.333008 19 -1s15 -1 19 -1c44.667 0 82.167 12 112.5 36s47.5 58 51.5 102l-16 5c-20.667 -36.667 -55.334 -55 -104.001 -55c-34 0 -84 6 -150 18c-33.333 6.66699 -62.333 11.5 -87 14.5s-45.667 4.5 -63 4.5
c-66.667 0 -121.5 -17.833 -164.5 -53.5s-72.5 -86.5 -88.5 -152.5l16 -7c37.333 85.333 98.666 128 183.999 128h11c3.33301 -0.666992 7 -1 11 -1c3.33301 -0.666992 6.83301 -1.16699 10.5 -1.5s7.16699 -0.5 10.5 -0.5c-123.333 -86 -185 -186.667 -185 -302
c0 -84 29.333 -154 88 -210c59.333 -55.333 130.666 -83 213.999 -83c73.333 0 139.666 22 198.999 66c58.667 44.667 96.667 102.667 114 174l-16 3c-45.333 -81.333 -107.333 -131.333 -186 -150zM423.004 557l-0.00195312 -476.001c-2 -0.666992 -4 -1 -6 -1
s-3.66699 -0.333008 -5 -1c-3.33301 -0.666992 -7 -1.16699 -11 -1.5s-8 -0.5 -12 -0.5h-12c-50 0 -97.667 14.667 -143 44l51 41.5c11.333 9 17.333 13.833 18 14.5c36 32.667 54 79.667 54 141v251c4 0 8.83301 -0.5 14.5 -1.5s11.834 -2.16699 18.501 -3.5
s12.834 -2.66602 18.501 -3.99902s10.5 -2.33301 14.5 -3zM257.002 587.999v-339c0 -53.333 -14.667 -90.666 -44 -111.999c-61.333 55.333 -92 122 -92 200c0 52 11.333 100.333 34 145c24.667 49.333 58.667 84.666 102 105.999z" />
    <glyph glyph-name="U" unicode="U" horiz-adv-x="736" 
d="M732 62l-12.999 18.001c-9.33301 -6 -18.333 -9 -27 -9c-9.33301 0 -16 3.66699 -20 11c-6.66699 11.333 -10 28.666 -10 51.999v352c0 55.333 11 96.666 33 123.999l16 17.5l12 12.5l-18 15l-47 -49l-94 70l-111 -116l15 -15l52 53l44 -35v-142
c-16.667 -10.667 -38 -17.334 -64 -20.001h-14c-30.667 3.33301 -57 14 -79 32v258l-14 -1c-8 -10 -17.667 -17.667 -29 -23c-18 -8.66699 -39.667 -13 -65 -13c-20 0 -51.333 7 -94 21c-44 14 -74.667 20.667 -92 20c-37.333 -2 -64.333 -17 -81 -45
c-21.333 -37.333 -32 -82.666 -32 -135.999v-7c0 -3.33301 0.333008 -5.66602 1 -6.99902l20 -1c0 74 26 111 78 111h15c4.66699 0 9.66699 -0.333008 15 -1c25.333 -2.66699 45.333 -4.66699 60 -6s24.667 -2 30 -2h16c8.66699 1.33301 15.667 2.16602 21 2.49902
s9 0.833008 11 1.5c-77.333 -51.333 -132.333 -97.666 -165 -138.999c-44.667 -56.667 -67 -123.334 -67 -200.001c0 -75.333 24 -139.333 72 -192c49.333 -55.333 110.666 -83 183.999 -83c42.667 0 81 5.66699 115 17c48.667 16.667 100.667 49.334 156 98.001
c0.666992 -30.667 6 -55.667 16 -75c10.667 -20.667 28.667 -38 54 -52zM385.001 636.001v-570.999h-13c-1.33301 -0.666992 -3.33301 -1 -6 -1h-13h-6c-50 2.66699 -92 16.667 -126 42c32.667 19.333 62 43 88 71c23.333 25.333 35 59.666 35 102.999v246
c0 44 13.667 80.667 41 110zM407.001 69.002l-0.000976562 200.999c24.667 15.333 49 23 73 23c24.667 0 52.667 -8 84 -24v-127c-55.333 -43.333 -107.666 -67.666 -156.999 -72.999zM200 126.001v-1c-46.667 50.667 -70 113.334 -70 188.001c0 66.667 20 127.667 60 183
c37.333 50 87 91.333 149 124l-42 -54c-10.667 -14 -17.667 -23.667 -21 -29c-19.333 -32.667 -29 -66.334 -29 -101.001v-178c0 -64.667 -15.667 -108.667 -47 -132zM407 297.001l0.000976562 108c20 -13.333 41.333 -21.333 64 -24c2 -0.666992 4.66699 -1 8 -1h6
c31.333 0 57.666 5.66699 78.999 17v-104c-27.333 14.667 -55.333 22 -84 22c-20 0 -44.333 -6 -73 -18z" />
    <glyph glyph-name="V" unicode="V" horiz-adv-x="626" 
d="M252 538l-0.00195312 -0.999023c-34 102 -87 153 -159 153c-26.667 0 -47.334 -10.333 -62.001 -31c-9.33301 -13.333 -17.666 -30 -24.999 -50s-13.333 -43.667 -18 -71l16 -6c1.33301 4.66699 2.33301 8.66699 3 12s1.33398 6.33301 2.00098 9c10.667 34 28 51 52 51
c32 0 56.667 -17 74 -51c32.667 -64.667 49 -148 49 -250c-22 26.667 -46.667 40 -74 40c-32 0 -57.667 -18.667 -77 -56l12 -11c14.667 11.333 29.334 17 44.001 17c21.333 0 39.333 -8.33301 54 -25c14 -16 23.333 -34 28 -54c2 -13.333 3 -22.333 3 -27
c0 -42.667 -19.333 -98.334 -58 -167.001c-2.66699 -3.33301 -4.66699 -6.33301 -6 -9s-2.66602 -4.66699 -3.99902 -6l16 -17c35.333 23.333 69.333 35 102 35h6c28.667 0 60.667 -11.667 96 -35c42.667 39.333 79.667 75.666 111 108.999s56.666 64 75.999 92
c60 84.667 90 169.667 90 255c0 70.667 -24.333 149.334 -73 236.001zM255.998 237.001l0.000976562 -1c30 10.667 57.333 16 82 16c46 0 87.667 -11 125 -33c-26.667 -56.667 -54 -102.667 -82 -138c-29.333 9.33301 -54.333 14 -75 14
c-44.667 0 -97.334 -21.667 -158.001 -65l9 15l53 86c16.667 26 32 61.333 46 106zM277.999 386.001l0.00195312 -1c20.667 -7.33301 45.667 -12.333 75 -15h5c2 0 4.66699 -0.333008 8 -1h13c46 0 88.667 9 128 27c-0.666992 -25.333 -3.83398 -51 -9.50098 -77
s-13.834 -51.667 -24.501 -77c-45.333 22 -89.666 33 -132.999 33c-20.667 0 -46.334 -4 -77.001 -12c10 36.667 15 77.667 15 123zM259.001 516.001l188.999 97c36 -56 55.667 -120.667 59 -194c-40 -18.667 -81.333 -28 -124 -28c-27.333 0 -62.666 5.66699 -105.999 17
l-3.5 25l-2.5 18c-2.66699 26 -6.66699 47.667 -12 65z" />
    <glyph glyph-name="W" unicode="W" horiz-adv-x="864" 
d="M237 531l0.000976562 -1.00098c-10 39.333 -26.333 72.666 -49 99.999c-27.333 34 -58.666 51 -93.999 51c-52.667 0 -86.334 -37 -101.001 -111c-1.33301 -5.33301 -2.33301 -10.166 -3 -14.499s-1.33398 -8.16602 -2.00098 -11.499l21 -4c0 16.667 4 32.167 12 46.5
s19.667 21.5 35 21.5c14 0 26.333 -5.33301 37 -16c38.667 -40.667 61 -110.334 67 -209.001l2 -31c0.666992 -5.33301 1 -10.666 1 -15.999v-15c-20.667 22.667 -44.334 34 -71.001 34c-28 0 -52 -17.333 -72 -52l13 -14c13.333 9.33301 25.333 14 36 14
c23.333 0 43 -11 59 -33c14.667 -18.667 22 -40.667 22 -66c0 -49.333 -22 -111 -66 -185c-2.66699 -3.33301 -4.66699 -6.5 -6 -9.5s-2.66602 -5.16699 -3.99902 -6.5l11 -15c53.333 33.333 104 49.333 152 48c28 -1.33301 58 -17.333 90 -48
c13.333 7.33301 22.333 11.666 27 12.999c41.333 23.333 79.333 35 114 35c28.667 0 59.667 -16 93 -48c186.667 152 280 297.667 280 437c0 76.667 -31 163 -93 259l-215 -150c-20 52.667 -46.667 103.334 -80 152.001zM225.001 222.999l0.000976562 -1.00098
c36 17.333 68 26 96 26c29.333 0 63 -12 101 -36c-8 -21.333 -16.667 -41.166 -26 -59.499s-19.333 -35.833 -30 -52.5c-29.333 4 -49 6 -59 6c-44 0 -100.333 -19 -169 -57l-6 -3l-4 -2l52.5 90c16.333 29.333 31.166 59 44.499 89zM509.002 228.998v-0.999023
c24 14 51.667 21 83 21c36 0 71.667 -11.333 107 -34c-5.33301 -10.667 -8.33301 -16.334 -9 -17.001c-21.333 -41.333 -41.333 -73.333 -60 -96c-27.333 8 -50.666 12 -69.999 12c-48.667 0 -109.334 -19.667 -182.001 -59c-4 -2 -6.33301 -3 -7 -3
c-1.33301 -1.33301 -2.66602 -2.16602 -3.99902 -2.49902s-2.33301 -0.833008 -3 -1.5c65.333 65.333 113.666 125.666 144.999 180.999zM256.002 387.999v1.99902c22 -14 49.667 -22.667 83 -26h15c29.333 0 63.333 10.333 102 31v-6
c0 -2.66699 0.333008 -4.33398 1 -5.00098v-12c0 -39.333 -8.66699 -85.666 -26 -138.999c-45.333 24.667 -82.666 37 -111.999 37h-10c-3.33301 -0.666992 -7 -1 -11 -1c-22.667 -3.33301 -43.334 -8.66602 -62.001 -15.999c14 46.667 21 88.667 21 126v5
c-0.666992 0.666992 -1 2 -1 4zM556.002 390.998v-1.00098c30 -12.667 60 -19 90 -19c32.667 0 62.667 6.33301 90 19c0.666992 -2 1 -4.33301 1 -7v-7c0 -4.66699 -0.166992 -9.66699 -0.5 -15s-0.833008 -10.666 -1.5 -15.999c-6 -40 -14 -74 -24 -102
c-1.33301 -4 -2.33301 -6.33301 -3 -7c-41.333 22.667 -79.333 34 -114 34c-20.667 0 -44 -3.66699 -70 -11c21.333 39.333 32 83.333 32 132zM242.002 506.997l137 98c28 -35.333 49 -79.333 63 -132c6 -23.333 10 -40.666 12 -51.999c-30 -22 -64.667 -33 -104 -33
c-30 0 -61.333 8.33301 -94 25c0 31.333 -4.66699 62.666 -14 93.999zM540.002 514.997l130.999 87.999c34.667 -45.333 56.334 -108.666 65.001 -189.999c-37.333 -14 -67 -21 -89 -21c-30 0 -60.333 7 -91 21c0 34 -5.33301 68 -16 102z" />
    <glyph glyph-name="X" unicode="X" horiz-adv-x="551" 
d="M548 89l-18.998 19l-7 -7c-3.33301 -3.33301 -6 -5.66602 -8 -6.99902c-13.333 -15.333 -26.333 -23 -39 -23c-8.66699 0 -15.334 4 -20.001 12c-7.33301 13.333 -13.333 24.666 -18 33.999s-8.33398 17 -11.001 23l-74 175h118l35 76h-194l84 188
c25.333 -14 63.666 -29.667 114.999 -47l38 79c-52 23.333 -96.333 48.333 -133 75l-113 -252l-52 125c-16.667 40.667 -32.334 69.334 -47.001 86.001c-22 25.333 -51 38 -87 38c-58 0 -104 -33.333 -138 -100l15 -12c25.333 25.333 52 38 80 38c24 0 42 -8 54 -24
c7.33301 -11.333 13.333 -21.333 18 -30s8.33398 -16.334 11.001 -23.001c2.66699 -4 5.33398 -10 8.00098 -18c0 -0.666992 0.333008 -1 1 -1v-1l51 -121h-116l-35 -76h185l-96 -216l-72.5 28.5c-20.333 8.33301 -37.166 15.5 -50.499 21.5l-38 -89
c50.667 -17.333 96.667 -41.333 138 -72l129 288l71 -168c15.333 -36 27.666 -60 36.999 -72c14.667 -20 36.667 -36 66 -48z" />
    <glyph glyph-name="Y" unicode="Y" horiz-adv-x="671" 
d="M30 625l-0.00390625 -0.999023c12.667 7.33301 24.667 11 36 11c52.667 0 83 -36 91 -108c0.666992 -6 1.16699 -13 1.5 -21s0.5 -17 0.5 -27v-37c-28.667 20.667 -57.667 31 -87 31c-14 0 -31 -4.66699 -51 -14l4 -17h4c2 0 3.33301 0.333008 4 1h7
c40 0 70.667 -15 92 -45c17.333 -26 26.333 -60.333 27 -103v-3v-3c-33.333 25.333 -66 38 -98 38h-9c-2.66699 0 -5.66699 -0.333008 -9 -1l-18 -2v-14c44.667 -4 78.667 -24 102 -60c20 -30 30.667 -69.333 32 -118v-1v-2c-44 0 -80.667 -11.333 -110 -34
c-33.333 -25.333 -49.666 -58.333 -48.999 -99c0 -39.333 16.333 -72 49 -98c32 -23.333 67.667 -34.666 107 -33.999c34 1.33301 79.333 17.333 136 48s95.334 46 116.001 46h4c1.33301 0 2.33301 -0.333008 3 -1c9.33301 -1.33301 14 -5.33301 14 -12
c0 -6 -1.33301 -9.33301 -4 -10c-8.66699 -13.333 -13 -25.333 -13 -36c0 -12.667 4 -23.334 12 -32.001s18.333 -13 31 -13c29.333 0 44 16.333 44 49c0 27.333 -14.667 49.666 -44 66.999c-24 14 -51.333 21 -82 21s-74.334 -11 -131.001 -33
c-57.333 -22 -99.333 -33 -126 -33c-25.333 0 -47.166 7.83301 -65.499 23.5s-27.5 35.5 -27.5 59.5c0 26.667 10.333 48 31 64c31.333 23.333 66 35 104 35c11.333 0 25.5 -0.166992 42.5 -0.5s37.167 -0.833008 60.5 -1.5s43.333 -1 60 -1h43
c189.333 0 284 105.333 284 316v3v3c-0.666992 58.667 -18.334 109.667 -53.001 153c-37.333 46 -84.666 69 -141.999 69c-32 0 -67 -8.66699 -105 -26c-9.33301 -4 -22 -10.5 -38 -19.5l-58 -33.5c-13.333 73.333 -57.666 110 -132.999 110
c-35.333 0 -68.666 -12.667 -99.999 -38zM251.996 130.001v410l45 27v-437h-45zM318.996 130.001v141c35.333 27.333 68.333 41 99 41c42.667 0 82.667 -15.667 120 -47c-30 -91.333 -103 -136.333 -219 -135zM318.996 298.001l0.000976562 136
c31.333 -26.667 68 -40 110 -40c36.667 0 74.667 15 114 45c4.66699 -16.667 7 -42.667 7 -78c0 -22 -2.33301 -45.667 -7 -71c-36.667 29.333 -77.334 44 -122.001 44c-33.333 0 -67.333 -12 -102 -36zM318.997 464.001v113.001c26 12.667 50 19 72 19
c36 0 67.667 -13.667 95 -41c24 -24.667 40.667 -55.334 50 -92.001c-31.333 -32 -68 -48 -110 -48c-36 0 -71.667 16.333 -107 49z" />
    <glyph glyph-name="Z" unicode="Z" horiz-adv-x="508" 
d="M508 115l-16.999 15.998l-49 -61c-48.667 24.667 -98.334 37 -149.001 37s-123 -18.667 -217 -56c44.667 42 83.5 82.333 116.5 121s60.833 76.334 83.5 113.001h155l15 34l-149 -1c7.33301 11.333 13.333 21.5 18 30.5l12 22.5h142l16 36l-142 -1
c52 102.667 102.667 189.334 152 260.001l-13 13c-55.333 -29.333 -117 -44 -185 -44c-52.667 0 -109.667 14.333 -171 43l-111 -130l18 -15l56 63c40.667 -18 82.667 -27 126 -27c54.667 0 126 18.667 214 56c-38 -38 -73 -75.167 -105 -111.5s-61.333 -71.833 -88 -106.5
h-144l-16 -36l138 -1l-16 -30c-4.66699 -8.66699 -8.66699 -15.667 -12 -21h-132l-16 -34l130 -1l-39 -73l-39 -73c-33.333 -56 -66.333 -100 -99 -132l13 -18c70.667 31.333 136.667 47 198 47c72 0 140.333 -15.667 205 -47z" />
    <glyph glyph-name="bracketleft" unicode="[" 
d="M372 666h-181v-827h181v74h-97v679h97v74z" />
    <glyph glyph-name="backslash" unicode="\" horiz-adv-x="239" 
d="M159 99l0.000976562 498l84 -22l16 78l-97 23c-18 -15.333 -35.5 -29.5 -52.5 -42.5l-48.5 -35.5v-438v-10v-10c-0.666992 -34 -11.334 -56.667 -32.001 -68v-12c42 -13.333 82 -37.333 120 -72l105 84l-14 13l-31 -25l-12 10l-12 10z" />
    <glyph glyph-name="bracketright" unicode="]" 
d="M128 -161h181v827h-181v-73h96v-680h-96v-74z" />
    <glyph glyph-name="asciicircum" unicode="^" 
d="M122 365l128 232l128 -232h97l-165 305h-120l-165 -305h97z" />
    <glyph glyph-name="underscore" unicode="_" 
d="M0 -64v-67h500v67h-500z" />
    <glyph glyph-name="grave" unicode="`" 
d="M346 573l-105 120h-87l35 -87z" />
    <glyph glyph-name="a" unicode="a" horiz-adv-x="408" 
d="M407 71l-10.0029 12c-1.33301 -1.33301 -2.66602 -2 -3.99902 -2l-1 -1l-2 -2c-12 -5.33301 -20 -8 -24 -8c-16 2 -24.333 15 -25 39v8v198v26c0 8 0.333008 15.667 1 23c0.666992 31.333 12.334 64.333 35.001 99l-13 8c-15.333 -14.667 -30.333 -22 -45 -22
c-33.333 0 -75 13 -125 39l-6 3l-4 2c-33.333 -28 -74 -42 -122 -42h-11c-0.666992 0 -1.33398 0.333008 -2.00098 1h-5c-2 0 -3 0.333008 -3 1l86 -154l-14 -16c-53.333 -59.333 -80 -116.333 -80 -171c0 -43.333 25.667 -84.666 77 -123.999l132 106
c4 -34.667 16.333 -63.334 37 -86.001c4.66699 -4.66699 8.83398 -8.5 12.501 -11.5s6.83398 -5.83301 9.50098 -8.5zM187.997 263l54 -23v-121l-64 -53c-41.333 38 -62 74.333 -62 109c0 20 4 46.667 12 80c4.66699 20 8 30 10 30zM241.997 379v-119l-95 41l-74 134z" />
    <glyph glyph-name="b" unicode="b" horiz-adv-x="409" 
d="M36 83l0.00195312 -10.9971c75.333 -13.333 137 -41.333 185 -84c35.333 31.333 85 59.666 149 84.999v273c0 25.333 -1.5 46 -4.5 62s-10.833 31.667 -23.5 47c-5.33301 6 -18.333 19 -39 39l-142 -119v170c0 31.333 3 55 9 71c6.66699 20.667 21.667 38.667 45 54l-3 9
c-44.667 -6.66699 -82.334 -26.334 -113.001 -59.001c-24.667 19.333 -49.334 34 -74.001 44l-6 -13c2.66699 -2.66699 5.16699 -5 7.5 -7s4.5 -4 6.5 -6l11 -11c12.667 -18.667 19 -43.334 19 -74.001v-402c0 -35.333 -9 -58 -27 -68zM161.002 352.003l80 67
c20 -17.333 30 -46 30 -86v-266l-110 47v238z" />
    <glyph glyph-name="c" unicode="c" horiz-adv-x="307" 
d="M307 80l-9.99902 12.999l-43 -34l-86 39v304l83 -46l50 73l-116 64c-52 -49.333 -103.333 -81.666 -154 -96.999v-13c17.333 -2 28.166 -6.16699 32.499 -12.5s6.5 -18.5 6.5 -36.5v-204c0 -37.333 -9.33301 -62.333 -28 -75v-13
c54.667 -5.33301 104.667 -23.333 150 -54z" />
    <glyph glyph-name="d" unicode="d" horiz-adv-x="422" 
d="M38 552l125.001 -95.001c-26 -20 -58 -33.333 -96 -40v-255c0 -44.667 -9.66699 -74.667 -29 -90v-12c30 -3.33301 56.333 -8.66602 79 -15.999c35.333 -12 71.666 -30.667 108.999 -56c41.333 30 90.333 56.667 147 80v327c0 32.667 7.33301 56.667 22 72l-5 16
c-20 -7.33301 -36.667 -20.333 -50 -39l-302 223v-115zM169.001 119.999v294c6 4 10.667 7.33301 14 10s7 6 11 10l81 -60v-304z" />
    <glyph glyph-name="e" unicode="e" horiz-adv-x="356" 
d="M336 86l-9.99902 13.998l-71 -50c-22 12 -51 27 -87 45v92l181 150l-122 156c-25.333 -15.333 -54 -31.166 -86 -47.499s-68 -33.166 -108 -50.499l4 -11c22 0 33 -12.667 33 -38v-206v-11c-1.33301 -35.333 -12.333 -58 -33 -68v-11
c45.333 -8 96.666 -28.667 153.999 -62zM168.001 219.998v214l102 -131z" />
    <glyph glyph-name="f" unicode="f" horiz-adv-x="249" 
d="M264 72l-13.999 13l-31 -25l-12 10l-12 10l-26 19v322h66v53h-66v123l84 -22l16 78l-97 23c-18 -15.333 -35.5 -29.5 -52.5 -42.5l-48.5 -35.5v-124h-39v-53h39v-271v-10c-0.666992 -34 -11.334 -56.667 -32.001 -68v-12c42 -13.333 82 -37.333 120 -72z" />
    <glyph glyph-name="g" unicode="g" horiz-adv-x="427" 
d="M36 -121l9.00195 -10.001c61.333 13.333 109.666 20 144.999 20c28.667 0 63 -8 103 -24c12.667 5.33301 23.5 10.166 32.5 14.499s16.833 7.83301 23.5 10.5c50 24.667 75 50.334 75 77.001c0.666992 12.667 -3.16602 25.834 -11.499 39.501l-27 43.5
c-9.66699 15.333 -18.334 31.5 -26.001 48.5s-10.834 35.167 -9.50098 54.5v230c36 -10.667 61.667 -17.667 77 -21v105l-78 -42l-139 67c-52 -33.333 -107 -53.333 -165 -60v-341l106 -77zM123.002 -47.001l129.998 153c2.66699 -32 15.334 -64.333 38.001 -97
c20.667 -28.667 45.667 -53 75 -73l-17 -10c-47.333 24 -91.666 36 -132.999 36c-27.333 0 -58.333 -3 -93 -9zM142 122.999v302l111 -41v-248l-50 -59z" />
    <glyph glyph-name="h" unicode="h" horiz-adv-x="413" 
d="M108 -13l87.999 66l-32 36v268l76 60c21.333 -16 32 -41.667 32 -77v-241c0 -56 -9.33301 -98.333 -28 -127c-19.333 -30 -53.666 -56.667 -102.999 -80l-24 -10.5l-17 -7.5l6 -18c88.667 35.333 149.334 65.333 182.001 90c33.333 23.333 56.666 52 69.999 86
c10.667 28 16 65.667 16 113v198c0 28 -2 50.667 -6 68c-5.33301 24 -19.333 45.333 -42 64l-22 18l-140 -113v178c0 44.667 15 77.667 45 99c8 5.33301 13 9 15 11l-6 11c-50 -8.66699 -88.667 -28.667 -116 -60c-26 24 -50.333 41 -73 51l-8 -14
c28.667 -22.667 43 -55.667 43 -99v-468l-40 -33z" />
    <glyph glyph-name="i" unicode="i" horiz-adv-x="244" 
d="M237 69l-12.001 17l-30 -25l-28 25v309l34 31l-83 68l-83 -65l35 -30v-256c0 -36 -10.667 -57.667 -32 -65v-10c14.667 -8.66699 29.834 -19.667 45.501 -33s32.167 -29 49.5 -47zM126.999 580l24 -2l83 113l-83 3z" />
    <glyph glyph-name="j" unicode="j" horiz-adv-x="226" 
d="M10 414l11 -14.9971l33 23l36 -36c-17.333 -50 -26 -97 -26 -141c0 -14 1.33301 -32.167 4 -54.5s6.66699 -48.833 12 -79.5c10 -57.333 15 -94.333 15 -111c0 -51.333 -24.667 -94 -74 -128l6 -15c50 26 86.333 52.333 109 79c29.333 34.667 44 75.667 44 123
c0 11.333 -0.833008 25.166 -2.5 41.499s-4.16699 35.5 -7.5 57.5s-5.83301 41.167 -7.5 57.5s-2.5 30.166 -2.5 41.499c0 55.333 16.667 105.666 50 150.999c-32 20 -63.333 48.333 -94 85zM125 581.003l25 -3l80 115h-85z" />
    <glyph glyph-name="k" unicode="k" horiz-adv-x="420" 
d="M427 72l-10.002 15.001l-27 -22c-9.33301 11.333 -15.333 22.666 -18 33.999c-5.33301 23.333 -9.83301 43.833 -13.5 61.5l-9.5 44.5c-4.66699 14.667 -13.667 30 -27 46c-7.33301 8.66699 -19.666 22 -36.999 40l-2 2c-2 0 -3.33301 1.33301 -4 4l107 97l-94 100
l-127 -123v183c0 42.667 8 72 24 88c14 10.667 24 18.667 30 24l-3 13c-50.667 -10.667 -90.667 -31.334 -120 -62.001c-19.333 21.333 -44.666 37 -75.999 47l-6 -13c19.333 -12.667 32.666 -28.667 39.999 -48c6 -15.333 9 -36.333 9 -63v-396
c0 -20 -1.33301 -33.667 -4 -41c-4 -14 -13.333 -23.333 -28 -28v-15c48 -14 87.667 -38 119 -72l127 103c6.66699 -43.333 21.334 -77.666 44.001 -102.999zM164.998 100.001v94.001l42 37c34.667 -24.667 57 -63.334 67 -116.001l-60 -50zM164.998 220.002v125l74 71
l66 -71z" />
    <glyph glyph-name="l" unicode="l" horiz-adv-x="227" 
d="M246 65l-14 16.001l-21 -16l-49 34v441c0 28 1.33301 47.333 4 58c5.33301 20.667 15 37 29 49c4.66699 3.33301 8.5 6.5 11.5 9.5l7.5 7.5l-5 15c-46.667 -12 -83.667 -33.333 -111 -64c-20 18.667 -46 35 -78 49l-5 -16c20.667 -10.667 34.667 -26 42 -46
c4.66699 -12 7 -33.333 7 -64v-393c0 -36.667 -11.333 -60.334 -34 -71.001v-16c46.667 -12 87 -35.333 121 -70z" />
    <glyph glyph-name="m" unicode="m" horiz-adv-x="651" 
d="M8 413l11.998 -18.999c2.66699 1.33301 4.66699 2.5 6 3.5s2.66602 1.83301 3.99902 2.5h1c6.66699 4.66699 12.334 7 17.001 7c12.667 -0.666992 20 -11.334 22 -32.001v-281l-35 -36l87 -70l81 67l-36 36v267l69 58l8 -8c0.666992 -0.666992 3 -3.66699 7 -9
c16.667 -20.667 25 -42 25 -64v-244l-32 -36l84 -67l82 67l-36 36v267l72 62l36 -40v-249c0 -52.667 9.33301 -90.334 28 -113.001l36 -30l96 79l-12 15c-11.333 -9.33301 -20.666 -14 -27.999 -14c-14 0.666992 -21 13.334 -21 38.001v231c0 38.667 11.667 69.667 35 93
l11 11l-13 14l-39 -38l-70 77l-133 -115c-3.33301 43.333 -26.666 81.666 -69.999 114.999l-135 -115c0 20.667 -1.66699 38.334 -5 53.001c-5.33301 20 -22 40.667 -50 62z" />
    <glyph glyph-name="n" unicode="n" horiz-adv-x="444" 
d="M12 419l12 -15.998c9.33301 6.66699 17.666 10 24.999 10c14 0 21.333 -11.333 22 -34v-3v-16c-0.666992 -0.666992 -1 -2 -1 -4v-260l-39 -36l85 -72l86 70l-34 36v274l69 57l39 -40v-251c0 -50 8.33301 -86.667 25 -110c7.33301 -8.66699 13.833 -16 19.5 -22
s10.834 -10.667 15.501 -14l105 84l-12 19l-8 -6v-1c-9.33301 -7.33301 -17 -11 -23 -11c-16 0 -24 16 -24 48v199c0 43.333 6.33301 74.666 19 93.999c6.66699 8.66699 12.667 16 18 22s10 11 14 15l-14 16l-47 -45l-72 72l-124 -103c0 23.333 -4.66699 42.666 -14 57.999
c-6.66699 10.667 -21 25.667 -43 45z" />
    <glyph glyph-name="o" unicode="o" horiz-adv-x="389" 
d="M349 66l-0.000976562 355c-57.333 15.333 -110 39.333 -158 72c-42 -38 -89 -65 -141 -81v-228c0 -10 -0.333008 -21 -1 -33s-1.66699 -25.333 -3 -40c-1.33301 -13.333 -9.33301 -25.333 -24 -36v-13c62.667 -5.33301 123.334 -30 182.001 -74
c9.33301 7.33301 20 14.5 32 21.5l38 21.5c7.33301 4 17.333 9 30 15s27.667 12.667 45 20zM146.999 416l104 -45v-303l-104 45v303z" />
    <glyph glyph-name="p" unicode="p" horiz-adv-x="419" 
d="M10 100l0.00195312 -35c25.333 -2.66699 45 -4.66699 59 -6v-61c0 -40 -6.33301 -68.333 -19 -85c-7.33301 -9.33301 -16.333 -18.333 -27 -27l4 -12c4 2 7.33301 3 10 3c31.333 12.667 55 27 71 43c34 -30.667 69.333 -51.334 106 -62.001l9 18
c-36 16.667 -54 51 -54 103v48c26.667 -9.33301 50.667 -22.333 72 -39c29.333 30.667 75.333 62.334 138 95.001v244c0 54.667 -16.667 97.667 -50 129l-28 22.5l-20 15.5l-112 -107c-0.666992 36.667 -13 65.667 -37 87l-13.5 11.5
c-3.66699 3 -6.83398 5.83301 -9.50098 8.5l-96 -77l10 -14l2 2h1c5.33301 4.66699 11 7 17 7c13.333 0 21.666 -12 24.999 -36c0.666992 -2 1 -5.33301 1 -10v-258c-16 -2.66699 -29 -4.5 -39 -5.5s-16.667 -1.83301 -20 -2.5zM169.002 108l-0.00195312 249.001l59 55
c22 -14.667 35.667 -27 41 -37c6.66699 -10.667 10 -29 10 -55v-249c-15.333 8.66699 -32.166 16.167 -50.499 22.5s-38.166 11.166 -59.499 14.499z" />
    <glyph glyph-name="q" unicode="q" horiz-adv-x="407" 
d="M252 91v-90c0 -29.333 -2 -52.333 -6 -69c-5.33301 -20.667 -23.666 -40.334 -54.999 -59.001l3 -15c53.333 10 92.666 29.667 117.999 59c29.333 -22.667 56 -37.334 80 -44.001l7 14c-23.333 22.667 -37.333 39.667 -42 51c-4 10.667 -6 32.334 -6 65.001v346
c0 6 0.333008 10.667 1 14c2 12.667 11 24 27 34v14c-60.667 5.33301 -123.334 32.333 -188.001 81c-33.333 -29.333 -73.333 -53.666 -120 -72.999c-13.333 -5.33301 -22.666 -8.33301 -27.999 -9v-267c0 -56 9.33301 -93.667 28 -113
c22.667 -19.333 40.667 -33.333 54 -42zM252 356v-240l-65 -54c-14 10.667 -23 18.667 -27 24c-10.667 12.667 -16 36.667 -16 72v251z" />
    <glyph glyph-name="r" unicode="r" horiz-adv-x="327" 
d="M5 409l11.999 -14l29 24l10 -10c9.33301 -11.333 14 -30.333 14 -57v-202c0 -40 -11.333 -66.333 -34 -79v-12c40.667 -8 81.334 -31.667 122.001 -71l121 97l-14 16l-46 -36l-49 36v281l40 35l59 -73l68 63l-72 89l-91 -83c-12.667 34.667 -36 61.667 -70 81z" />
    <glyph glyph-name="s" unicode="s" horiz-adv-x="403" 
d="M10 -1l13.002 -11c31.333 24.667 64.666 37 99.999 37c33.333 0 70.333 -12.333 111 -37c42.667 36.667 88.667 62.334 138 77.001v195l-102 59l84 116c25.333 35.333 39.666 63 42.999 83v9c0 28 -12 42 -36 42c-19.333 0 -29 -9.66699 -29 -29
c0 -10.667 3.66699 -19.667 11 -27c0 -0.666992 0.333008 -1 1 -1c6.66699 -6.66699 10 -14.334 10 -23.001c0 -10.667 -6 -19 -18 -25c-8.66699 -4.66699 -19 -7 -31 -7c-38.667 0 -82 12 -130 36c-29.333 -29.333 -48.333 -47.333 -57 -54
c-18 -12.667 -42.667 -23.667 -74 -33v-177l93 -51zM271.002 207v-135.999c-34 18.667 -61.667 28.334 -83 29.001c-1.33301 0.666992 -3.33301 1 -6 1h-6h-13c-3.33301 -0.666992 -6 -1 -8 -1h-5c-3.33301 -0.666992 -6.33301 -1.33398 -9 -2.00098
s-5.66699 -1.33398 -9 -2.00098l-25 -7l106 150zM142.002 282.001v133c18 -11.333 39.333 -20.333 64 -27c6.66699 -1.33301 13.167 -2.5 19.5 -3.5s13.166 -1.5 20.499 -1.5h11c10.667 0 20.334 1.33301 29.001 4l-95 -133z" />
    <glyph glyph-name="t" unicode="t" horiz-adv-x="245" 
d="M27 436l-0.000976562 -16.002h43v-273c0 -37.333 -10.667 -62.666 -32 -75.999v-14c46.667 -12 85.667 -35 117 -69l106 87l-14 17l-31 -26l-16 12l-19 13.5c-5.33301 3.66699 -9.66602 6.83398 -12.999 9.50098v319h84v54h-84v149z" />
    <glyph glyph-name="u" unicode="u" horiz-adv-x="449" 
d="M16 404l13.002 -15.9971l20 16l21 -16v-264c0 -24.667 -9.33301 -40.334 -28 -47.001v-14c31.333 -12.667 67.666 -37.667 108.999 -75l131 118c0 -24.667 3 -44.334 9 -59.001c8.66699 -22.667 26 -42.334 52 -59.001l100 76l-15 16
c-6.66699 -6.66699 -14.334 -10 -23.001 -10c-17.333 0 -26 15 -26 45v277l33 29l-84 73l-81 -73l35 -29v-259l-70 -64l-44 35v288l33 29l-83 73z" />
    <glyph glyph-name="v" unicode="v" horiz-adv-x="415" 
d="M169 385v-0.998047c-1.33301 25.333 -15 54 -41 86l-22.5 28.5c-5.66699 7 -9.16699 11.833 -10.5 14.5c-6 10.667 -8.66699 20 -8 28c1.33301 17.333 13.666 36 36.999 56c5.33301 4 9 7 11 9l-10 13l-31 -22l-31 -22c-26.667 -22.667 -40 -51.667 -40 -87
c0 -18 5.33301 -36.333 16 -55l8 -12c15.333 -29.333 23 -59.333 23 -90v-193c0 -34 -10 -54.333 -30 -61v-12c60.667 -0.666992 121.334 -26.334 182.001 -77.001c40.667 38.667 91.667 67 153 85v240c0 17.333 -0.166992 31.666 -0.5 42.999s-0.833008 20 -1.5 26
c-3.33301 24.667 -11.333 45.667 -24 63l-29.5 29l-21.5 20zM169 115.002v246.999l69 57c17.333 -16 28.333 -31.333 33 -46c4 -11.333 6 -30.666 6 -57.999v-248c-35.333 16.667 -71.333 32.667 -108 48z" />
    <glyph glyph-name="w" unicode="w" horiz-adv-x="621" 
d="M167 384l-0.00292969 -1.00098c-0.666992 28 -14.667 57.667 -42 89c-4.66699 4.66699 -8.66699 8.83398 -12 12.501s-6.33301 6.83398 -9 9.50098c-14.667 17.333 -22 33 -22 47c0 18 12.667 38 38 60c0.666992 0.666992 1.33398 1.16699 2.00098 1.5
s1.33398 0.833008 2.00098 1.5l3 3l-9 14c-19.333 -12.667 -34.666 -23.167 -45.999 -31.5s-19 -14.166 -23 -17.499c-23.333 -22 -35 -46.667 -35 -74c0 -22.667 7.33301 -44.334 22 -65.001c22.667 -22.667 34 -55.667 34 -99v-209
c0 -22.667 -7.33301 -38.334 -22 -47.001c-5.33301 -3.33301 -10.666 -5.66602 -15.999 -6.99902v-11c68.667 -4 127.667 -28 177 -72c29.333 31.333 61 47 95 47c37.333 0 79.666 -15.667 126.999 -47c33.333 32 83.333 59.333 150 82v258c0 32 -2.33301 57 -7 75
c-6 24 -22 47.667 -48 71l-24 20l-132 -112c-4.66699 47.333 -30 84.666 -76 111.999zM166.997 107.999l0.000976562 251.999l68 58c17.333 -13.333 28.666 -26.666 33.999 -39.999c4 -11.333 6 -29 6 -53v-261zM372.998 113.998v246.999l69 57c5.33301 -4 9 -7 11 -9l8 -9
c14 -17.333 21 -43.666 21 -78.999v-251z" />
    <glyph glyph-name="x" unicode="x" horiz-adv-x="409" 
d="M-2 39l88 -50.9951l96 204l2 -4c0.666992 -0.666992 1.16699 -1.33398 1.5 -2.00098s0.833008 -1.33398 1.5 -2.00098c0.666992 -3.33301 2 -6 4 -8l45 -93c21.333 -44.667 49.333 -76.334 84 -95.001l99 80l-14 17c-1.33301 -1.33301 -2.33301 -2 -3 -2
c-16 -7.33301 -25.667 -11 -29 -11c-14.667 0 -34 21.667 -58 65c-14 25.333 -27.5 52.166 -40.5 80.499s-25.833 58.5 -38.5 90.5l43 92l77 -41l43 84l-101 51l-74 -160c-12.667 30.667 -30 60.667 -52 90c-25.333 33.333 -50 56.666 -74 69.999l-100 -89l11 -16
c6.66699 6.66699 14 12 22 16c5.33301 1.33301 9 2 11 2c6 0 12 -2 18 -6c14 -9.33301 28.667 -26 44 -50c30.667 -59.333 52.667 -103.333 66 -132l-62 -133l-74 38z" />
    <glyph glyph-name="y" unicode="y" horiz-adv-x="382" 
d="M4 409l13 -15l2 2l1 1c0.666992 0 1.33398 0.333008 2.00098 1c10 8 18.333 12 25 12c14.667 0 22.667 -12 24 -36v-3v-16c-0.666992 -0.666992 -1 -2 -1 -4v-245c0 -31.333 -10.667 -62.666 -32 -93.999s-32 -56.333 -32 -75c0 -27.333 10 -48 30 -62
c16.667 -12.667 39.667 -19 69 -19c16 0 34.667 2 56 6c44.667 8.66699 67 23 67 43c0 14 -6.66699 21 -20 21c-11.333 0 -25.333 -8.33301 -42 -25c-19.333 -16 -40.333 -24 -63 -24c-20 0 -37 5.16699 -51 15.5s-21 24.833 -21 43.5c0 18 6.66699 33.667 20 47
c17.333 13.333 32.666 24.333 45.999 33s24.666 15.667 33.999 21c38.667 23.333 71.334 44.333 98.001 63s47.667 35.667 63 51c53.333 52 80 109.667 80 173v9c0 3.33301 -0.333008 6 -1 8c-4 33.333 -10 60 -18 80c-10.667 24.667 -26 47.667 -46 69l-137 -110
c0 44.667 -15.333 78 -46 100c-5.33301 3.33301 -9.33301 6.16602 -12 8.49902s-4.66699 3.83301 -6 4.5zM169 355l68 53.001c25.333 -36.667 38 -77.334 38 -122.001v-6v-6c-2.66699 -36 -13.5 -71.167 -32.5 -105.5s-43.5 -61.5 -73.5 -81.5v268z" />
    <glyph glyph-name="z" unicode="z" horiz-adv-x="277" 
d="M0 402l13.002 -16.001l49 35l90 -73l-139 -147l12 -12c25.333 13.333 46.666 20 63.999 20c22 0 39.333 -7.66699 52 -23s19 -34.333 19 -57c0 -31.333 -19.667 -65.666 -59 -102.999c-3.33301 -1.33301 -5.33301 -3.33301 -6 -6
c-35.333 -31.333 -53 -60.666 -53 -87.999c0 -19.333 7.5 -35.5 22.5 -48.5s32.167 -19.5 51.5 -19.5h5c2 0 3.33301 0.333008 4 1c16 2 24 9.33301 24 22c0 6 -4.66699 10 -14 12h-4c-4 0 -9.5 -1 -16.5 -3s-12.5 -3 -16.5 -3c-20 0 -31 12 -33 36v3
c1.33301 13.333 7 24.666 17 33.999c14.667 13.333 40 30.333 76 51s61.333 38.667 76 54c22 24 33 53.333 33 88c0 18.667 -3.5 35.667 -10.5 51s-16.833 28.333 -29.5 39s-27.334 19 -44.001 25s-34.334 9 -53.001 9c-2 -0.666992 -4.33301 -1 -7 -1
c-2.66699 -0.666992 -5 -0.666992 -7 0l127 134l-8 10c-1.33301 -0.666992 -3.33301 -1 -6 -1c-2 -1.33301 -4 -1.33301 -6 0l-1 -1c-9.33301 0 -24.666 7.66699 -45.999 23c-17.333 12 -35.333 27.333 -54 46z" />
    <glyph glyph-name="braceleft" unicode="{" 
d="M227 244v-1.00098c22 13.333 37 29.666 45 48.999c6.66699 15.333 10 38 10 68v133c0 34.667 7.33301 58.334 22 71.001c13.333 10.667 38 16.334 74 17.001v97l-18 -1l-87 -3c-32.667 -4 -57.334 -19.333 -74.001 -46c-14.667 -22.667 -22 -51.667 -22 -87v-165
c0 -50 -19 -79.333 -57 -88v-84c38 -11.333 57 -42.333 57 -93v-151c0 -61.333 15.667 -102.666 47 -123.999c24 -16 69 -24 135 -24h10c0.666992 0.666992 2.33398 1 5.00098 1h4v91c-38 1.33301 -63.333 7.66602 -76 18.999c-13.333 11.333 -20 35.333 -20 72v130
c0 57.333 -18.333 97 -55 119z" />
    <glyph glyph-name="bar" unicode="|" 
d="M197 666v-832h107v832h-107z" />
    <glyph glyph-name="braceright" unicode="}" 
d="M274 246l0.00195312 -1.00098c-22.667 -12.667 -38 -28.667 -46 -48c-6.66699 -15.333 -10 -37.666 -10 -66.999v-133c0 -35.333 -7 -58.333 -21 -69c-14 -11.333 -39 -17.333 -75 -18v-96c2 -0.666992 5.33301 -1 10 -1h52l31.5 3c7 0.666992 10.833 1 11.5 1
c62 5.33301 94 48.666 96 129.999v1v164c0 48.667 19 78.667 57 90v82c-38 10.667 -57 42.334 -57 95.001v151c0 64 -15 106 -45 126c-22.667 14.667 -68.334 22 -137.001 22h-9c-2 0 -3.83301 -0.166992 -5.5 -0.5s-3.16699 -0.166016 -4.5 0.500977v-92
c18.667 0 34.167 -1.33301 46.5 -4s22.166 -7.33398 29.499 -14.001s12.5 -15.667 15.5 -27s4.5 -26 4.5 -44v-134c0 -58 18.667 -97 56 -117z" />
    <glyph glyph-name="asciitilde" unicode="~" horiz-adv-x="667" 
d="M148 569l-0.000976562 -1c26.667 46.667 56 69.667 88 69c16 0 32.333 -3.66699 49 -11l70 -35c27.333 -12.667 52 -19 74 -19c63.333 0 112 40.333 146 121l-55 43l-2 -4c-22 -43.333 -49.667 -65 -83 -65c-21.333 0 -53.333 11 -96 33
c-41.333 22.667 -74.666 34 -99.999 34c-62 0 -110.333 -40.333 -145 -121z" />
    <glyph glyph-name="exclamdown" unicode="&#xa1;" horiz-adv-x="319" 
d="M104 -144c49.333 0 90.667 10 124 30c39.333 25.333 59 61.333 59 108c0 25.333 -7.66699 49.666 -23 72.999c0 0.666992 -16.667 21.334 -50 62.001c-42 51.333 -65.667 111.666 -71 180.999l-19 -1c0 -1.33301 -0.333008 -2.66602 -1 -3.99902v-4v-8
c0 -46 10.333 -97 31 -153c21.333 -58 32 -97.333 32 -118c0 -9.33301 -2.16699 -18.333 -6.5 -27s-10 -16.167 -17 -22.5s-15 -11.5 -24 -15.5s-18.5 -6 -28.5 -6c-19.333 0 -41.333 11.333 -66 34l-11 -8zM131.001 346l71 71l-71 71l-70 -71z" />
    <glyph glyph-name="cent" unicode="&#xa2;" horiz-adv-x="386" 
d="M226 463l80.998 -43l66 77l-141 77c-2 -2 -4 -3 -6 -3l3 86l-34 -21l4 -86l-2 -3c-104.667 -82 -157 -172 -157 -270c0 -102.667 53 -175 159 -217v-61c0 -6 -0.166992 -12 -0.5 -18s-0.833008 -12.333 -1.5 -19l32 20l-3 71l18 -3l80 89
c-5.33301 -0.666992 -10.666 -1.16699 -15.999 -1.5s-10.666 -0.5 -15.999 -0.5c-22.667 0 -44.667 7.33301 -66 22v304zM198.998 478v-301.999c-45.333 31.333 -68 75.666 -68 132.999c0 50.667 11.667 100 35 148l15 30z" />
    <glyph glyph-name="sterling" unicode="&#xa3;" horiz-adv-x="548" 
d="M144 525l0.000976562 -0.999023c-10.667 -30 -16 -58.333 -16 -85c0 -25.333 5.33301 -56 16 -92h-117l-28 -82l174 -1c19.333 -48.667 29 -99 29 -151v-6c-0.666992 -0.666992 -1 -1.33398 -1 -2.00098v-4c-80 -26 -149 -58 -207 -96l9 -17
c25.333 11.333 51.166 21 77.499 29s53.5 13.667 81.5 17c12.667 1.33301 25.334 2.5 38.001 3.5s25.667 1.5 39 1.5c83.333 0 170.666 -17 261.999 -51l53 103c-35.333 14.667 -70.333 25.334 -105 32.001c-11.333 2.66699 -23 4.5 -35 5.5s-23.667 1.5 -35 1.5
c-48 0 -97 -6.33301 -147 -19c36 48.667 54 100 54 154h136l31 82l-180 -1c-16 38 -24 74.333 -24 109c0 33.333 12.333 69.666 37 108.999l188 -114l73 86l-170 104z" />
    <glyph glyph-name="currency" unicode="&#xa4;" horiz-adv-x="698" 
d="M58 108l56 -56.001l96 95c51.333 -31.333 97.333 -47 138 -47c51.333 0 98.666 16 141.999 48l96 -96l55 56l-96 95c29.333 49.333 44 94.666 44 135.999c0 44.667 -15.333 91.334 -46 140.001l96 95l-56 56l-98 -98l-6 4c-2.66699 1.33301 -5 2.33301 -7 3
c-45.333 25.333 -85.333 38 -120 38c-26.667 0 -51 -4.33301 -73 -13c-5.33301 -2 -13.666 -5.5 -24.999 -10.5s-25.333 -11.833 -42 -20.5l-99 98l-56 -56l98 -98c-30.667 -49.333 -46 -95 -46 -137c0 -47.333 14.667 -92.666 44 -135.999zM349 487.999l0.00195312 -1
c39.333 0 73.666 -14.667 102.999 -44c28.667 -28.667 43 -63 43 -103c0 -40.667 -14.333 -75.334 -43 -104.001s-63 -43 -103 -43s-74.333 14.333 -103 43s-43 63.334 -43 104.001c0 40 14.333 74.333 43 103c29.333 29.333 63.666 44.333 102.999 45z" />
    <glyph glyph-name="yen" unicode="&#xa5;" horiz-adv-x="608" 
d="M247 0h110v240h198v45h-185l69 114h145v44h-120l133 224h-118l-176 -316l-176 314h-117l132 -222h-119v-44h144l68 -114h-176v-45h188v-240z" />
    <glyph glyph-name="brokenbar" unicode="&#xa6;" horiz-adv-x="252" 
d="M96 675v-350h60v350h-60zM96 -175h60v350h-60v-350z" />
    <glyph glyph-name="section" unicode="&#xa7;" horiz-adv-x="575" 
d="M487 486l0.000976562 -0.999023c-2 54 -19.667 96.167 -53 126.5s-77.333 45.5 -132 45.5c-46.667 0 -87.334 -11.333 -122.001 -34c-39.333 -26 -59 -61.333 -59 -106c0 -35.333 15 -66.333 45 -93c-66.667 -24.667 -100 -68.334 -100 -131.001
c0 -40.667 18.333 -76.334 55 -107.001c10.667 -8.66699 25 -18.167 43 -28.5s40.333 -21.833 67 -34.5l36 -17c19.333 -9.33301 36 -17.833 50 -25.5s24.667 -14.167 32 -19.5c31.333 -23.333 47 -48 47 -74c0 -41.333 -26.667 -66 -80 -74
c-0.666992 -0.666992 -2.66699 -1 -6 -1h-8c-66.667 0 -103.334 36.333 -110.001 109l-83 -1c0 -58.667 17.333 -103.5 52 -134.5s82 -46.5 142 -46.5h10c46 0 85.667 13.333 119 40c37.333 29.333 56 66 56 110c0 36.667 -17.333 70.334 -52 101.001
c30 9.33301 54.333 25.666 73 48.999s28 50 28 80c0 40.667 -18.333 76.334 -55 107.001c-11.333 9.33301 -25.833 19.333 -43.5 30s-39.167 22.334 -64.5 35.001c-13.333 6.66699 -24.833 12.167 -34.5 16.5s-17.834 8.16602 -24.501 11.499
c-15.333 7.33301 -28.5 14.166 -39.5 20.499s-19.5 11.833 -25.5 16.5c-25.333 19.333 -38 39 -38 59c0 38.667 26.333 62.334 79 71.001c1.33301 0.666992 3.33301 1 6 1h6c30.667 0 54.834 -9.16699 72.501 -27.5s26.834 -42.833 27.501 -73.5h84zM215.001 381.001
l-0.000976562 -1c6.66699 -2 13.5 -4.5 20.5 -7.5l21.5 -9.5l4 -2c26.667 -12.667 52.167 -26.167 76.5 -40.5s47.833 -29.166 70.5 -44.499h2l1 -2c29.333 -22 44 -44.333 44 -67c0 -17.333 -6.33301 -32.833 -19 -46.5s-28 -22.834 -46 -27.501
c-1.33301 -1.33301 -3 -2 -5 -2c-20.667 9.33301 -39 18.166 -55 26.499s-29.667 15.833 -41 22.5c-53.333 30.667 -86.333 50.667 -99 60c-9.33301 8 -18.666 16.667 -27.999 26s-14 21 -14 35c0 40.667 22.333 67.334 67 80.001z" />
    <glyph glyph-name="dieresis" unicode="&#xa8;" 
d="M95 632l63 -63l62 63l-62 63zM280 632l63 -63l62 63l-62 63z" />
    <glyph glyph-name="copyright" unicode="&#xa9;" horiz-adv-x="777" 
d="M389 679l-0.000976562 -1c-96 0 -177.667 -33.667 -245 -101s-101 -148.666 -101 -243.999s33.667 -176.666 101 -243.999c66.667 -66.667 148.334 -100 245.001 -100c95.333 0 176.333 33.333 243 100c67.333 67.333 101 148.666 101 243.999
s-33.667 176.666 -101 243.999c-67.333 66.667 -148.333 100.667 -243 102zM388.999 631v-1c81.333 0 150 -29.333 206 -88c56.667 -57.333 85 -127 85 -209c0 -81.333 -28.333 -151.333 -85 -210c-56 -58 -124.667 -87 -206 -87c-82 0 -151.333 29 -208 87
c-56.667 58.667 -85 128.667 -85 210c0 82 28.333 151.667 85 209c56.667 58 126 87.667 208 89zM570.999 296l-53.002 -0.999023c-4.66699 -34 -18.5 -60.167 -41.5 -78.5s-51.833 -27.5 -86.5 -27.5c-38.667 0 -69.667 14.667 -93 44c-20.667 26.667 -31 60 -31 100
c0 41.333 10.333 75.333 31 102c22.667 30.667 53.667 46 93 46c30 0 56.333 -7 79 -21s37.334 -34.333 44.001 -61l52 -1c-4 42.667 -23 76.667 -57 102c-33.333 25.333 -72.333 38 -117 38c-57.333 0 -103.666 -19.667 -138.999 -59c-34.667 -38.667 -52 -87.667 -52 -147
c0 -57.333 17.333 -105.333 52 -144c34.667 -38 80.667 -57 138 -57c24.667 0 47.667 4 69 12s40 19.167 56 33.5s28.833 31.666 38.5 51.999s15.5 42.833 17.5 67.5z" />
    <glyph glyph-name="ordfeminine" unicode="&#xaa;" horiz-adv-x="348" 
d="M328 342h-299v-49h299v49zM284 431l-5.99902 6.99902c-0.666992 -0.666992 -1.33398 -1 -2.00098 -1l-3 -2c-4 -4 -8 -5.33301 -12 -4l-1 -1c-8 0.666992 -13 8.33398 -15 23.001v124c0 24 1.66699 41.667 5 53c1.33301 5.33301 3.5 11 6.5 17l9.5 20l-8 4
c-8.66699 -8.66699 -17.667 -13 -27 -13c-19.333 0 -43 7 -71 21l-6 3l-4 2c-20.667 -16.667 -45 -25 -73 -25h-6c-1.33301 0 -3.33301 0.666992 -6 2l51 -93l-19 -25.5l-19 -25.5c-12.667 -20.667 -18.667 -41 -18 -61c0.666992 -28.667 16 -53.667 46 -75l79 64
c2 -19.333 9.33301 -36.333 22 -51l7 -6c2 -2.66699 4.33301 -5 7 -7zM185.001 532.999v-73.001l-38 -32c-24.667 22.667 -37 44.334 -37 65.001c0 24.667 4.33301 47 13 67zM185.001 615.998v-71l-57 24l-44 81z" />
    <glyph glyph-name="guillemotleft" unicode="&#xab;" horiz-adv-x="441" 
d="M229 115l-123 173l127 155l-28 25l-172 -215l139 -195zM384 115l-123 173l127 155l-28 25l-172 -215l139 -195z" />
    <glyph glyph-name="logicalnot" unicode="&#xac;" 
d="M362 0h104v283h-433v-94h329v-189z" />
    <glyph glyph-name="registered" unicode="&#xae;" horiz-adv-x="777" 
d="M389 679v-1c-96 0 -177.667 -33.667 -245 -101s-101 -148.666 -101 -243.999s33.667 -176.666 101 -243.999c67.333 -66.667 149 -100 245 -100c95.333 0 176.333 33.333 243 100c67.333 67.333 101 148.666 101 243.999s-33.667 176.666 -101 243.999
c-67.333 66.667 -148.333 100.667 -243 102zM389 631v-1c81.333 0 150 -29.333 206 -88c56.667 -57.333 85 -127 85 -209c0 -81.333 -28.333 -151.333 -85 -210c-56 -58 -124.667 -87 -206 -87c-82 0 -151.333 29 -208 87c-56.667 58.667 -85 128.667 -85 210
c0 82 28.333 151.667 85 209c56.667 58 126 87.667 208 89zM241 528l-0.000976562 -390h66v167l76 -1c43.333 -1.33301 69.333 -10 78 -26c11.333 -24 17 -55.667 17 -95v-9c0 -14.667 2.66699 -26.667 8 -36l64 -1c-3.33301 7.33301 -6.16602 16.833 -8.49902 28.5
s-3.83301 25.5 -4.5 41.5c-0.666992 16.667 -1.5 30.5 -2.5 41.5s-2.83301 19.833 -5.5 26.5c-8 22.667 -25.667 39 -53 49c46 20 69 53 69 99c0 36.667 -12.667 62.667 -38 78c-21.333 12.667 -49.333 21 -84 25c-3.33301 0.666992 -6.5 1.16699 -9.5 1.5
s-5.5 0.5 -7.5 0.5h-165zM306.999 486l87 -1.00098c57.333 -1.33301 86 -23.666 86 -66.999c0 -48.667 -31 -73 -93 -73h-80v141z" />
    <glyph glyph-name="macron" unicode="&#xaf;" 
d="M395 645h-291v-47h291v47z" />
    <glyph glyph-name="degree" unicode="&#xb0;" 
d="M397 518l-0.000976562 -1c0 40.667 -14.667 75.667 -44 105s-64 44 -104 44c-42.667 0 -78 -15 -106 -45c-27.333 -29.333 -41 -65.333 -41 -108c0 -38 14.667 -71.667 44 -101c28.667 -28 63 -42 103 -42c40.667 0 75.334 14.333 104.001 43
c29.333 29.333 44 64.333 44 105zM350.999 518v-1.00195c0 -14 -2.66699 -27.167 -8 -39.5s-12.833 -23.166 -22.5 -32.499s-20.667 -16.666 -33 -21.999s-25.5 -8 -39.5 -8c-26.667 0 -50 10 -70 30s-30 43.333 -30 70c0 14 2.66699 27.5 8 40.5s12.5 24.167 21.5 33.5
s19.667 16.833 32 22.5s25.5 8.5 39.5 8.5c27.333 0 51 -10.333 71 -31c20.667 -20 31 -43.667 31 -71z" />
    <glyph glyph-name="plusminus" unicode="&#xb1;" 
d="M18 96v-53h464v53h-464zM18 384v-54h204v-190h55v190h205v54h-205v195h-55v-195h-204z" />
    <glyph glyph-name="acute" unicode="&#xb4;" 
d="M154 573l157 33l35 87h-87z" />
    <glyph glyph-name="mu" unicode="&#xb5;" horiz-adv-x="554" 
d="M60 -167h97.999v223c26.667 -44 65.334 -66 116.001 -66c56.667 0 97 30.667 121 92v-82h98v479h-98v-257c0 -42 -9.33301 -77.333 -28 -106c-22 -34 -52.667 -51 -92 -51c-78 0 -117 50.333 -117 151v263h-98v-646z" />
    <glyph glyph-name="paragraph" unicode="&#xb6;" horiz-adv-x="580" 
d="M236 -112h55v736h100v-736h55v736h56v43l-244 -1c-146.667 -0.666992 -220 -59.667 -220 -177c0 -50 16.667 -91.667 50 -125c32.667 -32 75 -48 127 -48h21v-428z" />
    <glyph glyph-name="periodcentered" unicode="&#xb7;" horiz-adv-x="490" 
d="M173 237l72 -72l72 72l-72 72z" />
    <glyph glyph-name="periodcentered" unicode="&#x2219;" horiz-adv-x="490" 
d="M173 237l72 -72l72 72l-72 72z" />
    <glyph glyph-name="cedilla" unicode="&#xb8;" 
d="M170 -84l4 -2c43.333 -22 65 -49 65 -81c0 -15.333 -6.33301 -32.333 -19 -51l6 -5c47.333 22 71 53 71 93c0 18.667 -11.667 39.667 -35 63c-2.66699 4 -6 7.33301 -10 10l78 64l-19 24z" />
    <glyph glyph-name="ordmasculine" unicode="&#xba;" horiz-adv-x="348" 
d="M323 342h-299v-49h299v49zM266 428v211.998c-34 8.66699 -65.667 23 -95 43c-28 -24 -56.333 -40 -85 -48v-158c0 -4 -0.166992 -8 -0.5 -12s-0.833008 -7.66699 -1.5 -11c-3.33301 -8 -6 -13.167 -8 -15.5s-4 -4.16602 -6 -5.49902v-8
c38 -3.33301 74.333 -18.666 109 -45.999l50.5 29.5c14.333 8.33301 26.5 14.833 36.5 19.5zM145 637.998l62 -27v-182l-62 27v182z" />
    <glyph glyph-name="guillemotright" unicode="&#xbb;" horiz-adv-x="441" 
d="M56 411l124 -174l-127 -154l27 -25l173 215l-140 195zM211 411l124 -174l-127 -154l27 -25l173 215l-140 195z" />
    <glyph glyph-name="questiondown" unicode="&#xbf;" horiz-adv-x="286" 
d="M138 -149l85.001 84.999c-22.667 52.667 -39.834 109.834 -51.501 171.501s-18.167 128.5 -19.5 200.5l-25 -1c-6 -148 -29.333 -273 -70 -375zM138.001 339.999l71 71l-71 72l-71 -72z" />
    <glyph glyph-name="Agrave" unicode="&#xc0;" horiz-adv-x="629" 
d="M632 79l-16 17.0039c-0.666992 -0.666992 -2 -1.83398 -4 -3.50098s-3.33301 -2.83398 -4 -3.50098c-12 -10 -21.667 -15 -29 -15c-8.66699 0 -15 4.66699 -19 14c-6.66699 14 -10 35.333 -10 64v4v4l-16 338c-0.666992 7.33301 -1 12.666 -1 15.999s0 4.66602 0 3.99902
v17c0 24 3 44 9 60c6.66699 18.667 24 37.334 52 56.001l16 11l-11 16c-19.333 -8.66699 -37.666 -19.334 -54.999 -32.001s-33.666 -27.334 -48.999 -44.001l-14 10.5c-4 3 -7.66699 5.5 -11 7.5c-64.667 41.333 -129.334 62 -194.001 62h-4h-5
c-62.667 -2.66699 -118.334 -27 -167.001 -73s-73 -99.667 -73 -161c0 -85.333 42.333 -154.333 127 -207l-72 -106c-5.33301 -8.66699 -11 -17 -17 -25s-11.667 -16.333 -17 -25c-12 -20 -18 -39 -18 -57c0 -2 0.333008 -3.66699 1 -5v-5
c4.66699 -20.667 15.667 -31 33 -31c16 0 24.667 6.66699 26 20c0 3.33301 -1 7.5 -3 12.5s-4.33301 10 -7 15l-7.5 14.5c-2.33301 4.66699 -3.5 8 -3.5 10c0 5.33301 2.33301 10.333 7 15s9.66699 7 15 7c12 0 26 -3 42 -9c47.333 -19.333 98.333 -48.666 153 -87.999
l168 131c0.666992 -14 1.66699 -26.5 3 -37.5s3 -20.833 5 -29.5c5.33301 -24 24.333 -45.333 57 -64zM449 221.004l4 -78l-97 -75l-229 97l39 56h283zM304 458.004l-136 -195.999c-68.667 48.667 -103 107 -103 175c0 43.333 17 79.666 51 108.999
c42.667 35.333 88.334 53 137.001 53s91.667 -10 129 -30l-28 -42c-30.667 7.33301 -58.334 11 -83.001 11c-48.667 0 -85.334 -31 -110.001 -93l18 -9c20.667 26.667 43.334 40 68.001 40c16 0 35 -6 57 -18zM434 530.005l11 -237.999h-230l186 264
c13.333 -8.66699 24.333 -17.334 33 -26.001zM563 743.006l-105 120h-87l35 -87z" />
    <glyph glyph-name="Aacute" unicode="&#xc1;" horiz-adv-x="629" 
d="M632 79l-16 17.0039c-0.666992 -0.666992 -2 -1.83398 -4 -3.50098s-3.33301 -2.83398 -4 -3.50098c-12 -10 -21.667 -15 -29 -15c-8.66699 0 -15 4.66699 -19 14c-6.66699 14 -10 35.333 -10 64v4v4l-16 338c-0.666992 7.33301 -1 12.666 -1 15.999s0 4.66602 0 3.99902
v17c0 24 3 44 9 60c6.66699 18.667 24 37.334 52 56.001l16 11l-11 16c-19.333 -8.66699 -37.666 -19.334 -54.999 -32.001s-33.666 -27.334 -48.999 -44.001l-14 10.5c-4 3 -7.66699 5.5 -11 7.5c-64.667 41.333 -129.334 62 -194.001 62h-4h-5
c-62.667 -2.66699 -118.334 -27 -167.001 -73s-73 -99.667 -73 -161c0 -85.333 42.333 -154.333 127 -207l-72 -106c-5.33301 -8.66699 -11 -17 -17 -25s-11.667 -16.333 -17 -25c-12 -20 -18 -39 -18 -57c0 -2 0.333008 -3.66699 1 -5v-5
c4.66699 -20.667 15.667 -31 33 -31c16 0 24.667 6.66699 26 20c0 3.33301 -1 7.5 -3 12.5s-4.33301 10 -7 15l-7.5 14.5c-2.33301 4.66699 -3.5 8 -3.5 10c0 5.33301 2.33301 10.333 7 15s9.66699 7 15 7c12 0 26 -3 42 -9c47.333 -19.333 98.333 -48.666 153 -87.999
l168 131c0.666992 -14 1.66699 -26.5 3 -37.5s3 -20.833 5 -29.5c5.33301 -24 24.333 -45.333 57 -64zM449 221.004l4 -78l-97 -75l-229 97l39 56h283zM304 458.004l-136 -195.999c-68.667 48.667 -103 107 -103 175c0 43.333 17 79.666 51 108.999
c42.667 35.333 88.334 53 137.001 53s91.667 -10 129 -30l-28 -42c-30.667 7.33301 -58.334 11 -83.001 11c-48.667 0 -85.334 -31 -110.001 -93l18 -9c20.667 26.667 43.334 40 68.001 40c16 0 35 -6 57 -18zM434 530.005l11 -237.999h-230l186 264
c13.333 -8.66699 24.333 -17.334 33 -26.001zM365 743.006l157 33l35 87h-87z" />
    <glyph glyph-name="Acircumflex" unicode="&#xc2;" horiz-adv-x="629" 
d="M632 79l-16 17.0039c-0.666992 -0.666992 -2 -1.83398 -4 -3.50098s-3.33301 -2.83398 -4 -3.50098c-12 -10 -21.667 -15 -29 -15c-8.66699 0 -15 4.66699 -19 14c-6.66699 14 -10 35.333 -10 64v4v4l-16 338c-0.666992 7.33301 -1 12.666 -1 15.999s0 4.66602 0 3.99902
v17c0 24 3 44 9 60c6.66699 18.667 24 37.334 52 56.001l16 11l-11 16c-19.333 -8.66699 -37.666 -19.334 -54.999 -32.001s-33.666 -27.334 -48.999 -44.001l-14 10.5c-4 3 -7.66699 5.5 -11 7.5c-64.667 41.333 -129.334 62 -194.001 62h-4h-5
c-62.667 -2.66699 -118.334 -27 -167.001 -73s-73 -99.667 -73 -161c0 -85.333 42.333 -154.333 127 -207l-72 -106c-5.33301 -8.66699 -11 -17 -17 -25s-11.667 -16.333 -17 -25c-12 -20 -18 -39 -18 -57c0 -2 0.333008 -3.66699 1 -5v-5
c4.66699 -20.667 15.667 -31 33 -31c16 0 24.667 6.66699 26 20c0 3.33301 -1 7.5 -3 12.5s-4.33301 10 -7 15l-7.5 14.5c-2.33301 4.66699 -3.5 8 -3.5 10c0 5.33301 2.33301 10.333 7 15s9.66699 7 15 7c12 0 26 -3 42 -9c47.333 -19.333 98.333 -48.666 153 -87.999
l168 131c0.666992 -14 1.66699 -26.5 3 -37.5s3 -20.833 5 -29.5c5.33301 -24 24.333 -45.333 57 -64zM449 221.004l4 -78l-97 -75l-229 97l39 56h283zM304 458.004l-136 -195.999c-68.667 48.667 -103 107 -103 175c0 43.333 17 79.666 51 108.999
c42.667 35.333 88.334 53 137.001 53s91.667 -10 129 -30l-28 -42c-30.667 7.33301 -58.334 11 -83.001 11c-48.667 0 -85.334 -31 -110.001 -93l18 -9c20.667 26.667 43.334 40 68.001 40c16 0 35 -6 57 -18zM434 530.005l11 -237.999h-230l186 264
c13.333 -8.66699 24.333 -17.334 33 -26.001zM307 734.006l22 -12l78 79l146 -79l63 65l-166 95z" />
    <glyph glyph-name="Atilde" unicode="&#xc3;" horiz-adv-x="629" 
d="M632 79l-16 17.0039c-0.666992 -0.666992 -2 -1.83398 -4 -3.50098s-3.33301 -2.83398 -4 -3.50098c-12 -10 -21.667 -15 -29 -15c-8.66699 0 -15 4.66699 -19 14c-6.66699 14 -10 35.333 -10 64v4v4l-16 338c-0.666992 7.33301 -1 12.666 -1 15.999s0 4.66602 0 3.99902
v17c0 24 3 44 9 60c6.66699 18.667 24 37.334 52 56.001l16 11l-11 16c-19.333 -8.66699 -37.666 -19.334 -54.999 -32.001s-33.666 -27.334 -48.999 -44.001l-14 10.5c-4 3 -7.66699 5.5 -11 7.5c-64.667 41.333 -129.334 62 -194.001 62h-4h-5
c-62.667 -2.66699 -118.334 -27 -167.001 -73s-73 -99.667 -73 -161c0 -85.333 42.333 -154.333 127 -207l-72 -106c-5.33301 -8.66699 -11 -17 -17 -25s-11.667 -16.333 -17 -25c-12 -20 -18 -39 -18 -57c0 -2 0.333008 -3.66699 1 -5v-5
c4.66699 -20.667 15.667 -31 33 -31c16 0 24.667 6.66699 26 20c0 3.33301 -1 7.5 -3 12.5s-4.33301 10 -7 15l-7.5 14.5c-2.33301 4.66699 -3.5 8 -3.5 10c0 5.33301 2.33301 10.333 7 15s9.66699 7 15 7c12 0 26 -3 42 -9c47.333 -19.333 98.333 -48.666 153 -87.999
l168 131c0.666992 -14 1.66699 -26.5 3 -37.5s3 -20.833 5 -29.5c5.33301 -24 24.333 -45.333 57 -64zM449 221.004l4 -78l-97 -75l-229 97l39 56h283zM304 458.004l-136 -195.999c-68.667 48.667 -103 107 -103 175c0 43.333 17 79.666 51 108.999
c42.667 35.333 88.334 53 137.001 53s91.667 -10 129 -30l-28 -42c-30.667 7.33301 -58.334 11 -83.001 11c-48.667 0 -85.334 -31 -110.001 -93l18 -9c20.667 26.667 43.334 40 68.001 40c16 0 35 -6 57 -18zM434 530.005l11 -237.999h-230l186 264
c13.333 -8.66699 24.333 -17.334 33 -26.001zM300 773.006l21 -15l49 39l132 -76l139 121l-21 16l-66 -58l-133 75z" />
    <glyph glyph-name="Adieresis" unicode="&#xc4;" horiz-adv-x="629" 
d="M632 79l-16 17.0039c-0.666992 -0.666992 -2 -1.83398 -4 -3.50098s-3.33301 -2.83398 -4 -3.50098c-12 -10 -21.667 -15 -29 -15c-8.66699 0 -15 4.66699 -19 14c-6.66699 14 -10 35.333 -10 64v4v4l-16 338c-0.666992 7.33301 -1 12.666 -1 15.999s0 4.66602 0 3.99902
v17c0 24 3 44 9 60c6.66699 18.667 24 37.334 52 56.001l16 11l-11 16c-19.333 -8.66699 -37.666 -19.334 -54.999 -32.001s-33.666 -27.334 -48.999 -44.001l-14 10.5c-4 3 -7.66699 5.5 -11 7.5c-64.667 41.333 -129.334 62 -194.001 62h-4h-5
c-62.667 -2.66699 -118.334 -27 -167.001 -73s-73 -99.667 -73 -161c0 -85.333 42.333 -154.333 127 -207l-72 -106c-5.33301 -8.66699 -11 -17 -17 -25s-11.667 -16.333 -17 -25c-12 -20 -18 -39 -18 -57c0 -2 0.333008 -3.66699 1 -5v-5
c4.66699 -20.667 15.667 -31 33 -31c16 0 24.667 6.66699 26 20c0 3.33301 -1 7.5 -3 12.5s-4.33301 10 -7 15l-7.5 14.5c-2.33301 4.66699 -3.5 8 -3.5 10c0 5.33301 2.33301 10.333 7 15s9.66699 7 15 7c12 0 26 -3 42 -9c47.333 -19.333 98.333 -48.666 153 -87.999
l168 131c0.666992 -14 1.66699 -26.5 3 -37.5s3 -20.833 5 -29.5c5.33301 -24 24.333 -45.333 57 -64zM449 221.004l4 -78l-97 -75l-229 97l39 56h283zM304 458.004l-136 -195.999c-68.667 48.667 -103 107 -103 175c0 43.333 17 79.666 51 108.999
c42.667 35.333 88.334 53 137.001 53s91.667 -10 129 -30l-28 -42c-30.667 7.33301 -58.334 11 -83.001 11c-48.667 0 -85.334 -31 -110.001 -93l18 -9c20.667 26.667 43.334 40 68.001 40c16 0 35 -6 57 -18zM434 530.005l11 -237.999h-230l186 264
c13.333 -8.66699 24.333 -17.334 33 -26.001zM308 798.006l63 -63l62 63l-62 63zM493 798.006l63 -63l62 63l-62 63z" />
    <glyph glyph-name="Aring" unicode="&#xc5;" horiz-adv-x="629" 
d="M632 79l-16 17.0039c-0.666992 -0.666992 -2 -1.83398 -4 -3.50098s-3.33301 -2.83398 -4 -3.50098c-12 -10 -21.667 -15 -29 -15c-8.66699 0 -15 4.66699 -19 14c-6.66699 14 -10 35.333 -10 64v4v4l-16 338c-0.666992 7.33301 -1 12.666 -1 15.999s0 4.66602 0 3.99902
v17c0 24 3 44 9 60c6.66699 18.667 24 37.334 52 56.001l16 11l-11 16c-19.333 -8.66699 -37.666 -19.334 -54.999 -32.001s-33.666 -27.334 -48.999 -44.001l-14 10.5c-4 3 -7.66699 5.5 -11 7.5c-64.667 41.333 -129.334 62 -194.001 62h-4h-5
c-62.667 -2.66699 -118.334 -27 -167.001 -73s-73 -99.667 -73 -161c0 -85.333 42.333 -154.333 127 -207l-72 -106c-5.33301 -8.66699 -11 -17 -17 -25s-11.667 -16.333 -17 -25c-12 -20 -18 -39 -18 -57c0 -2 0.333008 -3.66699 1 -5v-5
c4.66699 -20.667 15.667 -31 33 -31c16 0 24.667 6.66699 26 20c0 3.33301 -1 7.5 -3 12.5s-4.33301 10 -7 15l-7.5 14.5c-2.33301 4.66699 -3.5 8 -3.5 10c0 5.33301 2.33301 10.333 7 15s9.66699 7 15 7c12 0 26 -3 42 -9c47.333 -19.333 98.333 -48.666 153 -87.999
l168 131c0.666992 -14 1.66699 -26.5 3 -37.5s3 -20.833 5 -29.5c5.33301 -24 24.333 -45.333 57 -64zM449 221.004l4 -78l-97 -75l-229 97l39 56h283zM304 458.004l-136 -195.999c-68.667 48.667 -103 107 -103 175c0 43.333 17 79.666 51 108.999
c42.667 35.333 88.334 53 137.001 53s91.667 -10 129 -30l-28 -42c-30.667 7.33301 -58.334 11 -83.001 11c-48.667 0 -85.334 -31 -110.001 -93l18 -9c20.667 26.667 43.334 40 68.001 40c16 0 35 -6 57 -18zM434 530.005l11 -237.999h-230l186 264
c13.333 -8.66699 24.333 -17.334 33 -26.001zM467 696.006v-1c18 0 38 14.667 60 44c22 28.667 33 53 33 73c0 50.667 -31 85.667 -93 105l-4 -2c-59.333 -30 -89 -68 -89 -114c0 -51.333 31 -86.333 93 -105zM497 738.006l0.00195312 -1c-8.66699 2 -14.334 4 -17.001 6
c-46 18.667 -69 44.667 -69 78c0 3.33301 0.666992 7.66602 2 12.999c4 16.667 11.333 30.334 22 41.001c19.333 0 38.666 -9.66699 57.999 -29s29 -39 29 -59s-8.33301 -36.333 -25 -49z" />
    <glyph glyph-name="AE" unicode="&#xc6;" horiz-adv-x="915" 
d="M908 97l-12.999 13.998l-44 -42c-50.667 30.667 -92.667 46 -126 46c-34 0 -72 -6.66699 -114 -20v238c31.333 -19.333 61 -29 89 -29c70 0 120.333 31.333 151 94l-14 12c-23.333 -20.667 -47.333 -31 -72 -31c-36.667 0 -70 15 -100 45l-54 -45v207l36 23
c34.667 -40 73.334 -60 116.001 -60h3h3c60.667 0.666992 104.667 26.667 132 78l-11 10c-19.333 -10 -38.333 -15 -57 -15c-53.333 0 -94 19.667 -122 59l-168 -115c-77.333 75.333 -159.333 113 -246 113c-68.667 0 -128.334 -24 -179.001 -72
c-50.667 -46.667 -76 -104 -76 -172c0 -43.333 10.667 -80.666 32 -111.999c20 -28 49.333 -54.667 88 -80l-73 -100l-20 -27.5l-21 -27.5c-14 -23.333 -21 -44.666 -21 -63.999v-5c2.66699 -18.667 13 -28.667 31 -30c18.667 -0.666992 28 8 28 26c0 4 -3 12 -9 24v1
c-0.666992 0 -1 0.333008 -1 1c-5.33301 9.33301 -8 16.333 -8 21c0 11.333 6.66699 18 20 20h2h1c9.33301 0 22.333 -3.66699 39 -11c48 -23.333 97.667 -55.333 149 -96l175 126v-59l-22 -18l-28 -24l11 -12c53.333 30.667 109.666 46 168.999 46
c72 0 138.333 -16.667 199 -50zM454.001 208.998v-80l-98 -73l-226 110l42 56zM591.001 572.998l0.00195312 -488c-4.66699 -2 -11.334 -5.16699 -20.001 -9.5s-15.334 -7.5 -20.001 -9.5v480zM318.003 452.998l-141.999 -191.999c-63.333 47.333 -95 103.666 -95 168.999
c0 52 20 93.667 60 125c36.667 28.667 81.667 43 135 43c36.667 0 77.667 -13 123 -39l-30 -42c-28.667 13.333 -56 20 -82 20c-50.667 0 -86.334 -31 -107.001 -93l11 -8c24.667 24.667 47 37 67 37c17.333 0 37.333 -6.66699 60 -20zM454.004 515.999v-236.999l-231 10
l194 256c6.66699 -4.66699 13 -9.33398 19 -14.001s12 -9.66699 18 -15z" />
    <glyph glyph-name="Ccedilla" unicode="&#xc7;" horiz-adv-x="617" 
d="M359 -9l4 0.999023c104 12 188.667 70.667 254 176l-11 11c-77.333 -61.333 -158.333 -91.333 -243 -90v501c52 -25.333 101 -41.666 147 -48.999l91 85c-72.667 0 -143.334 18 -212.001 54l-195 -166v-214c0 -28 -1.33301 -47 -4 -57
c-4.66699 -18.667 -15.667 -34 -33 -46c-36 52.667 -54 111.667 -54 177c0 82.667 46 163.667 138 243l-9 9c-32.667 -16.667 -61.5 -35.834 -86.5 -57.501s-46.833 -46.167 -65.5 -73.5c-38 -57.333 -57 -120.666 -57 -189.999c0 -83.333 27 -155.333 81 -216
c54.667 -60.667 123.334 -93.334 206.001 -98.001l-104 -88l4 -2c43.333 -22 65 -49.667 65 -83c0 -13.333 -5.66699 -29.333 -17 -48c0 -1.33301 -0.666992 -2.66602 -2 -3.99902l6 -5c47.333 23.333 71 55 71 95c0 19.333 -12.333 41.333 -37 66l-9 9zM341 602.999
l-0.000976562 -513c-69.333 7.33301 -126.333 37 -171 89c48 40 75 63.667 81 71c18.667 20.667 30.334 44.667 35.001 72c4 18.667 6 46 6 82v154z" />
    <glyph glyph-name="Egrave" unicode="&#xc8;" horiz-adv-x="634" 
d="M365 388l162.002 -5.00195l53 92l-115 3l141 142l-6 14c-1.33301 0 -2.33301 -0.333008 -3 -1h-4h-7c-31.333 0 -61.333 4 -90 12c-42 11.333 -76.333 25.333 -103 42l-196 -156v-232c0 -7.33301 -0.166992 -14 -0.5 -20s-0.833008 -11.333 -1.5 -16
c-3.33301 -18 -15 -36 -35 -54c-36.667 54.667 -55 117.334 -55 188.001c0 86 47.667 162.667 143 230l-9 15c-70.667 -38 -122.667 -80.333 -156 -127c-39.333 -53.333 -59 -116.666 -59 -189.999c0 -91.333 30.333 -168.666 91 -231.999
c61.333 -63.333 136.666 -95 225.999 -95c57.333 0 111.666 16 162.999 48c46.667 30.667 85.667 72.667 117 126l-7 8c-80 -58.667 -163 -87.334 -249 -86.001v294zM344.002 611.998v-517.001c-70.667 10.667 -127.667 43.334 -171 98.001c52.667 44.667 80 68 82 70
c24.667 27.333 37 61.333 37 102v204zM365.002 406.997l0.000976562 193c43.333 -25.333 90.666 -42 141.999 -50zM413.003 740.997l-105 120h-87l35 -87z" />
    <glyph glyph-name="Eacute" unicode="&#xc9;" horiz-adv-x="634" 
d="M365 388l162.002 -5.00195l53 92l-115 3l141 142l-6 14c-1.33301 0 -2.33301 -0.333008 -3 -1h-4h-7c-31.333 0 -61.333 4 -90 12c-42 11.333 -76.333 25.333 -103 42l-196 -156v-232c0 -7.33301 -0.166992 -14 -0.5 -20s-0.833008 -11.333 -1.5 -16
c-3.33301 -18 -15 -36 -35 -54c-36.667 54.667 -55 117.334 -55 188.001c0 86 47.667 162.667 143 230l-9 15c-70.667 -38 -122.667 -80.333 -156 -127c-39.333 -53.333 -59 -116.666 -59 -189.999c0 -91.333 30.333 -168.666 91 -231.999
c61.333 -63.333 136.666 -95 225.999 -95c57.333 0 111.666 16 162.999 48c46.667 30.667 85.667 72.667 117 126l-7 8c-80 -58.667 -163 -87.334 -249 -86.001v294zM344.002 611.998v-517.001c-70.667 10.667 -127.667 43.334 -171 98.001c52.667 44.667 80 68 82 70
c24.667 27.333 37 61.333 37 102v204zM365.002 406.997l0.000976562 193c43.333 -25.333 90.666 -42 141.999 -50zM221.003 740.997l157 33l35 87h-87z" />
    <glyph glyph-name="Ecircumflex" unicode="&#xca;" horiz-adv-x="634" 
d="M365 388l162.002 -5.00195l53 92l-115 3l141 142l-6 14c-1.33301 0 -2.33301 -0.333008 -3 -1h-4h-7c-31.333 0 -61.333 4 -90 12c-42 11.333 -76.333 25.333 -103 42l-196 -156v-232c0 -7.33301 -0.166992 -14 -0.5 -20s-0.833008 -11.333 -1.5 -16
c-3.33301 -18 -15 -36 -35 -54c-36.667 54.667 -55 117.334 -55 188.001c0 86 47.667 162.667 143 230l-9 15c-70.667 -38 -122.667 -80.333 -156 -127c-39.333 -53.333 -59 -116.666 -59 -189.999c0 -91.333 30.333 -168.666 91 -231.999
c61.333 -63.333 136.666 -95 225.999 -95c57.333 0 111.666 16 162.999 48c46.667 30.667 85.667 72.667 117 126l-7 8c-80 -58.667 -163 -87.334 -249 -86.001v294zM344.002 611.998v-517.001c-70.667 10.667 -127.667 43.334 -171 98.001c52.667 44.667 80 68 82 70
c24.667 27.333 37 61.333 37 102v204zM365.002 406.997l0.000976562 193c43.333 -25.333 90.666 -42 141.999 -50zM163.003 721.997l22 -12l78 79l146 -79l63 65l-166 95z" />
    <glyph glyph-name="Edieresis" unicode="&#xcb;" horiz-adv-x="634" 
d="M365 388l162.002 -5.00195l53 92l-115 3l141 142l-6 14c-1.33301 0 -2.33301 -0.333008 -3 -1h-4h-7c-31.333 0 -61.333 4 -90 12c-42 11.333 -76.333 25.333 -103 42l-196 -156v-232c0 -7.33301 -0.166992 -14 -0.5 -20s-0.833008 -11.333 -1.5 -16
c-3.33301 -18 -15 -36 -35 -54c-36.667 54.667 -55 117.334 -55 188.001c0 86 47.667 162.667 143 230l-9 15c-70.667 -38 -122.667 -80.333 -156 -127c-39.333 -53.333 -59 -116.666 -59 -189.999c0 -91.333 30.333 -168.666 91 -231.999
c61.333 -63.333 136.666 -95 225.999 -95c57.333 0 111.666 16 162.999 48c46.667 30.667 85.667 72.667 117 126l-7 8c-80 -58.667 -163 -87.334 -249 -86.001v294zM344.002 611.998v-517.001c-70.667 10.667 -127.667 43.334 -171 98.001c52.667 44.667 80 68 82 70
c24.667 27.333 37 61.333 37 102v204zM365.002 406.997l0.000976562 193c43.333 -25.333 90.666 -42 141.999 -50zM162.003 786.997l63 -63l62 63l-62 63zM347.003 786.997l63 -63l62 63l-62 63z" />
    <glyph glyph-name="Igrave" unicode="&#xcc;" horiz-adv-x="518" 
d="M-1 -9l0.999023 0.00292969c18.667 34 42.667 51 72 51c25.333 0 62 -9 110 -27c48.667 -18 86.334 -27 113.001 -27c50.667 0 91.667 19 123 57c25.333 32.667 40.666 76.667 45.999 132c0.666992 7.33301 1.16699 13.833 1.5 19.5s0.5 10.167 0.5 13.5
c0 20.667 -1.5 45.167 -4.5 73.5s-7.16699 61.166 -12.5 98.499c-12 78.667 -18 135.667 -18 171c0 53.333 25.333 86.333 76 99l15 4l-10 16c-106.667 -16 -160 -87.333 -160 -214c0 -19.333 1.5 -43.333 4.5 -72s7.16699 -62.334 12.5 -101.001s9.5 -72.5 12.5 -101.5
s4.5 -53.167 4.5 -72.5c0 -26 -6.66699 -47.667 -20 -65s-32.666 -26 -57.999 -26c-19.333 0 -45.666 14.667 -78.999 44c-9.33301 8.66699 -17.333 15.667 -24 21s-12.334 9.33301 -17.001 12c39.333 4 68.666 13 87.999 27c22.667 16.667 34 44 34 82
c0 15.333 -1 34 -3 56s-4.66699 48 -8 78s-6 56.167 -8 78.5s-3 41.166 -3 56.499c0 76 29.333 139.333 88 190l-9 10c-24 -11.333 -48 -17 -72 -17c-16.667 0 -39.667 3.33301 -69 10c-31.333 7.33301 -54.666 11 -69.999 11c-30.667 0 -56.834 -10.5 -78.501 -31.5
s-34.167 -47.5 -37.5 -79.5l11 -3c16 34 39.667 51 71 51c3.33301 0 7 -0.166992 11 -0.5s7.66699 -0.833008 11 -1.5c17.333 -3.33301 31.5 -5.83301 42.5 -7.5s18.167 -2.5 21.5 -2.5c16.667 0 44.334 6.66699 83.001 20c4 1.33301 6.33301 2.33301 7 3
c-62 -60 -94.667 -134.667 -98 -224c-6 1.33301 -10.333 2.16602 -13 2.49902s-5.33398 0.833008 -8.00098 1.5h-8c-45.333 0 -82.333 -26.333 -111 -79l9 -7c21.333 19.333 44 29 68 29c26 0 45.667 -9.66699 59 -29c22 -33.333 33 -71.666 33 -114.999
c0 -40.667 -8.66699 -65.667 -26 -75c-19.333 -10 -47.666 -16.667 -84.999 -20c-65.333 -6 -109 -44.667 -131 -116zM354.999 741.003l-105 120h-87l35 -87z" />
    <glyph glyph-name="Iacute" unicode="&#xcd;" horiz-adv-x="518" 
d="M-1 -9l0.999023 0.00292969c18.667 34 42.667 51 72 51c25.333 0 62 -9 110 -27c48.667 -18 86.334 -27 113.001 -27c50.667 0 91.667 19 123 57c25.333 32.667 40.666 76.667 45.999 132c0.666992 7.33301 1.16699 13.833 1.5 19.5s0.5 10.167 0.5 13.5
c0 20.667 -1.5 45.167 -4.5 73.5s-7.16699 61.166 -12.5 98.499c-12 78.667 -18 135.667 -18 171c0 53.333 25.333 86.333 76 99l15 4l-10 16c-106.667 -16 -160 -87.333 -160 -214c0 -19.333 1.5 -43.333 4.5 -72s7.16699 -62.334 12.5 -101.001s9.5 -72.5 12.5 -101.5
s4.5 -53.167 4.5 -72.5c0 -26 -6.66699 -47.667 -20 -65s-32.666 -26 -57.999 -26c-19.333 0 -45.666 14.667 -78.999 44c-9.33301 8.66699 -17.333 15.667 -24 21s-12.334 9.33301 -17.001 12c39.333 4 68.666 13 87.999 27c22.667 16.667 34 44 34 82
c0 15.333 -1 34 -3 56s-4.66699 48 -8 78s-6 56.167 -8 78.5s-3 41.166 -3 56.499c0 76 29.333 139.333 88 190l-9 10c-24 -11.333 -48 -17 -72 -17c-16.667 0 -39.667 3.33301 -69 10c-31.333 7.33301 -54.666 11 -69.999 11c-30.667 0 -56.834 -10.5 -78.501 -31.5
s-34.167 -47.5 -37.5 -79.5l11 -3c16 34 39.667 51 71 51c3.33301 0 7 -0.166992 11 -0.5s7.66699 -0.833008 11 -1.5c17.333 -3.33301 31.5 -5.83301 42.5 -7.5s18.167 -2.5 21.5 -2.5c16.667 0 44.334 6.66699 83.001 20c4 1.33301 6.33301 2.33301 7 3
c-62 -60 -94.667 -134.667 -98 -224c-6 1.33301 -10.333 2.16602 -13 2.49902s-5.33398 0.833008 -8.00098 1.5h-8c-45.333 0 -82.333 -26.333 -111 -79l9 -7c21.333 19.333 44 29 68 29c26 0 45.667 -9.66699 59 -29c22 -33.333 33 -71.666 33 -114.999
c0 -40.667 -8.66699 -65.667 -26 -75c-19.333 -10 -47.666 -16.667 -84.999 -20c-65.333 -6 -109 -44.667 -131 -116zM162.999 741.003l157 33l35 87h-87z" />
    <glyph glyph-name="Icircumflex" unicode="&#xce;" horiz-adv-x="518" 
d="M-1 -9l0.999023 0.00292969c18.667 34 42.667 51 72 51c25.333 0 62 -9 110 -27c48.667 -18 86.334 -27 113.001 -27c50.667 0 91.667 19 123 57c25.333 32.667 40.666 76.667 45.999 132c0.666992 7.33301 1.16699 13.833 1.5 19.5s0.5 10.167 0.5 13.5
c0 20.667 -1.5 45.167 -4.5 73.5s-7.16699 61.166 -12.5 98.499c-12 78.667 -18 135.667 -18 171c0 53.333 25.333 86.333 76 99l15 4l-10 16c-106.667 -16 -160 -87.333 -160 -214c0 -19.333 1.5 -43.333 4.5 -72s7.16699 -62.334 12.5 -101.001s9.5 -72.5 12.5 -101.5
s4.5 -53.167 4.5 -72.5c0 -26 -6.66699 -47.667 -20 -65s-32.666 -26 -57.999 -26c-19.333 0 -45.666 14.667 -78.999 44c-9.33301 8.66699 -17.333 15.667 -24 21s-12.334 9.33301 -17.001 12c39.333 4 68.666 13 87.999 27c22.667 16.667 34 44 34 82
c0 15.333 -1 34 -3 56s-4.66699 48 -8 78s-6 56.167 -8 78.5s-3 41.166 -3 56.499c0 76 29.333 139.333 88 190l-9 10c-24 -11.333 -48 -17 -72 -17c-16.667 0 -39.667 3.33301 -69 10c-31.333 7.33301 -54.666 11 -69.999 11c-30.667 0 -56.834 -10.5 -78.501 -31.5
s-34.167 -47.5 -37.5 -79.5l11 -3c16 34 39.667 51 71 51c3.33301 0 7 -0.166992 11 -0.5s7.66699 -0.833008 11 -1.5c17.333 -3.33301 31.5 -5.83301 42.5 -7.5s18.167 -2.5 21.5 -2.5c16.667 0 44.334 6.66699 83.001 20c4 1.33301 6.33301 2.33301 7 3
c-62 -60 -94.667 -134.667 -98 -224c-6 1.33301 -10.333 2.16602 -13 2.49902s-5.33398 0.833008 -8.00098 1.5h-8c-45.333 0 -82.333 -26.333 -111 -79l9 -7c21.333 19.333 44 29 68 29c26 0 45.667 -9.66699 59 -29c22 -33.333 33 -71.666 33 -114.999
c0 -40.667 -8.66699 -65.667 -26 -75c-19.333 -10 -47.666 -16.667 -84.999 -20c-65.333 -6 -109 -44.667 -131 -116zM104.999 722.003l22 -12l78 79l146 -79l63 65l-166 95z" />
    <glyph glyph-name="Idieresis" unicode="&#xcf;" horiz-adv-x="518" 
d="M-1 -9l0.999023 0.00292969c18.667 34 42.667 51 72 51c25.333 0 62 -9 110 -27c48.667 -18 86.334 -27 113.001 -27c50.667 0 91.667 19 123 57c25.333 32.667 40.666 76.667 45.999 132c0.666992 7.33301 1.16699 13.833 1.5 19.5s0.5 10.167 0.5 13.5
c0 20.667 -1.5 45.167 -4.5 73.5s-7.16699 61.166 -12.5 98.499c-12 78.667 -18 135.667 -18 171c0 53.333 25.333 86.333 76 99l15 4l-10 16c-106.667 -16 -160 -87.333 -160 -214c0 -19.333 1.5 -43.333 4.5 -72s7.16699 -62.334 12.5 -101.001s9.5 -72.5 12.5 -101.5
s4.5 -53.167 4.5 -72.5c0 -26 -6.66699 -47.667 -20 -65s-32.666 -26 -57.999 -26c-19.333 0 -45.666 14.667 -78.999 44c-9.33301 8.66699 -17.333 15.667 -24 21s-12.334 9.33301 -17.001 12c39.333 4 68.666 13 87.999 27c22.667 16.667 34 44 34 82
c0 15.333 -1 34 -3 56s-4.66699 48 -8 78s-6 56.167 -8 78.5s-3 41.166 -3 56.499c0 76 29.333 139.333 88 190l-9 10c-24 -11.333 -48 -17 -72 -17c-16.667 0 -39.667 3.33301 -69 10c-31.333 7.33301 -54.666 11 -69.999 11c-30.667 0 -56.834 -10.5 -78.501 -31.5
s-34.167 -47.5 -37.5 -79.5l11 -3c16 34 39.667 51 71 51c3.33301 0 7 -0.166992 11 -0.5s7.66699 -0.833008 11 -1.5c17.333 -3.33301 31.5 -5.83301 42.5 -7.5s18.167 -2.5 21.5 -2.5c16.667 0 44.334 6.66699 83.001 20c4 1.33301 6.33301 2.33301 7 3
c-62 -60 -94.667 -134.667 -98 -224c-6 1.33301 -10.333 2.16602 -13 2.49902s-5.33398 0.833008 -8.00098 1.5h-8c-45.333 0 -82.333 -26.333 -111 -79l9 -7c21.333 19.333 44 29 68 29c26 0 45.667 -9.66699 59 -29c22 -33.333 33 -71.666 33 -114.999
c0 -40.667 -8.66699 -65.667 -26 -75c-19.333 -10 -47.666 -16.667 -84.999 -20c-65.333 -6 -109 -44.667 -131 -116zM103.999 787.003l63 -63l62 63l-62 63zM288.999 787.003l63 -63l62 63l-62 63z" />
    <glyph glyph-name="Ntilde" unicode="&#xd1;" horiz-adv-x="789" 
d="M789 134l-23.0068 8.99902l-33 -56l-14 2c-4.66699 0.666992 -9.16699 1.16699 -13.5 1.5s-8.83301 0.5 -13.5 0.5h-14c-44.667 0 -84 -5.66699 -118 -17l7.5 10.5c1.66699 2.33301 2.83398 4.16602 3.50098 5.49902l70 94c26 34.667 49 74.667 69 120
c10.667 22.667 18.334 45.334 23.001 68.001s6.66699 45.334 6 68.001c-2 66 -28 119 -78 159s-105 67 -165 81l-301 -147v-97c-31.333 16.667 -59.333 25 -84 25c-34 0 -62.333 -14.333 -85 -43l10 -13c17.333 10.667 34.333 16 51 16c32 0 57.667 -11.667 77 -35
c17.333 -20.667 27.666 -47.667 30.999 -81c-26.667 22.667 -54.667 34 -84 34c-30.667 0 -59 -13.667 -85 -41l10 -15c15.333 8.66699 33 13 53 13c61.333 0 100 -32.333 116 -97c-28 13.333 -50 20 -66 20c-29.333 0 -55.666 -15.667 -78.999 -47l12 -13
c20.667 13.333 38.667 20 54 20c12.667 0 24.834 -2.33301 36.501 -7s21.834 -11.167 30.501 -19.5s15.667 -18.166 21 -29.499s8 -23.333 8 -36c0 -20.667 -5.83301 -37.5 -17.5 -50.5s-27.5 -19.5 -47.5 -19.5c-11.333 0 -29 3 -53 9
c-17.333 2.66699 -31.166 4.5 -41.499 5.5s-17.166 1.83301 -20.499 2.5h-2h-4c-45.333 0 -86 -26.333 -122 -79l13 -11c29.333 15.333 55 23 77 23c18.667 0 46 -5 82 -15c34.667 -10.667 62.334 -16 83.001 -16c66.667 0 118 25.667 154 77c22.667 32.667 34 81 34 145v94
c30.667 19.333 68.667 32 114 38c2 0.666992 4.66699 1 8 1h7c20 0 38 -2.33301 54 -7c30.667 -9.33301 56.334 -21.333 77.001 -36c-6.66699 -16 -16.834 -36.667 -30.501 -62l-51.5 -91c-37.333 -64.667 -63 -116.334 -77 -155.001l23 -8c28.667 52.667 72.667 79 132 79
c30 0 61 -7 93 -21zM336.993 567.999v-389.999v-1v-2c0 -52.667 -5.66699 -91.334 -17 -116.001c-16 -35.333 -47.333 -54.333 -94 -57c28.667 16.667 47.667 41 57 73c6 20 9 52 9 96v377l22 10c3.33301 1.33301 7 3 11 5s8 3.66699 12 5zM356.993 280l0.000976562 123
c48 -24 92 -36 132 -36c52 0 104.333 17.333 157 52c0 -2.66699 0.166992 -5.5 0.5 -8.5s0.833008 -6.16699 1.5 -9.5c0 -3.33301 0.333008 -6.33301 1 -9v-9c0 -33.333 -8 -71.333 -24 -114c-43.333 29.333 -91 44 -143 44c-32.667 0 -74.334 -11 -125.001 -33z
M356.994 432l-0.00195312 142c5.33301 1.33301 9 2 11 2c20.667 6 42.334 9 65.001 9c48 0 90.5 -12.5 127.5 -37.5s63.5 -59.833 79.5 -104.5c-53.333 -35.333 -103.666 -53 -150.999 -53c-46 0 -90 14 -132 42zM298.992 765l21 -15l49 39l132 -76l139 121l-21 16l-66 -58
l-133 75z" />
    <glyph glyph-name="Ograve" unicode="&#xd2;" horiz-adv-x="731" 
d="M67 485l0.000976562 -0.999023c-29.333 -74 -44 -139.667 -44 -197c0 -83.333 27 -153.333 81 -210c55.333 -57.333 123.666 -86 204.999 -86c76.667 0 153.667 32.333 231 97c72.667 60.667 122.667 128.667 150 204c11.333 32 17 61 17 87
c0 78 -30.667 144.667 -92 200c-52.667 47.333 -120.667 79.666 -204 96.999c-10.667 2.66699 -17 4 -19 4zM341.001 591.001v-526.001c-62.667 7.33301 -117 34 -163 80c44.667 34.667 72.667 60.667 84 78c18.667 26.667 28 64.334 28 113.001v257
c8.66699 0 17.167 -0.166992 25.5 -0.5s16.833 -0.833008 25.5 -1.5zM363.001 66v182c30 34.667 66.667 52 110 52c45.333 0 84.666 -19.667 117.999 -59c-17.333 -51.333 -46 -93 -86 -125c-43.333 -34 -90.666 -50.667 -141.999 -50zM197.001 536v-263.001
c0 -30 -1.33301 -50 -4 -60c-5.33301 -19.333 -15.333 -36.333 -30 -51c-42 58.667 -63 119.334 -63 182.001c0 79.333 32.333 143.333 97 192zM363.001 278.999l0.000976562 150c37.333 -29.333 75.666 -44 114.999 -44c38.667 0 78.334 14.667 119.001 44
c9.33301 -29.333 14 -54 14 -74v-15c-0.666992 -3.33301 -1 -6.33301 -1 -9v-6c-1.33301 -12.667 -3 -24 -5 -34s-4 -18.667 -6 -26c-41.333 38 -83.333 57 -126 57c-38.667 0 -75.334 -14.333 -110.001 -43zM363.002 451.999v136c110.667 -16 186 -61.667 226 -137
c-32.667 -30.667 -70 -46 -112 -46c-39.333 0 -77.333 15.667 -114 47zM461.002 739.999l-105 120h-87l35 -87z" />
    <glyph glyph-name="Oacute" unicode="&#xd3;" horiz-adv-x="731" 
d="M67 485l0.000976562 -0.999023c-29.333 -74 -44 -139.667 -44 -197c0 -83.333 27 -153.333 81 -210c55.333 -57.333 123.666 -86 204.999 -86c76.667 0 153.667 32.333 231 97c72.667 60.667 122.667 128.667 150 204c11.333 32 17 61 17 87
c0 78 -30.667 144.667 -92 200c-52.667 47.333 -120.667 79.666 -204 96.999c-10.667 2.66699 -17 4 -19 4zM341.001 591.001v-526.001c-62.667 7.33301 -117 34 -163 80c44.667 34.667 72.667 60.667 84 78c18.667 26.667 28 64.334 28 113.001v257
c8.66699 0 17.167 -0.166992 25.5 -0.5s16.833 -0.833008 25.5 -1.5zM363.001 66v182c30 34.667 66.667 52 110 52c45.333 0 84.666 -19.667 117.999 -59c-17.333 -51.333 -46 -93 -86 -125c-43.333 -34 -90.666 -50.667 -141.999 -50zM197.001 536v-263.001
c0 -30 -1.33301 -50 -4 -60c-5.33301 -19.333 -15.333 -36.333 -30 -51c-42 58.667 -63 119.334 -63 182.001c0 79.333 32.333 143.333 97 192zM363.001 278.999l0.000976562 150c37.333 -29.333 75.666 -44 114.999 -44c38.667 0 78.334 14.667 119.001 44
c9.33301 -29.333 14 -54 14 -74v-15c-0.666992 -3.33301 -1 -6.33301 -1 -9v-6c-1.33301 -12.667 -3 -24 -5 -34s-4 -18.667 -6 -26c-41.333 38 -83.333 57 -126 57c-38.667 0 -75.334 -14.333 -110.001 -43zM363.002 451.999v136c110.667 -16 186 -61.667 226 -137
c-32.667 -30.667 -70 -46 -112 -46c-39.333 0 -77.333 15.667 -114 47zM269.002 739.999l157 33l35 87h-87z" />
    <glyph glyph-name="Ocircumflex" unicode="&#xd4;" horiz-adv-x="731" 
d="M67 485l0.000976562 -0.999023c-29.333 -74 -44 -139.667 -44 -197c0 -83.333 27 -153.333 81 -210c55.333 -57.333 123.666 -86 204.999 -86c76.667 0 153.667 32.333 231 97c72.667 60.667 122.667 128.667 150 204c11.333 32 17 61 17 87
c0 78 -30.667 144.667 -92 200c-52.667 47.333 -120.667 79.666 -204 96.999c-10.667 2.66699 -17 4 -19 4zM341.001 591.001v-526.001c-62.667 7.33301 -117 34 -163 80c44.667 34.667 72.667 60.667 84 78c18.667 26.667 28 64.334 28 113.001v257
c8.66699 0 17.167 -0.166992 25.5 -0.5s16.833 -0.833008 25.5 -1.5zM363.001 66v182c30 34.667 66.667 52 110 52c45.333 0 84.666 -19.667 117.999 -59c-17.333 -51.333 -46 -93 -86 -125c-43.333 -34 -90.666 -50.667 -141.999 -50zM197.001 536v-263.001
c0 -30 -1.33301 -50 -4 -60c-5.33301 -19.333 -15.333 -36.333 -30 -51c-42 58.667 -63 119.334 -63 182.001c0 79.333 32.333 143.333 97 192zM363.001 278.999l0.000976562 150c37.333 -29.333 75.666 -44 114.999 -44c38.667 0 78.334 14.667 119.001 44
c9.33301 -29.333 14 -54 14 -74v-15c-0.666992 -3.33301 -1 -6.33301 -1 -9v-6c-1.33301 -12.667 -3 -24 -5 -34s-4 -18.667 -6 -26c-41.333 38 -83.333 57 -126 57c-38.667 0 -75.334 -14.333 -110.001 -43zM363.002 451.999v136c110.667 -16 186 -61.667 226 -137
c-32.667 -30.667 -70 -46 -112 -46c-39.333 0 -77.333 15.667 -114 47zM211.002 721.999l22 -12l78 79l146 -79l63 65l-166 95z" />
    <glyph glyph-name="Otilde" unicode="&#xd5;" horiz-adv-x="731" 
d="M67 485l0.000976562 -0.999023c-29.333 -74 -44 -139.667 -44 -197c0 -83.333 27 -153.333 81 -210c55.333 -57.333 123.666 -86 204.999 -86c76.667 0 153.667 32.333 231 97c72.667 60.667 122.667 128.667 150 204c11.333 32 17 61 17 87
c0 78 -30.667 144.667 -92 200c-52.667 47.333 -120.667 79.666 -204 96.999c-10.667 2.66699 -17 4 -19 4zM341.001 591.001v-526.001c-62.667 7.33301 -117 34 -163 80c44.667 34.667 72.667 60.667 84 78c18.667 26.667 28 64.334 28 113.001v257
c8.66699 0 17.167 -0.166992 25.5 -0.5s16.833 -0.833008 25.5 -1.5zM363.001 66v182c30 34.667 66.667 52 110 52c45.333 0 84.666 -19.667 117.999 -59c-17.333 -51.333 -46 -93 -86 -125c-43.333 -34 -90.666 -50.667 -141.999 -50zM197.001 536v-263.001
c0 -30 -1.33301 -50 -4 -60c-5.33301 -19.333 -15.333 -36.333 -30 -51c-42 58.667 -63 119.334 -63 182.001c0 79.333 32.333 143.333 97 192zM363.001 278.999l0.000976562 150c37.333 -29.333 75.666 -44 114.999 -44c38.667 0 78.334 14.667 119.001 44
c9.33301 -29.333 14 -54 14 -74v-15c-0.666992 -3.33301 -1 -6.33301 -1 -9v-6c-1.33301 -12.667 -3 -24 -5 -34s-4 -18.667 -6 -26c-41.333 38 -83.333 57 -126 57c-38.667 0 -75.334 -14.333 -110.001 -43zM363.002 451.999v136c110.667 -16 186 -61.667 226 -137
c-32.667 -30.667 -70 -46 -112 -46c-39.333 0 -77.333 15.667 -114 47zM195.002 760.999l21 -15l49 39l132 -76l139 121l-21 16l-66 -58l-133 75z" />
    <glyph glyph-name="Odieresis" unicode="&#xd6;" horiz-adv-x="731" 
d="M67 485l0.000976562 -0.999023c-29.333 -74 -44 -139.667 -44 -197c0 -83.333 27 -153.333 81 -210c55.333 -57.333 123.666 -86 204.999 -86c76.667 0 153.667 32.333 231 97c72.667 60.667 122.667 128.667 150 204c11.333 32 17 61 17 87
c0 78 -30.667 144.667 -92 200c-52.667 47.333 -120.667 79.666 -204 96.999c-10.667 2.66699 -17 4 -19 4zM341.001 591.001v-526.001c-62.667 7.33301 -117 34 -163 80c44.667 34.667 72.667 60.667 84 78c18.667 26.667 28 64.334 28 113.001v257
c8.66699 0 17.167 -0.166992 25.5 -0.5s16.833 -0.833008 25.5 -1.5zM363.001 66v182c30 34.667 66.667 52 110 52c45.333 0 84.666 -19.667 117.999 -59c-17.333 -51.333 -46 -93 -86 -125c-43.333 -34 -90.666 -50.667 -141.999 -50zM197.001 536v-263.001
c0 -30 -1.33301 -50 -4 -60c-5.33301 -19.333 -15.333 -36.333 -30 -51c-42 58.667 -63 119.334 -63 182.001c0 79.333 32.333 143.333 97 192zM363.001 278.999l0.000976562 150c37.333 -29.333 75.666 -44 114.999 -44c38.667 0 78.334 14.667 119.001 44
c9.33301 -29.333 14 -54 14 -74v-15c-0.666992 -3.33301 -1 -6.33301 -1 -9v-6c-1.33301 -12.667 -3 -24 -5 -34s-4 -18.667 -6 -26c-41.333 38 -83.333 57 -126 57c-38.667 0 -75.334 -14.333 -110.001 -43zM363.002 451.999v136c110.667 -16 186 -61.667 226 -137
c-32.667 -30.667 -70 -46 -112 -46c-39.333 0 -77.333 15.667 -114 47zM223.002 785.999l63 -63l62 63l-62 63zM408.002 785.999l63 -63l62 63l-62 63z" />
    <glyph glyph-name="multiply" unicode="&#xd7;" 
d="M67 202l37 -37l145 144l138 -139l39 39l-139 139l145 145l-37 37l-145 -145l-138 138l-39 -39l138 -138z" />
    <glyph glyph-name="Oslash" unicode="&#xd8;" horiz-adv-x="733" 
d="M67 484v-1.00098c-29.333 -78 -44 -143.333 -44 -196c0 -78.667 26 -148 78 -208l-71 -87l32 -18l67 80c58.667 -42 116.334 -63 173.001 -63c79.333 0 160.333 33.667 243 101c78.667 64.667 130 136.334 154 215.001c7.33301 25.333 11 49.333 11 72
c0 90.667 -43.667 168 -131 232l67 84l-31 18l-67 -83c-46.667 23.333 -98.334 40 -155.001 50zM365 64.999v182.999c32.667 34.667 69.334 52 110.001 52c43.333 0 82.666 -20 117.999 -60c-20.667 -51.333 -49.667 -92.666 -87 -123.999c-42 -35.333 -89 -52.333 -141 -51
zM340 590.998v-526c-22 0 -50.333 8.66699 -85 26c-34 17.333 -59.333 35.333 -76 54c6.66699 4.66699 13.167 9.66699 19.5 15l18.5 16c35.333 33.333 58 62 68 86c4.66699 16 7 35.667 7 59v273c20.667 -1.33301 36.667 -2.33301 48 -3zM197 536.998v-273
c0 -49.333 -11.667 -83 -35 -101c-41.333 59.333 -62 121 -62 185c0 76 32.333 139 97 189zM365 278.998l-0.000976562 148.999c43.333 -28.667 81 -43 113 -43c40 0 80.333 14.333 121 43c10 -28 14.667 -57.333 14 -88c-0.666992 -9.33301 -2 -20.166 -4 -32.499
s-5.33301 -26.5 -10 -42.5c-38 38 -79.667 57 -125 57c-35.333 0 -71.666 -14.333 -108.999 -43zM364.999 452.997v134c42 -2.66699 85 -17 129 -43c45.333 -26 77.333 -57.333 96 -94c-33.333 -30 -71 -45 -113 -45c-34.667 0 -72 16 -112 48z" />
    <glyph glyph-name="Ugrave" unicode="&#xd9;" horiz-adv-x="736" 
d="M732 62l-12.999 18.001c-9.33301 -6 -18.333 -9 -27 -9c-9.33301 0 -16 3.66699 -20 11c-6.66699 11.333 -10 28.666 -10 51.999v352c0 55.333 11 96.666 33 123.999l16 17.5l12 12.5l-18 15l-47 -49l-94 70l-111 -116l15 -15l52 53l44 -35v-142
c-16.667 -10.667 -38 -17.334 -64 -20.001h-14c-30.667 3.33301 -57 14 -79 32v258l-14 -1c-8 -10 -17.667 -17.667 -29 -23c-18 -8.66699 -39.667 -13 -65 -13c-20 0 -51.333 7 -94 21c-44 14 -74.667 20.667 -92 20c-37.333 -2 -64.333 -17 -81 -45
c-21.333 -37.333 -32 -82.666 -32 -135.999v-7c0 -3.33301 0.333008 -5.66602 1 -6.99902l20 -1c0 74 26 111 78 111h15c4.66699 0 9.66699 -0.333008 15 -1c25.333 -2.66699 45.333 -4.66699 60 -6s24.667 -2 30 -2h16c8.66699 1.33301 15.667 2.16602 21 2.49902
s9 0.833008 11 1.5c-77.333 -51.333 -132.333 -97.666 -165 -138.999c-44.667 -56.667 -67 -123.334 -67 -200.001c0 -75.333 24 -139.333 72 -192c49.333 -55.333 110.666 -83 183.999 -83c42.667 0 81 5.66699 115 17c48.667 16.667 100.667 49.334 156 98.001
c0.666992 -30.667 6 -55.667 16 -75c10.667 -20.667 28.667 -38 54 -52zM385.001 636.001v-570.999h-13c-1.33301 -0.666992 -3.33301 -1 -6 -1h-13h-6c-50 2.66699 -92 16.667 -126 42c32.667 19.333 62 43 88 71c23.333 25.333 35 59.666 35 102.999v246
c0 44 13.667 80.667 41 110zM407.001 69.002l-0.000976562 200.999c24.667 15.333 49 23 73 23c24.667 0 52.667 -8 84 -24v-127c-55.333 -43.333 -107.666 -67.666 -156.999 -72.999zM200 126.001v-1c-46.667 50.667 -70 113.334 -70 188.001c0 66.667 20 127.667 60 183
c37.333 50 87 91.333 149 124l-42 -54c-10.667 -14 -17.667 -23.667 -21 -29c-19.333 -32.667 -29 -66.334 -29 -101.001v-178c0 -64.667 -15.667 -108.667 -47 -132zM407 297.001l0.000976562 108c20 -13.333 41.333 -21.333 64 -24c2 -0.666992 4.66699 -1 8 -1h6
c31.333 0 57.666 5.66699 78.999 17v-104c-27.333 14.667 -55.333 22 -84 22c-20 0 -44.333 -6 -73 -18zM463.001 740.001l-105 120h-87l35 -87z" />
    <glyph glyph-name="Uacute" unicode="&#xda;" horiz-adv-x="736" 
d="M732 62l-12.999 18.001c-9.33301 -6 -18.333 -9 -27 -9c-9.33301 0 -16 3.66699 -20 11c-6.66699 11.333 -10 28.666 -10 51.999v352c0 55.333 11 96.666 33 123.999l16 17.5l12 12.5l-18 15l-47 -49l-94 70l-111 -116l15 -15l52 53l44 -35v-142
c-16.667 -10.667 -38 -17.334 -64 -20.001h-14c-30.667 3.33301 -57 14 -79 32v258l-14 -1c-8 -10 -17.667 -17.667 -29 -23c-18 -8.66699 -39.667 -13 -65 -13c-20 0 -51.333 7 -94 21c-44 14 -74.667 20.667 -92 20c-37.333 -2 -64.333 -17 -81 -45
c-21.333 -37.333 -32 -82.666 -32 -135.999v-7c0 -3.33301 0.333008 -5.66602 1 -6.99902l20 -1c0 74 26 111 78 111h15c4.66699 0 9.66699 -0.333008 15 -1c25.333 -2.66699 45.333 -4.66699 60 -6s24.667 -2 30 -2h16c8.66699 1.33301 15.667 2.16602 21 2.49902
s9 0.833008 11 1.5c-77.333 -51.333 -132.333 -97.666 -165 -138.999c-44.667 -56.667 -67 -123.334 -67 -200.001c0 -75.333 24 -139.333 72 -192c49.333 -55.333 110.666 -83 183.999 -83c42.667 0 81 5.66699 115 17c48.667 16.667 100.667 49.334 156 98.001
c0.666992 -30.667 6 -55.667 16 -75c10.667 -20.667 28.667 -38 54 -52zM385.001 636.001v-570.999h-13c-1.33301 -0.666992 -3.33301 -1 -6 -1h-13h-6c-50 2.66699 -92 16.667 -126 42c32.667 19.333 62 43 88 71c23.333 25.333 35 59.666 35 102.999v246
c0 44 13.667 80.667 41 110zM407.001 69.002l-0.000976562 200.999c24.667 15.333 49 23 73 23c24.667 0 52.667 -8 84 -24v-127c-55.333 -43.333 -107.666 -67.666 -156.999 -72.999zM200 126.001v-1c-46.667 50.667 -70 113.334 -70 188.001c0 66.667 20 127.667 60 183
c37.333 50 87 91.333 149 124l-42 -54c-10.667 -14 -17.667 -23.667 -21 -29c-19.333 -32.667 -29 -66.334 -29 -101.001v-178c0 -64.667 -15.667 -108.667 -47 -132zM407 297.001l0.000976562 108c20 -13.333 41.333 -21.333 64 -24c2 -0.666992 4.66699 -1 8 -1h6
c31.333 0 57.666 5.66699 78.999 17v-104c-27.333 14.667 -55.333 22 -84 22c-20 0 -44.333 -6 -73 -18zM271.001 740.001l157 33l35 87h-87z" />
    <glyph glyph-name="Ucircumflex" unicode="&#xdb;" horiz-adv-x="736" 
d="M732 62l-12.999 18.001c-9.33301 -6 -18.333 -9 -27 -9c-9.33301 0 -16 3.66699 -20 11c-6.66699 11.333 -10 28.666 -10 51.999v352c0 55.333 11 96.666 33 123.999l16 17.5l12 12.5l-18 15l-47 -49l-94 70l-111 -116l15 -15l52 53l44 -35v-142
c-16.667 -10.667 -38 -17.334 -64 -20.001h-14c-30.667 3.33301 -57 14 -79 32v258l-14 -1c-8 -10 -17.667 -17.667 -29 -23c-18 -8.66699 -39.667 -13 -65 -13c-20 0 -51.333 7 -94 21c-44 14 -74.667 20.667 -92 20c-37.333 -2 -64.333 -17 -81 -45
c-21.333 -37.333 -32 -82.666 -32 -135.999v-7c0 -3.33301 0.333008 -5.66602 1 -6.99902l20 -1c0 74 26 111 78 111h15c4.66699 0 9.66699 -0.333008 15 -1c25.333 -2.66699 45.333 -4.66699 60 -6s24.667 -2 30 -2h16c8.66699 1.33301 15.667 2.16602 21 2.49902
s9 0.833008 11 1.5c-77.333 -51.333 -132.333 -97.666 -165 -138.999c-44.667 -56.667 -67 -123.334 -67 -200.001c0 -75.333 24 -139.333 72 -192c49.333 -55.333 110.666 -83 183.999 -83c42.667 0 81 5.66699 115 17c48.667 16.667 100.667 49.334 156 98.001
c0.666992 -30.667 6 -55.667 16 -75c10.667 -20.667 28.667 -38 54 -52zM385.001 636.001v-570.999h-13c-1.33301 -0.666992 -3.33301 -1 -6 -1h-13h-6c-50 2.66699 -92 16.667 -126 42c32.667 19.333 62 43 88 71c23.333 25.333 35 59.666 35 102.999v246
c0 44 13.667 80.667 41 110zM407.001 69.002l-0.000976562 200.999c24.667 15.333 49 23 73 23c24.667 0 52.667 -8 84 -24v-127c-55.333 -43.333 -107.666 -67.666 -156.999 -72.999zM200 126.001v-1c-46.667 50.667 -70 113.334 -70 188.001c0 66.667 20 127.667 60 183
c37.333 50 87 91.333 149 124l-42 -54c-10.667 -14 -17.667 -23.667 -21 -29c-19.333 -32.667 -29 -66.334 -29 -101.001v-178c0 -64.667 -15.667 -108.667 -47 -132zM407 297.001l0.000976562 108c20 -13.333 41.333 -21.333 64 -24c2 -0.666992 4.66699 -1 8 -1h6
c31.333 0 57.666 5.66699 78.999 17v-104c-27.333 14.667 -55.333 22 -84 22c-20 0 -44.333 -6 -73 -18zM213.001 722.001l22 -12l78 79l146 -79l63 65l-166 95z" />
    <glyph glyph-name="Udieresis" unicode="&#xdc;" horiz-adv-x="736" 
d="M732 62l-12.999 18.001c-9.33301 -6 -18.333 -9 -27 -9c-9.33301 0 -16 3.66699 -20 11c-6.66699 11.333 -10 28.666 -10 51.999v352c0 55.333 11 96.666 33 123.999l16 17.5l12 12.5l-18 15l-47 -49l-94 70l-111 -116l15 -15l52 53l44 -35v-142
c-16.667 -10.667 -38 -17.334 -64 -20.001h-14c-30.667 3.33301 -57 14 -79 32v258l-14 -1c-8 -10 -17.667 -17.667 -29 -23c-18 -8.66699 -39.667 -13 -65 -13c-20 0 -51.333 7 -94 21c-44 14 -74.667 20.667 -92 20c-37.333 -2 -64.333 -17 -81 -45
c-21.333 -37.333 -32 -82.666 -32 -135.999v-7c0 -3.33301 0.333008 -5.66602 1 -6.99902l20 -1c0 74 26 111 78 111h15c4.66699 0 9.66699 -0.333008 15 -1c25.333 -2.66699 45.333 -4.66699 60 -6s24.667 -2 30 -2h16c8.66699 1.33301 15.667 2.16602 21 2.49902
s9 0.833008 11 1.5c-77.333 -51.333 -132.333 -97.666 -165 -138.999c-44.667 -56.667 -67 -123.334 -67 -200.001c0 -75.333 24 -139.333 72 -192c49.333 -55.333 110.666 -83 183.999 -83c42.667 0 81 5.66699 115 17c48.667 16.667 100.667 49.334 156 98.001
c0.666992 -30.667 6 -55.667 16 -75c10.667 -20.667 28.667 -38 54 -52zM385.001 636.001v-570.999h-13c-1.33301 -0.666992 -3.33301 -1 -6 -1h-13h-6c-50 2.66699 -92 16.667 -126 42c32.667 19.333 62 43 88 71c23.333 25.333 35 59.666 35 102.999v246
c0 44 13.667 80.667 41 110zM407.001 69.002l-0.000976562 200.999c24.667 15.333 49 23 73 23c24.667 0 52.667 -8 84 -24v-127c-55.333 -43.333 -107.666 -67.666 -156.999 -72.999zM200 126.001v-1c-46.667 50.667 -70 113.334 -70 188.001c0 66.667 20 127.667 60 183
c37.333 50 87 91.333 149 124l-42 -54c-10.667 -14 -17.667 -23.667 -21 -29c-19.333 -32.667 -29 -66.334 -29 -101.001v-178c0 -64.667 -15.667 -108.667 -47 -132zM407 297.001l0.000976562 108c20 -13.333 41.333 -21.333 64 -24c2 -0.666992 4.66699 -1 8 -1h6
c31.333 0 57.666 5.66699 78.999 17v-104c-27.333 14.667 -55.333 22 -84 22c-20 0 -44.333 -6 -73 -18zM237.001 786.001l63 -63l62 63l-62 63zM422.001 786.001l63 -63l62 63l-62 63z" />
    <glyph glyph-name="Yacute" unicode="&#xdd;" horiz-adv-x="671" 
d="M30 625l-0.00390625 -0.999023c12.667 7.33301 24.667 11 36 11c52.667 0 83 -36 91 -108c0.666992 -6 1.16699 -13 1.5 -21s0.5 -17 0.5 -27v-37c-28.667 20.667 -57.667 31 -87 31c-14 0 -31 -4.66699 -51 -14l4 -17h4c2 0 3.33301 0.333008 4 1h7
c40 0 70.667 -15 92 -45c17.333 -26 26.333 -60.333 27 -103v-3v-3c-33.333 25.333 -66 38 -98 38h-9c-2.66699 0 -5.66699 -0.333008 -9 -1l-18 -2v-14c44.667 -4 78.667 -24 102 -60c20 -30 30.667 -69.333 32 -118v-1v-2c-44 0 -80.667 -11.333 -110 -34
c-33.333 -25.333 -49.666 -58.333 -48.999 -99c0 -39.333 16.333 -72 49 -98c32 -23.333 67.667 -34.666 107 -33.999c34 1.33301 79.333 17.333 136 48s95.334 46 116.001 46h4c1.33301 0 2.33301 -0.333008 3 -1c9.33301 -1.33301 14 -5.33301 14 -12
c0 -6 -1.33301 -9.33301 -4 -10c-8.66699 -13.333 -13 -25.333 -13 -36c0 -12.667 4 -23.334 12 -32.001s18.333 -13 31 -13c29.333 0 44 16.333 44 49c0 27.333 -14.667 49.666 -44 66.999c-24 14 -51.333 21 -82 21s-74.334 -11 -131.001 -33
c-57.333 -22 -99.333 -33 -126 -33c-25.333 0 -47.166 7.83301 -65.499 23.5s-27.5 35.5 -27.5 59.5c0 26.667 10.333 48 31 64c31.333 23.333 66 35 104 35c11.333 0 25.5 -0.166992 42.5 -0.5s37.167 -0.833008 60.5 -1.5s43.333 -1 60 -1h43
c189.333 0 284 105.333 284 316v3v3c-0.666992 58.667 -18.334 109.667 -53.001 153c-37.333 46 -84.666 69 -141.999 69c-32 0 -67 -8.66699 -105 -26c-9.33301 -4 -22 -10.5 -38 -19.5l-58 -33.5c-13.333 73.333 -57.666 110 -132.999 110
c-35.333 0 -68.666 -12.667 -99.999 -38zM251.996 130.001v410l45 27v-437h-45zM318.996 130.001v141c35.333 27.333 68.333 41 99 41c42.667 0 82.667 -15.667 120 -47c-30 -91.333 -103 -136.333 -219 -135zM318.996 298.001l0.000976562 136
c31.333 -26.667 68 -40 110 -40c36.667 0 74.667 15 114 45c4.66699 -16.667 7 -42.667 7 -78c0 -22 -2.33301 -45.667 -7 -71c-36.667 29.333 -77.334 44 -122.001 44c-33.333 0 -67.333 -12 -102 -36zM318.997 464.001v113.001c26 12.667 50 19 72 19
c36 0 67.667 -13.667 95 -41c24 -24.667 40.667 -55.334 50 -92.001c-31.333 -32 -68 -48 -110 -48c-36 0 -71.667 16.333 -107 49zM242.997 740.002l157 33l35 87h-87z" />
    <glyph glyph-name="germandbls" unicode="&#xdf;" horiz-adv-x="430" 
d="M197 55l-36.998 39.9961v481c26.667 -24.667 52 -46.667 76 -66s46.667 -36.666 68 -51.999l-137 -156l11 -13c27.333 15.333 50.333 23 69 23c20.667 0 37.334 -7.83301 50.001 -23.5s19 -33.834 19 -54.501c0 -36.667 -20.333 -77.667 -61 -123
c-0.666992 -2 -2.33398 -4.33301 -5.00098 -7l-6 -6c-32.667 -38.667 -49 -71.334 -49 -98.001c0 -10 2.16699 -19.5 6.5 -28.5s10.166 -17 17.499 -24s15.666 -12.5 24.999 -16.5s19 -6 29 -6h5c2 0 3.33301 0.333008 4 1c16 2 24 9 24 21c0 9.33301 -6 14 -18 14
c-3.33301 -0.666992 -7 -1.66699 -11 -3l-1 -1h-2c-6 -2 -10.667 -3 -14 -3c-26 0 -39 14.667 -39 44c0 27.333 23.667 59 71 95c7.33301 4.66699 13.5 8.83398 18.5 12.501s9.16699 6.83398 12.5 9.50098c68 48.667 102 96.334 102 143.001v2v1c-1.33301 34 -13 63 -35 87
c-22 26 -49 39 -81 39c-6.66699 0 -13.5 -0.166992 -20.5 -0.5s-14.167 -0.833008 -21.5 -1.5l122 139l-6 9h-6c-0.666992 -0.666992 -1.66699 -1 -3 -1h-4c-8.66699 0 -17.667 2.66699 -27 8c-18 10.667 -33 22 -45 34l-101 83l-24.5 -18l-28.5 -21
c-18.667 -11.333 -34.667 -21.666 -48 -30.999s-24.333 -17.666 -33 -24.999v-428c0 -36 -10.333 -58 -31 -66v-22c29.333 -12.667 56 -32 80 -58z" />
    <glyph glyph-name="agrave" unicode="&#xe0;" horiz-adv-x="408" 
d="M407 71l-10.0029 12c-1.33301 -1.33301 -2.66602 -2 -3.99902 -2l-1 -1l-2 -2c-12 -5.33301 -20 -8 -24 -8c-16 2 -24.333 15 -25 39v8v198v26c0 8 0.333008 15.667 1 23c0.666992 31.333 12.334 64.333 35.001 99l-13 8c-15.333 -14.667 -30.333 -22 -45 -22
c-33.333 0 -75 13 -125 39l-6 3l-4 2c-33.333 -28 -74 -42 -122 -42h-11c-0.666992 0 -1.33398 0.333008 -2.00098 1h-5c-2 0 -3 0.333008 -3 1l86 -154l-14 -16c-53.333 -59.333 -80 -116.333 -80 -171c0 -43.333 25.667 -84.666 77 -123.999l132 106
c4 -34.667 16.333 -63.334 37 -86.001c4.66699 -4.66699 8.83398 -8.5 12.501 -11.5s6.83398 -5.83301 9.50098 -8.5zM187.997 263l54 -23v-121l-64 -53c-41.333 38 -62 74.333 -62 109c0 20 4 46.667 12 80c4.66699 20 8 30 10 30zM241.997 379v-119l-95 41l-74 134z
M302.997 573l-105 120h-87l35 -87z" />
    <glyph glyph-name="aacute" unicode="&#xe1;" horiz-adv-x="408" 
d="M407 71l-10.0029 12c-1.33301 -1.33301 -2.66602 -2 -3.99902 -2l-1 -1l-2 -2c-12 -5.33301 -20 -8 -24 -8c-16 2 -24.333 15 -25 39v8v198v26c0 8 0.333008 15.667 1 23c0.666992 31.333 12.334 64.333 35.001 99l-13 8c-15.333 -14.667 -30.333 -22 -45 -22
c-33.333 0 -75 13 -125 39l-6 3l-4 2c-33.333 -28 -74 -42 -122 -42h-11c-0.666992 0 -1.33398 0.333008 -2.00098 1h-5c-2 0 -3 0.333008 -3 1l86 -154l-14 -16c-53.333 -59.333 -80 -116.333 -80 -171c0 -43.333 25.667 -84.666 77 -123.999l132 106
c4 -34.667 16.333 -63.334 37 -86.001c4.66699 -4.66699 8.83398 -8.5 12.501 -11.5s6.83398 -5.83301 9.50098 -8.5zM187.997 263l54 -23v-121l-64 -53c-41.333 38 -62 74.333 -62 109c0 20 4 46.667 12 80c4.66699 20 8 30 10 30zM241.997 379v-119l-95 41l-74 134z
M110.997 573l157 33l35 87h-87z" />
    <glyph glyph-name="acircumflex" unicode="&#xe2;" horiz-adv-x="408" 
d="M407 71l-10.0029 12c-1.33301 -1.33301 -2.66602 -2 -3.99902 -2l-1 -1l-2 -2c-12 -5.33301 -20 -8 -24 -8c-16 2 -24.333 15 -25 39v8v198v26c0 8 0.333008 15.667 1 23c0.666992 31.333 12.334 64.333 35.001 99l-13 8c-15.333 -14.667 -30.333 -22 -45 -22
c-33.333 0 -75 13 -125 39l-6 3l-4 2c-33.333 -28 -74 -42 -122 -42h-11c-0.666992 0 -1.33398 0.333008 -2.00098 1h-5c-2 0 -3 0.333008 -3 1l86 -154l-14 -16c-53.333 -59.333 -80 -116.333 -80 -171c0 -43.333 25.667 -84.666 77 -123.999l132 106
c4 -34.667 16.333 -63.334 37 -86.001c4.66699 -4.66699 8.83398 -8.5 12.501 -11.5s6.83398 -5.83301 9.50098 -8.5zM187.997 263l54 -23v-121l-64 -53c-41.333 38 -62 74.333 -62 109c0 20 4 46.667 12 80c4.66699 20 8 30 10 30zM241.997 379v-119l-95 41l-74 134z
M52.9971 566l22 -12l78 79l146 -79l63 65l-166 95z" />
    <glyph glyph-name="atilde" unicode="&#xe3;" horiz-adv-x="408" 
d="M407 71l-10.0029 12c-1.33301 -1.33301 -2.66602 -2 -3.99902 -2l-1 -1l-2 -2c-12 -5.33301 -20 -8 -24 -8c-16 2 -24.333 15 -25 39v8v198v26c0 8 0.333008 15.667 1 23c0.666992 31.333 12.334 64.333 35.001 99l-13 8c-15.333 -14.667 -30.333 -22 -45 -22
c-33.333 0 -75 13 -125 39l-6 3l-4 2c-33.333 -28 -74 -42 -122 -42h-11c-0.666992 0 -1.33398 0.333008 -2.00098 1h-5c-2 0 -3 0.333008 -3 1l86 -154l-14 -16c-53.333 -59.333 -80 -116.333 -80 -171c0 -43.333 25.667 -84.666 77 -123.999l132 106
c4 -34.667 16.333 -63.334 37 -86.001c4.66699 -4.66699 8.83398 -8.5 12.501 -11.5s6.83398 -5.83301 9.50098 -8.5zM187.997 263l54 -23v-121l-64 -53c-41.333 38 -62 74.333 -62 109c0 20 4 46.667 12 80c4.66699 20 8 30 10 30zM241.997 379v-119l-95 41l-74 134z
M36.9971 607l21 -15l49 39l132 -76l139 121l-21 16l-66 -58l-133 75z" />
    <glyph glyph-name="adieresis" unicode="&#xe4;" horiz-adv-x="408" 
d="M407 71l-10.0029 12c-1.33301 -1.33301 -2.66602 -2 -3.99902 -2l-1 -1l-2 -2c-12 -5.33301 -20 -8 -24 -8c-16 2 -24.333 15 -25 39v8v198v26c0 8 0.333008 15.667 1 23c0.666992 31.333 12.334 64.333 35.001 99l-13 8c-15.333 -14.667 -30.333 -22 -45 -22
c-33.333 0 -75 13 -125 39l-6 3l-4 2c-33.333 -28 -74 -42 -122 -42h-11c-0.666992 0 -1.33398 0.333008 -2.00098 1h-5c-2 0 -3 0.333008 -3 1l86 -154l-14 -16c-53.333 -59.333 -80 -116.333 -80 -171c0 -43.333 25.667 -84.666 77 -123.999l132 106
c4 -34.667 16.333 -63.334 37 -86.001c4.66699 -4.66699 8.83398 -8.5 12.501 -11.5s6.83398 -5.83301 9.50098 -8.5zM187.997 263l54 -23v-121l-64 -53c-41.333 38 -62 74.333 -62 109c0 20 4 46.667 12 80c4.66699 20 8 30 10 30zM241.997 379v-119l-95 41l-74 134z
M67.9971 632l63 -63l62 63l-62 63zM252.997 632l63 -63l62 63l-62 63z" />
    <glyph glyph-name="aring" unicode="&#xe5;" horiz-adv-x="408" 
d="M407 71l-10.0029 12c-1.33301 -1.33301 -2.66602 -2 -3.99902 -2l-1 -1l-2 -2c-12 -5.33301 -20 -8 -24 -8c-16 2 -24.333 15 -25 39v8v198v26c0 8 0.333008 15.667 1 23c0.666992 31.333 12.334 64.333 35.001 99l-13 8c-15.333 -14.667 -30.333 -22 -45 -22
c-33.333 0 -75 13 -125 39l-6 3l-4 2c-33.333 -28 -74 -42 -122 -42h-11c-0.666992 0 -1.33398 0.333008 -2.00098 1h-5c-2 0 -3 0.333008 -3 1l86 -154l-14 -16c-53.333 -59.333 -80 -116.333 -80 -171c0 -43.333 25.667 -84.666 77 -123.999l132 106
c4 -34.667 16.333 -63.334 37 -86.001c4.66699 -4.66699 8.83398 -8.5 12.501 -11.5s6.83398 -5.83301 9.50098 -8.5zM187.997 263l54 -23v-121l-64 -53c-41.333 38 -62 74.333 -62 109c0 20 4 46.667 12 80c4.66699 20 8 30 10 30zM241.997 379v-119l-95 41l-74 134z
M236.997 525v-1c18 0 38 14.667 60 44c22 28.667 33 53 33 73c0 50.667 -31 85.667 -93 105l-4 -2c-59.333 -30 -89 -68 -89 -114c0 -51.333 31 -86.333 93 -105zM266.997 567l0.00195312 -1c-8.66699 2 -14.334 4 -17.001 6c-46 18.667 -69 44.667 -69 78
c0 3.33301 0.666992 7.66602 2 12.999c4 16.667 11.333 30.334 22 41.001c19.333 0 38.666 -9.66699 57.999 -29s29 -39 29 -59s-8.33301 -36.333 -25 -49z" />
    <glyph glyph-name="ae" unicode="&#xe6;" horiz-adv-x="521" 
d="M236 43l0.000976562 -1c47.333 -12.667 88.666 -30.667 123.999 -54l143 100l-9 14l-72 -52c-27.333 20.667 -55.666 36 -84.999 46v95l177 152l-125 155l-84 -50c-37.333 2.66699 -80.333 17.667 -129 45c-30.667 -30.667 -65.334 -46 -104.001 -46h-17
c-3.33301 1.33301 -6.5 2.16602 -9.5 2.49902s-5.5 0.833008 -7.5 1.5l84 -156c-61.333 -61.333 -92 -120.666 -92 -177.999c0 -51.333 27.333 -94.333 82 -129zM239.001 194v-125l-54 -24c-49.333 38 -74 82.667 -74 134v9c0 30 8.33301 61.333 25 94zM239.001 376v-157
l-96 80l-74 131zM337.001 222v208l96 -124z" />
    <glyph glyph-name="ccedilla" unicode="&#xe7;" horiz-adv-x="307" 
d="M140 -57l167.002 135.999l-10 14l-43 -34l-86 39v304l83 -47l50 74l-116 63c-52 -49.333 -103.333 -81.333 -154 -96v-14c26 0 39 -16 39 -48v-204c0 -38 -9.33301 -63 -28 -75v-13c43.333 -6 87.666 -20 132.999 -42l-110 -88c11.333 0 24.666 -10 39.999 -30
c15.333 -21.333 23 -38 23 -50c0 -12.667 -5.66699 -28.334 -17 -47.001c0 -1.33301 -0.666992 -2.66602 -2 -3.99902l6 -5c47.333 23.333 71 54.333 71 93c0 18.667 -15.333 43.334 -46 74.001z" />
    <glyph glyph-name="egrave" unicode="&#xe8;" horiz-adv-x="356" 
d="M336 86l-9.99902 13.998l-71 -50c-22 12 -51 27 -87 45v92l181 150l-122 156c-25.333 -15.333 -54 -31.166 -86 -47.499s-68 -33.166 -108 -50.499l4 -11c22 0 33 -12.667 33 -38v-206v-11c-1.33301 -35.333 -12.333 -58 -33 -68v-11
c45.333 -8 96.666 -28.667 153.999 -62zM168.001 219.998v214l102 -131zM274.001 572.998l-105 120h-87l35 -87z" />
    <glyph glyph-name="eacute" unicode="&#xe9;" horiz-adv-x="356" 
d="M336 86l-9.99902 13.998l-71 -50c-22 12 -51 27 -87 45v92l181 150l-122 156c-25.333 -15.333 -54 -31.166 -86 -47.499s-68 -33.166 -108 -50.499l4 -11c22 0 33 -12.667 33 -38v-206v-11c-1.33301 -35.333 -12.333 -58 -33 -68v-11
c45.333 -8 96.666 -28.667 153.999 -62zM168.001 219.998v214l102 -131zM82.001 572.998l157 33l35 87h-87z" />
    <glyph glyph-name="ecircumflex" unicode="&#xea;" horiz-adv-x="358" 
d="M336 86l-9.99902 13.998l-71 -50c-22 12 -51 27 -87 45v92l181 150l-122 156c-25.333 -15.333 -54 -31.166 -86 -47.499s-68 -33.166 -108 -50.499l4 -11c22 0 33 -12.667 33 -38v-206v-11c-1.33301 -35.333 -12.333 -58 -33 -68v-11
c45.333 -8 96.666 -28.667 153.999 -62zM168.001 219.998v214l102 -131zM24.001 565.998l22 -12l78 79l146 -79l63 65l-166 95z" />
    <glyph glyph-name="edieresis" unicode="&#xeb;" horiz-adv-x="356" 
d="M336 86l-9.99902 13.998l-71 -50c-22 12 -51 27 -87 45v92l181 150l-122 156c-25.333 -15.333 -54 -31.166 -86 -47.499s-68 -33.166 -108 -50.499l4 -11c22 0 33 -12.667 33 -38v-206v-11c-1.33301 -35.333 -12.333 -58 -33 -68v-11
c45.333 -8 96.666 -28.667 153.999 -62zM168.001 219.998v214l102 -131zM23.001 631.998l63 -63l62 63l-62 63zM208.001 631.998l63 -63l62 63l-62 63z" />
    <glyph glyph-name="igrave" unicode="&#xec;" horiz-adv-x="244" 
d="M237 69l-12.001 17l-30 -25l-28 25v309l34 31l-83 68l-83 -65l35 -30v-256c0 -36 -10.667 -57.667 -32 -65v-10c14.667 -8.66699 29.834 -19.667 45.501 -33s32.167 -29 49.5 -47zM217.999 573l-105 120h-87l35 -87z" />
    <glyph glyph-name="iacute" unicode="&#xed;" horiz-adv-x="244" 
d="M237 69l-12.001 17l-30 -25l-28 25v309l34 31l-83 68l-83 -65l35 -30v-256c0 -36 -10.667 -57.667 -32 -65v-10c14.667 -8.66699 29.834 -19.667 45.501 -33s32.167 -29 49.5 -47zM25.999 573l157 33l35 87h-87z" />
    <glyph glyph-name="icircumflex" unicode="&#xee;" horiz-adv-x="244" 
d="M237 69l-12.001 17l-30 -25l-28 25v309l34 31l-83 68l-83 -65l35 -30v-256c0 -36 -10.667 -57.667 -32 -65v-10c14.667 -8.66699 29.834 -19.667 45.501 -33s32.167 -29 49.5 -47zM-32.001 566l22 -12l77 79l146 -79l63 65l-166 95z" />
    <glyph glyph-name="idieresis" unicode="&#xef;" horiz-adv-x="244" 
d="M237 69l-12.001 17l-30 -25l-28 25v309l34 31l-83 68l-83 -65l35 -30v-256c0 -36 -10.667 -57.667 -32 -65v-10c14.667 -8.66699 29.834 -19.667 45.501 -33s32.167 -29 49.5 -47zM-32.001 632l62 -63l62 63l-62 63zM151.999 632l63 -63l62 63l-62 63z" />
    <glyph glyph-name="ntilde" unicode="&#xf1;" horiz-adv-x="444" 
d="M12 419l12 -15.998c9.33301 6.66699 17.666 10 24.999 10c14 0 21.333 -11.333 22 -34v-3v-16c-0.666992 -0.666992 -1 -2 -1 -4v-260l-39 -36l85 -72l86 70l-34 36v274l69 57l39 -40v-251c0 -50 8.33301 -86.667 25 -110c7.33301 -8.66699 13.833 -16 19.5 -22
s10.834 -10.667 15.501 -14l105 84l-12 19l-8 -6v-1c-9.33301 -7.33301 -17 -11 -23 -11c-16 0 -24 16 -24 48v199c0 43.333 6.33301 74.666 19 93.999c6.66699 8.66699 12.667 16 18 22s10 11 14 15l-14 16l-47 -45l-72 72l-124 -103c0 23.333 -4.66699 42.666 -14 57.999
c-6.66699 10.667 -21 25.667 -43 45zM52 607.002l21 -15l49 39l132 -76l139 121l-21 16l-66 -58l-133 75z" />
    <glyph glyph-name="ograve" unicode="&#xf2;" horiz-adv-x="389" 
d="M349 66l-0.000976562 355c-57.333 15.333 -110 39.333 -158 72c-42 -38 -89 -65 -141 -81v-228c0 -10 -0.333008 -21 -1 -33s-1.66699 -25.333 -3 -40c-1.33301 -13.333 -9.33301 -25.333 -24 -36v-13c62.667 -5.33301 123.334 -30 182.001 -74
c9.33301 7.33301 20 14.5 32 21.5l38 21.5c7.33301 4 17.333 9 30 15s27.667 12.667 45 20zM146.999 416l104 -45v-303l-104 45v303zM289.999 573l-105 120h-87l35 -87z" />
    <glyph glyph-name="oacute" unicode="&#xf3;" horiz-adv-x="389" 
d="M349 66l-0.000976562 355c-57.333 15.333 -110 39.333 -158 72c-42 -38 -89 -65 -141 -81v-228c0 -10 -0.333008 -21 -1 -33s-1.66699 -25.333 -3 -40c-1.33301 -13.333 -9.33301 -25.333 -24 -36v-13c62.667 -5.33301 123.334 -30 182.001 -74
c9.33301 7.33301 20 14.5 32 21.5l38 21.5c7.33301 4 17.333 9 30 15s27.667 12.667 45 20zM146.999 416l104 -45v-303l-104 45v303zM97.999 573l157 33l35 87h-87z" />
    <glyph glyph-name="ocircumflex" unicode="&#xf4;" horiz-adv-x="389" 
d="M349 66l-0.000976562 355c-57.333 15.333 -110 39.333 -158 72c-42 -38 -89 -65 -141 -81v-228c0 -10 -0.333008 -21 -1 -33s-1.66699 -25.333 -3 -40c-1.33301 -13.333 -9.33301 -25.333 -24 -36v-13c62.667 -5.33301 123.334 -30 182.001 -74
c9.33301 7.33301 20 14.5 32 21.5l38 21.5c7.33301 4 17.333 9 30 15s27.667 12.667 45 20zM146.999 416l104 -45v-303l-104 45v303zM39.999 566l22 -12l78 79l146 -79l63 65l-166 95z" />
    <glyph glyph-name="otilde" unicode="&#xf5;" horiz-adv-x="389" 
d="M349 66l-0.000976562 355c-57.333 15.333 -110 39.333 -158 72c-42 -38 -89 -65 -141 -81v-228c0 -10 -0.333008 -21 -1 -33s-1.66699 -25.333 -3 -40c-1.33301 -13.333 -9.33301 -25.333 -24 -36v-13c62.667 -5.33301 123.334 -30 182.001 -74
c9.33301 7.33301 20 14.5 32 21.5l38 21.5c7.33301 4 17.333 9 30 15s27.667 12.667 45 20zM146.999 416l104 -45v-303l-104 45v303zM23.999 607l21 -15l49 39l132 -76l139 121l-21 16l-66 -58l-133 75z" />
    <glyph glyph-name="odieresis" unicode="&#xf6;" horiz-adv-x="389" 
d="M349 66l-0.000976562 355c-57.333 15.333 -110 39.333 -158 72c-42 -38 -89 -65 -141 -81v-228c0 -10 -0.333008 -21 -1 -33s-1.66699 -25.333 -3 -40c-1.33301 -13.333 -9.33301 -25.333 -24 -36v-13c62.667 -5.33301 123.334 -30 182.001 -74
c9.33301 7.33301 20 14.5 32 21.5l38 21.5c7.33301 4 17.333 9 30 15s27.667 12.667 45 20zM146.999 416l104 -45v-303l-104 45v303zM30.999 632l63 -63l62 63l-62 63zM215.999 632l63 -63l62 63l-62 63z" />
    <glyph glyph-name="divide" unicode="&#xf7;" horiz-adv-x="667" 
d="M334 693l-260 -360l260 -358l259 358zM334 604l197 -271l-197 -270l-197 270z" />
    <glyph glyph-name="oslash" unicode="&#xf8;" horiz-adv-x="384" 
d="M320 429l-0.000976562 -1.00195c-19.333 6 -39.666 14.5 -60.999 25.5s-44.333 24.167 -69 39.5c-34 -34 -80.333 -61 -139 -81v-253c0 -38 -11 -68 -33 -90l-7 -7c-16 -18 -24 -38 -24 -60c0 -23.333 11.333 -35 34 -35c21.333 0 32 10.667 32 32
c-1.33301 2.66699 -2.5 5.33398 -3.5 8.00098s-2.16699 5.33398 -3.5 8.00098c-4.66699 16 -7 25 -7 27c0 9.33301 5.66699 14 17 14h1h1c8 0 18 -1.66699 30 -5c34 -15.333 59 -27.333 75 -36c20.667 -11.333 34.334 -20.333 41.001 -27c28.667 24.667 67 47 115 67
c17.333 6.66699 26.666 10.667 27.999 12v340l74 87l-30 17zM146.999 113.998v62l103 120v-227zM146.999 227.998v187l103 -45v-22z" />
    <glyph glyph-name="ugrave" unicode="&#xf9;" horiz-adv-x="449" 
d="M16 404l13.002 -15.9971l20 16l21 -16v-264c0 -24.667 -9.33301 -40.334 -28 -47.001v-14c31.333 -12.667 67.666 -37.667 108.999 -75l131 118c0 -24.667 3 -44.334 9 -59.001c8.66699 -22.667 26 -42.334 52 -59.001l100 76l-15 16
c-6.66699 -6.66699 -14.334 -10 -23.001 -10c-17.333 0 -26 15 -26 45v277l33 29l-84 73l-81 -73l35 -29v-259l-70 -64l-44 35v288l33 29l-83 73zM321.002 573.003l-105 120h-87l35 -87z" />
    <glyph glyph-name="uacute" unicode="&#xfa;" horiz-adv-x="449" 
d="M16 404l13.002 -15.9971l20 16l21 -16v-264c0 -24.667 -9.33301 -40.334 -28 -47.001v-14c31.333 -12.667 67.666 -37.667 108.999 -75l131 118c0 -24.667 3 -44.334 9 -59.001c8.66699 -22.667 26 -42.334 52 -59.001l100 76l-15 16
c-6.66699 -6.66699 -14.334 -10 -23.001 -10c-17.333 0 -26 15 -26 45v277l33 29l-84 73l-81 -73l35 -29v-259l-70 -64l-44 35v288l33 29l-83 73zM129.002 573.003l157 33l35 87h-87z" />
    <glyph glyph-name="ucircumflex" unicode="&#xfb;" horiz-adv-x="449" 
d="M16 404l13.002 -15.9971l20 16l21 -16v-264c0 -24.667 -9.33301 -40.334 -28 -47.001v-14c31.333 -12.667 67.666 -37.667 108.999 -75l131 118c0 -24.667 3 -44.334 9 -59.001c8.66699 -22.667 26 -42.334 52 -59.001l100 76l-15 16
c-6.66699 -6.66699 -14.334 -10 -23.001 -10c-17.333 0 -26 15 -26 45v277l33 29l-84 73l-81 -73l35 -29v-259l-70 -64l-44 35v288l33 29l-83 73zM70.002 566.003l22 -12l78 79l146 -79l63 65l-166 95z" />
    <glyph glyph-name="udieresis" unicode="&#xfc;" horiz-adv-x="449" 
d="M16 404l13.002 -15.9971l20 16l21 -16v-264c0 -24.667 -9.33301 -40.334 -28 -47.001v-14c31.333 -12.667 67.666 -37.667 108.999 -75l131 118c0 -24.667 3 -44.334 9 -59.001c8.66699 -22.667 26 -42.334 52 -59.001l100 76l-15 16
c-6.66699 -6.66699 -14.334 -10 -23.001 -10c-17.333 0 -26 15 -26 45v277l33 29l-84 73l-81 -73l35 -29v-259l-70 -64l-44 35v288l33 29l-83 73zM75.002 632.003l63 -63l62 63l-62 63zM260.002 632.003l63 -63l62 63l-62 63z" />
    <glyph glyph-name="yacute" unicode="&#xfd;" horiz-adv-x="382" 
d="M4 409l13 -15l2 2l1 1c0.666992 0 1.33398 0.333008 2.00098 1c10 8 18.333 12 25 12c14.667 0 22.667 -12 24 -36v-3v-16c-0.666992 -0.666992 -1 -2 -1 -4v-245c0 -31.333 -10.667 -62.666 -32 -93.999s-32 -56.333 -32 -75c0 -27.333 10 -48 30 -62
c16.667 -12.667 39.667 -19 69 -19c16 0 34.667 2 56 6c44.667 8.66699 67 23 67 43c0 14 -6.66699 21 -20 21c-11.333 0 -25.333 -8.33301 -42 -25c-19.333 -16 -40.333 -24 -63 -24c-20 0 -37 5.16699 -51 15.5s-21 24.833 -21 43.5c0 18 6.66699 33.667 20 47
c17.333 13.333 32.666 24.333 45.999 33s24.666 15.667 33.999 21c38.667 23.333 71.334 44.333 98.001 63s47.667 35.667 63 51c53.333 52 80 109.667 80 173v9c0 3.33301 -0.333008 6 -1 8c-4 33.333 -10 60 -18 80c-10.667 24.667 -26 47.667 -46 69l-137 -110
c0 44.667 -15.333 78 -46 100c-5.33301 3.33301 -9.33301 6.16602 -12 8.49902s-4.66699 3.83301 -6 4.5zM169 355l68 53.001c25.333 -36.667 38 -77.334 38 -122.001v-6v-6c-2.66699 -36 -13.5 -71.167 -32.5 -105.5s-43.5 -61.5 -73.5 -81.5v268zM95 573.001l157 33l35 87
h-87z" />
    <glyph glyph-name="ydieresis" unicode="&#xff;" horiz-adv-x="382" 
d="M4 409l13 -15l2 2l1 1c0.666992 0 1.33398 0.333008 2.00098 1c10 8 18.333 12 25 12c14.667 0 22.667 -12 24 -36v-3v-16c-0.666992 -0.666992 -1 -2 -1 -4v-245c0 -31.333 -10.667 -62.666 -32 -93.999s-32 -56.333 -32 -75c0 -27.333 10 -48 30 -62
c16.667 -12.667 39.667 -19 69 -19c16 0 34.667 2 56 6c44.667 8.66699 67 23 67 43c0 14 -6.66699 21 -20 21c-11.333 0 -25.333 -8.33301 -42 -25c-19.333 -16 -40.333 -24 -63 -24c-20 0 -37 5.16699 -51 15.5s-21 24.833 -21 43.5c0 18 6.66699 33.667 20 47
c17.333 13.333 32.666 24.333 45.999 33s24.666 15.667 33.999 21c38.667 23.333 71.334 44.333 98.001 63s47.667 35.667 63 51c53.333 52 80 109.667 80 173v9c0 3.33301 -0.333008 6 -1 8c-4 33.333 -10 60 -18 80c-10.667 24.667 -26 47.667 -46 69l-137 -110
c0 44.667 -15.333 78 -46 100c-5.33301 3.33301 -9.33301 6.16602 -12 8.49902s-4.66699 3.83301 -6 4.5zM169 355l68 53.001c25.333 -36.667 38 -77.334 38 -122.001v-6v-6c-2.66699 -36 -13.5 -71.167 -32.5 -105.5s-43.5 -61.5 -73.5 -81.5v268zM36 631.001l63 -63l62 63
l-62 63zM221 631.001l63 -63l62 63l-62 63z" />
    <glyph glyph-name="OE" unicode="&#x152;" horiz-adv-x="1070" 
d="M643 544l0.000976562 -0.999023c-42 57.333 -107.333 96.333 -196 117c-24 4.66699 -42 8.66699 -54 12l-326 -194c-29.333 -72 -44 -136.333 -44 -193c0 -82.667 27 -152 81 -208c54.667 -56 123 -84 205 -84c87.333 0 183.666 51 288.999 153l6 6c2 2 3.66699 4 5 6
v-118c-4.66699 -3.33301 -9 -6.83301 -13 -10.5l-12 -10.5l-25 -22l12 -12c53.333 30.667 109.333 46 168 46c52.667 0 102 -9.33301 148 -28c6.66699 -1.33301 14.167 -4 22.5 -8l28.5 -14l125 115l-12 14l-45 -43c-49.333 31.333 -91.333 47 -126 47
c-37.333 0 -75.333 -7 -114 -21v242c32 -20 61.667 -30 89 -30c69.333 0 119.666 31.667 150.999 95l-14 12c-23.333 -20.667 -47.333 -31 -72 -31c-37.333 0 -70.333 15 -99 45l-55 -44v210l36 23c34.667 -40.667 73.334 -61 116.001 -61h6h4
c61.333 5.33301 104 31.666 128 78.999l-11 10c-19.333 -10 -38.333 -15 -57 -15c-52.667 0 -93.334 20 -122.001 60l-168 -117c-15.333 -10 -33.666 -19 -54.999 -27zM746.001 578.001v-494l-23.5 -11.5c-6.33301 -3 -11.833 -5.83301 -16.5 -8.5v487zM341.001 584.001
v-518c-63.333 6.66699 -117.666 33 -162.999 79l32 24c15.333 12 28.166 23.5 38.499 34.5s18.5 22.833 24.5 35.5s10.333 26.5 13 41.5s4 32.5 4 52.5v254h13c4 0 8.33301 -0.333008 13 -1zM363.001 67.001l0.000976562 178.999c30 34.667 66.667 52 110 52
c45.333 0 84.666 -19.667 117.999 -59c-17.333 -50 -46.333 -91 -87 -123c-44 -33.333 -91 -49.666 -141 -48.999zM197.002 530v-259c0 -29.333 -1.33301 -49 -4 -59c-5.33301 -19.333 -15.333 -36 -30 -50c-42 58 -63 117.667 -63 179c0 78 32.333 141 97 189zM363.002 277
v148.001c37.333 -29.333 75.666 -44 114.999 -44c38.667 0 78.334 14.667 119.001 44c9.33301 -24.667 14 -49 14 -73c0 -30.667 -4 -60.334 -12 -89.001c-41.333 37.333 -83.333 56 -126 56c-39.333 0 -76 -14 -110 -42zM363.002 448.001l0.000976562 133
c18 -2 30 -4.33301 36 -7c91.333 -22.667 154.666 -65 189.999 -127c-32.667 -30.667 -70 -46 -112 -46c-39.333 0 -77.333 15.667 -114 47z" />
    <glyph glyph-name="oe" unicode="&#x153;" horiz-adv-x="537" 
d="M278 34l0.000976562 -1c17.333 -7.33301 32.166 -14 44.499 -20l30.5 -15l18 -10l146 100l-10 15l-71 -50l-51 25c-14.667 7.33301 -26.667 13.666 -36 18.999v94l181 154l-122 159c-40 -25.333 -79.667 -47 -119 -65c-29.333 11.333 -62 29.333 -98 54
c-42 -38 -89 -65 -141 -81v-246c0 -3.33301 -0.333008 -9.66602 -1 -18.999s-1.66699 -21.333 -3 -36c-1.33301 -13.333 -9.33301 -25.333 -24 -36v-13c63.333 -5.33301 124 -30 182 -74l43 27zM251.001 371v-245.999v-4c-0.666992 -1.33301 -1 -3 -1 -5
c-4 -20.667 -9.33301 -34.334 -16 -41.001l-87 38v303zM349.001 225.001v218l101 -133z" />
    <glyph glyph-name="Scaron" unicode="&#x160;" horiz-adv-x="729" 
d="M287 680l-0.000976562 -1.00195c-116 -85.333 -174 -165.333 -174 -240c-56 -23.333 -84 -58.666 -84 -105.999c0 -34 12.667 -59 38 -75c32 -22 66.333 -33.333 103 -34c6.66699 -0.666992 13.334 -0.666992 20.001 0h68l-35 -62c-27.333 4 -54.333 6 -81 6
c-33.333 0 -62.333 -8 -87 -24c-30.667 -18 -45.667 -42.333 -45 -73c0.666992 -46 32.667 -73 96 -81c4 0 7.66699 -0.333008 11 -1h12c56 0 123.667 20 203 60c5.33301 -3.33301 11.5 -6.5 18.5 -9.5l22.5 -9.5c16 -10 38.667 -18.667 68 -26
c78 38.667 137 75.334 177 110.001c62.667 54 94 112.333 94 175c0 64 -31.333 111.333 -94 142c-40 19.333 -92 29 -156 29h-33c-0.666992 -0.666992 -2 -1 -4 -1s-3.33301 0.333008 -4 1l109 192l-18 12l-30 -53zM301.999 58.998v-1.00098
c-63.333 -32.667 -126 -49 -188 -49c-2.66699 0 -5 0.333008 -7 1h-7c-30 4.66699 -45 18.334 -45 41.001c0 12.667 5 22 15 28c15.333 9.33301 34 14 56 14c50 0 108.667 -11.333 176 -34zM334.999 312.997l36.0029 62.001c17.333 1.33301 34.833 2.33301 52.5 3
s35.167 1 52.5 1c44 0 81.667 -10.667 113 -32c36.667 -24.667 55 -58 55 -100c0 -60 -38.667 -117 -116 -171c-2 -0.666992 -4 -2 -6 -4c-5.33301 2.66699 -11 5.16699 -17 7.5s-12 4.83301 -18 7.5l-36 14l24 13c10 6 18.667 11 26 15c60 36 90 73.333 90 112
c0 40 -28 66 -84 78c-11.333 2.66699 -25.666 4 -42.999 4c-8 0 -22.333 -1 -43 -3c-2.66699 0 -6.33398 -0.333008 -11.001 -1s-8.33398 -1 -11.001 -1c-12.667 -2.66699 -24.334 -4.33398 -35.001 -5.00098s-20.334 -0.666992 -29.001 0zM247.002 158.998l37.999 65
c6.66699 0 12 1 16 3l103 11c18.667 2 35.334 3 50.001 3c13.333 0 25 -3 35 -9c12.667 -8 19 -18 19 -30c0 -13.333 -5.66699 -25.666 -17 -36.999l-43 -32c-12 -8.66699 -22.333 -15.667 -31 -21l-42 13.5c-14 4.33301 -28 8.16602 -42 11.499zM345.001 372.998
l-35.999 -64.001l-30 -2c-10 -0.666992 -20 -1.16699 -30 -1.5s-20.333 -0.5 -31 -0.5h-30c-24.667 0 -46.334 5 -65.001 15c-22.667 12.667 -34 30.334 -34 53.001c0 18 9 33.667 27 47c9.33301 -24 24 -39.667 44 -47c16 -5.33301 38.333 -8 67 -8
c19.333 0 38.833 0.666992 58.5 2s39.5 3.33301 59.5 6zM439.002 536.997l-46 -80.002c-16 -2 -30 -3.66699 -42 -5s-22 -2.33301 -30 -3h-25c-5.33301 -0.666992 -10 -1 -14 -1h-10h-6h-6c-56.667 2.66699 -85 25.334 -85 68.001c0 20.667 7.83301 38.334 23.5 53.001
s34.167 23 55.5 25h8c44.667 0 103.667 -19 177 -57zM520.002 857.995l-22 12l-78 -79l-146 79l-63 -65l166 -95z" />
    <glyph glyph-name="scaron" unicode="&#x161;" horiz-adv-x="403" 
d="M10 -1l13.002 -11c31.333 24.667 64.666 37 99.999 37c33.333 0 70.333 -12.333 111 -37c42.667 36.667 88.667 62.334 138 77.001v195l-102 59l84 116c25.333 35.333 39.666 63 42.999 83v9c0 28 -12 42 -36 42c-19.333 0 -29 -9.66699 -29 -29
c0 -10.667 3.66699 -19.667 11 -27c0 -0.666992 0.333008 -1 1 -1c6.66699 -6.66699 10 -14.334 10 -23.001c0 -10.667 -6 -19 -18 -25c-8.66699 -4.66699 -19 -7 -31 -7c-38.667 0 -82 12 -130 36c-29.333 -29.333 -48.333 -47.333 -57 -54
c-18 -12.667 -42.667 -23.667 -74 -33v-177l93 -51zM271.002 207v-135.999c-34 18.667 -61.667 28.334 -83 29.001c-1.33301 0.666992 -3.33301 1 -6 1h-6h-13c-3.33301 -0.666992 -6 -1 -8 -1h-5c-3.33301 -0.666992 -6.33301 -1.33398 -9 -2.00098
s-5.66699 -1.33398 -9 -2.00098l-25 -7l106 150zM142.002 282.001v133c18 -11.333 39.333 -20.333 64 -27c6.66699 -1.33301 13.167 -2.5 19.5 -3.5s13.166 -1.5 20.499 -1.5h11c10.667 0 20.334 1.33301 29.001 4l-95 -133zM333.002 702.001l-22 12l-78 -79l-146 79
l-63 -65l166 -95z" />
    <glyph glyph-name="Ydieresis" unicode="&#x178;" horiz-adv-x="671" 
d="M30 625l-0.00390625 -0.999023c12.667 7.33301 24.667 11 36 11c52.667 0 83 -36 91 -108c0.666992 -6 1.16699 -13 1.5 -21s0.5 -17 0.5 -27v-37c-28.667 20.667 -57.667 31 -87 31c-14 0 -31 -4.66699 -51 -14l4 -17h4c2 0 3.33301 0.333008 4 1h7
c40 0 70.667 -15 92 -45c17.333 -26 26.333 -60.333 27 -103v-3v-3c-33.333 25.333 -66 38 -98 38h-9c-2.66699 0 -5.66699 -0.333008 -9 -1l-18 -2v-14c44.667 -4 78.667 -24 102 -60c20 -30 30.667 -69.333 32 -118v-1v-2c-44 0 -80.667 -11.333 -110 -34
c-33.333 -25.333 -49.666 -58.333 -48.999 -99c0 -39.333 16.333 -72 49 -98c32 -23.333 67.667 -34.666 107 -33.999c34 1.33301 79.333 17.333 136 48s95.334 46 116.001 46h4c1.33301 0 2.33301 -0.333008 3 -1c9.33301 -1.33301 14 -5.33301 14 -12
c0 -6 -1.33301 -9.33301 -4 -10c-8.66699 -13.333 -13 -25.333 -13 -36c0 -12.667 4 -23.334 12 -32.001s18.333 -13 31 -13c29.333 0 44 16.333 44 49c0 27.333 -14.667 49.666 -44 66.999c-24 14 -51.333 21 -82 21s-74.334 -11 -131.001 -33
c-57.333 -22 -99.333 -33 -126 -33c-25.333 0 -47.166 7.83301 -65.499 23.5s-27.5 35.5 -27.5 59.5c0 26.667 10.333 48 31 64c31.333 23.333 66 35 104 35c11.333 0 25.5 -0.166992 42.5 -0.5s37.167 -0.833008 60.5 -1.5s43.333 -1 60 -1h43
c189.333 0 284 105.333 284 316v3v3c-0.666992 58.667 -18.334 109.667 -53.001 153c-37.333 46 -84.666 69 -141.999 69c-32 0 -67 -8.66699 -105 -26c-9.33301 -4 -22 -10.5 -38 -19.5l-58 -33.5c-13.333 73.333 -57.666 110 -132.999 110
c-35.333 0 -68.666 -12.667 -99.999 -38zM251.996 130.001v410l45 27v-437h-45zM318.996 130.001v141c35.333 27.333 68.333 41 99 41c42.667 0 82.667 -15.667 120 -47c-30 -91.333 -103 -136.333 -219 -135zM318.996 298.001l0.000976562 136
c31.333 -26.667 68 -40 110 -40c36.667 0 74.667 15 114 45c4.66699 -16.667 7 -42.667 7 -78c0 -22 -2.33301 -45.667 -7 -71c-36.667 29.333 -77.334 44 -122.001 44c-33.333 0 -67.333 -12 -102 -36zM318.997 464.001v113.001c26 12.667 50 19 72 19
c36 0 67.667 -13.667 95 -41c24 -24.667 40.667 -55.334 50 -92.001c-31.333 -32 -68 -48 -110 -48c-36 0 -71.667 16.333 -107 49zM183.997 786.002l63 -63l62 63l-62 63zM368.997 786.002l63 -63l62 63l-62 63z" />
    <glyph glyph-name="florin" unicode="&#x192;" horiz-adv-x="591" 
d="M473 447h-103.002l16 93c6 34.667 14 59.667 24 75c14 20.667 36.667 31 68 31c5.33301 0 10.833 -0.166992 16.5 -0.5s11.5 -0.833008 17.5 -1.5c2 -1.33301 4 -1.33301 6 0l13 70c-3.33301 0 -8.33301 0.666992 -15 2l-22 2c-4 0.666992 -8 1 -12 1h-12
c-78.667 0 -128.334 -21 -149.001 -63c-14.667 -30 -26.334 -64 -35.001 -102c-2.66699 -11.333 -5.66699 -26 -9 -44s-6.66602 -39 -9.99902 -63h-101l-11 -63h100l-57 -324l-10 -46.5l-10 -46.5c-10.667 -36.667 -34 -55 -70 -55h-10c-4.66699 0 -8 0.333008 -10 1
c-3.33301 0 -6.66602 0.166992 -9.99902 0.5s-6.66602 0.833008 -9.99902 1.5l-12 -71c11.333 -1.33301 22 -2.5 32 -3.5s19 -1.5 27 -1.5c60.667 0 104.334 16.333 131.001 49c20.667 24.667 36.667 69.667 48 135l64 361h105z" />
    <glyph glyph-name="circumflex" unicode="&#x2c6;" 
d="M96 566l22 -12l78 79l146 -79l63 65l-166 95z" />
    <glyph glyph-name="tilde" unicode="&#x2dc;" 
d="M80 607l21 -15l49 39l132 -76l139 121l-21 16l-66 -58l-133 75z" />
    <glyph glyph-name="endash" unicode="&#x2013;" horiz-adv-x="444" 
d="M49 293v-1c-10 -28 -22 -54.333 -36 -79h396c6 15.333 12 29.833 18 43.5l17 37.5z" />
    <glyph glyph-name="emdash" unicode="&#x2014;" horiz-adv-x="575" 
d="M49 293v-1c-10 -28 -22 -54.333 -36 -79l514 -1c6 15.333 12 29.833 18 43.5l17 37.5h-513z" />
    <glyph glyph-name="quoteleft" unicode="&#x2018;" 
d="M250 213v-1.00098c-12.667 0 -23.5 -4.33301 -32.5 -13s-13.5 -19.334 -13.5 -32.001s4.5 -23.5 13.5 -32.5s19.833 -13.5 32.5 -13.5s23.5 4.5 32.5 13.5s13.5 19.833 13.5 32.5s-4.5 23.334 -13.5 32.001s-19.833 13.334 -32.5 14.001zM18 373.999v-53h464v53h-464z
M250 572.999l0.000976562 -1.00098c-12.667 0 -23.334 -4.5 -32.001 -13.5s-13 -19.833 -13 -32.5c0 -12 4.5 -22.5 13.5 -31.5s19.5 -13.5 31.5 -13.5c12.667 0 23.5 4.33301 32.5 13s13.5 19.334 13.5 32.001s-4.5 23.5 -13.5 32.5s-19.833 13.833 -32.5 14.5z" />
    <glyph glyph-name="quoteright" unicode="&#x2019;" horiz-adv-x="194" 
d="M161 617l-65 63.001l-63 -66c2 -2.66699 4.66699 -5.66699 8 -9l3 -2c19.333 -20.667 29 -38.334 29 -53.001c0 -15.333 -10.667 -32.666 -32 -51.999c-3.33301 -3.33301 -6 -5.33301 -8 -6l8 -20c63.333 23.333 103.333 71.666 120 144.999z" />
    <glyph glyph-name="quotesinglbase" unicode="&#x201a;" horiz-adv-x="238" 
d="M162 60l-65 62.998l-63 -66c2 -2.66699 4.66699 -5.66699 8 -9l3 -2c19.333 -20.667 29 -37.667 29 -51c0 -15.333 -10.667 -32.666 -32 -51.999c-4 -4 -6.66699 -6.33301 -8 -7l8 -19c62.667 22.667 102.667 70.334 120 143.001z" />
    <glyph glyph-name="quotedblleft" unicode="&#x201c;" horiz-adv-x="348" 
d="M34 536l65 -62.999l63 64c-4.66699 2 -9.5 5.5 -14.5 10.5s-9.5 10.667 -13.5 17s-7.16699 12.666 -9.5 18.999s-3.5 12.166 -3.5 17.499c0 18.667 11.333 36.334 34 53.001l7 7l-8 18c-63.333 -25.333 -103.333 -73 -120 -143zM187 536.001l65 -63l63 64l-8 8
c-21.333 21.333 -32 40 -32 56c0 16.667 11.667 35 35 55l5 5l-8 18c-63.333 -25.333 -103.333 -73 -120 -143z" />
    <glyph glyph-name="quotedblright" unicode="&#x201d;" horiz-adv-x="348" 
d="M162 617l-65 63.001l-63 -66c2 -2.66699 4.66699 -5.66699 8 -9l3 -2c19.333 -20.667 29 -38.334 29 -53.001c0 -15.333 -10.667 -32.666 -32 -51.999c-3.33301 -3.33301 -6 -5.33301 -8 -6l8 -20c63.333 23.333 103.333 71.666 120 144.999zM315 617.001l-65 63.001
l-63 -66l8 -8c21.333 -21.333 32 -40 32 -56c0 -16.667 -11.667 -35 -35 -55c-2 -2 -3.66699 -3 -5 -3l8 -20c63.333 23.333 103.333 71.666 120 144.999z" />
    <glyph glyph-name="quotedblbase" unicode="&#x201e;" horiz-adv-x="348" 
d="M162 60l-65 62.998l-63 -66c2 -2.66699 4.66699 -5.66699 8 -9l3 -2c19.333 -20.667 29 -37.667 29 -51c0 -15.333 -10.667 -32.666 -32 -51.999c-4 -4 -6.66699 -6.33301 -8 -7l8 -19c62.667 22.667 102.667 70.334 120 143.001zM315 59.998l-65 62.999l-63 -66l8 -8
c21.333 -21.333 32 -39.333 32 -54c0 -11.333 -3.66699 -21.666 -11 -30.999l-17 -17c-4.66699 -4.66699 -8.66699 -8.33398 -12 -11.001l8 -19c62.667 22.667 102.667 70.334 120 143.001z" />
    <glyph glyph-name="dagger" unicode="&#x2020;" horiz-adv-x="580" 
d="M520 465h-181v201h-97v-201h-181v-85h181v-541h97v541h181v85z" />
    <glyph glyph-name="daggerdbl" unicode="&#x2021;" horiz-adv-x="580" 
d="M519 486h-181v180h-96v-180h-181v-83h181v-301h-181v-82h181v-181h96v181h181v82h-181v301h181v83z" />
    <glyph glyph-name="bullet" unicode="&#x2022;" horiz-adv-x="600" 
d="M198 286v-0.999023c0 -26.667 9.33301 -49.334 28 -68.001s41.334 -28 68.001 -28c28 0 51.333 9 70 27s28 41 28 69s-9.33301 51 -28 69s-42 27 -70 27c-26.667 0 -49.334 -9.16699 -68.001 -27.5s-28 -40.833 -28 -67.5z" />
    <glyph glyph-name="ellipsis" unicode="&#x2026;" horiz-adv-x="721" 
d="M48 59l72 -71l72 71l-72 72zM288 59l72 -71l73 71l-73 72zM529 59l72 -71l72 71l-72 72z" />
    <glyph glyph-name="perthousand" unicode="&#x2030;" horiz-adv-x="770" 
d="M379 -12c32.667 16 58.333 40.167 77 72.5s28 67.5 28 105.5c0 32.667 -11 62.667 -33 90c-22 26 -48.333 44.333 -79 55c-70.667 -46.667 -106 -103.667 -106 -171c0 -71.333 37.667 -122 113 -152zM415.999 45v-1c-30 10 -54.667 26.667 -74 50s-29 50 -29 80
c0 27.333 7 53 21 77c68.667 -22.667 103 -68 103 -136c0 -28.667 -7 -52 -21 -70zM630.999 -12c32.667 16 58.333 40.167 77 72.5s28 67.5 28 105.5c0 32.667 -11 62.667 -33 90c-22 26 -48.333 44.333 -79 55c-70.667 -46.667 -106 -103.667 -106 -171
c0 -71.333 37.667 -122 113 -152zM667.998 45v-0.999023c-30 10 -54.5 26.667 -73.5 50s-28.5 50 -28.5 80c0 27.333 7 53 21 77c68.667 -22.667 103 -68 103 -136v-11c-2.66699 -24.667 -10 -44.334 -22 -59.001zM81.998 10.001l32 -16l322 624l-32 16zM145.998 316.001
l-0.000976562 -1.00195c32.667 17.333 58.334 42 77.001 74s28 67 28 105c0 32.667 -10.667 62.334 -32 89.001s-48 45.334 -80 56.001c-70.667 -46 -106 -103 -106 -171c0 -72 37.667 -122.667 113 -152zM182.997 372.999l0.00292969 -1.00098
c-28.667 10 -52.834 26.833 -72.501 50.5s-29.5 50.5 -29.5 80.5v8c0 3.33301 0.333008 6 1 8c1.33301 10.667 3.66602 21 6.99902 31s7.66602 19.667 12.999 29c68.667 -22.667 103 -68 103 -136c0 -27.333 -7.33301 -50.666 -22 -69.999z" />
    <glyph glyph-name="guilsinglleft" unicode="&#x2039;" horiz-adv-x="286" 
d="M229 115l-123 173l127 155l-28 25l-172 -215l139 -195z" />
    <glyph glyph-name="guilsinglright" unicode="&#x203a;" horiz-adv-x="286" 
d="M56 411l124 -174l-127 -154l27 -25l173 215l-140 195z" />
    <glyph glyph-name="trademark" unicode="&#x2122;" horiz-adv-x="977" 
d="M972 314l-15.002 16.0029l-19 -15c-9.33301 5.33301 -14 16 -14 32v209c0 5.33301 0.166992 10.5 0.5 15.5s0.833008 10.167 1.5 15.5c0.666992 8 3.33398 15.667 8.00098 23c1.33301 1.33301 3.16602 3.66602 5.49902 6.99902s5.16602 7.66602 8.49902 12.999
c1.33301 1.33301 2.5 2.66602 3.5 3.99902s2.16699 3 3.5 5l-16 12l-26 -23l-63 48l-101 -69l-1 1c-0.666992 24.667 -15 45.667 -43 63c-1.33301 0 -2.66602 0.666992 -3.99902 2c-31.333 -18 -55.333 -31 -72 -39c-40 -20.667 -69 -42 -87 -64
c-20.667 -26 -31.667 -59.667 -33 -101c-36.667 -6 -62 -22.667 -76 -50l16 -13l2 2c0.666992 0.666992 1 1.33398 1 2.00098c8.66699 10.667 18.334 16 29.001 16c24.667 0 41.667 -17 51 -51c3.33301 -10 5 -19.667 5 -29c0 -18 -5 -31.333 -15 -40
c-6 -6 -19.333 -11.667 -40 -17l-1 -1h-1c-20 -6 -34.333 -12.667 -43 -20c-10 -10 -15 -25 -15 -45v-5c0 -2.66699 0.333008 -4.33398 1 -5.00098l19 -1c2.66699 16.667 11.334 25 26.001 25h12c3.33301 -0.666992 7.33301 -1 12 -1c4 -0.666992 8 -1.16699 12 -1.5
s8 -0.5 12 -0.5c64 0 96 35 96 105v108h69v-78c0 -16 -2.66699 -26.667 -8 -32l-4 -4c-2 -2 -4.33301 -3.33301 -7 -4v-11c25.333 -16.667 48 -37 68 -61l106 90l-15 14l-17 -14v101l38 48h-38v125l11 7l37 -28v-250c0 -19.333 1.33301 -34 4 -44
c4.66699 -19.333 18.667 -35.333 42 -48zM541.998 288.003l-0.000976562 -0.999023c15.333 10 25 22.667 29 38c3.33301 11.333 5 27.666 5 48.999v145c0 30 6.66699 52.667 20 68c-3.33301 -16.667 -5 -34.667 -5 -54v-175c0 -25.333 -2 -42 -6 -50
c-7.33301 -13.333 -21.666 -20 -42.999 -20zM782.997 447.004l0.000976562 -116c-2.66699 -4.66699 -7 -7 -13 -7c-12.667 0 -19.334 10.333 -20.001 31v6v86h33zM680.998 496.004h-50l-19 -26v63c0 22 1.33301 38.333 4 49c3.33301 15.333 17 30 41 44
c16 -9.33301 24 -26 24 -50v-80zM749.998 496.004v88l33 23v-111h-33zM289.998 325.004v267h10c0.666992 -0.666992 2.33398 -1 5.00098 -1h5c28.667 0 52.667 7.66699 72 23s30.333 37 33 65l-15 4c-14 -22 -35 -33 -63 -33c-19.333 0 -50.333 3.66699 -93 11
s-73.667 11 -93 11c-87.333 0 -141 -42 -161 -126l15 -8c14 29.333 30.667 49.333 50 60s46 16 80 16c-27.333 -13.333 -50.666 -34 -69.999 -62c-26 -37.333 -39 -75 -39 -113c0 -51.333 19.333 -94 58 -128c37.333 -33.333 81.666 -50 132.999 -50
c47.333 0 89.666 13.667 126.999 41c36.667 26.667 60.667 62.667 72 108l-16 3c-28 -48.667 -64.667 -78 -110 -88zM268.998 596.004l-0.000976562 -275c-0.666992 -0.666992 -2 -1 -4 -1h-4c-2 -0.666992 -4.66699 -1 -8 -1h-10c-29.333 0 -56.333 8 -81 24h2l24 18
c18.667 14 31.334 27.667 38.001 41s10 32 10 56v144zM164.997 611.004l0.000976562 -199c0 -27.333 -7.33301 -46.333 -22 -57c-36 32 -54 70 -54 114v8c0 2.66699 0.333008 5.66699 1 9l2 17c11.333 51.333 35.666 87.333 72.999 108z" />
    <glyph glyph-name="minus" unicode="&#xe000;" horiz-adv-x="490" 
d="M111 293v-1c-10 -28 -22 -54.333 -36 -79l305 -1c6 15.333 12 29.833 18 43.5l17 37.5h-304z" />
    <glyph glyph-name="notequal" unicode="&#xe001;" 
d="M249 446h-231v-52h202l-51 -93h-151v-52h123l-49 -87l56 -36l67 123h267v52h-239l52 93h187v52h-158l49 91l-56 34z" />
    <glyph glyph-name="infinity" unicode="&#xe002;" horiz-adv-x="667" 
d="M336 292l-0.000976562 -1.00098c46 -70 99 -105 159 -105c46 0 83.167 13.833 111.5 41.5s42.5 64.5 42.5 110.5s-13.667 83.167 -41 111.5s-64 42.5 -110 42.5c-62 0 -117 -34.667 -165 -104c-47.333 69.333 -101.666 104 -162.999 104
c-42.667 0 -78.667 -14.667 -108 -44c-28.667 -28.667 -43 -65 -43 -109c0 -43.333 14.333 -79.666 43 -108.999c29.333 -29.333 65.333 -44 108 -44c60.667 0 116 35.333 166 106zM297.999 339.999l-0.000976562 -0.999023c-24 -32 -40 -51.667 -48 -59
c-21.333 -19.333 -43.666 -29 -66.999 -29c-25.333 0 -46.5 8.16699 -63.5 24.5s-25.5 37.166 -25.5 62.499c0 12 2.33301 23.5 7 34.5s11 20.5 19 28.5s17.5 14.333 28.5 19s22.5 7 34.5 7c38.667 -0.666992 75 -27.334 109 -80.001
c1.33301 -1.33301 2.5 -2.66602 3.5 -3.99902s1.83301 -2.33301 2.5 -3zM369.998 340l0.000976562 -1.00391c24 32 40 51.667 48 59c21.333 19.333 43.666 29 66.999 29c25.333 0 46.5 -8.16699 63.5 -24.5s25.5 -37.166 25.5 -62.499s-8.5 -46.666 -25.5 -63.999
s-38.167 -25.666 -63.5 -24.999c-38.667 0.666992 -75 27.334 -109 80.001c-3.33301 2.66699 -5.33301 5.66699 -6 9z" />
    <glyph glyph-name="lessequal" unicode="&#xe003;" 
d="M466 153h-433v-94h433v94zM466 614l-433 -171v-91l433 -171v100l-316 116l316 117v100z" />
    <glyph glyph-name="greaterequal" unicode="&#xe004;" 
d="M33 59h433v94h-433v-94zM33 181l433 171v91l-433 171v-100l317 -117l-316 -116z" />
    <glyph glyph-name="partialdiff" unicode="&#xe005;" horiz-adv-x="489" 
d="M489 -128l-440 851l-42 -22l439 -852z" />
    <glyph glyph-name="summation" unicode="&#xe006;" horiz-adv-x="667" 
d="M606 750h-572v-107l240 -375l-240 -409v-108h581v241h-96l-6 -148h-365l246 424l-247 388h357l10 -145h92v239z" />
    <glyph glyph-name="product" unicode="&#xe007;" horiz-adv-x="667" 
d="M24 750v-82h74v-835h-74v-82h235v82h-70v835h289v-835h-71v-82h236v82h-73v835h73v82h-619z" />
    <glyph glyph-name="pi" unicode="&#xe008;" horiz-adv-x="542" 
d="M67 0h99v403h212v-403h98v403h66v77h-541v-77h66v-403z" />
    <glyph glyph-name="integral" unicode="&#xe009;" 
d="M78 -238c16 -5.33301 34.667 -7.99902 56 -7.99902c62 0 106.667 16 134 48c24.667 28.667 37 75 37 139v29c-0.666992 3.33301 -1 8 -1 14v582v14c2.66699 48.667 21.667 73 57 73c12 0 25.667 -3 41 -9l19 95c-24 6.66699 -50.333 10 -79 10
c-57.333 0 -99.333 -22.333 -126 -67c-13.333 -22.667 -20 -53.667 -20 -93v-51c-0.666992 -2.66699 -1 -5.33398 -1 -8.00098v-8v-591c0 -26.667 -2.66699 -46 -8 -58c-9.33301 -17.333 -25.666 -26 -48.999 -26c-14.667 0 -28.334 3.33301 -41.001 10z" />
    <glyph glyph-name="Omega" unicode="&#xe00a;" horiz-adv-x="734" 
d="M30 0l290.999 -0.000976562v81c-116 58.667 -174 147.667 -174 267v2v1c1.33301 64.667 21.666 120.334 60.999 167.001c42.667 50 95.334 75 158.001 75c65.333 0 118.333 -25.333 159 -76c36.667 -47.333 56.667 -104.333 60 -171v-14
c-2.66699 -54 -19.667 -102.833 -51 -146.5s-72 -78.167 -122 -103.5v-82h291v88l-180 -1c111.333 72 167 160.667 167 266c0 92.667 -30.667 170.667 -92 234s-138.333 95 -231 95c-93.333 0 -170.666 -31.667 -231.999 -95s-92 -141.333 -92 -234
c0 -110 55.333 -198.333 166 -265h-179v-88z" />
    <glyph glyph-name="radical" unicode="&#xe00b;" horiz-adv-x="667" 
d="M667 827h-259l-151 -538l-25 -105l-4 -16c-7.33301 -31.333 -12.333 -54.333 -15 -69l-5 -1c-3.33301 13.333 -5.33301 25 -6 35l-14 60c-4 17.333 -7 32 -9 44l-37 127h-142v-84h83l76 -280h114l210 742h184v85z" />
    <glyph glyph-name="approxequal" unicode="&#xe00c;" 
d="M63 159l-0.000976562 -1c30.667 42.667 60 63.667 88 63c14 -1.33301 29.333 -5.33301 46 -12c8 -2.66699 22.333 -9.66699 43 -21l42 -17c26 -10.667 46 -16 60 -16c66.667 0 116 40.667 148 122l-55 37c-21.333 -42 -48 -63 -80 -63
c-23.333 0 -55.666 10.667 -96.999 32l-43 17c-28.667 11.333 -49 17 -61 17c-62 0 -110.333 -40 -145 -120zM62.999 348l0.000976562 -1c30.667 42.667 60 63.667 88 63c13.333 -0.666992 28.666 -4.66699 45.999 -12l70 -35c28 -12.667 53 -19 75 -19
c63.333 0 112.666 40.667 147.999 122l-55 36c-28 -42 -54.667 -63 -80 -63c-23.333 0 -55.666 10.667 -96.999 32c-0.666992 0 -1 0.333008 -1 1l-2 1c-44 22 -77.667 33 -101 33c-62 0 -110.333 -40 -145 -120z" />
    <glyph glyph-name="Delta" unicode="&#xe00d;" horiz-adv-x="652" 
d="M1 0h650l-273 667h-105zM141 88l185 458l183 -458h-368z" />
    <glyph glyph-name="lozenge" unicode="&#xe00e;" horiz-adv-x="667" 
d="M334 693l-260 -360l260 -358l259 358zM334 604l197 -271l-197 -270l-197 270z" />
    <glyph glyph-name="DST" unicode="&#xe00f;" horiz-adv-x="1426" 
d="M1415 -37v837h-1404v-837h1404zM1390 562c0 -19.333 -7.33203 -36.001 -21.999 -50.001s-31.667 -21 -51 -21h-146c-23.333 0 -35 -15 -35 -45v-302c0 -20 6.33301 -34 19 -42v-56c-48 10.667 -72 39.334 -72 86.001v322c0 64 38.333 96 115 96c10.667 0 26.667 -1 48 -3
c11.333 -0.666992 21 -1.16699 29 -1.5s14.667 -0.5 20 -0.5c26.667 0 40 7 40 21c0 12.667 -13.667 19 -41 19c-5.33301 0 -12 -0.166992 -20 -0.5s-17.333 -0.833008 -28 -1.5s-19.834 -1.16699 -27.501 -1.5s-14.167 -0.5 -19.5 -0.5c-77.333 0 -116 29.333 -116 88v131
h57v-131c0 -23.333 12.333 -35 37 -35h148c18 0 33.333 -7 46 -21s19 -31 19 -51zM1003 135.999c0 -26 -7.83496 -47.167 -23.502 -63.5s-36.5 -24.5 -62.5 -24.5h-282c-20 0 -36.667 6.66699 -50 20s-20 30 -20 50c0 20.667 6 38 18 52s27.667 21 47 21h279v-53h-270
c-13.333 0 -20 -6 -20 -18c0 -14 7.33301 -21 22 -21h250c40.667 0 61 15 61 45v76c0 30 -15 45 -45 45h-250c-28 0 -50.333 8.33301 -67 25s-25 39 -25 67v89c0 30 8.83301 54.5 26.5 73.5s41.5 28.5 71.5 28.5h246c50.667 0 80.334 -25.333 89.001 -76h-50
c-13.333 14 -27.666 21 -42.999 21h-244c-27.333 0 -41 -14.333 -41 -43v-95c0 -24.667 13.667 -37 41 -37h246c30 0 53.5 -7.66699 70.5 -23s25.5 -37 25.5 -65v-94zM495.999 799.999l-1 -684c0 -20 -7.16699 -37.333 -21.5 -52s-31.5 -22 -51.5 -22
c-21.333 0 -38.666 7.33301 -51.999 22s-20 33 -20 55c0 41.333 -0.166992 76 -0.5 104s-0.833008 49.667 -1.5 65c-1.33301 6 -30.333 37 -87 93l-95 93c-9.33301 9.33301 -18.333 14 -27 14c-6.66699 0 -12.334 -2 -17.001 -6c-5.33301 -18 -8 -28.667 -8 -32v-310
c0 -28.667 11.667 -43 35 -43h81c8.66699 4 17 11 25 21h53c-9.33301 -48 -35 -72 -77 -72h-82c-58.667 0 -88 32 -88 96v330c0 20.667 8.66699 37.667 26 51c15.333 11.333 34 17 56 17s39.333 -6.33301 52 -19l179 -177c20.667 -20.667 31 -45.667 31 -75v-151
c0 -14 6.33301 -21 19 -21c4 0 8 2.5 12 7.5s6 9.5 6 13.5l-2 682h56z" />
    <glyph glyph-name="longs" unicode="&#xe010;" horiz-adv-x="239" 
d="M159 99l0.000976562 498l84 -22l16 78l-97 23c-18 -15.333 -35.5 -29.5 -52.5 -42.5l-48.5 -35.5v-438v-10v-10c-0.666992 -34 -11.334 -56.667 -32.001 -68v-12c42 -13.333 82 -37.333 120 -72l105 84l-14 13l-31 -25l-12 10l-12 10z" />
    <glyph glyph-name="delta" unicode="&#xe011;" 
d="M75 588l-0.000976562 -1.00098c68.667 -8 129.667 -28.333 183 -61c24 -14.667 42.333 -30.667 55 -48c4.66699 -5.33301 9.83398 -13.166 15.501 -23.499s12.167 -23.166 19.5 -38.499c1.33301 -2.66699 2.33301 -5 3 -7s1.33398 -3.66699 2.00098 -5l9.5 -20l7.5 -15
c-24 23.333 -45.333 39.666 -64 48.999c-21.333 10 -48 15 -80 15c-58.667 0 -107 -23.333 -145 -70c-35.333 -43.333 -53.333 -95.333 -54 -156v-1v-2c0 -61.333 23.333 -112.333 70 -153c47.333 -40 101.666 -59.667 162.999 -59c72 0.666992 129 32.334 171 95.001
c27.333 41.333 41 98.666 41 171.999v9v8c-4 118 -46.333 213.333 -127 286c-58 54 -144 89.667 -258 107zM250.999 357.999l0.000976562 -1c38.667 0 69.667 -13.667 93 -41c24 -27.333 36 -60.666 36 -99.999c0 -40 -12.333 -74.333 -37 -103
c-24 -28.667 -55.667 -43 -95 -43c-38.667 0 -70.334 15 -95.001 45c-24 28 -36 61.333 -36 100c0 38 12.667 71.333 38 100c26 27.333 58 41.666 96 42.999z" />
  </font>
</defs>
</svg>
